<?xml version="1.0" encoding="UTF-8"?>
<svg version="1.1" xmlns="http://www.w3.org/2000/svg" width="512" height="512">
<path d="M0 0 C1.08013453 -0.00445784 2.16026906 -0.00891569 3.27313495 -0.01350862 C4.46941052 -0.01332426 5.66568609 -0.01313989 6.89821243 -0.01294994 C8.16158912 -0.01662663 9.42496581 -0.02030332 10.72662663 -0.02409142 C14.24501371 -0.03412764 17.76338373 -0.03783082 21.2817831 -0.04048073 C25.07195323 -0.044379 28.86210979 -0.05395767 32.65227127 -0.0626936 C41.81134952 -0.08247168 50.97042889 -0.09252598 60.12952316 -0.10142139 C64.44029111 -0.10580214 68.75105782 -0.1111695 73.0618248 -0.11641026 C87.38775121 -0.13342398 101.71367685 -0.14791877 116.03961182 -0.155159 C119.75869371 -0.15706896 123.47777559 -0.15898928 127.19685745 -0.16094494 C128.12124317 -0.16142868 129.04562888 -0.16191242 129.99802628 -0.16241082 C144.97682576 -0.17071341 159.95554543 -0.19605355 174.93431005 -0.22852562 C190.30483263 -0.2615759 205.67531462 -0.27960592 221.04587293 -0.28280324 C229.67906341 -0.28497024 238.31213753 -0.29374652 246.94529343 -0.31926441 C254.29687862 -0.34094373 261.6483192 -0.34903554 268.99993274 -0.33929763 C272.75159667 -0.33474481 276.50296205 -0.33669565 280.25458527 -0.35605907 C284.32073875 -0.37686484 288.38622663 -0.36673164 292.45241165 -0.35352612 C293.63976434 -0.36449536 294.82711702 -0.37546461 296.05045009 -0.38676625 C302.31526287 -0.33747285 306.1889218 -0.12069708 310.92927933 4.13422108 C315.45338305 9.12633552 315.06806921 14.377479 315.02693558 20.83734608 C315.02481316 22.09403095 315.02481316 22.09403095 315.02264786 23.3761034 C315.0170613 26.04551265 315.00451127 28.71483728 314.99177933 31.38422108 C314.98676259 33.19671986 314.98219999 35.00921997 314.97810745 36.82172108 C314.96709627 41.25925356 314.94984087 45.69672298 314.92927933 50.13422108 C315.7433223 50.12044422 316.55736526 50.10666737 317.3960762 50.09247303 C319.005793 50.07640003 319.005793 50.07640003 320.64802933 50.06000233 C322.24034378 50.03933704 322.24034378 50.03933704 323.8648262 50.01825428 C329.364806 50.22638768 333.37183467 51.53579103 337.30427933 55.57172108 C339.78890742 59.48978845 341.18215543 62.11077002 341.15633011 66.81097889 C341.15617905 67.73163136 341.15602798 68.65228382 341.15587234 69.60083485 C341.14554977 70.58638355 341.1352272 71.57193226 341.12459183 72.58734608 C341.12034698 74.11038349 341.12034698 74.11038349 341.11601639 75.66418934 C341.10482934 78.90432024 341.07972724 82.14417384 341.05427933 85.38422108 C341.04424763 87.58213375 341.03512211 89.78005076 341.02693558 91.97797108 C341.00489484 97.36348222 340.97143184 102.74883183 340.92927933 108.13422108 C341.74912308 108.11464344 342.56896683 108.0950658 343.41365433 108.07489491 C345.0301387 108.05205433 345.0301387 108.05205433 346.67927933 108.02875233 C347.74662308 108.00917469 348.81396683 107.98959705 349.91365433 107.96942616 C355.43045039 108.27090262 358.45357282 110.57874665 362.24177933 114.57172108 C365.98723071 120.25925836 366.21811016 124.93799957 366.18997574 131.5719347 C366.19380129 132.52681912 366.19762683 133.48170353 366.20156831 134.46552384 C366.21189298 137.66748271 366.20790712 140.86926208 366.20393753 144.0712328 C366.20828431 146.36600377 366.21346734 148.6607733 366.2194252 150.95554066 C366.23283045 157.19106923 366.23339214 163.42653725 366.2308619 169.66207743 C366.22979318 174.86595083 366.23467307 180.06981194 366.23946732 185.27368271 C366.25120282 198.25212354 366.25033442 211.23052568 366.24391051 224.20896818 C366.23874226 235.47511149 366.24999441 246.74116832 366.26900873 258.00729452 C366.2883904 269.57995486 366.29635114 281.15256406 366.29288548 292.72524178 C366.2910713 299.22055557 366.29372235 305.71579015 366.30760002 312.21109104 C366.32016224 318.31945149 366.31824932 324.4276387 366.30518913 330.53599644 C366.30282027 332.77774075 366.30556907 335.0194972 366.31381226 337.26122761 C366.32425503 340.32186678 366.3161985 343.38192205 366.30350113 346.44254017 C366.31087541 347.32922158 366.3182497 348.21590299 366.32584745 349.12945354 C366.27209065 355.29071808 365.41475607 360.29851806 361.21052933 365.09515858 C360.62271683 365.5617992 360.03490433 366.02843983 359.42927933 366.50922108 C358.84146683 366.99133045 358.25365433 367.47343983 357.64802933 367.97015858 C353.84367061 370.54674698 349.98262255 370.27259635 345.58316422 370.25447559 C344.45225885 370.25575723 344.45225885 370.25575723 343.29850692 370.25706476 C340.76500671 370.25871561 338.23157229 370.25320462 335.69807816 370.24774647 C333.88485084 370.24746448 332.0716234 370.24762255 330.25839615 370.24818897 C325.32896899 370.24847651 320.39956603 370.24258673 315.47014451 370.23561502 C310.3211633 370.22937431 305.17218158 370.22877711 300.02319717 370.22758961 C290.26973432 370.22447841 280.51628264 370.21626786 270.76282471 370.20624012 C259.66018676 370.19507243 248.55754828 370.18956687 237.45490611 370.18454468 C214.6130241 370.17408509 191.77115281 370.15628888 168.92927933 370.13422108 C169.25927933 375.74422108 169.58927933 381.35422108 169.92927933 387.13422108 C171.20802933 385.85547108 172.48677933 384.57672108 173.80427933 383.25922108 C178.57607958 379.03426763 182.54748059 377.25793931 188.92927933 377.13422108 C194.35968717 377.63578628 198.76278887 379.63058138 202.92927933 383.13422108 C206.77888089 388.33638535 208.44378566 393.61402261 207.92927933 400.13422108 C205.85528394 408.16122788 201.0893607 412.7018452 195.29256058 418.43500233 C194.32879249 419.40214554 193.36576708 420.37002935 192.4034462 421.33861256 C190.39150882 423.35788842 188.3708934 425.36792927 186.34358597 427.37176991 C183.75879735 429.92807264 181.19711457 432.50617571 178.64155674 435.09166145 C176.6593361 437.09203721 174.66525126 439.0802444 172.66749001 441.06508923 C171.2606577 442.46701198 169.86380393 443.8789256 168.46719742 445.29103565 C162.84516145 450.81129677 158.29562728 454.71616281 150.17146683 455.34906483 C149.39029495 455.25754139 148.60912308 455.16601795 147.80427933 455.07172108 C147.0179512 454.99824451 146.23162308 454.92476795 145.42146683 454.84906483 C137.96016408 452.70891059 132.59872347 446.15826353 127.26131058 440.87250233 C126.3446814 439.96727329 125.42805222 439.06204426 124.48364639 438.12938404 C122.55094746 436.21759952 120.62286931 434.30127657 118.69710159 432.38251209 C116.24271594 429.93909848 113.77032084 427.51480546 111.29316044 425.09451485 C108.91513612 422.76294207 106.55855497 420.41007196 104.19881058 418.06000233 C103.31441803 417.20030338 102.43002548 416.34060444 101.51883316 415.45485401 C95.95751982 409.85289662 92.04200638 404.80360893 91.88028336 396.67006397 C92.17328644 390.82728486 94.14954522 386.75755071 98.45662308 382.69281483 C103.98132327 377.95156845 107.50685884 377.78988054 114.65974808 377.85297108 C121.77821728 378.46531251 124.87247488 382.07741663 129.92927933 387.13422108 C130.25927933 381.52422108 130.58927933 375.91422108 130.92927933 370.13422108 C127.49151581 370.14421383 127.49151581 370.14421383 123.98430252 370.15440845 C102.41231687 370.21568135 80.84034268 370.26034398 59.26828957 370.28965759 C48.17722387 370.30512935 37.08622202 370.32622482 25.9951973 370.36053944 C16.32875578 370.39043228 6.6623605 370.40979384 -3.00412595 370.41648656 C-8.12290569 370.420399 -13.24155316 370.4296003 -18.36029053 370.45141125 C-23.17831261 370.47177451 -27.99614795 370.47805517 -32.81420898 370.47354412 C-34.58228698 370.47436939 -36.35037123 370.48033599 -38.11841202 370.4918375 C-40.53378439 370.50677923 -42.94845311 370.50316877 -45.36384201 370.49498463 C-46.06229945 370.50372315 -46.76075689 370.51246168 -47.4803797 370.521465 C-52.07108315 370.47946575 -55.1699932 369.53703963 -59.07072067 367.13422108 C-65.39585159 360.52158421 -66.36869304 355.48559516 -66.33814621 346.70323658 C-66.34267732 345.74905773 -66.34720844 344.79487888 -66.35187685 343.81178552 C-66.36454442 340.61216738 -66.36289895 337.41271895 -66.36124802 334.2130785 C-66.3672318 331.9199295 -66.37403699 329.62678252 -66.38160324 327.33363819 C-66.39928591 321.10218014 -66.40395959 314.870777 -66.40523481 308.63929629 C-66.40713329 303.43800154 -66.41449026 298.2367196 -66.421579 293.03542978 C-66.43693864 281.46494785 -66.44291615 269.89449728 -66.4415683 258.32400664 C-66.44148839 257.62997848 -66.44140848 256.93595032 -66.44132614 256.220891 C-66.44124438 255.52601313 -66.44116262 254.83113527 -66.44107838 254.1152005 C-66.44026565 242.8561763 -66.45940074 231.59728593 -66.48760287 220.33830043 C-66.51634741 208.77128184 -66.52977622 197.20434578 -66.52841532 185.63728887 C-66.52790529 179.14582538 -66.53361138 172.65451333 -66.55477142 166.16308117 C-66.57413111 160.0571433 -66.57429352 153.95150169 -66.55973816 147.8455534 C-66.55764615 145.60583787 -66.56237419 143.36610392 -66.57445908 141.12642002 C-66.58990163 138.06598395 -66.58060929 135.00657064 -66.56519699 131.9461565 C-66.57548412 131.06238793 -66.58577124 130.17861936 -66.5963701 129.26806992 C-66.53155646 123.43360034 -65.35378646 119.01217831 -62.07072067 114.13422108 C-57.20385882 109.51070232 -53.51884225 107.86360974 -46.82072067 108.00922108 C-45.74306442 108.02726795 -44.66540817 108.04531483 -43.55509567 108.06390858 C-42.73525192 108.0871117 -41.91540817 108.11031483 -41.07072067 108.13422108 C-41.07960312 107.58822254 -41.08848557 107.04222401 -41.09763718 106.47968006 C-41.18650347 100.76909378 -41.2466168 95.05870566 -41.29044724 89.34759998 C-41.31049536 87.21958906 -41.33774121 85.09163275 -41.37247849 82.96381092 C-41.42129616 79.89547675 -41.44375794 76.82787435 -41.46134567 73.75922108 C-41.48199081 72.81619129 -41.50263596 71.87316151 -41.52390671 70.90155506 C-41.52593516 64.85675595 -40.64089252 60.12804402 -37.07072067 55.13422108 C-31.65062284 50.73039158 -27.65013774 49.99748828 -20.82072067 50.07172108 C-19.2042363 50.08525623 -19.2042363 50.08525623 -17.55509567 50.09906483 C-16.73525192 50.11066639 -15.91540817 50.12226795 -15.07072067 50.13422108 C-15.08643112 49.01974598 -15.10214157 47.90527088 -15.11832809 46.75702381 C-15.17286698 42.59922051 -15.20715747 38.44144847 -15.23551559 34.283391 C-15.25054783 32.4880894 -15.27097924 30.6928242 -15.29703903 28.89764881 C-15.33366853 26.30844581 -15.35050278 23.7197308 -15.36368942 21.13031483 C-15.37917328 20.33524021 -15.39465714 19.5401656 -15.4106102 18.72099781 C-15.4121837 13.44161693 -14.56115696 9.81550065 -12.07072067 5.13422108 C-7.97120652 1.33467138 -5.51215102 0.01051395 0 0 Z " fill="#030401" transform="translate(106.07072067260742,51.86577892303467)"/>
<path d="M0 0 C88.44 0 176.88 0 268 0 C269.98 4.95 271.96 9.9 274 15 C284.70532584 31.40332185 296.02071116 38.70186669 314 47 C314 79.34 314 111.68 314 145 C306.08 148.96 306.08 148.96 298 153 C284.50418147 161.85663091 275.00446548 172.95272614 269.38989258 188.22045898 C269.12735184 188.93113022 268.8648111 189.64180145 268.59431458 190.37400818 C268.39819077 190.91058548 268.20206696 191.44716278 268 192 C252.84893355 192.1636322 237.69790789 192.28701484 222.54615593 192.3626852 C215.5106131 192.39875694 208.47561977 192.44792061 201.44042969 192.52807617 C194.65175291 192.60538611 187.86364751 192.64598392 181.07455826 192.6641407 C178.48371517 192.67708074 175.89290354 192.70234988 173.30230331 192.7401104 C169.6746429 192.79088694 166.04934498 192.79792494 162.42138672 192.79467773 C161.34892197 192.81984467 160.27645721 192.8450116 159.17149353 192.87094116 C151.99025021 192.80133069 151.99025021 192.80133069 149.09509659 190.45851326 C147.52053833 188.57533264 147.52053833 188.57533264 146.27717781 186.69862461 C143.9377801 183.58726572 140.73402429 182.62673552 137 182 C130.62430429 181.77300155 125.95005103 182.75709912 121 187 C120.51674255 187.85969894 120.03348511 188.71939789 119.5355835 189.60514832 C115.47926212 193.43633277 111.18196233 192.65714291 105.80566406 192.56762695 C104.6639122 192.56835709 103.52216034 192.56908722 102.34580994 192.56983948 C98.56859986 192.56635361 94.7926199 192.527442 91.015625 192.48828125 C88.39817987 192.47895676 85.78072602 192.47183894 83.16326904 192.46684265 C76.9760205 192.4513072 70.78921412 192.41028348 64.60216022 192.3600952 C57.55752403 192.30419188 50.51286664 192.27671287 43.46806383 192.25161803 C28.97848121 192.19936689 14.48924679 192.11143081 0 192 C-0.34077072 191.17159103 -0.68154144 190.34318207 -1.03263855 189.4896698 C-1.48101578 188.40535172 -1.92939301 187.32103363 -2.39135742 186.20385742 C-2.83525314 185.12794846 -3.27914886 184.05203949 -3.73649597 182.94352722 C-10.80789376 166.46961703 -23.73822332 155.00305544 -40 148 C-41.98 147.34 -43.96 146.68 -46 146 C-46 113.33 -46 80.66 -46 47 C-40.39 44.36 -34.78 41.72 -29 39 C-25.66517192 36.69443985 -22.91377241 34.69330293 -20 32 C-19.31808594 31.39671875 -18.63617188 30.7934375 -17.93359375 30.171875 C-8.69280209 21.54479816 -4.57886707 11.90505439 0 0 Z " fill="#B1E16C" transform="translate(122,195)"/>
<path d="M0 0 C1.02699857 -0.00654048 1.02699857 -0.00654048 2.07474458 -0.0132131 C4.38595986 -0.02422591 6.69658558 -0.0137198 9.00779724 -0.00342751 C10.6746708 -0.0068817 12.34154208 -0.01164465 14.00840855 -0.01760924 C18.60213617 -0.03018169 23.19567784 -0.02392061 27.7894063 -0.01465058 C32.73834553 -0.00788589 37.68725191 -0.01832846 42.63618469 -0.02659035 C52.33638532 -0.03995753 62.03651646 -0.03703668 71.73671985 -0.02835242 C79.61754093 -0.021588 87.49834249 -0.02065377 95.37916565 -0.02392387 C96.49913895 -0.02438357 97.61911225 -0.02484327 98.77302414 -0.0253169 C101.04795035 -0.02627604 103.32287656 -0.02724868 105.59780276 -0.02823468 C126.94937546 -0.03679731 148.30090958 -0.02694074 169.65247595 -0.01083358 C187.98862777 0.00257039 206.32472262 0.00024254 224.66087341 -0.01358986 C245.93400861 -0.02963026 267.20710996 -0.03597326 288.48025036 -0.02675307 C290.74699083 -0.02579738 293.01373132 -0.02485427 295.2804718 -0.02392387 C296.39586525 -0.02346105 297.5112587 -0.02299822 298.66045195 -0.02252137 C306.53536671 -0.01992685 314.41026006 -0.0243124 322.28517151 -0.03136253 C331.87695834 -0.03976064 341.46867149 -0.03753308 351.06044984 -0.0215203 C355.95797804 -0.01361477 360.85538321 -0.01058467 365.75291061 -0.02046776 C370.2310578 -0.02936813 374.70896723 -0.02455928 379.18709266 -0.0085351 C380.81221145 -0.00516743 382.43735009 -0.00692554 384.06245625 -0.01416247 C386.26180725 -0.0232098 388.46033059 -0.01400638 390.65963745 0 C391.88412818 0.00048706 393.10861891 0.00097411 394.37021542 0.00147593 C397.32981873 0.37752342 397.32981873 0.37752342 399.22276068 1.65034145 C400.56058462 3.73755395 400.70744271 4.91952698 400.71292877 7.38995838 C400.72651373 8.61788975 400.72651373 8.61788975 400.74037313 9.87062782 C400.73238125 11.21915017 400.73238125 11.21915017 400.72422791 12.59491539 C400.73031901 13.55020765 400.73641011 14.50549992 400.74268579 15.48974043 C400.75939384 18.70497686 400.75452884 21.91982064 400.7497406 25.13509178 C400.75707638 27.43443783 400.76566116 29.73378019 400.77540588 32.03311729 C400.79768187 38.28923948 400.80054953 44.54523019 400.79865837 50.80138659 C400.79853895 56.01787607 400.80709125 61.2343374 400.81543589 66.45081908 C400.83579376 79.45790077 400.83681197 92.46490635 400.82962877 105.47199846 C400.82405244 116.77268693 400.84488101 128.07314875 400.87798923 139.37378424 C400.91170711 150.97236876 400.92642204 162.57083468 400.92227221 174.16946894 C400.9202001 180.68321909 400.92575515 187.19674356 400.95016479 193.71045303 C400.97235472 199.83447083 400.97061851 205.95801551 400.95023727 212.08203506 C400.94681353 214.3331037 400.95197455 216.58420371 400.96622086 218.83522987 C400.98429319 221.90176137 400.97175332 224.96666721 400.95127869 228.03314781 C400.96379653 228.92993199 400.97631438 229.82671616 400.98921156 230.75067562 C400.93103905 234.7973983 400.8644815 236.71842976 398.25802326 239.93148327 C394.70129673 241.68790749 391.7383464 241.92410935 387.85708618 241.85854149 C387.11369108 241.86195919 386.37029598 241.86537689 385.60437375 241.86889815 C383.11817361 241.87547676 380.63305774 241.85350243 378.1469574 241.83162498 C376.36299159 241.8304965 374.57902393 241.83113039 372.7950592 241.833395 C367.95443781 241.83454303 363.1142126 241.81101929 358.27368331 241.78309917 C353.2141532 241.75810037 348.15461408 241.75574472 343.09503174 241.75099754 C333.51509147 241.73856331 323.93533371 241.70573558 314.35547382 241.66559958 C303.44869876 241.62089586 292.54191501 241.59889834 281.63507116 241.57881784 C259.19988239 241.53700339 236.76486848 241.46583718 214.32981873 241.37752342 C214.32981873 236.42752342 214.32981873 231.47752342 214.32981873 226.37752342 C215.78450058 226.37165718 217.23918243 226.36579094 218.73794556 226.35974693 C232.43722496 226.30257013 246.13636274 226.23001224 259.83547497 226.14180851 C266.87857758 226.09685536 273.92162969 226.05743966 280.96482849 226.03108788 C287.7600562 226.00564828 294.55504992 225.96474035 301.35013771 225.91433716 C303.94447857 225.89763352 306.53885832 225.88614109 309.13324547 225.87990952 C312.76305652 225.87030676 316.39228826 225.84229194 320.0219574 225.80989647 C321.09801743 225.81133156 322.17407745 225.81276665 323.28274536 225.81424522 C330.34160106 225.8180655 330.34160106 225.8180655 336.32981873 222.37752342 C337.63637038 220.00328308 338.69149307 217.80429331 339.70481873 215.31502342 C347.69306237 197.10671957 360.24969341 185.64011531 378.51731873 178.19002342 C379.19149841 177.94896873 379.8656781 177.70791405 380.56028748 177.45955467 C383.24793545 175.8161143 383.99481723 174.25600602 385.32981873 171.37752342 C385.77096165 168.09364282 385.73965954 164.83531318 385.71800232 161.52596092 C385.72325928 160.53839806 385.72851624 159.55083519 385.7339325 158.53334618 C385.74712303 155.27291046 385.73839752 152.012964 385.72825623 148.75252342 C385.73027723 146.48478158 385.73318888 144.21704038 385.73695374 141.94930077 C385.74137582 137.19809846 385.7349496 132.44706542 385.72093201 127.6958828 C385.70384038 121.60597319 385.71368215 115.51646023 385.7316494 109.42656517 C385.74249024 104.74427362 385.73903947 100.0620761 385.73126602 95.37978172 C385.72926486 93.13429785 385.73172034 90.88880543 385.73870468 88.64333153 C385.74632389 85.50501963 385.73470781 82.36734999 385.71800232 79.22908592 C385.72711136 77.83717033 385.72711136 77.83717033 385.73640442 76.41713524 C385.68915217 71.62519418 385.56554371 68.19708536 382.32981873 64.37752342 C379.82969551 63.11442525 377.49805221 62.09779829 374.89231873 61.12752342 C359.83703659 55.02126859 348.76633895 44.85698759 341.32981873 30.37752342 C340.05166364 27.25272038 338.83300893 24.12458161 337.70091248 20.94392967 C335.91610134 17.60312934 334.81906732 16.91452285 331.32981873 15.37752342 C327.69912813 14.93385159 324.08986772 14.97306902 320.4360199 14.99657249 C319.32454936 14.99189252 318.21307882 14.98721255 317.06792736 14.98239076 C313.33609341 14.97040559 309.60462429 14.97991206 305.87278748 14.98933983 C303.20038273 14.98527569 300.5280033 14.98004342 297.85560608 14.97340965 C291.3460807 14.96006617 284.83665906 14.96295277 278.3271296 14.97164758 C273.03695082 14.9784213 267.74680113 14.97934219 262.45661926 14.97607613 C261.70384207 14.97561643 260.95106488 14.97515673 260.17547625 14.9746831 C258.64624857 14.97372393 257.1170209 14.97275129 255.58779323 14.97176532 C241.2464709 14.96320963 226.90520609 14.97304837 212.5638932 14.98916642 C200.25699842 15.00256978 187.95018853 15.00024173 175.64329529 14.98641014 C161.35347375 14.97035749 147.06370263 14.96403362 132.77387333 14.97324693 C131.25025496 14.97420258 129.72663658 14.9751457 128.20301819 14.97607613 C127.45335869 14.97653895 126.7036992 14.97700178 125.93132275 14.97747863 C120.64718077 14.98006947 115.36307075 14.97569551 110.07893372 14.96863747 C103.63977385 14.96022576 97.2007237 14.96249561 90.76157641 14.9784797 C87.47586782 14.98636695 84.19038013 14.98783296 80.9046669 14.97953224 C77.34413315 14.97136502 73.78411804 14.98158061 70.22361755 14.99657249 C69.18325442 14.98988033 68.14289129 14.98318816 67.07100201 14.97629321 C60.20162914 15.00644479 60.20162914 15.00644479 54.32981873 18.37752342 C53.08764826 20.17986727 53.08764826 20.17986727 52.37278748 22.25642967 C52.06929382 23.00811424 51.76580017 23.75979881 51.45310974 24.5342617 C51.14429871 25.32816307 50.83548767 26.12206444 50.51731873 26.94002342 C47.39600417 34.41367704 44.03723425 40.51732814 38.32981873 46.37752342 C37.66595154 47.08006248 37.00208435 47.78260155 36.31809998 48.50642967 C30.18019366 54.48549922 23.02413196 57.82838598 15.32981873 61.37752342 C10.01512752 63.46801889 10.01512752 63.46801889 6.32981873 67.37752342 C6.22764619 68.78509719 6.18608723 70.19731625 6.17591858 71.60855675 C6.16731812 72.49598061 6.15871765 73.38340446 6.14985657 74.29771996 C6.14559662 75.27385246 6.14133667 76.24998497 6.13694763 77.25569725 C6.12877014 78.28183632 6.12059265 79.30797539 6.11216736 80.36520958 C6.08729052 83.77165195 6.07079224 87.17805261 6.05638123 90.58455467 C6.05105755 91.74593138 6.04573387 92.90730808 6.04024887 94.10387802 C6.01350849 100.24985533 5.99413562 106.39581225 5.97972107 112.54183006 C5.96306297 118.89760431 5.91827735 125.25286106 5.86734962 131.60843945 C5.83373491 136.48887304 5.82214997 141.36918289 5.81649399 146.24972153 C5.80976653 148.59293324 5.794506 150.93613639 5.77060318 153.27923584 C5.7390713 156.55697819 5.7388973 159.83331251 5.74632263 163.111166 C5.7299173 164.08122581 5.71351196 165.05128563 5.6966095 166.0507412 C5.73909524 170.62636837 5.80784172 172.69674778 8.66413879 176.42200279 C11.69819139 178.64775854 14.55898617 179.9302552 18.07981873 181.25252342 C26.63718968 184.65687613 33.09290385 189.63491275 39.32981873 196.37752342 C40.01624451 197.05621483 40.01624451 197.05621483 40.71653748 197.74861717 C46.85679944 204.2112026 50.17176024 212.67861459 53.84934998 220.68611717 C55.19347446 223.62006703 55.19347446 223.62006703 58.32981873 225.37752342 C60.60564136 225.68834361 60.60564136 225.68834361 63.1703186 225.65599632 C64.16731277 225.66715981 65.16430695 225.67832329 66.19151306 225.68982506 C67.83041504 225.69306534 67.83041504 225.69306534 69.50242615 225.69637108 C70.65378555 225.7064167 71.80514496 225.71646233 72.99139404 225.72681236 C76.80602 225.75776148 80.6205754 225.77471224 84.43528748 225.79158592 C87.07659517 225.81028811 89.71789684 225.8298608 92.35919189 225.85027122 C98.60643429 225.89707494 104.85369384 225.93381128 111.10102206 225.9669441 C118.21346734 226.00515428 125.32582091 226.0545673 132.43818891 226.10492826 C147.06866247 226.20827174 161.69920152 226.29712689 176.32981873 226.37752342 C176.32981873 231.32752342 176.32981873 236.27752342 176.32981873 241.37752342 C152.81673672 241.47008077 129.30369852 241.5414821 105.79047108 241.58477211 C94.87310399 241.60540581 83.95585211 241.6335419 73.03855896 241.67928123 C63.5241139 241.7191242 54.00975225 241.74495036 44.49522609 241.7538774 C39.45635604 241.75909644 34.41772467 241.77137995 29.37893105 241.80044365 C24.6372045 241.82757255 19.89581519 241.83597351 15.1540184 241.82995415 C13.41292552 241.83105551 11.67182149 241.83902446 9.93079567 241.85434532 C7.55429899 241.87423426 5.17907716 241.86946738 2.80255127 241.85854149 C2.11285384 241.87019285 1.4231564 241.88184422 0.71255904 241.89384866 C-2.50939176 241.85378269 -4.70166433 241.36197609 -7.59838581 239.93148327 C-10.69288902 236.11680316 -10.35838238 232.81451323 -10.29164124 228.03314781 C-10.29803006 227.07629556 -10.30441888 226.1194433 -10.3110013 225.13359553 C-10.3262942 221.91882842 -10.30576101 218.70528524 -10.28541565 215.49056053 C-10.28891552 213.18944451 -10.29457257 210.8883309 -10.30223083 208.58722496 C-10.3165068 202.3311016 -10.29938987 196.07541626 -10.27594566 189.81933475 C-10.25587828 183.28107961 -10.26171403 176.7428434 -10.26405334 170.20456505 C-10.26489705 159.2246302 -10.24434196 148.24485838 -10.21217346 137.26497459 C-10.17907403 125.96317291 -10.16491636 114.66155034 -10.17115784 103.35970116 C-10.17863937 89.74542172 -10.17128392 76.13125647 -10.14950562 62.51699066 C-10.14131577 57.31408207 -10.13862497 52.11121299 -10.14019775 46.90829849 C-10.14107448 40.78597862 -10.12691773 34.66387386 -10.10097122 28.54161072 C-10.09378817 26.2901355 -10.09173601 24.03863743 -10.09508896 21.78715324 C-10.098783 18.72283789 -10.08412858 15.65915761 -10.06459045 12.59491539 C-10.06991838 11.69590049 -10.07524631 10.79688559 -10.08073568 9.87062782 C-10.07167904 9.05200691 -10.0626224 8.23338599 -10.05329132 7.38995838 C-10.05172012 6.68242938 -10.05014892 5.97490037 -10.0485301 5.24593109 C-8.9360463 -0.24787015 -4.85164307 0.0019298 0 0 Z " fill="#86CF46" transform="translate(60.67018127441406,170.6224765777588)"/>
<path d="M0 0 C1.06476563 0.35191406 2.12953125 0.70382813 3.2265625 1.06640625 C22.96710788 8.07037024 38.1448595 22.00503701 47.26416016 40.77490234 C55.0686515 57.66826785 57.29135858 77.18711729 51 95 C50.64808594 96.06347656 50.29617188 97.12695312 49.93359375 98.22265625 C42.82377424 118.28501823 28.72289141 133.32150498 9.609375 142.4609375 C4.19752957 144.76858588 -1.30320153 146.54249723 -7 148 C-8.11568359 148.28810547 -8.11568359 148.28810547 -9.25390625 148.58203125 C-29.98824262 151.73789753 -49.78697905 146.76680104 -66.984375 134.94921875 C-69.41751712 133.05063058 -71.72065671 131.07947551 -74 129 C-74.91265625 128.22462891 -74.91265625 128.22462891 -75.84375 127.43359375 C-89.02157878 115.48369901 -97.38771855 96.04055528 -98.25 78.50390625 C-98.96429238 56.7264419 -92.87471159 37.30438734 -78 21 C-77.48308594 20.3915625 -76.96617187 19.783125 -76.43359375 19.15625 C-58.16495919 -0.98961267 -25.46756341 -8.88154522 0 0 Z " fill="#85CF46" transform="translate(278,218)"/>
<path d="M0 0 C1.23662838 -0.00644889 2.47325677 -0.01289778 3.74735874 -0.0195421 C5.1270851 -0.01659956 6.50681106 -0.0134641 7.8865366 -0.01015663 C9.34645672 -0.01389107 10.80637484 -0.01849176 12.26628977 -0.02388728 C16.2879692 -0.0361581 20.30956571 -0.03585203 24.33125961 -0.03349853 C28.66467034 -0.03309139 32.99805411 -0.04411954 37.33145237 -0.05361366 C45.82478663 -0.07024657 54.31809313 -0.07572423 62.81144231 -0.07683842 C69.71256178 -0.07778773 76.61367206 -0.08189216 83.51478863 -0.08823967 C103.06629124 -0.10585769 122.61777188 -0.11507757 142.16928249 -0.11357872 C143.22393182 -0.11349881 144.27858115 -0.1134189 145.36518955 -0.11333656 C146.42112144 -0.1132548 147.47705332 -0.11317304 148.56498314 -0.1130888 C165.68548999 -0.11227556 182.80590893 -0.13142144 199.92639034 -0.1596133 C217.49142367 -0.18830977 235.05641408 -0.2021554 252.62147146 -0.20042574 C262.48865187 -0.19976076 272.3557401 -0.20530042 282.22289944 -0.22678185 C290.62268083 -0.24495105 299.02232826 -0.24937613 307.42212074 -0.235763 C311.71022017 -0.22921193 315.99806229 -0.22919273 320.28613758 -0.2464695 C324.2086653 -0.26211138 328.13072981 -0.25942861 332.05324561 -0.24190123 C333.4751578 -0.23881161 334.89710381 -0.242537 336.31897616 -0.25362138 C338.2463113 -0.26765565 340.17378684 -0.25481367 342.10112 -0.24050903 C343.17334287 -0.24094377 344.24556575 -0.24137851 345.35028023 -0.24182642 C348.79417947 0.38021824 349.97570807 1.54225815 352.11348057 4.25726891 C352.59449863 6.37073326 352.59449863 6.37073326 352.56758213 8.65863609 C352.56712894 9.94952141 352.56712894 9.94952141 352.5666666 11.26648521 C352.54602146 12.18641258 352.52537632 13.10633995 352.50410557 14.05414391 C352.49844578 15.00291405 352.49278599 15.95168419 352.48695469 16.92920494 C352.46458666 19.95574226 352.41438914 22.9810902 352.36348057 26.00726891 C352.34341613 28.06063721 352.32516527 30.11402409 352.30879307 32.16742516 C352.26472038 37.19783046 352.19568948 42.22734812 352.11348057 47.25726891 C347.47316388 47.50718239 342.83687057 47.68711434 338.19136143 47.80658531 C336.6167734 47.85643949 335.04263784 47.92435935 333.46968174 48.01166344 C324.669718 48.48733715 318.50356744 48.57738354 311.71894932 42.49164391 C304.93331747 35.29707883 300.7652139 28.13117529 297.38691807 18.85883141 C295.87293071 15.76583882 295.14632156 14.894838 292.11348057 13.25726891 C288.90446993 12.80320419 285.71528385 12.84424928 282.47885227 12.86285973 C281.49074273 12.85676862 280.50263319 12.85067752 279.48458093 12.84440184 C276.16423172 12.82771522 272.84426363 12.83255579 269.52388096 12.83734703 C267.14719333 12.83001003 264.77050928 12.82142489 262.3938303 12.81168175 C256.60273414 12.79173263 250.81175624 12.78608724 245.02062828 12.78786963 C240.31394599 12.78917688 235.60729496 12.78537502 230.90061855 12.77794456 C229.54524674 12.77584539 228.18987493 12.77374779 226.83450311 12.77165174 C226.15991375 12.77060822 225.48532438 12.76956469 224.79029291 12.76848954 C212.03035809 12.74958476 199.27048076 12.75063815 186.51053774 12.75745887 C174.83553286 12.76303515 163.16074737 12.74220584 151.48579378 12.7090984 C139.49958254 12.67537193 127.51347643 12.6601917 115.52721685 12.66481543 C108.79715785 12.66706111 102.06730163 12.66180271 95.33728313 12.63692284 C89.00970168 12.61472053 82.682578 12.61647963 76.35499477 12.63685036 C74.03016781 12.64027186 71.70531041 12.63512263 69.38052464 12.62086678 C66.21150797 12.60277202 63.04406045 12.61535164 59.87509251 12.63580894 C58.9507757 12.6232911 58.0264589 12.61077325 57.0741325 12.59787607 C52.58837023 12.66014274 50.71974513 12.78063988 47.08907318 15.63497734 C45.14091744 18.22085073 43.87308222 20.5079373 42.67598057 23.50726891 C38.59808892 32.89648858 33.1273112 41.9099056 24.11348057 47.25726891 C18.34579375 48.3286837 12.82232675 48.11886012 6.98848057 47.81976891 C5.44432757 47.77453385 3.90004599 47.73348515 2.35566807 47.69672203 C-1.39495335 47.598438 -5.13928809 47.44370625 -8.88651943 47.25726891 C-8.96241337 40.88527596 -9.01505293 34.51339899 -9.05131435 28.14105797 C-9.06642643 25.97206835 -9.08691678 23.8031094 -9.11283779 21.63422203 C-9.14911477 18.52151495 -9.16622133 15.40921086 -9.17948818 12.29633141 C-9.19497204 11.32233391 -9.21045589 10.34833641 -9.22640896 9.34482384 C-9.22663555 8.44404106 -9.22686214 7.54325829 -9.2270956 6.61517906 C-9.23375744 5.82020012 -9.24041927 5.02522118 -9.24728298 4.20615196 C-9.12823101 3.56302055 -9.00917904 2.91988914 -8.88651943 2.25726891 C-5.4142789 -0.05755812 -4.09658298 0.00538353 0 0 Z " fill="#85CE46" transform="translate(84.88651943206787,112.74273109436035)"/>
<path d="M0 0 C77.88 0 155.76 0 236 0 C237.65 3.63 239.3 7.26 241 11 C242.17405891 13.03283948 243.39138566 15.04272171 244.6875 17 C245.26886719 17.886875 245.85023438 18.77375 246.44921875 19.6875 C246.96097656 20.450625 247.47273438 21.21375 248 22 C248.66 22.99 249.32 23.98 250 25 C162.88 25 75.76 25 -14 25 C-12.02 22.36 -10.04 19.72 -8 17 C-6.85260252 14.97244078 -5.75957743 12.91208824 -4.75 10.8125 C-4.27046875 9.82894531 -3.7909375 8.84539062 -3.296875 7.83203125 C-2.11753562 5.25666664 -1.05198297 2.62995743 0 0 Z " fill="#B1E16C" transform="translate(138,135)"/>
<path d="M0 0 C1.06170095 -0.00521549 2.12340191 -0.01043099 3.21727562 -0.01580453 C4.39293398 -0.01134309 5.56859234 -0.00688164 6.77987671 -0.002285 C8.02157434 -0.00540498 9.26327198 -0.00852497 10.54259682 -0.01173949 C14.00037153 -0.01835957 17.4579305 -0.01594585 20.91569233 -0.00976706 C24.640346 -0.00525839 28.36498026 -0.01221841 32.08963013 -0.0177269 C39.39062907 -0.02663957 46.69158699 -0.02469058 53.99258757 -0.01890162 C59.92406776 -0.01439248 65.85553641 -0.01376897 71.78701782 -0.01594925 C72.62987921 -0.01625572 73.4727406 -0.01656218 74.34114325 -0.01687793 C76.05317672 -0.01751736 77.76521019 -0.01816578 79.47724366 -0.01882312 C95.5467086 -0.0245319 111.61615076 -0.01795994 127.68561196 -0.00722238 C141.48641345 0.00171362 155.2871813 0.00016174 169.08798218 -0.00905991 C185.0983123 -0.01975287 201.10862242 -0.02398253 217.11895561 -0.01783538 C218.824838 -0.01719825 220.53072039 -0.01656951 222.23660278 -0.01594925 C223.0760209 -0.0156407 223.91543903 -0.01533215 224.78029406 -0.01501425 C230.70750763 -0.01328438 236.63470856 -0.01620867 242.56192017 -0.02090836 C249.78111311 -0.0265064 257.00026254 -0.02502353 264.21945047 -0.01434687 C267.90572156 -0.00907557 271.59191999 -0.00705805 275.27819061 -0.01364517 C279.26674984 -0.02066489 283.255189 -0.01230694 287.2437439 -0.002285 C289.00723144 -0.00897717 289.00723144 -0.00897717 290.80634499 -0.01580453 C291.86804594 -0.01058903 292.92974689 -0.00537354 294.02362061 0 C294.94525686 0.0003247 295.86689312 0.00064941 296.81645775 0.00098395 C299.0118103 0.25168228 299.0118103 0.25168228 301.0118103 2.25168228 C301.18720466 5.19264965 301.24313406 8.03821577 301.2071228 10.97824478 C301.20287796 12.27246857 301.20287796 12.27246857 301.19854736 13.59283829 C301.18733363 16.35425948 301.16222714 19.11535878 301.1368103 21.87668228 C301.12678203 23.74646927 301.11765592 25.61626133 301.10946655 27.48605728 C301.08739042 32.07472337 301.05285265 36.66314821 301.0118103 41.25168228 C297.179066 41.42745489 293.34737038 41.53302326 289.5118103 41.62668228 C288.43415405 41.67695572 287.3564978 41.72722916 286.2461853 41.77902603 C279.61279173 41.9003686 275.6448964 41.27024565 270.60800171 36.82052994 C270.08125854 36.30281021 269.55451538 35.78509048 269.0118103 35.25168228 C268.25770874 34.57105728 267.50360718 33.89043228 266.72665405 33.18918228 C261.66732697 27.67395979 258.62276908 21.9484965 255.55477905 15.19308853 C254.19327459 12.02660628 254.19327459 12.02660628 251.0118103 10.25168228 C248.22291286 10.05143747 245.53323296 9.96912415 242.74351501 9.97752762 C241.89031156 9.97229094 241.03710811 9.96705426 240.15805 9.9616589 C237.28837435 9.94661204 234.41887627 9.94595272 231.54916382 9.9452858 C229.49612119 9.93766754 227.44308142 9.92924063 225.39004517 9.92006302 C219.80541613 9.89808016 214.22084186 9.88931421 208.63617444 9.88423657 C205.14974072 9.88059795 201.66332146 9.87436053 198.17689323 9.86723518 C186.02151735 9.84272905 173.86618423 9.82968594 161.71078491 9.82614517 C150.36754883 9.82250738 139.02458291 9.79259739 127.68142945 9.75074059 C117.95229044 9.71609384 108.22324122 9.70059772 98.49404091 9.69989914 C92.67890859 9.69910451 86.86405139 9.69028031 81.04898262 9.66190147 C75.58158542 9.63581656 70.11469334 9.63346201 64.64726257 9.64955711 C62.63807007 9.65137916 60.62884916 9.64461322 58.61971855 9.6287384 C55.88157013 9.60841839 53.14521263 9.61874588 50.40708923 9.63695145 C49.60757876 9.62375148 48.8080683 9.61055151 47.98433024 9.59695154 C44.13386655 9.65563413 42.40816342 9.86973092 39.58744717 12.58795452 C37.77690283 15.6488103 36.28375805 18.75846506 34.8243103 22.00168228 C30.87909115 30.3211386 25.30839211 36.95857534 17.0118103 41.25168228 C14.24105835 41.59225845 14.24105835 41.59225845 11.27352905 41.54465103 C9.67348022 41.53014908 9.67348022 41.53014908 8.04110718 41.51535416 C6.38691772 41.47764908 6.38691772 41.47764908 4.6993103 41.43918228 C3.5771814 41.42564713 2.45505249 41.41211197 1.29891968 41.39816666 C-1.46394198 41.36289608 -4.22581798 41.31360463 -6.9881897 41.25168228 C-7.0375418 35.73411752 -7.07388631 30.21668058 -7.09805298 24.69894791 C-7.10812504 22.82099546 -7.12178331 20.94305875 -7.1390686 19.06515884 C-7.16326423 16.36948138 -7.17466053 13.67401082 -7.1835022 10.97824478 C-7.19382477 10.13548996 -7.20414734 9.29273514 -7.21478271 8.42444229 C-7.21518114 6.36546981 -7.11076557 4.30700294 -6.9881897 2.25168228 C-4.43805918 -0.29844823 -3.53768826 0.00124637 0 0 Z " fill="#85CE46" transform="translate(108.98818969726563,61.74831771850586)"/>
<path d="M0 0 C66.66 0 133.32 0 202 0 C204.64 5.28 207.28 10.56 210 16 C211.98 17.98 211.98 17.98 214 20 C214 20.66 214 21.32 214 22 C139.42 22 64.84 22 -12 22 C-12 21.34 -12 20.68 -12 20 C-11.34 20 -10.68 20 -10 20 C-9.731875 19.44054687 -9.46375 18.88109375 -9.1875 18.3046875 C-7.46452499 14.96075573 -5.43477582 11.81846743 -3.4375 8.6328125 C-1.65295815 5.54911851 -1.65295815 5.54911851 0 0 Z " fill="#ADDC6A" transform="translate(155,81)"/>
<path d="M0 0 C1.06476563 0.35191406 2.12953125 0.70382813 3.2265625 1.06640625 C22.96710788 8.07037024 38.1448595 22.00503701 47.26416016 40.77490234 C55.0686515 57.66826785 57.29135858 77.18711729 51 95 C50.64808594 96.06347656 50.29617188 97.12695312 49.93359375 98.22265625 C42.82377424 118.28501823 28.72289141 133.32150498 9.609375 142.4609375 C4.19752957 144.76858588 -1.30320153 146.54249723 -7 148 C-8.11568359 148.28810547 -8.11568359 148.28810547 -9.25390625 148.58203125 C-29.98824262 151.73789753 -49.78697905 146.76680104 -66.984375 134.94921875 C-69.41751712 133.05063058 -71.72065671 131.07947551 -74 129 C-74.91265625 128.22462891 -74.91265625 128.22462891 -75.84375 127.43359375 C-89.02157878 115.48369901 -97.38771855 96.04055528 -98.25 78.50390625 C-98.96429238 56.7264419 -92.87471159 37.30438734 -78 21 C-77.48308594 20.3915625 -76.96617187 19.783125 -76.43359375 19.15625 C-58.16495919 -0.98961267 -25.46756341 -8.88154522 0 0 Z M-72.8125 29.9375 C-85.24697007 44.90657428 -89.7617223 62.85878106 -88 82 C-85.68786085 98.91898651 -76.61658022 114.20389107 -63.5625 125.01953125 C-47.89848101 136.54162214 -31.24642225 140.98208855 -12 139 C5.39483118 135.98348998 21.30434655 126.35166307 31.8125 112.1875 C42.77679757 95.38609438 46.8092383 76.9453644 42.9375 57.25 C38.16867934 39.63863439 27.26697124 25.66586276 12 16 C7.77349853 13.65414321 3.51259635 11.72640997 -1 10 C-1.8559375 9.66097656 -2.711875 9.32195312 -3.59375 8.97265625 C-28.56083407 0.61176544 -55.65470671 11.35613434 -72.8125 29.9375 Z " fill="#040502" transform="translate(278,218)"/>
<path d="M0 0 C0.7528125 0.01289063 1.505625 0.02578125 2.28125 0.0390625 C3.0340625 0.02617187 3.786875 0.01328125 4.5625 0 C7.87822285 0.99238184 8.89525719 2.81616624 10.78125 5.6640625 C11.28677368 8.68156433 11.28677368 8.68156433 11.29541016 12.07495117 C11.3086734 13.34944626 11.32193665 14.62394135 11.33560181 15.9370575 C11.33063003 17.31871587 11.32553057 18.70037379 11.3203125 20.08203125 C11.33022234 21.50500498 11.34216469 22.92796587 11.35604858 24.35090637 C11.3883571 28.08691896 11.39879894 31.82263832 11.40289307 35.55877686 C11.41166369 41.54911499 11.44705474 47.53921324 11.4950676 53.52935219 C11.50767851 55.62229452 11.50689313 57.71493438 11.50479126 59.8079071 C11.51175018 61.07294571 11.51870911 62.33798431 11.52587891 63.64135742 C11.52713776 64.7587883 11.52839661 65.87621918 11.5296936 67.0275116 C11.51389233 69.8212043 11.51389233 69.8212043 13.78125 71.6640625 C17.6311476 71.36210975 19.72861733 70.25110804 22.53125 67.6640625 C23.54832031 66.73207031 23.54832031 66.73207031 24.5859375 65.78125 C27.74444715 62.73514283 30.83861609 59.6294876 33.8984375 56.484375 C36.25211139 54.20883136 37.33218417 53.72393794 40.59375 53.2890625 C43.78125 53.6640625 43.78125 53.6640625 46.65625 55.6640625 C48.83277383 58.73680203 49.52248812 60.61319209 49.40209961 64.37356567 C48.01252787 69.50010455 43.56279029 72.98964229 39.875 76.59765625 C38.50510925 77.9754702 38.50510925 77.9754702 37.10754395 79.38111877 C35.1763836 81.31954202 33.23183321 83.24308973 31.27636719 85.15698242 C28.78017689 87.60202878 26.3189469 90.07908026 23.86666107 92.5680685 C21.51173093 94.94965465 19.12998708 97.30360622 16.75 99.66015625 C15.87259155 100.54859726 14.99518311 101.43703827 14.09118652 102.35240173 C7.13940411 109.09492913 7.13940411 109.09492913 2.65820312 110.16430664 C-2.96594317 109.43862177 -5.39256815 106.65100004 -9.21875 102.6640625 C-10.5861288 101.33772372 -11.9545532 100.01246213 -13.32397461 98.68823242 C-14.7590199 97.25967807 -16.19129832 95.82834001 -17.62109375 94.39453125 C-18.38426407 93.63231766 -19.14743439 92.87010406 -19.93373108 92.08479309 C-21.53069789 90.48850182 -23.12642253 88.89096697 -24.72094727 87.29223633 C-27.17024736 84.83753427 -29.62489904 82.38827354 -32.08007812 79.93945312 C-33.6357378 78.38313343 -35.19108766 76.82650398 -36.74609375 75.26953125 C-37.4814183 74.53623093 -38.21674286 73.8029306 -38.97434998 73.04740906 C-39.64917923 72.36942764 -40.32400848 71.69144623 -41.01928711 70.99291992 C-41.6147081 70.39670334 -42.21012909 69.80048676 -42.82359314 69.186203 C-44.81157861 67.01727614 -45.20238358 65.81136029 -45.53125 62.8515625 C-45.14710642 58.933298 -43.92618683 57.45112983 -41.21875 54.6640625 C-38.20096063 53.15516781 -36.59552363 53.16379974 -33.21875 53.6640625 C-29.21953203 56.32448647 -25.97771652 59.8761278 -22.66015625 63.3203125 C-21.35884766 64.66609375 -21.35884766 64.66609375 -20.03125 66.0390625 C-19.23332031 66.89242187 -18.43539062 67.74578125 -17.61328125 68.625 C-15.01259899 70.83961034 -13.62872456 71.63057666 -10.21875 71.6640625 C-8.46744074 70.58884349 -8.46744074 70.58884349 -7.21875 68.6640625 C-6.77143954 65.85342427 -6.77143954 65.85342427 -6.84985352 62.61962891 C-6.84297012 61.37468658 -6.83608673 60.12974426 -6.82899475 58.84707642 C-6.83217272 58.18221851 -6.83535069 57.51736061 -6.83862495 56.8323555 C-6.84773799 54.74692048 -6.8375099 52.66238413 -6.82200623 50.57699585 C-6.78191474 44.6490011 -6.78070158 38.72107651 -6.78295898 32.79296875 C-6.78301016 29.16480692 -6.76380393 25.53712878 -6.73362541 21.90909958 C-6.72281756 19.85872675 -6.73492024 17.80928438 -6.74745178 15.75894165 C-6.73741623 14.50769501 -6.72738068 13.25644836 -6.71704102 11.96728516 C-6.71720718 10.8682486 -6.71737335 9.76921204 -6.71754456 8.63687134 C-6.01880071 4.4723674 -4.1912619 1.25442698 0 0 Z " fill="#6FD5F8" transform="translate(254.21875,386.3359375)"/>
<path d="M0 0 C1.60725635 3.21451269 1.05748185 6.43612536 1 10 C1.90363281 9.96519531 2.80726563 9.93039063 3.73828125 9.89453125 C4.91777344 9.86746094 6.09726562 9.84039062 7.3125 9.8125 C9.07013672 9.76029297 9.07013672 9.76029297 10.86328125 9.70703125 C14 10 14 10 15.9296875 11.31640625 C17 13 17 13 16.8125 16.125 C16.544375 17.07375 16.27625 18.0225 16 19 C11.73840618 21.13079691 5.59236298 20.04502317 1 20 C1 26.93 1 33.86 1 41 C3.64 41 6.28 41 9 41 C15.54667715 42.70101697 20.30089912 47.51031985 24 53 C26.01691315 58.86311963 25.95439969 65.67206997 23.375 71.3125 C20.72431376 75.94885933 17.33314096 78.67578486 12.6875 81.3125 C8.78939712 82.30968911 5.00077902 82.15689329 1 82 C1.061875 83.258125 1.12375 84.51625 1.1875 85.8125 C1.17351956 88.44082181 1.14785536 89.72893184 -0.125 92.0625 C-2.990802 93.495401 -4.99548152 92.84910305 -8 92 C-9.60725635 88.78548731 -9.05748185 85.56387464 -9 82 C-10.20398438 82.02320313 -11.40796875 82.04640625 -12.6484375 82.0703125 C-14.22395215 82.08906863 -15.79947348 82.10726899 -17.375 82.125 C-18.56609375 82.15013672 -18.56609375 82.15013672 -19.78125 82.17578125 C-21.85492015 82.19335473 -23.92883241 82.10335168 -26 82 C-28 80 -28 80 -28.3125 77.5625 C-28 75 -28 75 -26.9921875 73.3515625 C-23.83988292 71.21294018 -20.47647713 71.68865034 -16.8125 71.8125 C-12.9453125 71.9053125 -12.9453125 71.9053125 -9 72 C-9 65.07 -9 58.14 -9 51 C-12.3 51 -15.6 51 -19 51 C-24.72244123 48.18024635 -28.30233936 45.15431483 -32 40 C-34.00275208 33.99174376 -34.4178856 26.37990441 -31.94140625 20.4765625 C-28.68531294 15.87038172 -24.32275152 11.98207355 -19 10 C-15.61703255 9.62787358 -12.38505568 9.68785347 -9 10 C-9.061875 8.741875 -9.12375 7.48375 -9.1875 6.1875 C-9.17351956 3.55917819 -9.14785536 2.27106816 -7.875 -0.0625 C-5.009198 -1.495401 -3.00451848 -0.84910305 0 0 Z " fill="#020301" transform="translate(260,245)"/>
<path d="M0 0 C3.5625 0.375 3.5625 0.375 5.5 2.0625 C6.71070847 4.69757137 6.8014871 6.50715478 6.5625 9.375 C7.67625 9.49875 8.79 9.6225 9.9375 9.75 C13.5625 10.375 13.5625 10.375 15.5625 12.375 C15.8125 15.875 15.8125 15.875 15.5625 19.375 C13.5625 21.375 13.5625 21.375 9.9375 21.5 C8.82375 21.45875 7.71 21.4175 6.5625 21.375 C6.624375 22.2825 6.68625 23.19 6.75 24.125 C6.5625 27.375 6.5625 27.375 5.5 29.75 C3.5625 31.375 3.5625 31.375 0 31.75 C-3.4375 31.375 -3.4375 31.375 -5.4375 29.375 C-5.70741906 26.68660615 -5.52487357 24.08358064 -5.4375 21.375 C-7.355625 21.436875 -7.355625 21.436875 -9.3125 21.5 C-11.4921875 21.5703125 -11.4921875 21.5703125 -13.4375 21.375 C-15.4375 19.375 -15.4375 19.375 -15.8125 15.9375 C-15.4375 12.375 -15.4375 12.375 -13.8125 10.4375 C-10.87719547 9.12433745 -8.61886394 9.15808882 -5.4375 9.375 C-5.47875 8.26125 -5.52 7.1475 -5.5625 6 C-5.39570551 1.1629599 -4.79563131 0.52315978 0 0 Z " fill="#6FD6F9" transform="translate(215.4375,-0.375)"/>
<path d="M0 0 C3.10776828 3.10776828 4.62168321 6.86504962 6 11 C7.69769234 12.10168984 7.69769234 12.10168984 10 13 C10.60070312 13.26039063 11.20140625 13.52078125 11.8203125 13.7890625 C13.5429003 14.53528474 15.27109245 15.26853911 17 16 C17 16.66 17 17.32 17 18 C15.98679687 18.43699219 15.98679687 18.43699219 14.953125 18.8828125 C9.3720825 21.44751122 5.89258613 23.33535216 3 29 C2.5875 29.78375 2.175 30.5675 1.75 31.375 C1.5025 31.91125 1.255 32.4475 1 33 C-1.61724095 30.63202009 -3.32861729 28.10399646 -5 25 C-5 24.34 -5 23.68 -5 23 C-8.58752742 21.13448574 -12.27812193 19.57464072 -16 18 C-16 17.34 -16 16.68 -16 16 C-14.98679687 15.56300781 -14.98679687 15.56300781 -13.953125 15.1171875 C-7.05396456 11.94676406 -3.82830913 9.205111 -0.75 2.125 C-0.5025 1.42375 -0.255 0.7225 0 0 Z " fill="#F5C94B" transform="translate(325,479)"/>
<path d="M0 0 C0 6.93 0 13.86 0 21 C-8 21 -8 21 -10.9375 19.125 C-14.3215355 15.63841797 -14.38966392 12.96407286 -14.359375 8.26171875 C-13.78943134 4.67479071 -11.79773951 3.13161106 -9 1 C-7 0 -7 0 0 0 Z " fill="#84CD45" transform="translate(251,265)"/>
<path d="M0 0 C9 1 9 1 12.0625 3.625 C14.34044352 7.59303064 14.72351726 9.49811485 14 14 C10.92307692 19.53846154 10.92307692 19.53846154 8 21 C5.36 21 2.72 21 0 21 C0 14.07 0 7.14 0 0 Z " fill="#84CC45" transform="translate(261,296)"/>
<path d="M0 0 C1.25586914 -0.00386719 1.25586914 -0.00386719 2.53710938 -0.0078125 C3.41302734 -0.00007813 4.28894531 0.00765625 5.19140625 0.015625 C6.06345703 0.00789063 6.93550781 0.00015625 7.83398438 -0.0078125 C8.67251953 -0.00523437 9.51105469 -0.00265625 10.375 0 C11.14255615 0.00225586 11.9101123 0.00451172 12.70092773 0.00683594 C14.75390625 0.265625 14.75390625 0.265625 17.75390625 2.265625 C18.12890625 5.265625 18.12890625 5.265625 17.75390625 8.265625 C13.58246769 11.04658404 10.15427957 10.59632847 5.25390625 10.578125 C4.38636719 10.59423828 3.51882812 10.61035156 2.625 10.62695312 C1.79097656 10.62759766 0.95695313 10.62824219 0.09765625 10.62890625 C-0.66353516 10.63188721 -1.42472656 10.63486816 -2.20898438 10.63793945 C-4.78613122 10.16692448 -5.69745674 9.34963552 -7.24609375 7.265625 C-6.86082863 2.00033501 -5.25665938 0.01547214 0 0 Z " fill="#030402" transform="translate(133.24609375,285.734375)"/>
<path d="M0 0 C0.886875 -0.00257813 1.77375 -0.00515625 2.6875 -0.0078125 C4.0796875 0.00378906 4.0796875 0.00378906 5.5 0.015625 C6.428125 0.00789063 7.35625 0.00015625 8.3125 -0.0078125 C9.6428125 -0.00394531 9.6428125 -0.00394531 11 0 C11.8146875 0.00225586 12.629375 0.00451172 13.46875 0.00683594 C15.5 0.265625 15.5 0.265625 17.5 2.265625 C17.75 5.265625 17.75 5.265625 17.5 8.265625 C15.05013068 10.71549432 14.362922 10.52193811 11 10.53125 C10.113125 10.53382813 9.22625 10.53640625 8.3125 10.5390625 C6.9203125 10.52746094 6.9203125 10.52746094 5.5 10.515625 C4.571875 10.52335937 3.64375 10.53109375 2.6875 10.5390625 C1.3571875 10.53519531 1.3571875 10.53519531 0 10.53125 C-0.8146875 10.52899414 -1.629375 10.52673828 -2.46875 10.52441406 C-4.5 10.265625 -4.5 10.265625 -6.5 8.265625 C-6.75 5.265625 -6.75 5.265625 -6.5 2.265625 C-4.05013068 -0.18424432 -3.362922 0.00931189 0 0 Z " fill="#020301" transform="translate(367.5,285.734375)"/>
<path d="M0 0 C0.66 0 1.32 0 2 0 C2.61875 1.3921875 2.61875 1.3921875 3.25 2.8125 C5.56104487 7.02190315 7.49701732 8.49900577 12 10 C12 10.66 12 11.32 12 12 C11.113125 12.350625 10.22625 12.70125 9.3125 13.0625 C5.130793 15.5084041 3.59544888 17.95415321 1 22 C-1 21 -1 21 -2.375 18.625 C-4.68706502 14.89012574 -6.86361876 13.37879375 -11 12 C-11 11.34 -11 10.68 -11 10 C-10.071875 9.566875 -9.14375 9.13375 -8.1875 8.6875 C-3.86466427 6.39893991 -1.98780254 4.43432873 0 0 Z " fill="#FC647D" transform="translate(345,16)"/>
<path d="M0 0 C0.70125 0.00515625 1.4025 0.0103125 2.125 0.015625 C2.82625 0.01046875 3.5275 0.0053125 4.25 0 C6.125 0.265625 6.125 0.265625 8.125 2.265625 C8.390625 4.140625 8.390625 4.140625 8.375 6.265625 C8.38015625 6.966875 8.3853125 7.668125 8.390625 8.390625 C8.125 10.265625 8.125 10.265625 6.125 12.265625 C4.25 12.53125 4.25 12.53125 2.125 12.515625 C1.42375 12.52078125 0.7225 12.5259375 0 12.53125 C-1.875 12.265625 -1.875 12.265625 -3.875 10.265625 C-4.140625 8.390625 -4.140625 8.390625 -4.125 6.265625 C-4.13015625 5.564375 -4.1353125 4.863125 -4.140625 4.140625 C-3.75603481 1.4258707 -2.7147543 0.38459019 0 0 Z " fill="#87D147" transform="translate(355.875,453.734375)"/>
<path d="M0 0 C0.70125 0.00515625 1.4025 0.0103125 2.125 0.015625 C2.82625 0.01046875 3.5275 0.0053125 4.25 0 C6.125 0.265625 6.125 0.265625 8.125 2.265625 C8.390625 4.140625 8.390625 4.140625 8.375 6.265625 C8.38015625 6.966875 8.3853125 7.668125 8.390625 8.390625 C8.125 10.265625 8.125 10.265625 6.125 12.265625 C4.25 12.53125 4.25 12.53125 2.125 12.515625 C1.42375 12.52078125 0.7225 12.5259375 0 12.53125 C-1.875 12.265625 -1.875 12.265625 -3.875 10.265625 C-4.140625 8.390625 -4.140625 8.390625 -4.125 6.265625 C-4.13015625 5.564375 -4.1353125 4.863125 -4.140625 4.140625 C-3.75603481 1.4258707 -2.7147543 0.38459019 0 0 Z " fill="#87D147" transform="translate(59.875,77.734375)"/>
<path d="M0 0 C0.70125 0.00515625 1.4025 0.0103125 2.125 0.015625 C2.82625 0.01046875 3.5275 0.0053125 4.25 0 C6.125 0.265625 6.125 0.265625 8.125 2.265625 C8.390625 4.140625 8.390625 4.140625 8.375 6.265625 C8.38015625 6.966875 8.3853125 7.668125 8.390625 8.390625 C8.125 10.265625 8.125 10.265625 6.125 12.265625 C4.25 12.53125 4.25 12.53125 2.125 12.515625 C1.42375 12.52078125 0.7225 12.5259375 0 12.53125 C-1.875 12.265625 -1.875 12.265625 -3.875 10.265625 C-4.140625 8.390625 -4.140625 8.390625 -4.125 6.265625 C-4.13015625 5.564375 -4.1353125 4.863125 -4.140625 4.140625 C-3.75603481 1.4258707 -2.7147543 0.38459019 0 0 Z " fill="#F5C74C" transform="translate(163.875,23.734375)"/>
</svg>
