<?xml version="1.0" encoding="UTF-8"?>
<svg version="1.1" xmlns="http://www.w3.org/2000/svg" width="512" height="512">
<path d="M0 0 C10.76928079 7.45991144 22.65427926 10.08796706 35.22705078 13.2277832 C42.90235955 15.15111634 50.5460795 17.19348957 58.18481445 19.25662231 C60.79815801 19.95660798 63.41617528 20.63640482 66.03515625 21.31494141 C76.77715658 24.158331 86.81401081 27.10872632 94.16601562 36.03393555 C94.79507812 36.78030273 95.42414063 37.52666992 96.07226562 38.2956543 C97.34019021 39.92717491 98.51985249 41.62719085 99.66601562 43.34643555 C100.44686523 43.11585953 101.22771484 42.88528351 102.03222656 42.64772034 C109.55632433 40.42634309 117.08102044 38.20700776 124.60632324 35.98971653 C128.47093071 34.85095906 132.33533783 33.71153299 136.19921875 32.5703125 C145.93675616 29.69471016 155.67838539 26.83354668 165.42755127 23.99759674 C166.92387708 23.56232097 168.4200924 23.12666523 169.91619873 22.69063568 C174.29095401 21.41630047 178.66825408 20.1514276 183.04956055 18.89979362 C184.39051132 18.51557454 185.73072022 18.12875402 187.07006836 17.73898506 C198.44799018 14.43252468 209.83008597 11.93977433 221.72851562 12.03393555 C222.87211548 12.04130737 222.87211548 12.04130737 224.03881836 12.04882812 C235.9493834 12.29379808 246.63607663 15.43471792 255.47851562 23.65893555 C263.48074091 32.16246033 264.12494402 41.60581435 263.94335938 52.7878418 C263.70640192 58.53258656 262.28921393 63.23853077 259.66601562 68.34643555 C259.2303125 69.20624023 258.79460937 70.06604492 258.34570312 70.9519043 C250.59295331 84.9534552 238.62076016 91.57061289 224.04882812 97.04174805 C222.93952942 97.46706818 221.83023071 97.89238831 220.68731689 98.33059692 C217.05850344 99.71966319 213.42483369 101.09552097 209.79101562 102.47143555 C207.23245788 103.44694316 204.67504278 104.42542842 202.11767578 105.40405273 C196.86541679 107.4127332 191.61111038 109.41595989 186.35546875 111.41577148 C175.97266769 115.36772959 165.60822833 119.36726441 155.24237061 123.36340332 C149.92436038 125.41168538 144.60357318 127.45273045 139.28320312 129.49487305 C131.82029172 132.35966597 124.36230578 135.23669092 116.91030884 138.12976074 C112.67187364 139.77425106 108.43121481 141.4129582 104.19024658 143.05090332 C102.21975743 143.81358352 100.25026203 144.57883778 98.28192139 145.3470459 C88.59512586 149.12662915 78.90464939 152.72104957 68.94726562 155.72924805 C68.15984985 155.96755341 67.37243408 156.20585876 66.56115723 156.4513855 C57.29438664 159.16311009 48.3879676 160.72352202 38.72851562 160.78393555 C37.83583984 160.81680664 36.94316406 160.84967773 36.0234375 160.88354492 C21.27656994 160.99580481 6.68953153 155.0788178 -7.29492188 150.9206543 C-7.95731684 150.72383245 -8.6197118 150.52701061 -9.30217934 150.32422447 C-11.33762032 149.71933278 -13.3729308 149.11400384 -15.40820312 148.50854492 C-16.0886906 148.30624928 -16.76917807 148.10395365 -17.47028637 147.89552784 C-20.95196709 146.85932206 -24.43150483 145.81662978 -27.90771484 144.76220703 C-31.33569439 143.7229547 -34.7685495 142.70145577 -38.20512772 141.69101906 C-40.10565867 141.12721826 -42.00075679 140.54520289 -43.89559937 139.96257019 C-63.65444398 134.19343449 -76.83003732 140.1725996 -94.07226562 149.5534668 C-95.14863281 150.14514648 -96.225 150.73682617 -97.33398438 151.34643555 C-97.05683594 151.97549805 -96.7796875 152.60456055 -96.49414062 153.25268555 C-92.98425683 161.54650349 -90.98322948 168.63447282 -94.33398438 177.34643555 C-98.65596205 185.21860917 -104.64631725 188.85997822 -112.68945312 192.08081055 C-113.86463249 192.56605194 -113.86463249 192.56605194 -115.06355286 193.06109619 C-117.54551534 194.08300704 -120.03330163 195.08977908 -122.52148438 196.09643555 C-124.20352176 196.78687601 -125.88516669 197.47827337 -127.56640625 198.1706543 C-147.84363837 206.49641026 -147.84363837 206.49641026 -158.75585938 203.7331543 C-170.00831713 198.78294517 -173.69457989 185.19876759 -178.02148438 174.72143555 C-178.76499446 172.94437662 -179.50940049 171.16769233 -180.25463867 169.39135742 C-182.63054877 163.71636421 -184.9830124 158.03179419 -187.33398438 152.34643555 C-188.10758313 150.47950549 -188.8813448 148.61264294 -189.65527344 146.74584961 C-193.17679187 138.24826038 -196.68862465 129.74672866 -200.19042969 121.24099731 C-206.68907934 105.4576403 -213.25837908 89.70395511 -219.8371582 73.95385742 C-220.24243744 72.98285095 -220.64771667 72.01184448 -221.0652771 71.01141357 C-221.81504592 69.2151181 -222.56541661 67.41907365 -223.31655884 65.62335205 C-224.32792569 63.19997128 -225.33240383 60.77387592 -226.33398438 58.34643555 C-226.89008141 57.00858505 -226.89008141 57.00858505 -227.45741272 55.64370728 C-227.8195134 54.75976288 -228.18161407 53.87581848 -228.5546875 52.96508789 C-228.88239136 52.16952484 -229.21009521 51.37396179 -229.54772949 50.55429077 C-231.6257614 44.71904102 -231.5517655 37.6577638 -229.41601562 31.8503418 C-225.10460582 24.46931983 -218.68004703 20.69609913 -210.97851562 17.61206055 C-210.19506271 17.28856628 -209.4116098 16.96507202 -208.60441589 16.6317749 C-206.12245341 15.60986406 -203.63466712 14.60309202 -201.14648438 13.59643555 C-199.46444699 12.90599508 -197.78280206 12.21459772 -196.1015625 11.5222168 C-175.51625925 3.06996797 -175.51625925 3.06996797 -164.87695312 6.0300293 C-158.14209926 9.13347056 -154.86513859 14.10067258 -151.68945312 20.55737305 C-151.24625732 21.45504395 -150.80306152 22.35271484 -150.34643555 23.27758789 C-149.84527222 24.30166748 -149.84527222 24.30166748 -149.33398438 25.34643555 C-144.3116484 22.99546557 -139.29123006 20.6404306 -134.27148438 18.28393555 C-133.51111877 17.92728821 -132.75075317 17.57064087 -131.96734619 17.20318604 C-123.52921303 13.24326935 -115.10595009 9.25807611 -106.73632812 5.1550293 C-105.71323799 4.65461372 -105.71323799 4.65461372 -104.66947937 4.14408875 C-101.45516528 2.57106492 -98.24483443 0.99077031 -95.04077148 -0.60302734 C-88.75921063 -3.68497875 -82.44699489 -6.49579905 -75.90429688 -8.96606445 C-75.25955414 -9.21011017 -74.6148114 -9.45415588 -73.95053101 -9.70559692 C-48.85182492 -18.92500858 -21.87974587 -15.38084098 0 0 Z " fill="#EDC6A3" transform="translate(239.333984375,298.653564453125)"/>
<path d="M0 0 C0.97563267 -0.00445784 1.95126533 -0.00891569 2.95646262 -0.01350862 C4.5757833 -0.01323207 4.5757833 -0.01323207 6.22781754 -0.01294994 C7.36868765 -0.01662663 8.50955777 -0.02030332 9.6849997 -0.02409142 C12.86134447 -0.03322932 16.03765887 -0.03783038 19.21401453 -0.04048073 C22.63608385 -0.04437981 26.05813815 -0.05395843 29.48019791 -0.0626936 C37.74939011 -0.08246953 46.01858357 -0.09252577 54.28779352 -0.10142139 C58.1801584 -0.10580255 62.07252191 -0.11116981 65.96488571 -0.11641026 C78.90111763 -0.13342387 91.8373487 -0.14791848 104.77359009 -0.155159 C108.13172532 -0.15706895 111.48986055 -0.15898927 114.84799576 -0.16094494 C116.09999666 -0.16167055 116.09999666 -0.16167055 117.37729052 -0.16241082 C130.90112566 -0.17071273 144.4248724 -0.19605175 157.94866893 -0.22852562 C171.82757531 -0.26158095 185.70643674 -0.27960638 199.5853827 -0.28280324 C207.38020829 -0.28496978 215.17490496 -0.29373944 222.96969223 -0.31926441 C229.60762446 -0.34095065 236.24539648 -0.34903215 242.88336012 -0.33929763 C246.2705628 -0.33474668 249.65716623 -0.33885718 253.04436874 -0.35605907 C256.71647688 -0.37366721 260.38774109 -0.36672544 264.05984879 -0.35352612 C265.66578514 -0.36997998 265.66578514 -0.36997998 267.30416465 -0.38676625 C274.41063546 -0.32492454 277.89822249 0.73439356 283.0423317 5.73187733 C286.85642252 10.51543606 287.52303974 13.52772244 287.54497147 19.55333424 C287.54864815 20.20770491 287.55232484 20.86207559 287.55611295 21.53627568 C287.56714298 23.73323871 287.57099247 25.93015443 287.5748024 28.127141 C287.58106763 29.70079161 287.58771448 31.27444075 287.59471512 32.84808826 C287.615753 38.02027831 287.62611808 43.19246864 287.6360817 48.36468983 C287.64012952 50.14600929 287.64424645 51.92732859 287.64843178 53.70864773 C287.66748381 62.07863142 287.68171413 70.4486063 287.69004375 78.81860751 C287.69981295 88.47545747 287.7261241 98.13207801 287.76654464 107.78884715 C287.79672419 115.25563951 287.81151442 122.72236618 287.81482476 130.18921834 C287.8171734 134.6474267 287.82610929 139.10538998 287.85128593 143.56353283 C287.87460356 147.76034359 287.87878518 151.95674856 287.86852455 156.15360737 C287.86802995 157.69025556 287.87432796 159.22692397 287.8880806 160.7635107 C287.95561392 168.75927121 287.9682931 175.29144423 283.39780045 182.13422108 C281.39780045 183.97406483 281.39780045 183.97406483 279.39780045 185.07172108 C278.73780045 185.45199451 278.07780045 185.83226795 277.39780045 186.22406483 C273.82399341 187.85042623 270.60563343 188.25968644 266.69844151 188.26564884 C265.7520274 188.26948999 264.80561329 188.27333113 263.83051997 188.27728868 C262.79386343 188.27642219 261.75720688 188.27555571 260.68913651 188.27466297 C259.03357106 188.27911965 259.03357106 188.27911965 257.34455985 188.28366637 C253.6328883 188.29236286 249.92124897 188.29386243 246.20956802 188.29535389 C243.55366234 188.29998141 240.89775959 188.30498535 238.24185562 188.31039906 C231.01651369 188.32397754 223.79117731 188.33000647 216.56582475 188.33440971 C212.05302008 188.33717322 207.54021755 188.3414108 203.02741432 188.34591389 C190.52946005 188.35810642 178.03150749 188.36840544 165.5335474 188.37178898 C164.73372929 188.37200854 163.93391119 188.37222811 163.10985617 188.37245433 C162.3081368 188.37267261 161.50641743 188.37289089 160.68040353 188.37311578 C159.05584768 188.37355924 157.43129184 188.37400581 155.80673599 188.37445545 C155.00090219 188.37467688 154.19506839 188.37489831 153.36481538 188.37512645 C140.31197377 188.37907315 127.25918804 188.39652331 114.20636801 188.41981497 C100.80085858 188.44354259 87.39537717 188.45599149 73.98984641 188.4571569 C66.46493499 188.45807292 58.94009635 188.46380675 51.415205 188.48197651 C45.00652546 188.49739661 38.5979412 188.50248677 32.18924663 188.49423841 C28.92126653 188.49033848 25.65351777 188.49286981 22.38555336 188.50529575 C18.83733176 188.51799523 15.28960084 188.51214871 11.7413826 188.50171375 C10.20312819 188.51379836 10.20312819 188.51379836 8.63379794 188.5261271 C1.14798847 188.47471205 -5.514179 187.6180637 -11.47719955 182.82172108 C-15.45883424 177.78612427 -16.9769654 173.76038923 -16.98315048 167.34088612 C-16.98783045 166.68254103 -16.99251043 166.02419595 -16.99733222 165.34590101 C-17.00923979 163.15338757 -16.99984218 160.96150411 -16.99038315 158.7689867 C-16.99445075 157.19164638 -16.9997937 155.61430891 -17.00631332 154.03697681 C-17.01997031 149.7622009 -17.01469499 145.48764261 -17.00517607 141.21286297 C-16.99757109 136.73534917 -17.00462741 132.25785378 -17.00933456 127.78033924 C-17.01478967 120.2617099 -17.00760693 112.74316902 -16.99331284 105.22455311 C-16.97698678 96.53691376 -16.98227546 87.84948564 -16.99879205 79.16185141 C-17.0124139 71.69756117 -17.01432316 64.23333446 -17.00647604 56.76903582 C-17.00180337 52.31323981 -17.00116352 47.85754303 -17.01108551 43.40175343 C-17.01976307 39.21231499 -17.01371893 35.02314841 -16.99640274 30.83373928 C-16.9924421 29.29787936 -16.99356472 27.76199648 -17.00019073 26.22614574 C-17.00841345 24.12630887 -16.99807718 22.02733804 -16.98315048 19.92755604 C-16.98201941 18.75361034 -16.98088833 17.57966465 -16.97972298 16.37014484 C-16.35609911 11.02478301 -14.21684057 7.16884703 -10.03969955 3.82172108 C-9.44028549 3.33058826 -8.84087143 2.83945545 -8.2232933 2.33343983 C-5.34667666 0.20543667 -3.52716824 0.00745201 0 0 Z " fill="#030402" transform="translate(205.60219955444336,8.865778923034668)"/>
<path d="M0 0 C10.76928079 7.45991144 22.65427926 10.08796706 35.22705078 13.2277832 C42.90235955 15.15111634 50.5460795 17.19348957 58.18481445 19.25662231 C60.79815801 19.95660798 63.41617528 20.63640482 66.03515625 21.31494141 C76.77715658 24.158331 86.81401081 27.10872632 94.16601562 36.03393555 C94.79507812 36.78030273 95.42414063 37.52666992 96.07226562 38.2956543 C97.34019021 39.92717491 98.51985249 41.62719085 99.66601562 43.34643555 C100.44686523 43.11585953 101.22771484 42.88528351 102.03222656 42.64772034 C109.55632433 40.42634309 117.08102044 38.20700776 124.60632324 35.98971653 C128.47093071 34.85095906 132.33533783 33.71153299 136.19921875 32.5703125 C145.93675616 29.69471016 155.67838539 26.83354668 165.42755127 23.99759674 C166.92387708 23.56232097 168.4200924 23.12666523 169.91619873 22.69063568 C174.29095401 21.41630047 178.66825408 20.1514276 183.04956055 18.89979362 C184.39051132 18.51557454 185.73072022 18.12875402 187.07006836 17.73898506 C198.44799018 14.43252468 209.83008597 11.93977433 221.72851562 12.03393555 C222.87211548 12.04130737 222.87211548 12.04130737 224.03881836 12.04882812 C235.9493834 12.29379808 246.63607663 15.43471792 255.47851562 23.65893555 C263.48074091 32.16246033 264.12494402 41.60581435 263.94335938 52.7878418 C263.70640192 58.53258656 262.28921393 63.23853077 259.66601562 68.34643555 C259.2303125 69.20624023 258.79460937 70.06604492 258.34570312 70.9519043 C250.59295331 84.9534552 238.62076016 91.57061289 224.04882812 97.04174805 C222.93952942 97.46706818 221.83023071 97.89238831 220.68731689 98.33059692 C217.05850344 99.71966319 213.42483369 101.09552097 209.79101562 102.47143555 C207.23245788 103.44694316 204.67504278 104.42542842 202.11767578 105.40405273 C196.86541679 107.4127332 191.61111038 109.41595989 186.35546875 111.41577148 C175.97266769 115.36772959 165.60822833 119.36726441 155.24237061 123.36340332 C149.92436038 125.41168538 144.60357318 127.45273045 139.28320312 129.49487305 C131.82029172 132.35966597 124.36230578 135.23669092 116.91030884 138.12976074 C112.67187364 139.77425106 108.43121481 141.4129582 104.19024658 143.05090332 C102.21975743 143.81358352 100.25026203 144.57883778 98.28192139 145.3470459 C88.59512586 149.12662915 78.90464939 152.72104957 68.94726562 155.72924805 C68.15984985 155.96755341 67.37243408 156.20585876 66.56115723 156.4513855 C57.29438664 159.16311009 48.3879676 160.72352202 38.72851562 160.78393555 C37.83583984 160.81680664 36.94316406 160.84967773 36.0234375 160.88354492 C21.27656994 160.99580481 6.68953153 155.0788178 -7.29492188 150.9206543 C-7.95731684 150.72383245 -8.6197118 150.52701061 -9.30217934 150.32422447 C-11.33762032 149.71933278 -13.3729308 149.11400384 -15.40820312 148.50854492 C-16.0886906 148.30624928 -16.76917807 148.10395365 -17.47028637 147.89552784 C-20.95196709 146.85932206 -24.43150483 145.81662978 -27.90771484 144.76220703 C-31.33569439 143.7229547 -34.7685495 142.70145577 -38.20512772 141.69101906 C-40.10565867 141.12721826 -42.00075679 140.54520289 -43.89559937 139.96257019 C-63.65444398 134.19343449 -76.83003732 140.1725996 -94.07226562 149.5534668 C-95.14863281 150.14514648 -96.225 150.73682617 -97.33398438 151.34643555 C-97.05683594 151.97549805 -96.7796875 152.60456055 -96.49414062 153.25268555 C-92.98425683 161.54650349 -90.98322948 168.63447282 -94.33398438 177.34643555 C-98.65596205 185.21860917 -104.64631725 188.85997822 -112.68945312 192.08081055 C-113.86463249 192.56605194 -113.86463249 192.56605194 -115.06355286 193.06109619 C-117.54551534 194.08300704 -120.03330163 195.08977908 -122.52148438 196.09643555 C-124.20352176 196.78687601 -125.88516669 197.47827337 -127.56640625 198.1706543 C-147.84363837 206.49641026 -147.84363837 206.49641026 -158.75585938 203.7331543 C-170.00831713 198.78294517 -173.69457989 185.19876759 -178.02148438 174.72143555 C-178.76499446 172.94437662 -179.50940049 171.16769233 -180.25463867 169.39135742 C-182.63054877 163.71636421 -184.9830124 158.03179419 -187.33398438 152.34643555 C-188.10758313 150.47950549 -188.8813448 148.61264294 -189.65527344 146.74584961 C-193.17679187 138.24826038 -196.68862465 129.74672866 -200.19042969 121.24099731 C-206.68907934 105.4576403 -213.25837908 89.70395511 -219.8371582 73.95385742 C-220.24243744 72.98285095 -220.64771667 72.01184448 -221.0652771 71.01141357 C-221.81504592 69.2151181 -222.56541661 67.41907365 -223.31655884 65.62335205 C-224.32792569 63.19997128 -225.33240383 60.77387592 -226.33398438 58.34643555 C-226.89008141 57.00858505 -226.89008141 57.00858505 -227.45741272 55.64370728 C-227.8195134 54.75976288 -228.18161407 53.87581848 -228.5546875 52.96508789 C-228.88239136 52.16952484 -229.21009521 51.37396179 -229.54772949 50.55429077 C-231.6257614 44.71904102 -231.5517655 37.6577638 -229.41601562 31.8503418 C-225.10460582 24.46931983 -218.68004703 20.69609913 -210.97851562 17.61206055 C-210.19506271 17.28856628 -209.4116098 16.96507202 -208.60441589 16.6317749 C-206.12245341 15.60986406 -203.63466712 14.60309202 -201.14648438 13.59643555 C-199.46444699 12.90599508 -197.78280206 12.21459772 -196.1015625 11.5222168 C-175.51625925 3.06996797 -175.51625925 3.06996797 -164.87695312 6.0300293 C-158.14209926 9.13347056 -154.86513859 14.10067258 -151.68945312 20.55737305 C-151.24625732 21.45504395 -150.80306152 22.35271484 -150.34643555 23.27758789 C-149.84527222 24.30166748 -149.84527222 24.30166748 -149.33398438 25.34643555 C-144.3116484 22.99546557 -139.29123006 20.6404306 -134.27148438 18.28393555 C-133.51111877 17.92728821 -132.75075317 17.57064087 -131.96734619 17.20318604 C-123.52921303 13.24326935 -115.10595009 9.25807611 -106.73632812 5.1550293 C-105.71323799 4.65461372 -105.71323799 4.65461372 -104.66947937 4.14408875 C-101.45516528 2.57106492 -98.24483443 0.99077031 -95.04077148 -0.60302734 C-88.75921063 -3.68497875 -82.44699489 -6.49579905 -75.90429688 -8.96606445 C-75.25955414 -9.21011017 -74.6148114 -9.45415588 -73.95053101 -9.70559692 C-48.85182492 -18.92500858 -21.87974587 -15.38084098 0 0 Z M-94.33398438 15.34643555 C-95.36365326 15.8435202 -95.36365326 15.8435202 -96.41412354 16.35064697 C-103.2123376 19.63414846 -110.00674133 22.92543193 -116.78808594 26.24365234 C-125.92452005 30.71238693 -135.10142484 35.07970228 -144.33398438 39.34643555 C-143.62742367 44.31924731 -141.67667437 48.68392795 -139.74804688 53.2800293 C-139.37891678 54.17023773 -139.00978668 55.06044617 -138.62947083 55.97763062 C-137.410374 58.9149158 -136.18485105 61.84946998 -134.95898438 64.78393555 C-133.67447442 67.87005076 -132.39118788 70.9566729 -131.10795593 74.0433197 C-130.21766717 76.18439551 -129.32679909 78.32523052 -128.43537903 80.46583557 C-125.23297406 88.16159113 -122.06687839 95.87163991 -118.91601562 103.58862305 C-117.62035434 106.75449557 -116.32415047 109.92014538 -115.027771 113.08572388 C-114.19031582 115.13436229 -113.35506871 117.18390473 -112.52203369 119.23434448 C-111.35998555 122.09325992 -110.18972599 124.94868048 -109.01757812 127.8034668 C-108.67257767 128.65854828 -108.32757721 129.51362976 -107.97212219 130.3946228 C-106.53509602 134.60250807 -106.53509602 134.60250807 -103.33398438 137.34643555 C-100.87105513 136.3924537 -100.87105513 136.3924537 -98.09179688 134.92456055 C-96.49078125 134.12791992 -96.49078125 134.12791992 -94.85742188 133.31518555 C-92.62919335 132.18826537 -90.40256887 131.0581667 -88.17773438 129.92456055 C-63.45509727 117.65174786 -44.08304655 124.5076659 -19.13305664 132.32617188 C-11.12573596 134.82857017 -3.08289631 137.11919346 5.02954102 139.25488281 C9.06698023 140.32631282 13.04971448 141.43704876 16.99023438 142.8269043 C52.31246392 155.2823017 91.49828099 132.36083213 124.0511322 119.69525146 C131.3752488 116.8459031 138.70496757 114.01134195 146.0375061 111.18374634 C153.24315901 108.40506783 160.44590454 105.61892533 167.64804077 102.83114624 C174.25240936 100.27618687 180.86122465 97.73295432 187.4715271 95.19338989 C192.44390792 93.2822945 197.41333146 91.36355483 202.38262939 89.44445801 C204.80508901 88.51045775 207.22854006 87.57902453 209.65301514 86.65026855 C213.04280466 85.35130643 216.42895535 84.04325388 219.81445312 82.7331543 C220.82491699 82.34844467 221.83538086 81.96373505 222.87646484 81.56736755 C233.37748518 77.48109459 241.67524839 72.17572352 246.54101562 61.65893555 C249.70475353 54.25243654 251.27543577 46.83587068 248.47851562 39.03393555 C244.5284219 33.17690002 239.70540099 28.76186371 232.66601562 27.34643555 C231.11198927 27.25662702 229.55466458 27.21581348 227.99804688 27.21362305 C227.10408203 27.21233398 226.21011719 27.21104492 225.2890625 27.2097168 C224.36158203 27.21358398 223.43410156 27.21745117 222.47851562 27.22143555 C221.57037109 27.21756836 220.66222656 27.21370117 219.7265625 27.2097168 C210.37654461 27.22310265 202.05842356 28.27682392 193.10351562 30.97143555 C192.20584473 31.23504883 191.30817383 31.49866211 190.38330078 31.77026367 C188.46644212 32.33348311 186.55044375 32.89963759 184.63525391 33.46850586 C181.63741255 34.35489276 178.63509788 35.22418451 175.63085938 36.08862305 C165.4597446 39.02065252 155.33392858 42.05197306 145.25537109 45.2878418 C139.41472931 47.14844444 133.52608484 48.73513893 127.59179688 50.2722168 C122.80211208 51.55005013 118.07949405 53.04021414 113.35351562 54.53393555 C112.52207031 54.79625977 111.690625 55.05858398 110.83398438 55.32885742 C106.66577457 56.62622271 106.66577457 56.62622271 102.66601562 58.34643555 C102.11914796 60.82131664 102.11914796 60.82131664 101.79101562 63.78393555 C100.22414108 73.94451435 96.75185842 83.44888688 88.52539062 90.0690918 C80.75282869 95.44907939 74.45729048 97.897017 65.04101562 97.78393555 C64.14930664 97.7763623 63.25759766 97.76878906 62.33886719 97.76098633 C56.26664824 97.61033548 51.11390393 96.70533038 45.38476562 94.6159668 C40.30480001 92.88173484 35.13040645 91.67023481 29.91601562 90.40893555 C22.37199663 88.56044313 14.90695838 86.59253817 7.48193359 84.31591797 C-0.79911127 81.82645731 -9.21983554 79.85387389 -17.62792969 77.84472656 C-32.4364525 74.24396742 -32.4364525 74.24396742 -35.33398438 71.34643555 C-35.7048453 65.50537594 -35.7048453 65.50537594 -35.33398438 63.34643555 C-32.05317022 61.15922611 -31.18814806 61.22255352 -27.47558594 61.88793945 C-23.02830905 62.84005824 -18.61748869 63.91696364 -14.20898438 65.03393555 C-12.62053711 65.43322266 -12.62053711 65.43322266 -11 65.84057617 C-3.38361414 67.77540223 4.16970846 69.88530563 11.71142578 72.09082031 C19.5119026 74.35211697 27.37733663 76.31042952 35.26953125 78.22387695 C40.50901643 79.50637014 45.57889218 80.93338721 50.66601562 82.72143555 C58.47035776 85.18376809 67.80114988 86.336007 75.54101562 83.1706543 C82.41889461 78.79279383 86.62743048 73.22212059 88.66601562 65.34643555 C89.42165994 58.65358588 88.06463104 53.19167327 84.66601562 47.34643555 C77.53522594 39.08647526 68.51463195 36.89332823 58.29101562 34.47143555 C50.52035159 32.58380589 42.8208764 30.60434754 35.18457031 28.23046875 C31.09081607 26.98286239 26.99904869 25.95535408 22.81445312 25.0534668 C10.44214532 22.33917848 1.42517273 19.07490892 -8.68554688 11.49780273 C-13.16912946 8.36620091 -18.29173223 6.3888668 -23.33398438 4.34643555 C-24.70683594 3.72768555 -24.70683594 3.72768555 -26.10742188 3.09643555 C-49.73590108 -6.43437959 -73.21592112 5.14100399 -94.33398438 15.34643555 Z " fill="#020201" transform="translate(239.333984375,298.653564453125)"/>
<path d="M0 0 C58.74 0 117.48 0 178 0 C178.99 2.64 179.98 5.28 181 8 C184.65096166 16.09561064 188.92028499 20.41878884 197 24 C199.31 24.66 201.62 25.32 204 26 C204 46.79 204 67.58 204 89 C200.37 90.32 196.74 91.64 193 93 C183.71378231 98.39199737 181.37926815 104.86219555 178 115 C119.26 115 60.52 115 0 115 C-1.485 110.545 -1.485 110.545 -3 106 C-8.67547188 96.16251541 -15.38628512 92.03248997 -26 89 C-26 68.21 -26 47.42 -26 26 C-23.03 25.01 -20.06 24.02 -17 23 C-10.22378177 19.64161114 -6.40502379 15.70989981 -3 9 C-2.01 6.03 -1.02 3.06 0 0 Z " fill="#C3E792" transform="translate(252,45)"/>
<path d="M0 0 C0.97563267 -0.00445784 1.95126533 -0.00891569 2.95646262 -0.01350862 C4.5757833 -0.01323207 4.5757833 -0.01323207 6.22781754 -0.01294994 C7.36868765 -0.01662663 8.50955777 -0.02030332 9.6849997 -0.02409142 C12.86134447 -0.03322932 16.03765887 -0.03783038 19.21401453 -0.04048073 C22.63608385 -0.04437981 26.05813815 -0.05395843 29.48019791 -0.0626936 C37.74939011 -0.08246953 46.01858357 -0.09252577 54.28779352 -0.10142139 C58.1801584 -0.10580255 62.07252191 -0.11116981 65.96488571 -0.11641026 C78.90111763 -0.13342387 91.8373487 -0.14791848 104.77359009 -0.155159 C108.13172532 -0.15706895 111.48986055 -0.15898927 114.84799576 -0.16094494 C116.09999666 -0.16167055 116.09999666 -0.16167055 117.37729052 -0.16241082 C130.90112566 -0.17071273 144.4248724 -0.19605175 157.94866893 -0.22852562 C171.82757531 -0.26158095 185.70643674 -0.27960638 199.5853827 -0.28280324 C207.38020829 -0.28496978 215.17490496 -0.29373944 222.96969223 -0.31926441 C229.60762446 -0.34095065 236.24539648 -0.34903215 242.88336012 -0.33929763 C246.2705628 -0.33474668 249.65716623 -0.33885718 253.04436874 -0.35605907 C256.71647688 -0.37366721 260.38774109 -0.36672544 264.05984879 -0.35352612 C265.66578514 -0.36997998 265.66578514 -0.36997998 267.30416465 -0.38676625 C274.41063546 -0.32492454 277.89822249 0.73439356 283.0423317 5.73187733 C286.85642252 10.51543606 287.52303974 13.52772244 287.54497147 19.55333424 C287.54864815 20.20770491 287.55232484 20.86207559 287.55611295 21.53627568 C287.56714298 23.73323871 287.57099247 25.93015443 287.5748024 28.127141 C287.58106763 29.70079161 287.58771448 31.27444075 287.59471512 32.84808826 C287.615753 38.02027831 287.62611808 43.19246864 287.6360817 48.36468983 C287.64012952 50.14600929 287.64424645 51.92732859 287.64843178 53.70864773 C287.66748381 62.07863142 287.68171413 70.4486063 287.69004375 78.81860751 C287.69981295 88.47545747 287.7261241 98.13207801 287.76654464 107.78884715 C287.79672419 115.25563951 287.81151442 122.72236618 287.81482476 130.18921834 C287.8171734 134.6474267 287.82610929 139.10538998 287.85128593 143.56353283 C287.87460356 147.76034359 287.87878518 151.95674856 287.86852455 156.15360737 C287.86802995 157.69025556 287.87432796 159.22692397 287.8880806 160.7635107 C287.95561392 168.75927121 287.9682931 175.29144423 283.39780045 182.13422108 C281.39780045 183.97406483 281.39780045 183.97406483 279.39780045 185.07172108 C278.73780045 185.45199451 278.07780045 185.83226795 277.39780045 186.22406483 C273.82399341 187.85042623 270.60563343 188.25968644 266.69844151 188.26564884 C265.7520274 188.26948999 264.80561329 188.27333113 263.83051997 188.27728868 C262.79386343 188.27642219 261.75720688 188.27555571 260.68913651 188.27466297 C259.03357106 188.27911965 259.03357106 188.27911965 257.34455985 188.28366637 C253.6328883 188.29236286 249.92124897 188.29386243 246.20956802 188.29535389 C243.55366234 188.29998141 240.89775959 188.30498535 238.24185562 188.31039906 C231.01651369 188.32397754 223.79117731 188.33000647 216.56582475 188.33440971 C212.05302008 188.33717322 207.54021755 188.3414108 203.02741432 188.34591389 C190.52946005 188.35810642 178.03150749 188.36840544 165.5335474 188.37178898 C164.73372929 188.37200854 163.93391119 188.37222811 163.10985617 188.37245433 C162.3081368 188.37267261 161.50641743 188.37289089 160.68040353 188.37311578 C159.05584768 188.37355924 157.43129184 188.37400581 155.80673599 188.37445545 C155.00090219 188.37467688 154.19506839 188.37489831 153.36481538 188.37512645 C140.31197377 188.37907315 127.25918804 188.39652331 114.20636801 188.41981497 C100.80085858 188.44354259 87.39537717 188.45599149 73.98984641 188.4571569 C66.46493499 188.45807292 58.94009635 188.46380675 51.415205 188.48197651 C45.00652546 188.49739661 38.5979412 188.50248677 32.18924663 188.49423841 C28.92126653 188.49033848 25.65351777 188.49286981 22.38555336 188.50529575 C18.83733176 188.51799523 15.28960084 188.51214871 11.7413826 188.50171375 C10.20312819 188.51379836 10.20312819 188.51379836 8.63379794 188.5261271 C1.14798847 188.47471205 -5.514179 187.6180637 -11.47719955 182.82172108 C-15.45883424 177.78612427 -16.9769654 173.76038923 -16.98315048 167.34088612 C-16.98783045 166.68254103 -16.99251043 166.02419595 -16.99733222 165.34590101 C-17.00923979 163.15338757 -16.99984218 160.96150411 -16.99038315 158.7689867 C-16.99445075 157.19164638 -16.9997937 155.61430891 -17.00631332 154.03697681 C-17.01997031 149.7622009 -17.01469499 145.48764261 -17.00517607 141.21286297 C-16.99757109 136.73534917 -17.00462741 132.25785378 -17.00933456 127.78033924 C-17.01478967 120.2617099 -17.00760693 112.74316902 -16.99331284 105.22455311 C-16.97698678 96.53691376 -16.98227546 87.84948564 -16.99879205 79.16185141 C-17.0124139 71.69756117 -17.01432316 64.23333446 -17.00647604 56.76903582 C-17.00180337 52.31323981 -17.00116352 47.85754303 -17.01108551 43.40175343 C-17.01976307 39.21231499 -17.01371893 35.02314841 -16.99640274 30.83373928 C-16.9924421 29.29787936 -16.99356472 27.76199648 -17.00019073 26.22614574 C-17.00841345 24.12630887 -16.99807718 22.02733804 -16.98315048 19.92755604 C-16.98201941 18.75361034 -16.98088833 17.57966465 -16.97972298 16.37014484 C-16.35609911 11.02478301 -14.21684057 7.16884703 -10.03969955 3.82172108 C-9.44028549 3.33058826 -8.84087143 2.83945545 -8.2232933 2.33343983 C-5.34667666 0.20543667 -3.52716824 0.00745201 0 0 Z M-2.60219955 16.13422108 C-2.90772956 18.92239693 -2.90772956 18.92239693 -2.85616684 22.24567127 C-2.86180649 23.54972416 -2.86744614 24.85377705 -2.87325668 26.19734669 C-2.8693677 27.65091474 -2.86527134 29.10448225 -2.86098862 30.5580492 C-2.86369736 32.08217505 -2.86725763 33.60629959 -2.87160873 35.13042164 C-2.88074891 39.27703194 -2.87718181 43.42354304 -2.87085056 47.57015514 C-2.86579897 51.90275185 -2.87047967 56.23533987 -2.87362289 60.5679369 C-2.877265 67.84476724 -2.87245704 75.12155704 -2.86294174 82.39838123 C-2.85205672 90.82013623 -2.85558212 99.24179439 -2.86659455 107.66354704 C-2.87566048 114.88479871 -2.87695612 122.10602118 -2.87171721 129.32727671 C-2.86859368 133.64437511 -2.86819864 137.96142794 -2.87479019 142.27852345 C-2.88055296 146.33651815 -2.8765865 150.39438761 -2.86500168 154.45236874 C-2.86234934 155.9447563 -2.86312991 157.43715433 -2.86752701 158.92953777 C-2.87296109 160.96061174 -2.86495059 162.99170864 -2.85616684 165.02277088 C-2.85541279 166.16135296 -2.85465874 167.29993504 -2.85388184 168.4730196 C-2.87283975 171.28850636 -2.87283975 171.28850636 -0.60219955 173.13422108 C1.46676516 173.43682694 1.46676516 173.43682694 3.88623428 173.38590336 C5.31158273 173.3937266 5.31158273 173.3937266 6.76572609 173.40170789 C7.8168741 173.39724644 8.86802212 173.392785 9.9510231 173.38818836 C11.06204706 173.39130834 12.17307102 173.39442832 13.31776237 173.39764285 C17.0658488 173.40566328 20.81377513 173.39928346 24.56186295 173.39301014 C27.23868667 173.39571821 29.91549911 173.39920534 32.59231949 173.40363026 C39.12328901 173.41254182 45.65421266 173.41059443 52.185184 173.40480497 C57.49118776 173.4002954 62.79717863 173.39967252 68.10318375 173.40185261 C69.23425849 173.40231231 69.23425849 173.40231231 70.38818324 173.40278129 C71.91983271 173.40342072 73.45148218 173.40406914 74.98313165 173.40472648 C89.35867368 173.41043493 103.73419024 173.40386381 118.1097281 173.39312574 C130.45511393 173.38418976 142.80046216 173.38574166 155.14584732 173.39496326 C169.46857129 173.40565681 183.79127292 173.40988556 198.11400032 173.40373874 C199.64013926 173.40310161 201.1662782 173.40247287 202.69241714 173.40185261 C203.44338374 173.40154406 204.19435033 173.40123551 204.96807349 173.4009176 C210.27011438 173.39918791 215.57214114 173.40211166 220.87417984 173.40681171 C227.33214041 173.41241039 233.79005233 173.41092554 240.2480073 173.40025023 C243.54543492 173.39497978 246.84276418 173.39402949 250.14019394 173.39954853 C253.70840424 173.40497223 257.27638248 173.39820858 260.84457779 173.38818836 C262.42129981 173.39488053 262.42129981 173.39488053 264.0298748 173.40170789 C264.9801071 173.39649239 265.93033939 173.3912769 266.90936661 173.38590336 C268.14600839 173.3854163 268.14600839 173.3854163 269.40763283 173.3849194 C271.62911171 173.31170164 271.62911171 173.31170164 273.39780045 171.13422108 C273.70333045 168.34604522 273.70333045 168.34604522 273.65176773 165.02277088 C273.65740738 163.71871799 273.66304703 162.41466511 273.66885757 161.07109547 C273.6649686 159.61752741 273.66087223 158.1639599 273.65658951 156.71039295 C273.65929825 155.1862671 273.66285853 153.66214256 273.66720963 152.13802052 C273.6763498 147.99141021 273.6727827 143.84489911 273.66645145 139.69828701 C273.66139986 135.3656903 273.66608056 131.03310228 273.66922379 126.70050526 C273.67286589 119.42367491 273.66805793 112.14688512 273.65854263 104.87006092 C273.64765761 96.44830593 273.65118301 88.02664776 273.66219544 79.60489511 C273.67126137 72.38364344 273.67255701 65.16242097 273.66731811 57.94116545 C273.66419457 53.62406705 273.66379953 49.30701421 273.67039108 44.98991871 C273.67615385 40.931924 273.67218739 36.87405454 273.66060257 32.81607342 C273.65795023 31.32368586 273.65873081 29.83128782 273.6631279 28.33890438 C273.66856198 26.30783042 273.66055148 24.27673351 273.65176773 22.24567127 C273.65101368 21.1070892 273.65025963 19.96850712 273.64948273 18.79542255 C273.66844064 15.9799358 273.66844064 15.9799358 271.39780045 14.13422108 C269.32883573 13.83161522 269.32883573 13.83161522 266.90936661 13.8825388 C265.48401816 13.87471555 265.48401816 13.87471555 264.0298748 13.86673427 C262.45315278 13.87342643 262.45315278 13.87342643 260.84457779 13.88025379 C259.17804185 13.87557382 259.17804185 13.87557382 257.47783852 13.8707993 C253.7297521 13.86277888 249.98182577 13.86915869 246.23373795 13.87543201 C243.55691422 13.87272394 240.88010178 13.86923681 238.2032814 13.8648119 C231.67231188 13.85590034 225.14138823 13.85784772 218.61041689 13.86363718 C213.30441313 13.86814675 207.99842227 13.86876963 202.69241714 13.86658955 C201.5613424 13.86612985 201.5613424 13.86612985 200.40741765 13.86566086 C198.87576818 13.86502144 197.34411871 13.86437301 195.81246924 13.86371568 C181.43692721 13.85800722 167.06141065 13.86457835 152.68587279 13.87531641 C140.34048696 13.88425239 127.99513873 13.88270049 115.64975357 13.87347889 C101.3270296 13.86278535 87.00432798 13.85855659 72.68160057 13.86470342 C71.15546163 13.86534054 69.62932269 13.86596928 68.10318375 13.86658955 C67.35221715 13.8668981 66.60125056 13.86720665 65.8275274 13.86752455 C60.52548651 13.86925424 55.22345975 13.86633049 49.92142105 13.86163044 C43.46346048 13.85603176 37.00554856 13.85751662 30.54759359 13.86819193 C27.25016597 13.87346237 23.95283671 13.87441266 20.65540695 13.86889362 C17.08719665 13.86346992 13.51921841 13.87023357 9.9510231 13.88025379 C8.89987509 13.87579235 7.84872707 13.8713309 6.76572609 13.86673427 C5.81549379 13.87194976 4.8652615 13.87716526 3.88623428 13.8825388 C3.06180643 13.8828635 2.23737858 13.8831882 1.38796806 13.88352275 C-0.83351082 13.95674052 -0.83351082 13.95674052 -2.60219955 16.13422108 Z " fill="#000000" transform="translate(205.60219955444336,8.865778923034668)"/>
<path d="M0 0 C0.9502323 -0.00521549 1.90046459 -0.01043099 2.87949181 -0.01580453 C4.45621383 -0.00911236 4.45621383 -0.00911236 6.06478882 -0.002285 C7.17581278 -0.00540498 8.28683674 -0.00852497 9.43152809 -0.01173949 C13.17961451 -0.01975992 16.92754084 -0.0133801 20.67562866 -0.00710678 C23.35245239 -0.00981485 26.02926483 -0.01330199 28.70608521 -0.0177269 C35.23705472 -0.02663846 41.76797837 -0.02469107 48.29894972 -0.01890162 C53.60495348 -0.01439204 58.91094434 -0.01376916 64.21694946 -0.01594925 C64.97099929 -0.01625572 65.72504913 -0.01656218 66.50194895 -0.01687793 C68.03359843 -0.01751736 69.5652479 -0.01816579 71.09689736 -0.01882312 C85.4724394 -0.02453157 99.84795596 -0.01796045 114.22349381 -0.00722238 C126.56887965 0.0017136 138.91422788 0.0001617 151.25961304 -0.00905991 C165.58233701 -0.01975345 179.90503863 -0.0239822 194.22776604 -0.01783538 C195.75390497 -0.01719825 197.28004392 -0.01656951 198.80618286 -0.01594925 C199.93263275 -0.01548642 199.93263275 -0.01548642 201.0818392 -0.01501425 C206.38388009 -0.01328455 211.68590685 -0.0162083 216.98794556 -0.02090836 C223.44590612 -0.02650704 229.90381805 -0.02502218 236.36177301 -0.01434687 C239.65920064 -0.00907642 242.9565299 -0.00812613 246.25395966 -0.01364517 C249.82216996 -0.01906887 253.3901482 -0.01230522 256.95834351 -0.002285 C258.00949152 -0.00674645 259.06063953 -0.01120789 260.14364052 -0.01580453 C261.56898896 -0.00798129 261.56898896 -0.00798129 263.02313232 0 C263.84756018 0.0003247 264.67198803 0.00064941 265.52139854 0.00098395 C267.51156616 0.25168228 267.51156616 0.25168228 269.51156616 2.25168228 C269.76324844 4.91288376 269.76324844 4.91288376 269.76553345 8.36313248 C269.7711731 9.66718536 269.77681274 10.97123825 269.78262329 12.31480789 C269.77873431 13.76837595 269.77463795 15.22194346 269.77035522 16.67551041 C269.77306397 18.19963626 269.77662424 19.7237608 269.78097534 21.24788284 C269.79011552 25.39449314 269.78654842 29.54100425 269.78021717 33.68761635 C269.77516558 38.02021305 269.77984627 42.35280107 269.7829895 46.6853981 C269.78663161 53.96222845 269.78182365 61.23901824 269.77230835 68.51584244 C269.76142332 76.93759743 269.76494873 85.3592556 269.77596116 93.78100824 C269.78502709 101.00225992 269.78632272 108.22348239 269.78108382 115.44473791 C269.77796029 119.76183631 269.77756525 124.07888915 269.7841568 128.39598465 C269.78991956 132.45397936 269.78595311 136.51184881 269.77436829 140.56982994 C269.77171595 142.0622175 269.77249652 143.55461554 269.77689362 145.04699898 C269.7823277 147.07807294 269.7743172 149.10916985 269.76553345 151.14023209 C269.76440237 152.8481052 269.76440237 152.8481052 269.76324844 154.5904808 C269.51156616 157.25168228 269.51156616 157.25168228 267.51156616 159.25168228 C265.52139854 159.50238061 265.52139854 159.50238061 263.02313232 159.50336456 C262.07290003 159.50858006 261.12266773 159.51379555 260.14364052 159.51916909 C259.0924925 159.51470765 258.04134449 159.51024621 256.95834351 159.50564957 C255.29180757 159.51032954 255.29180757 159.51032954 253.59160423 159.51510406 C249.84351781 159.52312448 246.09559148 159.51674467 242.34750366 159.51047134 C239.67067994 159.51317941 236.99386749 159.51666655 234.31704712 159.52109146 C227.7860776 159.53000302 221.25515395 159.52805564 214.72418261 159.52226618 C209.41817885 159.51775661 204.11218798 159.51713372 198.80618286 159.51931381 C198.05213303 159.51962028 197.2980832 159.51992674 196.52118337 159.5202425 C194.9895339 159.52088192 193.45788443 159.52153035 191.92623496 159.52218768 C177.55069293 159.52789614 163.17517637 159.52132501 148.79963851 159.51058695 C136.45425267 159.50165097 124.10890444 159.50320286 111.76351929 159.51242447 C97.44079532 159.52311801 83.11809369 159.52734677 68.79536629 159.52119994 C67.26922735 159.52056282 65.74308841 159.51993408 64.21694946 159.51931381 C63.09049957 159.51885099 63.09049957 159.51885099 61.94129312 159.51837881 C56.63925223 159.51664912 51.33722547 159.51957286 46.03518677 159.52427292 C39.5772262 159.5298716 33.11931428 159.52838674 26.66135931 159.51771143 C23.36393169 159.51244098 20.06660243 159.5114907 16.76917267 159.51700974 C13.20096237 159.52243344 9.63298413 159.51566978 6.06478882 159.50564957 C4.4880668 159.51234173 4.4880668 159.51234173 2.87949181 159.51916909 C1.45414336 159.51134585 1.45414336 159.51134585 0 159.50336456 C-1.23664178 159.50287751 -1.23664178 159.50287751 -2.49826622 159.50238061 C-4.48843384 159.25168228 -4.48843384 159.25168228 -6.48843384 157.25168228 C-6.74011612 154.5904808 -6.74011612 154.5904808 -6.74240112 151.14023209 C-6.74804077 149.8361792 -6.75368042 148.53212631 -6.75949097 147.18855667 C-6.75560199 145.73498862 -6.75150563 144.2814211 -6.7472229 142.82785416 C-6.74993164 141.30372831 -6.75349192 139.77960377 -6.75784302 138.25548172 C-6.7669832 134.10887142 -6.76341609 129.96236032 -6.75708485 125.81574821 C-6.75203326 121.48315151 -6.75671395 117.15056349 -6.75985718 112.81796646 C-6.76349928 105.54113611 -6.75869133 98.26434632 -6.74917603 90.98752213 C-6.738291 82.56576713 -6.74181641 74.14410896 -6.75282884 65.72235632 C-6.76189476 58.50110464 -6.7631904 51.27988218 -6.7579515 44.05862665 C-6.75482796 39.74152825 -6.75443293 35.42447541 -6.76102448 31.10737991 C-6.76678724 27.04938521 -6.76282078 22.99151575 -6.75123596 18.93353462 C-6.74858362 17.44114706 -6.7493642 15.94874902 -6.75376129 14.45636559 C-6.75919537 12.42529162 -6.75118487 10.39419472 -6.74240112 8.36313248 C-6.74164707 7.2245504 -6.74089302 6.08596832 -6.74011612 4.91288376 C-6.29889748 0.24759034 -4.1576409 0.00163751 0 0 Z M28.51156616 12.25168228 C27.62846085 15.29878109 27.62846085 15.29878109 27.44906616 18.62668228 C26.80812984 23.82409321 26.2917519 27.36932936 22.51156616 31.25168228 C17.61013614 34.09451169 13.37042146 34.63582432 7.74594116 34.84543228 C4.87085696 35.36817486 4.19941548 35.85596227 2.51156616 38.25168228 C2.20514781 40.95907711 2.08118369 43.43857306 2.09164429 46.14792252 C2.08317474 46.95148178 2.0747052 47.75504105 2.065979 48.58295059 C2.04255826 51.24221957 2.04158803 53.90091167 2.04281616 56.56027603 C2.03571759 58.4072887 2.02801904 60.25429914 2.01974487 62.10130692 C2.00628838 65.97416691 2.0047365 69.84682301 2.0105896 73.71969986 C2.01648656 78.68453039 1.98590007 83.64838332 1.94547272 88.61302471 C1.91963188 92.42803093 1.916715 96.24280064 1.92036438 100.05788231 C1.9186697 101.88834528 1.90899383 103.71881878 1.89122009 105.54919624 C1.86910113 108.1088134 1.87869476 110.6664376 1.89633179 113.22604752 C1.88306854 113.98306458 1.8698053 114.74008163 1.85614014 115.5200386 C1.91690365 119.31227167 2.19749998 120.92156604 4.85275269 123.71251297 C8.01254159 125.5416936 10.38691518 125.88007069 14.01156616 126.18918228 C18.33070653 126.74066574 20.14661726 126.97975957 23.69906616 129.62668228 C27.08235211 134.52661365 27.75622247 137.81265374 27.87484741 143.71652603 C28.81166823 147.44656719 30.53368839 148.85666306 33.51156616 151.25168228 C36.38099019 151.74467007 38.65644882 151.92949329 41.52011108 151.88660049 C42.32123164 151.89440045 43.1223522 151.9022004 43.94774914 151.91023672 C46.62964685 151.93016558 49.31012692 151.91438933 51.99203491 151.89865494 C53.91567818 151.90543068 55.83931497 151.91433357 57.76293945 151.92520523 C62.98611461 151.94801023 68.20879628 151.93915716 73.43198013 151.9233098 C78.89626655 151.91065711 84.36051052 151.92238917 89.82479858 151.93024063 C99.00138949 151.93933901 108.17777923 151.92734425 117.3543396 151.90353775 C127.96601195 151.87632621 138.577204 151.88514023 149.18886471 151.91266978 C158.29729037 151.93535439 167.40557137 151.93856407 176.51401615 151.92547643 C181.95520463 151.9176784 187.3961673 151.91665013 192.83734131 151.93315887 C197.95272701 151.94759485 203.06749304 151.93759762 208.18281174 151.90868759 C210.06094712 151.90207214 211.93913459 151.90398227 213.8172493 151.91500092 C216.37987892 151.9286502 218.94051871 151.9115498 221.50302124 151.88660049 C222.2476723 151.8977541 222.99232336 151.90890771 223.7595396 151.92039931 C227.69617257 151.84596857 229.36962399 151.36598854 232.47669983 148.86385536 C234.6822656 146.03255414 235.07968032 144.89114287 235.07406616 141.37668228 C235.4061255 135.3547413 236.99588782 131.53866259 241.57406616 127.37668228 C245.32668811 125.93950792 248.79429869 125.83982696 252.79281616 125.75558853 C256.4484606 125.07803374 257.93462439 123.93581279 260.51156616 121.25168228 C261.01633608 118.38556935 261.19693293 116.10766478 261.15853882 113.24191666 C261.16730042 112.43821136 261.17606201 111.63450607 261.18508911 110.80644608 C261.20707935 108.15222411 261.19253268 105.49967089 261.17562866 102.84543228 C261.17899693 100.99984798 261.18384963 99.15426583 261.19012451 97.30868912 C261.1974953 93.44165289 261.18678386 89.57519431 261.16342163 85.70822525 C261.13493352 80.75119169 261.15133642 75.79551158 261.18128395 70.83852768 C261.19935148 67.02776261 261.19360145 63.21731846 261.18064499 59.40654373 C261.17730946 57.57889521 261.18140325 55.75121756 261.19304276 53.92360306 C261.20574289 51.36876636 261.1863886 48.8161213 261.15853882 46.26144791 C261.17372055 45.12827888 261.17372055 45.12827888 261.18920898 43.97221756 C261.11226418 40.16243296 260.81993697 38.57286799 258.13885498 35.7803688 C255.1964526 34.06833363 253.44955026 33.78998565 250.07406616 33.75168228 C245.13374077 33.44582095 242.21915673 32.77389332 238.51156616 29.25168228 C235.65978856 24.33482434 235.16648346 20.23042951 235.11312866 14.58371353 C234.21147157 11.08832856 232.52466495 10.16960603 229.51156616 8.25168228 C226.70816471 7.86636657 224.30138441 7.71021593 221.50302124 7.74374771 C220.70190068 7.73750775 219.90078012 7.73126779 219.07538319 7.72483873 C216.39365432 7.70889664 213.71283286 7.72151745 211.03109741 7.73410416 C209.10745717 7.72868357 207.18382109 7.72156127 205.26019287 7.71286392 C200.03707588 7.69462013 194.81427474 7.70170253 189.59115219 7.71438026 C184.12687067 7.72450241 178.66261632 7.71511677 173.19833374 7.7088356 C164.02177064 7.70155692 154.84533628 7.71115274 145.66879272 7.73019791 C135.0571794 7.75196702 124.44587349 7.74491581 113.83426762 7.72289228 C104.72585702 7.70474462 95.617539 7.70217688 86.50911617 7.71264696 C81.06795652 7.71888536 75.6269414 7.71970795 70.18579102 7.70650101 C65.07048771 7.69495241 59.95558101 7.70295028 54.84032059 7.72607803 C52.96218144 7.7313704 51.08400895 7.72984234 49.20588303 7.72102737 C46.64350735 7.71010903 44.08240542 7.72378989 41.52011108 7.74374771 C40.40313449 7.73036338 40.40313449 7.73036338 39.26359272 7.71670866 C34.42435897 7.78990577 31.85522731 8.73063048 28.51156616 12.25168228 Z " fill="#ABDD66" transform="translate(209.48843383789063,22.74831771850586)"/>
<path d="M0 0 C11.37224958 8.67374968 19.74345022 19.92705275 23 34 C23.26870676 37.15173538 23.28013357 40.27598635 23.25 43.4375 C23.26160156 44.64889648 23.26160156 44.64889648 23.2734375 45.88476562 C23.23124824 58.97398303 18.59886712 70.2351848 10 80 C9.4534375 80.6290625 8.906875 81.258125 8.34375 81.90625 C-0.91000012 91.85839635 -14.53567563 97.91942471 -28.09692383 98.54272461 C-43.62340212 98.69412039 -56.48754644 92.87858032 -67.64453125 82.37890625 C-79.35514172 70.55177229 -83.32050149 57.80141653 -83.38500977 41.46508789 C-83.17072177 29.34333706 -78.74593005 19.30813442 -71 10 C-70.42765625 9.30390625 -69.8553125 8.6078125 -69.265625 7.890625 C-51.08378675 -12.15601717 -22.38227352 -13.91330516 0 0 Z " fill="#ABDD67" transform="translate(371,58)"/>
<path d="M0 0 C4.85147486 2.7773679 6.54567328 6.65555232 8.50390625 11.671875 C8.81934387 12.44469315 9.13478149 13.21751129 9.45977783 14.01374817 C10.50709851 16.58740834 11.53437093 19.16862011 12.5625 21.75 C13.30721296 23.58781749 14.05358803 25.42496222 14.80151367 27.26147461 C16.39040141 31.16492982 17.97321517 35.07077262 19.55273438 38.97802734 C23.15812947 47.87437032 26.86525407 56.72825094 30.56790161 65.58444214 C32.65707368 70.58338426 34.74015859 75.58486265 36.82421875 80.5859375 C37.67361903 82.62339171 38.52306612 84.66082641 39.37255859 86.69824219 C43.51076901 96.62348579 47.64875924 106.54882101 51.78573608 116.47457886 C53.10010964 119.62778753 54.41491234 122.78081702 55.72973633 125.93383789 C56.53078269 127.85562277 57.33180916 129.77741594 58.1328125 131.69921875 C58.67824455 133.00670578 58.67824455 133.00670578 59.23469543 134.34060669 C59.88607177 135.90388261 60.53536605 137.46802877 61.1819458 139.03329468 C61.85379633 140.64850796 62.54680388 142.25490525 63.24560547 143.85864258 C64.43175802 147.22555003 63.92704547 149.60083327 63 153 C59.26848189 156.59243625 55.01869955 158.51937984 50.28515625 160.453125 C49.5517955 160.75820984 48.81843475 161.06329468 48.06285095 161.37762451 C46.5189557 162.01697038 44.97330612 162.65209456 43.42602539 163.28320312 C41.06772872 164.2478612 38.71842159 165.23237129 36.36914062 166.21875 C34.86248058 166.83975957 33.35533446 167.45959141 31.84765625 168.078125 C31.15060074 168.37180969 30.45354523 168.66549438 29.73536682 168.96807861 C25.70228049 170.59184469 22.33324932 171.77747763 18 171 C14.26576689 167.50129329 12.4847311 163.03453857 10.55859375 158.37890625 C10.23900696 157.62427597 9.91942017 156.86964569 9.59014893 156.09214783 C8.5312768 153.58554695 7.48427632 151.07417368 6.4375 148.5625 C5.68452922 146.77191305 4.93101808 144.98155325 4.17700195 143.19140625 C-2.57627807 127.12778675 -9.21773065 111.01708608 -15.85301208 94.90444946 C-21.53430857 81.10944491 -27.25999347 67.33316844 -33 53.5625 C-33.43341705 52.52222656 -33.86683411 51.48195313 -34.31338501 50.41015625 C-35.54177686 47.46203928 -36.77074513 44.51416347 -38 41.56640625 C-38.36163742 40.69871109 -38.72327484 39.83101593 -39.09587097 38.93702698 C-39.43548355 38.12322067 -39.77509613 37.30941437 -40.125 36.47094727 C-40.44283447 35.708638 -40.76066895 34.94632874 -41.08813477 34.16091919 C-41.94475826 32.13091072 -42.82770963 30.11421692 -43.71484375 28.09741211 C-45.147294 24.64500019 -45.72026053 22.68133161 -45 19 C-40.83870239 15.00574151 -36.69329011 12.65536086 -31.40625 10.44921875 C-30.69650024 10.14554886 -29.98675049 9.84187897 -29.25549316 9.52900696 C-27.76510933 8.89466792 -26.27250896 8.26551356 -24.77783203 7.64135742 C-22.49981019 6.68742052 -20.23230212 5.71116148 -17.96484375 4.73242188 C-16.50838799 4.11582638 -15.0513745 3.50054627 -13.59375 2.88671875 C-12.92170532 2.59617111 -12.24966064 2.30562347 -11.55725098 2.00627136 C-7.55647127 0.35722913 -4.31449338 -0.65437473 0 0 Z " fill="#F2F4F6" transform="translate(68,318)"/>
<path d="M0 0 C5.47258701 0.25306761 5.47258701 0.25306761 7.68667603 1.78540039 C9.44628969 4.27489893 9.34562715 5.99157733 9.35302734 9.02734375 C9.36248383 10.13859619 9.37194031 11.24984863 9.38168335 12.39477539 C9.37561066 13.59481201 9.36953796 14.79484863 9.36328125 16.03125 C9.36615143 17.26286865 9.36902161 18.4944873 9.37197876 19.76342773 C9.37454533 23.03722957 9.36245985 26.31060537 9.34570312 29.58435059 C9.33984928 31.59185385 9.3456817 33.59896369 9.35595703 35.60644531 C9.37445355 39.45656695 9.37225367 43.30610434 9.36328125 47.15625 C9.37239029 48.95630493 9.37239029 48.95630493 9.38168335 50.79272461 C9.37222687 51.90397705 9.36277039 53.01522949 9.35302734 54.16015625 C9.35064056 55.13927979 9.34825378 56.11840332 9.34579468 57.12719727 C8.96484375 59.59375 8.96484375 59.59375 5.96484375 62.59375 C2.33484375 63.25375 -1.29515625 63.91375 -5.03515625 64.59375 C3.54484375 73.17375 12.12484375 81.75375 20.96484375 90.59375 C24.97097737 88.59068319 27.53167258 86.28514834 30.60546875 83.1484375 C31.13251404 82.61856232 31.65955933 82.08868713 32.20257568 81.54275513 C33.8781005 79.85607175 35.54652097 78.16255436 37.21484375 76.46875 C38.35240226 75.32115612 39.49041811 74.17401539 40.62890625 73.02734375 C43.4128784 70.22136863 46.19050135 67.40924536 48.96484375 64.59375 C48.20558594 64.48417969 47.44632812 64.37460937 46.6640625 64.26171875 C45.67019531 64.10316406 44.67632812 63.94460938 43.65234375 63.78125 C42.66621094 63.63042969 41.68007813 63.47960937 40.6640625 63.32421875 C37.68550309 62.51815419 36.7977943 62.01947244 34.96484375 59.59375 C34.58389282 57.12719727 34.58389282 57.12719727 34.57666016 54.16015625 C34.56720367 53.04890381 34.55774719 51.93765137 34.54800415 50.79272461 C34.55407684 49.59268799 34.56014954 48.39265137 34.56640625 47.15625 C34.56353607 45.92463135 34.56066589 44.6930127 34.55770874 43.42407227 C34.55514217 40.15027043 34.56722765 36.87689463 34.58398438 33.60314941 C34.58983822 31.59564615 34.5840058 29.58853631 34.57373047 27.58105469 C34.55523395 23.73093305 34.55743383 19.88139566 34.56640625 16.03125 C34.56033356 14.83121338 34.55426086 13.63117676 34.54800415 12.39477539 C34.56218887 10.72789673 34.56218887 10.72789673 34.57666016 9.02734375 C34.57904694 8.04822021 34.58143372 7.06909668 34.58389282 6.06030273 C34.96484375 3.59375 34.96484375 3.59375 36.24301147 1.78540039 C38.65866795 0.11356625 41.05690365 0.1328455 43.9296875 0 C47.25006854 0.96871001 48.16672589 2.67339926 49.96484375 5.59375 C50.51132623 8.89802382 50.43087813 12.14696505 50.35546875 15.48828125 C50.34980896 16.43563644 50.34414917 17.38299164 50.33831787 18.35905457 C50.31598459 21.37530735 50.26579355 24.39035822 50.21484375 27.40625 C50.19477482 29.45506093 50.17652474 31.50389054 50.16015625 33.55273438 C50.11612969 38.56686709 50.04712285 43.58010499 49.96484375 48.59375 C50.9863855 48.57018433 50.9863855 48.57018433 52.02856445 48.54614258 C55.11140656 48.48381778 58.19411619 48.44476742 61.27734375 48.40625 C62.34919922 48.38111328 63.42105469 48.35597656 64.52539062 48.33007812 C65.55341797 48.32041016 66.58144531 48.31074219 67.640625 48.30078125 C68.58848877 48.2850708 69.53635254 48.26936035 70.51293945 48.25317383 C72.96484375 48.59375 72.96484375 48.59375 74.75439453 49.88354492 C76.442548 52.26868309 76.68598247 54.50651842 76.57080078 57.38671875 C75.2950183 62.03340435 71.36247292 64.95130019 67.90234375 68.09375 C66.3882541 69.51831764 64.87651403 70.94538682 63.3671875 72.375 C62.61445557 73.08261475 61.86172363 73.79022949 61.08618164 74.51928711 C59.17988236 76.38346308 57.43412546 78.28760836 55.70703125 80.31640625 C51.05054875 85.76518177 45.93988064 90.76808672 40.86547852 95.82348633 C39.13504238 97.54849713 37.41009885 99.27887428 35.68554688 101.00976562 C34.58495646 102.10969633 33.48405647 103.20931738 32.3828125 104.30859375 C31.86824997 104.82518051 31.35368744 105.34176727 30.8235321 105.87400818 C28.01058771 108.6683939 26.27730925 110.34375657 22.33984375 111.09375 C13.79322764 109.82758465 6.25207162 99.03103023 0.40234375 93.15625 C-0.50451172 92.25326172 -1.41136719 91.35027344 -2.34570312 90.41992188 C-6.8571362 85.90194575 -11.19220659 81.32096885 -15.34399414 76.47241211 C-17.14213593 74.47490942 -19.03451432 72.64507033 -21 70.8125 C-21.65419922 70.19761719 -22.30839844 69.58273437 -22.98242188 68.94921875 C-24.32394303 67.69853661 -25.67852045 66.4617321 -27.04492188 65.23828125 C-30.31600898 62.12078165 -32.47769069 59.97286025 -32.6640625 55.3125 C-31.8717566 50.62756079 -31.8717566 50.62756079 -29.03515625 48.59375 C-26.58325195 48.25317383 -26.58325195 48.25317383 -23.7109375 48.30078125 C-22.68291016 48.31044922 -21.65488281 48.32011719 -20.59570312 48.33007812 C-18.98791992 48.3677832 -18.98791992 48.3677832 -17.34765625 48.40625 C-16.26419922 48.41978516 -15.18074219 48.43332031 -14.06445312 48.44726562 C-11.3875222 48.48264357 -8.71158787 48.53200811 -6.03515625 48.59375 C-6.05610352 47.31733643 -6.07705078 46.04092285 -6.09863281 44.72583008 C-6.17112056 39.98294323 -6.21698812 35.2401052 -6.25488281 30.49682617 C-6.27497824 28.44531007 -6.30225949 26.39385111 -6.33691406 24.3425293 C-6.38552294 21.39096975 -6.40814577 18.44016852 -6.42578125 15.48828125 C-6.44642639 14.57351517 -6.46707153 13.65874908 -6.48834229 12.71626282 C-6.48983368 8.46845589 -6.41032153 6.20306167 -4.13793945 2.51245117 C-2.03515625 0.59375 -2.03515625 0.59375 0 0 Z " fill="#000000" transform="translate(319.03515625,208.40625)"/>
<path d="M0 0 C11.37224958 8.67374968 19.74345022 19.92705275 23 34 C23.26870676 37.15173538 23.28013357 40.27598635 23.25 43.4375 C23.26160156 44.64889648 23.26160156 44.64889648 23.2734375 45.88476562 C23.23124824 58.97398303 18.59886712 70.2351848 10 80 C9.4534375 80.6290625 8.906875 81.258125 8.34375 81.90625 C-0.91000012 91.85839635 -14.53567563 97.91942471 -28.09692383 98.54272461 C-43.62340212 98.69412039 -56.48754644 92.87858032 -67.64453125 82.37890625 C-79.35514172 70.55177229 -83.32050149 57.80141653 -83.38500977 41.46508789 C-83.17072177 29.34333706 -78.74593005 19.30813442 -71 10 C-70.42765625 9.30390625 -69.8553125 8.6078125 -69.265625 7.890625 C-51.08378675 -12.15601717 -22.38227352 -13.91330516 0 0 Z M-60.875 19.16796875 C-62.44128864 21.38035146 -63.74322663 23.59960328 -65 26 C-65.41121094 26.72445312 -65.82242187 27.44890625 -66.24609375 28.1953125 C-70.46100302 36.80014457 -70.46586731 47.27922583 -68.1171875 56.4453125 C-63.30174696 68.91443338 -55.63649066 76.2242436 -43.78515625 82.09765625 C-34.9205154 85.64681413 -25.05667256 85.08061028 -16.1875 81.9375 C-6.56811959 77.7597399 -0.02807657 72.21559322 5 63 C5.41378906 62.27425781 5.82757813 61.54851562 6.25390625 60.80078125 C10.35648455 52.38120419 10.45525072 41.90267511 8.234375 32.89453125 C5.55066924 25.85512845 1.57664085 20.0696735 -4 15 C-4.54140625 14.50371094 -5.0828125 14.00742188 -5.640625 13.49609375 C-12.97649921 7.34690507 -22.82496412 4.12787496 -32.41015625 4.625 C-43.58255649 6.24272311 -53.38660753 10.50951495 -60.875 19.16796875 Z " fill="#030402" transform="translate(371,58)"/>
<path d="M0 0 C6.10452329 0.59505101 11.638991 1.91483648 17.5 3.6875 C25.29208649 5.98288639 33.10932703 8.07131047 41 10 C49.50580287 12.08486255 57.92743226 14.36512195 66.33447266 16.81591797 C73.96697398 19.02674153 81.65620416 20.95634849 89.37109375 22.85546875 C106.38514811 27.04370435 123.22979877 31.93066785 140 37 C137.81572339 44.78148544 133.92811016 48.81059538 127.1953125 53.16796875 C117.47596189 56.85163722 106.1598246 53.56389792 96.75 50.4921875 C91.23866381 48.70313025 85.62854854 47.36484372 80 46 C73.11650703 44.313437 66.28031289 42.56393591 59.5 40.5 C52.50866823 38.37846848 45.46047567 36.53097851 38.375 34.75 C37.35470703 34.49154297 36.33441406 34.23308594 35.28320312 33.96679688 C27.71746748 32.03247924 27.71746748 32.03247924 20 31 C16.68539295 32.70892499 16.68539295 32.70892499 16.3125 36.125 C16.209375 37.07375 16.10625 38.0225 16 39 C15.67 39 15.34 39 15 39 C14.91363281 38.24589844 14.82726562 37.49179687 14.73828125 36.71484375 C13.85161591 33.45435482 12.82446206 32.60259867 10.1875 30.5625 C4.75730149 26.06485794 0.95649118 21.14915844 0 14 C-0.15385306 9.32799544 -0.11665039 4.67249623 0 0 Z " fill="#D3A788" transform="translate(187,329)"/>
<path d="M0 0 C3.6875 0.3125 3.6875 0.3125 6.0625 2.125 C7.6875 4.3125 7.6875 4.3125 8.6875 7.3125 C9.6775 7.89 10.6675 8.4675 11.6875 9.0625 C14.6875 11.3125 14.6875 11.3125 15.875 14.75 C15.6875 18.3125 15.6875 18.3125 13.625 21.3125 C10.6875 23.3125 10.6875 23.3125 7.4375 23.1875 C4.6875 22.3125 4.6875 22.3125 3.6875 21.3125 C1.68791636 21.27169217 -0.31295254 21.26995644 -2.3125 21.3125 C-1.9825 22.6325 -1.6525 23.9525 -1.3125 25.3125 C-0.67183594 25.39886719 -0.03117187 25.48523438 0.62890625 25.57421875 C8.09576217 26.78716554 13.12762421 28.76170455 17.625 35 C19.51299083 40.88608905 19.79534138 46.09681723 17 51.6875 C14.72102178 54.27444825 12.53250432 56.3659181 9.6875 58.3125 C9.0275 58.3125 8.3675 58.3125 7.6875 58.3125 C7.56375 59.09625 7.44 59.88 7.3125 60.6875 C6.6875 63.3125 6.6875 63.3125 4.6875 65.3125 C0.68063644 65.75770706 -1.45952112 65.94676635 -4.75 63.5 C-6.3125 61.3125 -6.3125 61.3125 -6.3125 58.3125 C-7.055 58.065 -7.7975 57.8175 -8.5625 57.5625 C-11.67317153 56.1485584 -13.29433429 55.0781345 -15.3125 52.3125 C-15.73769574 48.85019185 -15.95152633 46.4777833 -14.25 43.375 C-11.18366726 41.69346269 -8.73736249 41.95198816 -5.3125 42.3125 C-3.96974831 43.29981742 -2.63517727 44.29844743 -1.3125 45.3125 C1.3859589 45.09052187 1.3859589 45.09052187 3.6875 44.3125 C3.6875 43.3225 3.6875 42.3325 3.6875 41.3125 C2.70910156 41.16554688 2.70910156 41.16554688 1.7109375 41.015625 C-6.38812898 39.62994401 -11.436195 37.17544777 -16.3125 30.3125 C-18.18738157 26.56273686 -17.84297439 22.39536469 -17.3125 18.3125 C-15.12377801 12.89064511 -12.31027848 10.2059507 -7.3125 7.3125 C-5.54522142 4.2790533 -5.54522142 4.2790533 -4.3125 1.3125 C-3.3125 0.3125 -3.3125 0.3125 0 0 Z " fill="#030402" transform="translate(340.3125,69.6875)"/>
</svg>
