<?xml version="1.0" encoding="UTF-8"?>
<svg version="1.1" xmlns="http://www.w3.org/2000/svg" width="512" height="512">
<path d="M0 0 C1.45230283 -0.02373025 1.45230283 -0.02373025 2.93394512 -0.0479399 C6.17733376 -0.09804184 9.4207119 -0.13388183 12.66429138 -0.16934204 C14.99295311 -0.20153095 17.32160701 -0.23429074 19.6502533 -0.26757812 C41.06974664 -0.55879972 62.49169013 -0.70810795 83.91281223 -0.82541466 C86.79205044 -0.84146579 89.67128685 -0.85780289 92.55052185 -0.87442017 C93.26592701 -0.87853537 93.98133216 -0.88265058 94.71841627 -0.88689049 C106.18412173 -0.95502489 117.64751478 -1.09970772 129.11200894 -1.27623539 C140.9673546 -1.45721158 152.82153155 -1.55769261 164.67822689 -1.58801901 C171.30061223 -1.60698255 177.91941254 -1.65983893 184.54066658 -1.80064011 C218.77903734 -2.49734732 269.5281675 -0.12759103 296.41600037 25.3477478 C296.98705505 26.03739624 297.55810974 26.72704468 298.14646912 27.43759155 C298.73041443 28.12981812 299.31435974 28.82204468 299.91600037 29.5352478 C303.83257988 34.61709064 302.83683391 41.24991898 302.33396912 47.37509155 C300.64646912 50.93759155 300.64646912 50.93759155 298.33396912 53.37509155 C297.69459412 54.22071655 297.05521912 55.06634155 296.39646912 55.93759155 C291.62852169 59.73248848 286.05374379 61.40708709 280.33396912 63.37509155 C281.52893005 63.41376343 281.52893005 63.41376343 282.74803162 63.45321655 C293.6435245 64.03643028 293.6435245 64.03643028 298.33396912 68.37509155 C301.88905685 72.88805452 302.8343529 75.81172743 302.83733368 81.53097534 C302.84314744 82.23171079 302.84896121 82.93244623 302.85495114 83.65441608 C302.8695488 86.00241425 302.85566792 88.34936664 302.84190369 90.69735718 C302.84651271 92.39768254 302.85286564 94.09800392 302.86081266 95.79831696 C302.8775289 100.47073391 302.8692492 105.14282456 302.85686779 109.81524277 C302.84782902 114.85417658 302.8617812 119.89305371 302.87278748 124.93197632 C302.89058981 134.80323868 302.88672507 144.67437951 302.87513691 154.54564667 C302.86610961 162.5670115 302.86487554 170.58834224 302.86923218 178.60971069 C302.86984511 179.75061425 302.87045804 180.8915178 302.87108955 182.06699419 C302.87236843 184.38459461 302.87366528 186.70219502 302.87497991 189.01979542 C302.88639073 210.76062816 302.87326412 232.50139347 302.85177845 254.24221516 C302.83390703 272.90372856 302.83701099 291.56514244 302.85545349 310.22665405 C302.87685132 331.88878773 302.88529205 353.55086229 302.87300444 375.21300507 C302.87173022 377.52216084 302.87047273 379.83131662 302.86923218 382.14047241 C302.86830652 383.84477126 302.86830652 383.84477126 302.86736217 385.58350039 C302.86390601 393.59680886 302.86974335 401.61007989 302.87915039 409.62338257 C302.89035966 419.38667501 302.88735287 429.14983879 302.86602741 438.91311646 C302.8555026 443.89612918 302.85141957 448.87892726 302.86462402 453.86193848 C302.87652407 458.42160565 302.87002487 462.98085875 302.84871382 467.54048824 C302.84423761 469.19181375 302.84653681 470.84317407 302.85621697 472.49447727 C302.8683543 474.73655377 302.8559348 476.97720597 302.83733368 479.21920776 C302.83668427 480.46523521 302.83603486 481.71126266 302.83536577 482.99504852 C302.07239438 488.13843373 299.5722848 491.19441155 295.87632751 494.71834564 C290.52370958 497.22174222 285.49663342 496.92616728 279.65623474 496.88302612 C277.71929119 496.89238607 277.71929119 496.89238607 275.74321747 496.9019351 C272.16531806 496.91862236 268.5878458 496.91038511 265.00994492 496.89799023 C261.14892951 496.88893948 257.28798752 496.90290957 253.42698669 496.91390991 C245.86580532 496.9316995 238.30478273 496.92785322 230.74359512 496.91625935 C224.5986577 496.90722702 218.45376479 496.90600016 212.30882263 496.91035461 C211.43435376 496.91096755 210.55988488 496.91158048 209.65891695 496.91221198 C207.88246853 496.91349088 206.10602012 496.91478773 204.32957172 496.91610235 C187.67050284 496.92750943 171.01152199 496.91439244 154.35246754 496.89290088 C140.05719481 496.87502978 125.762052 496.87813385 111.46678162 496.89657593 C94.86746328 496.91798038 78.26822211 496.92641078 61.66889191 496.91412687 C59.89896648 496.91285267 58.12904105 496.91159519 56.3591156 496.91035461 C55.48827096 496.90973751 54.61742631 496.90912041 53.72019243 496.90848461 C47.58239929 496.90503043 41.44465507 496.91086151 35.30686951 496.92027283 C27.82726534 496.93148947 20.34782909 496.92845987 12.86824417 496.90714985 C9.05176298 496.89663484 5.23556179 496.89252507 1.41908264 496.90574646 C-2.71695436 496.91985822 -6.85228392 496.90301269 -10.98829651 496.88302612 C-12.1962664 496.89194901 -13.4042363 496.9008719 -14.64881134 496.91006517 C-20.95230013 496.85077602 -24.91481105 496.68654613 -29.66603088 492.37509155 C-33.94172813 487.47500396 -34.2165366 483.67386447 -34.05665588 477.47665405 C-34.05099609 476.64169403 -34.0453363 475.80673401 -34.039505 474.94647217 C-34.01723312 472.2970789 -33.96705612 469.6490714 -33.91603088 467.00009155 C-33.89595391 465.19672576 -33.87770524 463.39333863 -33.86134338 461.5899353 C-33.8208107 457.1840327 -33.74250935 452.78110079 -33.66603088 448.37509155 C-43.89603088 448.37509155 -54.12603088 448.37509155 -64.66603088 448.37509155 C-67.35353088 440.68759155 -67.35353088 440.68759155 -68.16481018 438.29428101 C-69.87053135 433.59210299 -71.78989444 430.69334329 -75.66603088 427.37509155 C-76.4665387 426.65966187 -77.26704651 425.94423218 -78.09181213 425.2071228 C-84.54566694 420.61401521 -93.20032021 418.43471504 -101.04884338 419.6055603 C-105.55457428 420.93037968 -109.65054102 423.087306 -113.78321838 425.2930603 C-116.66603088 426.37509155 -116.66603088 426.37509155 -118.52522278 425.74951172 C-121.31908676 423.95582316 -123.45872051 421.82105197 -125.80177307 419.46640015 C-126.29978928 418.96867599 -126.79780548 418.47095184 -127.31091309 417.95814514 C-128.94969822 416.31797085 -130.58129222 414.67083494 -132.21290588 413.02352905 C-133.35018435 411.88251899 -134.48790628 410.74195078 -135.62605286 409.60180664 C-138.61593067 406.60430393 -141.5997528 403.60084305 -144.58235168 400.59609985 C-147.62874409 397.52922443 -150.68082791 394.46802461 -153.73243713 391.40634155 C-159.71588523 385.40146372 -165.69294751 379.39027923 -171.66603088 373.37509155 C-170.50205831 369.81298911 -169.28384872 366.47294913 -167.60353088 363.12509155 C-163.72228387 354.33736247 -164.32418498 347.38074074 -167.43946838 338.3633728 C-170.54953606 330.7862971 -174.41893329 327.15174804 -181.66603088 323.37509155 C-185.62603088 322.05509155 -189.58603088 320.73509155 -193.66603088 319.37509155 C-193.66603088 293.63509155 -193.66603088 267.89509155 -193.66603088 241.37509155 C-188.38603088 239.39509155 -183.10603088 237.41509155 -177.66603088 235.37509155 C-169.59911371 227.30817438 -165.34839208 220.78532846 -164.49806213 209.0586853 C-164.80756675 202.83420349 -167.71078189 197.72169066 -170.58399963 192.2930603 C-171.66603088 189.37509155 -171.66603088 189.37509155 -171.04045105 187.51370239 C-169.24606406 184.72161919 -167.11119182 182.58160638 -164.75733948 180.23934937 C-164.01075325 179.49232506 -164.01075325 179.49232506 -163.24908447 178.73020935 C-161.60891018 177.09142422 -159.96177427 175.45983021 -158.31446838 173.82821655 C-157.17345832 172.69093808 -156.03289011 171.55321615 -154.89274597 170.41506958 C-151.89524327 167.42519177 -148.89178238 164.44136964 -145.88703918 161.45877075 C-142.82016376 158.41237834 -139.75896394 155.36029453 -136.69728088 152.3086853 C-130.69240305 146.32523721 -124.68121857 140.34817493 -118.66603088 134.37509155 C-115.10392844 135.53906413 -111.76388846 136.75727372 -108.41603088 138.43759155 C-99.55583798 142.35084342 -92.77550623 141.55579084 -83.64649963 138.6758728 C-80.50141808 137.30324874 -78.29408155 135.55366758 -75.66603088 133.37509155 C-75.00603088 133.37509155 -74.34603088 133.37509155 -73.66603088 133.37509155 C-73.37599182 132.79114624 -73.08595276 132.20720093 -72.78712463 131.6055603 C-72.10453972 130.24752551 -71.4118139 128.89444649 -70.70118713 127.5508728 C-70.38021057 126.93598999 -70.05923401 126.32110718 -69.72853088 125.68759155 C-69.41013245 125.08559937 -69.09173401 124.48360718 -68.76368713 123.8633728 C-67.12273909 120.14350126 -65.95172738 116.23218104 -64.66603088 112.37509155 C-54.43603088 112.37509155 -44.20603088 112.37509155 -33.66603088 112.37509155 C-33.71243713 109.70157593 -33.75884338 107.0280603 -33.80665588 104.27352905 C-33.8378883 101.67214861 -33.86215502 99.07078938 -33.88575745 96.46932983 C-33.90582121 94.66715075 -33.93307901 92.86503634 -33.9677887 91.06307983 C-34.01653917 88.46640019 -34.0390517 85.87058426 -34.05665588 83.27352905 C-34.07730103 82.47329315 -34.09794617 81.67305725 -34.11921692 80.84857178 C-34.1213743 75.41922789 -32.86906719 72.88533947 -29.66603088 68.37509155 C-29.87059444 65.49175037 -30.94326836 63.78675553 -32.20118713 61.11727905 C-34.45386254 55.1842729 -34.14997754 48.9063798 -34.11207581 42.64901733 C-34.10357486 40.511152 -34.13237499 38.37597479 -34.16407776 36.2383728 C-34.21805513 25.77808982 -32.75107367 16.81021312 -25.36915588 8.90634155 C-17.77543578 2.07896017 -9.99557194 0.08684738 0 0 Z M-77.85353088 231.18759155 C-90.53317824 244.27625979 -97.29007808 262.14060738 -97.10353088 280.18759155 C-97.09450745 281.24003052 -97.08548401 282.29246948 -97.07618713 283.37680054 C-96.67055534 301.66544244 -89.33343211 317.81503643 -76.43946838 330.72665405 C-65.20103177 341.45856958 -49.87793245 351.37509155 -33.66603088 351.37509155 C-33.66603088 304.51509155 -33.66603088 257.65509155 -33.66603088 209.37509155 C-50.53368081 209.37509155 -66.10375521 220.13963292 -77.85353088 231.18759155 Z " fill="#E5E8EC" transform="translate(201.66603088378906,7.624908447265625)"/>
<path d="M0 0 C1.45230283 -0.02373025 1.45230283 -0.02373025 2.93394512 -0.0479399 C6.17733376 -0.09804184 9.4207119 -0.13388183 12.66429138 -0.16934204 C14.99295311 -0.20153095 17.32160701 -0.23429074 19.6502533 -0.26757812 C41.06974664 -0.55879972 62.49169013 -0.70810795 83.91281223 -0.82541466 C86.79205044 -0.84146579 89.67128685 -0.85780289 92.55052185 -0.87442017 C93.26592701 -0.87853537 93.98133216 -0.88265058 94.71841627 -0.88689049 C106.18412173 -0.95502489 117.64751478 -1.09970772 129.11200894 -1.27623539 C140.9673546 -1.45721158 152.82153155 -1.55769261 164.67822689 -1.58801901 C171.30061223 -1.60698255 177.91941254 -1.65983893 184.54066658 -1.80064011 C218.77903734 -2.49734732 269.5281675 -0.12759103 296.41600037 25.3477478 C296.98705505 26.03739624 297.55810974 26.72704468 298.14646912 27.43759155 C298.73041443 28.12981812 299.31435974 28.82204468 299.91600037 29.5352478 C303.83257988 34.61709064 302.83683391 41.24991898 302.33396912 47.37509155 C300.64646912 50.93759155 300.64646912 50.93759155 298.33396912 53.37509155 C297.69459412 54.22071655 297.05521912 55.06634155 296.39646912 55.93759155 C291.62852169 59.73248848 286.05374379 61.40708709 280.33396912 63.37509155 C281.52893005 63.41376343 281.52893005 63.41376343 282.74803162 63.45321655 C293.6435245 64.03643028 293.6435245 64.03643028 298.33396912 68.37509155 C301.88905685 72.88805452 302.8343529 75.81172743 302.83733368 81.53097534 C302.84314744 82.23171079 302.84896121 82.93244623 302.85495114 83.65441608 C302.8695488 86.00241425 302.85566792 88.34936664 302.84190369 90.69735718 C302.84651271 92.39768254 302.85286564 94.09800392 302.86081266 95.79831696 C302.8775289 100.47073391 302.8692492 105.14282456 302.85686779 109.81524277 C302.84782902 114.85417658 302.8617812 119.89305371 302.87278748 124.93197632 C302.89058981 134.80323868 302.88672507 144.67437951 302.87513691 154.54564667 C302.86610961 162.5670115 302.86487554 170.58834224 302.86923218 178.60971069 C302.86984511 179.75061425 302.87045804 180.8915178 302.87108955 182.06699419 C302.87236843 184.38459461 302.87366528 186.70219502 302.87497991 189.01979542 C302.88639073 210.76062816 302.87326412 232.50139347 302.85177845 254.24221516 C302.83390703 272.90372856 302.83701099 291.56514244 302.85545349 310.22665405 C302.87685132 331.88878773 302.88529205 353.55086229 302.87300444 375.21300507 C302.87173022 377.52216084 302.87047273 379.83131662 302.86923218 382.14047241 C302.86830652 383.84477126 302.86830652 383.84477126 302.86736217 385.58350039 C302.86390601 393.59680886 302.86974335 401.61007989 302.87915039 409.62338257 C302.89035966 419.38667501 302.88735287 429.14983879 302.86602741 438.91311646 C302.8555026 443.89612918 302.85141957 448.87892726 302.86462402 453.86193848 C302.87652407 458.42160565 302.87002487 462.98085875 302.84871382 467.54048824 C302.84423761 469.19181375 302.84653681 470.84317407 302.85621697 472.49447727 C302.8683543 474.73655377 302.8559348 476.97720597 302.83733368 479.21920776 C302.83668427 480.46523521 302.83603486 481.71126266 302.83536577 482.99504852 C302.07239438 488.13843373 299.5722848 491.19441155 295.87632751 494.71834564 C290.52370958 497.22174222 285.49663342 496.92616728 279.65623474 496.88302612 C277.71929119 496.89238607 277.71929119 496.89238607 275.74321747 496.9019351 C272.16531806 496.91862236 268.5878458 496.91038511 265.00994492 496.89799023 C261.14892951 496.88893948 257.28798752 496.90290957 253.42698669 496.91390991 C245.86580532 496.9316995 238.30478273 496.92785322 230.74359512 496.91625935 C224.5986577 496.90722702 218.45376479 496.90600016 212.30882263 496.91035461 C211.43435376 496.91096755 210.55988488 496.91158048 209.65891695 496.91221198 C207.88246853 496.91349088 206.10602012 496.91478773 204.32957172 496.91610235 C187.67050284 496.92750943 171.01152199 496.91439244 154.35246754 496.89290088 C140.05719481 496.87502978 125.762052 496.87813385 111.46678162 496.89657593 C94.86746328 496.91798038 78.26822211 496.92641078 61.66889191 496.91412687 C59.89896648 496.91285267 58.12904105 496.91159519 56.3591156 496.91035461 C55.48827096 496.90973751 54.61742631 496.90912041 53.72019243 496.90848461 C47.58239929 496.90503043 41.44465507 496.91086151 35.30686951 496.92027283 C27.82726534 496.93148947 20.34782909 496.92845987 12.86824417 496.90714985 C9.05176298 496.89663484 5.23556179 496.89252507 1.41908264 496.90574646 C-2.71695436 496.91985822 -6.85228392 496.90301269 -10.98829651 496.88302612 C-12.1962664 496.89194901 -13.4042363 496.9008719 -14.64881134 496.91006517 C-20.95230013 496.85077602 -24.91481105 496.68654613 -29.66603088 492.37509155 C-33.94172813 487.47500396 -34.2165366 483.67386447 -34.05665588 477.47665405 C-34.05099609 476.64169403 -34.0453363 475.80673401 -34.039505 474.94647217 C-34.01723312 472.2970789 -33.96705612 469.6490714 -33.91603088 467.00009155 C-33.89595391 465.19672576 -33.87770524 463.39333863 -33.86134338 461.5899353 C-33.8208107 457.1840327 -33.74250935 452.78110079 -33.66603088 448.37509155 C-43.89603088 448.37509155 -54.12603088 448.37509155 -64.66603088 448.37509155 C-67.35353088 440.68759155 -67.35353088 440.68759155 -68.16481018 438.29428101 C-69.87053135 433.59210299 -71.78989444 430.69334329 -75.66603088 427.37509155 C-76.4665387 426.65966187 -77.26704651 425.94423218 -78.09181213 425.2071228 C-84.54566694 420.61401521 -93.20032021 418.43471504 -101.04884338 419.6055603 C-105.55457428 420.93037968 -109.65054102 423.087306 -113.78321838 425.2930603 C-116.66603088 426.37509155 -116.66603088 426.37509155 -118.52522278 425.74951172 C-121.31908676 423.95582316 -123.45872051 421.82105197 -125.80177307 419.46640015 C-126.29978928 418.96867599 -126.79780548 418.47095184 -127.31091309 417.95814514 C-128.94969822 416.31797085 -130.58129222 414.67083494 -132.21290588 413.02352905 C-133.35018435 411.88251899 -134.48790628 410.74195078 -135.62605286 409.60180664 C-138.61593067 406.60430393 -141.5997528 403.60084305 -144.58235168 400.59609985 C-147.62874409 397.52922443 -150.68082791 394.46802461 -153.73243713 391.40634155 C-159.71588523 385.40146372 -165.69294751 379.39027923 -171.66603088 373.37509155 C-170.50205831 369.81298911 -169.28384872 366.47294913 -167.60353088 363.12509155 C-163.72228387 354.33736247 -164.32418498 347.38074074 -167.43946838 338.3633728 C-170.54953606 330.7862971 -174.41893329 327.15174804 -181.66603088 323.37509155 C-185.62603088 322.05509155 -189.58603088 320.73509155 -193.66603088 319.37509155 C-193.66603088 293.63509155 -193.66603088 267.89509155 -193.66603088 241.37509155 C-188.38603088 239.39509155 -183.10603088 237.41509155 -177.66603088 235.37509155 C-169.59911371 227.30817438 -165.34839208 220.78532846 -164.49806213 209.0586853 C-164.80756675 202.83420349 -167.71078189 197.72169066 -170.58399963 192.2930603 C-171.66603088 189.37509155 -171.66603088 189.37509155 -171.04045105 187.51370239 C-169.24606406 184.72161919 -167.11119182 182.58160638 -164.75733948 180.23934937 C-164.01075325 179.49232506 -164.01075325 179.49232506 -163.24908447 178.73020935 C-161.60891018 177.09142422 -159.96177427 175.45983021 -158.31446838 173.82821655 C-157.17345832 172.69093808 -156.03289011 171.55321615 -154.89274597 170.41506958 C-151.89524327 167.42519177 -148.89178238 164.44136964 -145.88703918 161.45877075 C-142.82016376 158.41237834 -139.75896394 155.36029453 -136.69728088 152.3086853 C-130.69240305 146.32523721 -124.68121857 140.34817493 -118.66603088 134.37509155 C-115.10392844 135.53906413 -111.76388846 136.75727372 -108.41603088 138.43759155 C-99.55583798 142.35084342 -92.77550623 141.55579084 -83.64649963 138.6758728 C-80.50141808 137.30324874 -78.29408155 135.55366758 -75.66603088 133.37509155 C-75.00603088 133.37509155 -74.34603088 133.37509155 -73.66603088 133.37509155 C-73.37599182 132.79114624 -73.08595276 132.20720093 -72.78712463 131.6055603 C-72.10453972 130.24752551 -71.4118139 128.89444649 -70.70118713 127.5508728 C-70.38021057 126.93598999 -70.05923401 126.32110718 -69.72853088 125.68759155 C-69.41013245 125.08559937 -69.09173401 124.48360718 -68.76368713 123.8633728 C-67.12273909 120.14350126 -65.95172738 116.23218104 -64.66603088 112.37509155 C-54.43603088 112.37509155 -44.20603088 112.37509155 -33.66603088 112.37509155 C-33.71243713 109.70157593 -33.75884338 107.0280603 -33.80665588 104.27352905 C-33.8378883 101.67214861 -33.86215502 99.07078938 -33.88575745 96.46932983 C-33.90582121 94.66715075 -33.93307901 92.86503634 -33.9677887 91.06307983 C-34.01653917 88.46640019 -34.0390517 85.87058426 -34.05665588 83.27352905 C-34.07730103 82.47329315 -34.09794617 81.67305725 -34.11921692 80.84857178 C-34.1213743 75.41922789 -32.86906719 72.88533947 -29.66603088 68.37509155 C-29.87059444 65.49175037 -30.94326836 63.78675553 -32.20118713 61.11727905 C-34.45386254 55.1842729 -34.14997754 48.9063798 -34.11207581 42.64901733 C-34.10357486 40.511152 -34.13237499 38.37597479 -34.16407776 36.2383728 C-34.21805513 25.77808982 -32.75107367 16.81021312 -25.36915588 8.90634155 C-17.77543578 2.07896017 -9.99557194 0.08684738 0 0 Z M-17.66603088 80.37509155 C-17.66603088 212.37509155 -17.66603088 344.37509155 -17.66603088 480.37509155 C82.65396912 480.37509155 182.97396912 480.37509155 286.33396912 480.37509155 C286.33396912 348.37509155 286.33396912 216.37509155 286.33396912 80.37509155 C186.01396912 80.37509155 85.69396912 80.37509155 -17.66603088 80.37509155 Z M-77.85353088 231.18759155 C-90.53317824 244.27625979 -97.29007808 262.14060738 -97.10353088 280.18759155 C-97.09450745 281.24003052 -97.08548401 282.29246948 -97.07618713 283.37680054 C-96.67055534 301.66544244 -89.33343211 317.81503643 -76.43946838 330.72665405 C-65.20103177 341.45856958 -49.87793245 351.37509155 -33.66603088 351.37509155 C-33.66603088 304.51509155 -33.66603088 257.65509155 -33.66603088 209.37509155 C-50.53368081 209.37509155 -66.10375521 220.13963292 -77.85353088 231.18759155 Z " fill="#000000" transform="translate(201.66603088378906,7.624908447265625)"/>
<path d="M0 0 C79.2 0 158.4 0 240 0 C240 26.4 240 52.8 240 80 C160.8 80 81.6 80 0 80 C0 53.6 0 27.2 0 0 Z " fill="#B4DD7F" transform="translate(216,120)"/>
<path d="M0 0 C6.27 0 12.54 0 19 0 C19 10.89 19 21.78 19 33 C16.545625 33.226875 14.09125 33.45375 11.5625 33.6875 C-13.88770003 36.51146347 -35.87427091 48.27947624 -55 65 C-55.74765625 65.65097656 -56.4953125 66.30195313 -57.265625 66.97265625 C-73.34142515 81.97866394 -83.99232937 102.78062799 -89 124 C-89.29648438 125.00933594 -89.59296875 126.01867187 -89.8984375 127.05859375 C-97.20499658 154.44143215 -90.65256333 186.40575039 -77.12011719 210.87988281 C-60.6654337 239.21588504 -33.91264256 259.64579806 -2.31640625 268.03515625 C4.70773867 269.72192323 11.81666497 270.33599424 19 271 C19 281.89 19 292.78 19 304 C2.41558122 305.20176948 2.41558122 305.20176948 -1.25 302.08984375 C-2.68518516 299.45187557 -3.82171876 296.76087466 -5 294 C-12.37027959 283.69798697 -22.19932468 278.37541792 -34.3046875 275.44140625 C-43.18041239 273.98784551 -51.81731107 274.22337434 -60 278 C-63 278 -63 278 -64.33862305 276.73999023 C-64.82886963 276.12325439 -65.31911621 275.50651855 -65.82421875 274.87109375 C-70.85019483 268.87507653 -76.41651282 263.43399897 -81.95385742 257.91577148 C-83.82914563 256.04590247 -85.69895465 254.17067101 -87.56835938 252.29492188 C-88.76009565 251.10384539 -89.95214155 249.9130786 -91.14453125 248.72265625 C-91.98199638 247.88215477 -91.98199638 247.88215477 -92.83638 247.02467346 C-95.65130873 244.15942667 -95.65130873 244.15942667 -99 242 C-98.68950274 240.56206608 -98.3765224 239.1246682 -98.0625 237.6875 C-97.80146484 236.48673828 -97.80146484 236.48673828 -97.53515625 235.26171875 C-97 233 -97 233 -96 230 C-94.70806216 212.95635855 -99.25227098 200.33243683 -110.03515625 187.45703125 C-114.14767613 183.8602035 -114.14767613 183.8602035 -125 179 C-125 161.18 -125 143.36 -125 125 C-121.7 123.35 -118.4 121.7 -115 120 C-105.02669692 113.28858765 -98.89995169 102.87259775 -96.43359375 91.21484375 C-95.18434334 81.95238354 -95.05437705 73.54884973 -99 65 C-99 62 -99 62 -97.73999023 60.66137695 C-97.12325439 60.17113037 -96.50651855 59.68088379 -95.87109375 59.17578125 C-89.87507653 54.14980517 -84.43399897 48.58348718 -78.91577148 43.04614258 C-77.04590247 41.17085437 -75.17067101 39.30104535 -73.29492188 37.43164062 C-72.10384539 36.23990435 -70.9130786 35.04785845 -69.72265625 33.85546875 C-69.16232193 33.29715866 -68.60198761 32.73884857 -68.02467346 32.16362 C-65.15942667 29.34869127 -65.15942667 29.34869127 -63 26 C-61.54096742 26.30921884 -60.08279278 26.62248799 -58.625 26.9375 C-57.81289062 27.11152344 -57.00078125 27.28554687 -56.1640625 27.46484375 C-54 28 -54 28 -52 29 C-36.46980501 30.02094834 -22.92936215 27.0050445 -10.75 16.9375 C-5.45507936 11.99334697 -2.88071901 6.59533038 0 0 Z " fill="#FCC528" transform="translate(149,136)"/>
<path d="M0 0 C79.2 0 158.4 0 240 0 C240 26.4 240 52.8 240 80 C160.8 80 81.6 80 0 80 C0 53.6 0 27.2 0 0 Z M16 16 C16 31.84 16 47.68 16 64 C84.64 64 153.28 64 224 64 C224 48.16 224 32.32 224 16 C155.36 16 86.72 16 16 16 Z " fill="#000000" transform="translate(216,120)"/>
<path d="M0 0 C5.75015452 4.57946438 7.74824021 9.91378259 8.7578125 16.8984375 C8.88391403 17.66539444 9.01001556 18.43235138 9.13993835 19.22254944 C9.53408049 21.64463065 9.90217727 24.06982079 10.26953125 26.49609375 C10.53408792 28.15066646 10.80034817 29.80496773 11.06835938 31.45898438 C11.72086736 35.48918074 12.33790478 39.52257002 12.95703125 43.55859375 C13.28703125 33.65859375 13.61703125 23.75859375 13.95703125 13.55859375 C19.23703125 13.55859375 24.51703125 13.55859375 29.95703125 13.55859375 C30.072354 18.54053667 30.17171475 23.5177815 30.23168945 28.5 C30.25670785 30.19156656 30.29073415 31.88302639 30.33422852 33.57421875 C30.75922636 50.53413272 30.75922636 50.53413272 26.35717773 56.21484375 C22.44289545 59.9714627 18.92004832 61.7612867 13.45703125 62.05859375 C7.58018605 61.76825557 3.91143584 59.40735485 -0.35546875 55.37109375 C-5.21118112 47.2782398 -5.39841056 35.75320687 -6.86572266 26.52978516 C-7.17725315 24.579765 -7.50053826 22.631634 -7.82421875 20.68359375 C-8.01048828 19.53117187 -8.19675781 18.37875 -8.38867188 17.19140625 C-8.60458984 16.32257813 -8.82050781 15.45375 -9.04296875 14.55859375 C-9.70296875 14.22859375 -10.36296875 13.89859375 -11.04296875 13.55859375 C-11.15572144 14.58907837 -11.15572144 14.58907837 -11.27075195 15.64038086 C-11.90210975 21.39800127 -12.54182861 27.1545614 -13.19140625 32.91015625 C-13.7466743 37.83988369 -14.27142202 42.77122161 -14.76953125 47.70703125 C-15.00617526 49.92842115 -15.24314076 52.14977682 -15.48046875 54.37109375 C-15.5781958 55.4067749 -15.67592285 56.44245605 -15.77661133 57.50952148 C-16.53010838 64.33515176 -17.79837732 68.21880648 -22.640625 73.203125 C-27.26120817 76.88726998 -30.74995875 78.02960365 -36.55859375 77.97265625 C-41.1155477 77.21316393 -44.6961666 74.65673791 -48.04296875 71.55859375 C-50.84990029 67.60870672 -51.65263788 64.2352983 -52.32421875 59.46484375 C-52.47364929 58.46112732 -52.47364929 58.46112732 -52.62609863 57.43713379 C-53.0487899 54.5956079 -53.44580942 51.75063816 -53.84521484 48.90576172 C-54.14183206 46.81988835 -54.45147596 44.7362269 -54.76171875 42.65234375 C-54.93638672 41.41162109 -55.11105469 40.17089844 -55.29101562 38.89257812 C-56.07008653 35.43835985 -56.70879503 33.23311489 -59.04296875 30.55859375 C-61.02296875 30.55859375 -63.00296875 30.55859375 -65.04296875 30.55859375 C-65.37296875 40.78859375 -65.70296875 51.01859375 -66.04296875 61.55859375 C-71.32296875 61.55859375 -76.60296875 61.55859375 -82.04296875 61.55859375 C-82.13531039 57.14671542 -82.2147796 52.73825033 -82.26269531 48.32617188 C-82.28268794 46.82865985 -82.30989174 45.33122467 -82.34472656 43.83398438 C-82.72661037 26.98616949 -82.72661037 26.98616949 -76.296875 19.53515625 C-70.00610596 14.50835235 -65.14679595 12.73056451 -57.04296875 13.55859375 C-51.15010222 14.65874074 -47.29846358 17.41714768 -43.6184082 22.11767578 C-38.18167832 30.54111068 -37.86622113 42.42285406 -36.49414062 52.12109375 C-36.33365234 53.19617188 -36.17316406 54.27125 -36.0078125 55.37890625 C-35.86980225 56.35102051 -35.73179199 57.32313477 -35.58959961 58.32470703 C-35.31901733 59.43048096 -35.31901733 59.43048096 -35.04296875 60.55859375 C-34.05296875 61.05359375 -34.05296875 61.05359375 -33.04296875 61.55859375 C-32.96780029 60.871604 -32.89263184 60.18461426 -32.81518555 59.47680664 C-32.18382775 53.71918623 -31.54410889 47.9626261 -30.89453125 42.20703125 C-30.3392632 37.27730381 -29.81451548 32.34596589 -29.31640625 27.41015625 C-29.07976224 25.18876635 -28.84279674 22.96741068 -28.60546875 20.74609375 C-28.5077417 19.7104126 -28.41001465 18.67473145 -28.30932617 17.60766602 C-27.55582912 10.78203574 -26.28756018 6.89838102 -21.4453125 1.9140625 C-14.41469439 -3.69168367 -7.87026265 -3.72801915 0 0 Z " fill="#020202" transform="translate(442.04296875,394.44140625)"/>
<path d="M0 0 C0 5.28 0 10.56 0 16 C-1.711875 16.2475 -3.42375 16.495 -5.1875 16.75 C-29.3917292 20.86443521 -49.89181421 33.03987572 -64.18359375 53.05859375 C-77.26773154 73.26604286 -82.09953371 96.04949786 -77.875 119.8125 C-72.27257864 143.57091652 -59.89250252 163.61114275 -39 177 C-26.85463117 184.1387356 -14.17009925 189.02275178 0 190 C0 195.28 0 200.56 0 206 C-22.72077451 205.55449462 -44.32699158 196.55484839 -61 181 C-61.49870605 180.5369043 -61.99741211 180.07380859 -62.51123047 179.59667969 C-82.05981896 161.27554664 -95.13291271 136.28137158 -96.37109375 109.1953125 C-96.94979431 80.43201277 -88.97349018 54.1892874 -68.94873047 33.05737305 C-67.63805954 31.69951428 -66.31928165 30.34949421 -65 29 C-64.05833984 27.98292969 -64.05833984 27.98292969 -63.09765625 26.9453125 C-47.32108731 10.24071009 -22.74778053 0 0 0 Z " fill="#F8D36E" transform="translate(168,185)"/>
<path d="M0 0 C21.12 0 42.24 0 64 0 C64 21.12 64 42.24 64 64 C42.88 64 21.76 64 0 64 C0 42.88 0 21.76 0 0 Z " fill="#000000" transform="translate(216,408)"/>
<path d="M0 0 C21.12 0 42.24 0 64 0 C64 21.12 64 42.24 64 64 C42.88 64 21.76 64 0 64 C0 42.88 0 21.76 0 0 Z " fill="#000000" transform="translate(216,328)"/>
<path d="M0 0 C21.12 0 42.24 0 64 0 C64 21.12 64 42.24 64 64 C42.88 64 21.76 64 0 64 C0 42.88 0 21.76 0 0 Z " fill="#000000" transform="translate(216,248)"/>
<path d="M0 0 C52.8 0 105.6 0 160 0 C160 5.28 160 10.56 160 16 C107.2 16 54.4 16 0 16 C0 10.72 0 5.44 0 0 Z " fill="#FF826E" transform="translate(264,56)"/>
<path d="M0 0 C52.8 0 105.6 0 160 0 C160 5.28 160 10.56 160 16 C107.2 16 54.4 16 0 16 C0 10.72 0 5.44 0 0 Z " fill="#B4DD7F" transform="translate(264,24)"/>
<path d="M0 0 C42.24 0 84.48 0 128 0 C128 5.28 128 10.56 128 16 C85.76 16 43.52 16 0 16 C0 10.72 0 5.44 0 0 Z " fill="#000000" transform="translate(296,264)"/>
<path d="M0 0 C31.68 0 63.36 0 96 0 C96 5.28 96 10.56 96 16 C64.32 16 32.64 16 0 16 C0 10.72 0 5.44 0 0 Z " fill="#000000" transform="translate(296,344)"/>
<path d="M0 0 C31.68 0 63.36 0 96 0 C96 5.28 96 10.56 96 16 C64.32 16 32.64 16 0 16 C0 10.72 0 5.44 0 0 Z " fill="#000000" transform="translate(360,216)"/>
<path d="M0 0 C0 15.84 0 31.68 0 48 C-21 48 -21 48 -27 44 C-32.76210706 37.61496244 -32.24272085 31.91678724 -32.3125 23.6875 C-32.34150391 22.55892578 -32.37050781 21.43035156 -32.40039062 20.26757812 C-32.44939896 13.86256632 -32.39548586 9.81982238 -28 5 C-18.54384219 -3.33042474 -17.32000472 0 0 0 Z " fill="#A8B0BB" transform="translate(216,24)"/>
<path d="M0 0 C26.4 0 52.8 0 80 0 C80 5.28 80 10.56 80 16 C53.6 16 27.2 16 0 16 C0 10.72 0 5.44 0 0 Z " fill="#000000" transform="translate(216,216)"/>
<path d="M0 0 C15.84 0 31.68 0 48 0 C48 5.28 48 10.56 48 16 C32.16 16 16.32 16 0 16 C0 10.72 0 5.44 0 0 Z " fill="#000000" transform="translate(296,424)"/>
<path d="M0 0 C5.28 0 10.56 0 16 0 C16 15.84 16 31.68 16 48 C10.72 48 5.44 48 0 48 C0 32.16 0 16.32 0 0 Z " fill="#FFEAA7" transform="translate(232,24)"/>
<path d="M0 0 C5.35203144 1.60560943 10.69905669 3.2330189 16 5 C16 14.9 16 24.8 16 35 C2 40 2 40 0 40 C0 26.8 0 13.6 0 0 Z " fill="#A9B1BC" transform="translate(440,28)"/>
<path d="M0 0 C10.56 0 21.12 0 32 0 C32 5.28 32 10.56 32 16 C21.44 16 10.88 16 0 16 C0 10.72 0 5.44 0 0 Z " fill="#000000" transform="translate(312,216)"/>
<path d="M0 0 C5.28 0 10.56 0 16 0 C16 5.28 16 10.56 16 16 C10.72 16 5.44 16 0 16 C0 10.72 0 5.44 0 0 Z " fill="#000000" transform="translate(408,152)"/>
<path d="M0 0 C5.28 0 10.56 0 16 0 C16 5.28 16 10.56 16 16 C10.72 16 5.44 16 0 16 C0 10.72 0 5.44 0 0 Z " fill="#000000" transform="translate(376,152)"/>
<path d="M0 0 C5.28 0 10.56 0 16 0 C16 5.28 16 10.56 16 16 C10.72 16 5.44 16 0 16 C0 10.72 0 5.44 0 0 Z " fill="#000000" transform="translate(344,152)"/>
<path d="M0 0 C5.28 0 10.56 0 16 0 C16 5.28 16 10.56 16 16 C10.72 16 5.44 16 0 16 C0 10.72 0 5.44 0 0 Z " fill="#000000" transform="translate(312,152)"/>
<path d="M0 0 C5.28 0 10.56 0 16 0 C16 5.28 16 10.56 16 16 C10.72 16 5.44 16 0 16 C0 10.72 0 5.44 0 0 Z " fill="#000000" transform="translate(280,152)"/>
<path d="M0 0 C5.28 0 10.56 0 16 0 C16 5.28 16 10.56 16 16 C10.72 16 5.44 16 0 16 C0 10.72 0 5.44 0 0 Z " fill="#000000" transform="translate(248,152)"/>
<path d="M0 0 C0 6.6 0 13.2 0 20 C-6.6 20 -13.2 20 -20 20 C-13.23827936 12.11132592 -13.23827936 12.11132592 -10.60546875 9.47265625 C-10.04279297 8.90869141 -9.48011719 8.34472656 -8.90039062 7.76367188 C-8.05250977 6.9215918 -8.05250977 6.9215918 -7.1875 6.0625 C-6.31061523 5.17981445 -6.31061523 5.17981445 -5.41601562 4.27929688 C-1.12677846 0 -1.12677846 0 0 0 Z " fill="#FD816D" transform="translate(264,436)"/>
<path d="M0 0 C6.6 0 13.2 0 20 0 C13.23827936 7.88867408 13.23827936 7.88867408 10.60546875 10.52734375 C9.76145508 11.37329102 9.76145508 11.37329102 8.90039062 12.23632812 C8.33513672 12.79771484 7.76988281 13.35910156 7.1875 13.9375 C6.60291016 14.52595703 6.01832031 15.11441406 5.41601562 15.72070312 C1.12677846 20 1.12677846 20 0 20 C0 13.4 0 6.8 0 0 Z " fill="#FD816D" transform="translate(232,424)"/>
<path d="M0 0 C0 6.6 0 13.2 0 20 C-6.6 20 -13.2 20 -20 20 C-13.23827936 12.11132592 -13.23827936 12.11132592 -10.60546875 9.47265625 C-10.04279297 8.90869141 -9.48011719 8.34472656 -8.90039062 7.76367188 C-8.05250977 6.9215918 -8.05250977 6.9215918 -7.1875 6.0625 C-6.31061523 5.17981445 -6.31061523 5.17981445 -5.41601562 4.27929688 C-1.12677846 0 -1.12677846 0 0 0 Z " fill="#FD816D" transform="translate(264,356)"/>
<path d="M0 0 C6.6 0 13.2 0 20 0 C13.23827936 7.88867408 13.23827936 7.88867408 10.60546875 10.52734375 C9.76145508 11.37329102 9.76145508 11.37329102 8.90039062 12.23632812 C8.33513672 12.79771484 7.76988281 13.35910156 7.1875 13.9375 C6.60291016 14.52595703 6.01832031 15.11441406 5.41601562 15.72070312 C1.12677846 20 1.12677846 20 0 20 C0 13.4 0 6.8 0 0 Z " fill="#FD816D" transform="translate(232,344)"/>
<path d="M0 0 C0 6.6 0 13.2 0 20 C-6.6 20 -13.2 20 -20 20 C-13.23827936 12.11132592 -13.23827936 12.11132592 -10.60546875 9.47265625 C-10.04279297 8.90869141 -9.48011719 8.34472656 -8.90039062 7.76367188 C-8.05250977 6.9215918 -8.05250977 6.9215918 -7.1875 6.0625 C-6.31061523 5.17981445 -6.31061523 5.17981445 -5.41601562 4.27929688 C-1.12677846 0 -1.12677846 0 0 0 Z " fill="#FD816D" transform="translate(264,276)"/>
<path d="M0 0 C6.6 0 13.2 0 20 0 C13.23827936 7.88867408 13.23827936 7.88867408 10.60546875 10.52734375 C9.76145508 11.37329102 9.76145508 11.37329102 8.90039062 12.23632812 C8.33513672 12.79771484 7.76988281 13.35910156 7.1875 13.9375 C6.60291016 14.52595703 6.01832031 15.11441406 5.41601562 15.72070312 C1.12677846 20 1.12677846 20 0 20 C0 13.4 0 6.8 0 0 Z " fill="#FD816D" transform="translate(232,264)"/>
<path d="M0 0 C5.64951343 1.6032403 10.83555068 3.14596222 16 6 C15.90234375 8.32421875 15.90234375 8.32421875 15 11 C12.12890625 12.58203125 12.12890625 12.58203125 8.5625 13.8125 C7.38816406 14.23144531 6.21382813 14.65039062 5.00390625 15.08203125 C2 16 2 16 0 16 C0 10.72 0 5.44 0 0 Z " fill="#A6AEB9" transform="translate(472,40)"/>
</svg>
