<?xml version="1.0" encoding="UTF-8"?>
<svg version="1.1" xmlns="http://www.w3.org/2000/svg" width="512" height="512">
<path d="M0 0 C0.64499899 -0.0072672 1.28999798 -0.01453441 1.9545424 -0.02202183 C4.12520078 -0.0403326 6.29410548 -0.02289126 8.4647522 -0.00571251 C10.032787 -0.01147138 11.60081507 -0.01941093 13.16882896 -0.02934873 C17.48484993 -0.05027779 21.8003202 -0.03987965 26.1163435 -0.02441764 C30.76810175 -0.0131327 35.41976344 -0.0305526 40.07150269 -0.04431725 C49.18706939 -0.06658481 58.30243061 -0.06173283 67.41800547 -0.04725404 C74.8244537 -0.03597561 82.23084423 -0.03442484 89.63729858 -0.03987312 C91.21670921 -0.04102237 91.21670921 -0.04102237 92.82802713 -0.04219484 C94.96685809 -0.04379341 97.10568903 -0.04541448 99.24451995 -0.04705779 C119.31426826 -0.0613256 139.38390251 -0.04490639 159.45363212 -0.01805596 C176.6854233 0.00428374 193.91704609 0.0004039 211.14883423 -0.02264977 C231.14531288 -0.04938955 251.14169147 -0.05995221 271.1381855 -0.04458845 C273.26927819 -0.04299565 275.4003709 -0.0414238 277.53146362 -0.03987312 C278.58008273 -0.03910175 279.62870183 -0.03833037 280.70909727 -0.03753562 C288.10917963 -0.03321315 295.50919868 -0.04051693 302.90927124 -0.05227089 C311.92391144 -0.0662742 320.93833389 -0.0625417 329.95294905 -0.03586717 C334.55499988 -0.0226997 339.15668727 -0.01762624 343.75873566 -0.03411293 C347.96813593 -0.04896523 352.17683442 -0.04090322 356.38617063 -0.01422517 C357.91235 -0.00862002 359.43858815 -0.01152605 360.96473002 -0.02360411 C363.03359349 -0.0387268 365.10002745 -0.02330844 367.16876221 0 C368.89475616 0.00121764 368.89475616 0.00121764 370.65561867 0.00245988 C373.5843811 0.6292057 373.5843811 0.6292057 375.95372242 3.04017556 C377.56877242 5.60442348 378.08671733 6.76426799 378.0990448 9.72747231 C378.11176926 10.50963615 378.12449371 11.2918 378.13760376 12.09766579 C378.13107788 12.94145287 378.124552 13.78523994 378.11782837 14.65459633 C378.12644394 15.55437706 378.13505951 16.45415779 378.14393616 17.38120461 C378.16660241 20.34958255 378.15985644 23.31701701 378.15078735 26.2854557 C378.15602237 28.35141722 378.16229841 30.41737633 378.16957092 32.48333168 C378.17997616 36.81087945 378.17541136 41.13809842 378.16079712 45.46563148 C378.14360303 51.01098028 378.16711205 56.55529355 378.20228672 62.10052681 C378.22424704 66.36594952 378.22282262 70.63112389 378.21452141 74.89658546 C378.21370126 76.94112217 378.2205767 78.98567699 378.23529243 81.0301609 C378.25271435 83.88869343 378.23821586 86.74535772 378.21548462 89.60381508 C378.22717682 90.44760216 378.23886902 91.29138924 378.25091553 92.16074562 C378.181092 96.47666204 377.94890611 98.15430651 375.23243713 101.69329262 C372.5843811 103.6292057 372.5843811 103.6292057 369.5843811 103.6292057 C369.5843811 109.8992057 369.5843811 116.1692057 369.5843811 122.6292057 C371.5643811 123.2892057 373.5443811 123.9492057 375.5843811 124.6292057 C378.0811863 127.79894523 377.83683265 131.10413372 377.84165001 135.02641392 C377.84515608 135.66942494 377.84866216 136.31243596 377.85227448 136.97493216 C377.86160847 139.13833493 377.85666013 141.30146969 377.85180664 143.4648838 C377.85554189 145.02807414 377.86014291 146.5912626 377.86553729 148.15444809 C377.87779802 152.45697544 377.87750322 156.75942522 377.87514853 161.06196606 C377.87474115 165.69940212 377.88577195 170.33681304 377.89526367 174.97423744 C377.91189095 184.0620039 377.91737398 193.14974441 377.91848843 202.2375248 C377.91943798 209.62202118 377.92354364 217.00650899 377.92988968 224.39100266 C377.94750599 245.31496936 377.95672782 266.23891553 377.95522873 287.16288971 C377.95514882 288.29138581 377.95506891 289.4198819 377.95498657 290.58257484 C377.95490481 291.71244428 377.95482305 292.84231372 377.95473881 294.00642163 C377.95392556 312.32572753 377.97307194 330.64495127 378.00126331 348.96423339 C378.02996365 367.76214632 378.04380521 386.56001915 378.04207575 405.35795456 C378.04141092 415.91652556 378.0469443 426.47501041 378.06843185 437.03356171 C378.08660609 446.02178024 378.09102193 455.00987357 378.07741301 463.99810248 C378.0708646 468.58606607 378.0708334 473.1737892 378.08811951 477.76173019 C378.10377274 481.95935608 378.10106663 486.1565493 378.08355124 490.35416413 C378.08046418 491.87498673 378.08417752 493.395841 378.09527139 494.91662627 C378.10933212 496.98033077 378.09885671 499.04250483 378.08215904 501.10615635 C378.08281115 502.82702407 378.08281115 502.82702407 378.08347642 504.5826568 C377.45098776 508.44345769 376.5283967 510.04871925 373.5843811 512.6292057 C370.90706501 513.13067541 368.85797066 513.29980118 366.18207455 513.25282478 C365.43040842 513.25949279 364.67874229 513.26616081 363.90429839 513.27303088 C361.37086299 513.28934885 358.83895481 513.2698482 356.30555725 513.25066566 C354.47695028 513.25499215 352.64834738 513.26150585 350.81975514 513.27002573 C345.78351375 513.28707501 340.74776689 513.27279587 335.71155131 513.25351095 C330.28477237 513.23812641 324.85805572 513.25147478 319.43127441 513.26125526 C308.79603052 513.27580598 298.16097705 513.26352365 287.52575117 513.24214202 C275.15050229 513.21817209 262.77529743 513.2198439 250.4000305 513.22244793 C227.65841307 513.2262525 204.91688989 513.20328391 182.17530326 513.16810045 C161.40384554 513.1361022 140.63247357 513.12405736 119.86099243 513.13018227 C96.53583473 513.13694715 73.21071626 513.13450285 49.88556439 513.11482286 C48.65311477 513.11378338 47.42066516 513.11274389 46.15086858 513.11167291 C43.67529036 513.10958195 41.19971214 513.10747098 38.72413395 513.10533974 C30.08978732 513.09843317 21.45545286 513.09777664 12.82110405 513.09922218 C2.30524008 513.10065922 -8.21054673 513.09101988 -18.72638506 513.06727582 C-24.09579777 513.05538433 -29.46510268 513.04831154 -34.83452797 513.05411339 C-39.74378644 513.05926143 -44.6528166 513.05068172 -49.56203591 513.03083879 C-51.34391664 513.02607441 -53.12581943 513.02643006 -54.90769703 513.03224915 C-57.3184589 513.03936496 -59.7284504 513.02825246 -62.13915348 513.01231575 C-62.84085408 513.01876755 -63.54255468 513.02521936 -64.26551893 513.03186667 C-67.0660437 512.99679894 -68.98351378 512.91783522 -71.34616798 511.33967352 C-73.27692532 508.25164186 -72.83896568 504.62417672 -72.81967163 501.09038734 C-72.82996651 499.78263596 -72.82996651 499.78263596 -72.84046936 498.44846535 C-72.85879454 495.56193262 -72.85489167 492.67594046 -72.84921265 489.78936195 C-72.85377181 487.78540812 -72.85907658 485.78145585 -72.86509705 483.77750587 C-72.87403947 479.57509451 -72.87159227 475.37287306 -72.86166382 471.17046547 C-72.85017463 465.78203758 -72.87037925 460.39426504 -72.89958096 455.00592327 C-72.91791766 450.86666631 -72.91765551 446.7275671 -72.91194344 442.58827972 C-72.9117899 440.60153153 -72.91786072 438.61477286 -72.93023491 436.6280632 C-72.94509477 433.85076228 -72.93450478 431.07468106 -72.91732788 428.29741859 C-72.92699585 427.47494637 -72.93666382 426.65247414 -72.94662476 425.80507851 C-72.89980549 422.19424168 -72.72092705 420.0500741 -70.57176208 417.0874424 C-68.4156189 415.6292057 -68.4156189 415.6292057 -65.4156189 415.6292057 C-65.4156189 409.3592057 -65.4156189 403.0892057 -65.4156189 396.6292057 C-67.0656189 395.9692057 -68.7156189 395.3092057 -70.4156189 394.6292057 C-72.86693654 392.17788806 -72.66528829 390.8105752 -72.70889282 387.46370888 C-72.70798645 386.74625496 -72.70708008 386.02880104 -72.70614624 385.28960609 C-72.71286346 384.53335442 -72.71958069 383.77710274 -72.72650146 382.99793434 C-72.7455441 380.49084391 -72.74940871 377.98402026 -72.7515564 375.47686195 C-72.75797975 373.73812689 -72.76470775 371.99939293 -72.77172852 370.26066017 C-72.78371679 366.61305675 -72.78740773 362.96554815 -72.78622437 359.31792641 C-72.78602103 354.63896316 -72.81333059 349.96060634 -72.84776878 345.28178692 C-72.86998243 341.68988173 -72.87406363 338.09812378 -72.87300491 334.50615692 C-72.87536895 332.78093245 -72.88423743 331.0557044 -72.89966965 329.33054733 C-72.91921959 326.91933009 -72.91353615 324.50943744 -72.90145874 322.09819984 C-72.91269775 321.38277016 -72.92393677 320.66734047 -72.93551636 319.93023109 C-72.87378543 315.09168968 -72.87378543 315.09168968 -70.74585915 312.94371128 C-67.84032449 311.30467792 -65.9648833 311.26692789 -62.63729858 311.28862953 C-61.47639709 311.28885612 -60.31549561 311.28908272 -59.11941528 311.28931618 C-57.2473642 311.31254196 -57.2473642 311.31254196 -55.3374939 311.33623695 C-54.05578308 311.3404818 -52.77407227 311.34472664 -51.45352173 311.34910011 C-48.05362255 311.36052922 -44.65411066 311.38997904 -41.25436401 311.42321205 C-37.78212726 311.45395507 -34.30982765 311.46761444 -30.8374939 311.48272133 C-24.0300436 311.51485112 -17.22284987 311.56602367 -10.4156189 311.6292057 C-10.41713778 310.98361759 -10.41865666 310.33802948 -10.42022157 309.67287809 C-10.50969395 271.42752792 -10.57834492 233.18219124 -10.61988021 194.93675764 C-10.62488316 190.34669133 -10.63006044 185.75662522 -10.63534546 181.16655922 C-10.6363947 180.25274265 -10.63744394 179.33892608 -10.63852498 178.3974181 C-10.65593997 163.59241741 -10.68748367 148.78747872 -10.72423008 133.98251484 C-10.76160908 118.79625791 -10.78384831 103.6100335 -10.79197288 88.42373246 C-10.79746697 79.0496063 -10.81483229 69.67565537 -10.84728476 60.30158313 C-10.86839514 53.87728802 -10.87482685 47.45308377 -10.86962441 41.02875648 C-10.86705718 37.31975374 -10.87104905 33.61105764 -10.8924408 29.90210915 C-10.91544868 25.88367811 -10.90759049 21.86590332 -10.89663696 17.84742165 C-10.90828833 16.67135567 -10.91993969 15.4952897 -10.93194413 14.28358537 C-10.92397994 13.20771108 -10.91601574 12.13183679 -10.90781021 11.02336025 C-10.90932909 10.09570349 -10.91084797 9.16804672 -10.91241288 8.21227914 C-9.6659342 1.73123054 -6.21724441 0.0043861 0 0 Z " fill="#DCF4FE" transform="translate(103.41561889648438,-0.6292057037353516)"/>
<path d="M0 0 C0.64499899 -0.0072672 1.28999798 -0.01453441 1.9545424 -0.02202183 C4.12520078 -0.0403326 6.29410548 -0.02289126 8.4647522 -0.00571251 C10.032787 -0.01147138 11.60081507 -0.01941093 13.16882896 -0.02934873 C17.48484993 -0.05027779 21.8003202 -0.03987965 26.1163435 -0.02441764 C30.76810175 -0.0131327 35.41976344 -0.0305526 40.07150269 -0.04431725 C49.18706939 -0.06658481 58.30243061 -0.06173283 67.41800547 -0.04725404 C74.8244537 -0.03597561 82.23084423 -0.03442484 89.63729858 -0.03987312 C91.21670921 -0.04102237 91.21670921 -0.04102237 92.82802713 -0.04219484 C94.96685809 -0.04379341 97.10568903 -0.04541448 99.24451995 -0.04705779 C119.31426826 -0.0613256 139.38390251 -0.04490639 159.45363212 -0.01805596 C176.6854233 0.00428374 193.91704609 0.0004039 211.14883423 -0.02264977 C231.14531288 -0.04938955 251.14169147 -0.05995221 271.1381855 -0.04458845 C273.26927819 -0.04299565 275.4003709 -0.0414238 277.53146362 -0.03987312 C278.58008273 -0.03910175 279.62870183 -0.03833037 280.70909727 -0.03753562 C288.10917963 -0.03321315 295.50919868 -0.04051693 302.90927124 -0.05227089 C311.92391144 -0.0662742 320.93833389 -0.0625417 329.95294905 -0.03586717 C334.55499988 -0.0226997 339.15668727 -0.01762624 343.75873566 -0.03411293 C347.96813593 -0.04896523 352.17683442 -0.04090322 356.38617063 -0.01422517 C357.91235 -0.00862002 359.43858815 -0.01152605 360.96473002 -0.02360411 C363.03359349 -0.0387268 365.10002745 -0.02330844 367.16876221 0 C368.89475616 0.00121764 368.89475616 0.00121764 370.65561867 0.00245988 C373.5843811 0.6292057 373.5843811 0.6292057 375.95372242 3.04017556 C377.56877242 5.60442348 378.08671733 6.76426799 378.0990448 9.72747231 C378.11176926 10.50963615 378.12449371 11.2918 378.13760376 12.09766579 C378.13107788 12.94145287 378.124552 13.78523994 378.11782837 14.65459633 C378.12644394 15.55437706 378.13505951 16.45415779 378.14393616 17.38120461 C378.16660241 20.34958255 378.15985644 23.31701701 378.15078735 26.2854557 C378.15602237 28.35141722 378.16229841 30.41737633 378.16957092 32.48333168 C378.17997616 36.81087945 378.17541136 41.13809842 378.16079712 45.46563148 C378.14360303 51.01098028 378.16711205 56.55529355 378.20228672 62.10052681 C378.22424704 66.36594952 378.22282262 70.63112389 378.21452141 74.89658546 C378.21370126 76.94112217 378.2205767 78.98567699 378.23529243 81.0301609 C378.25271435 83.88869343 378.23821586 86.74535772 378.21548462 89.60381508 C378.22717682 90.44760216 378.23886902 91.29138924 378.25091553 92.16074562 C378.18151372 96.45059473 377.94327453 98.15575844 375.26759338 101.68548012 C372.5843811 103.6292057 372.5843811 103.6292057 369.0218811 103.7542057 C365.5843811 102.6292057 365.5843811 102.6292057 361.5843811 97.6292057 C361.5843811 70.5692057 361.5843811 43.5092057 361.5843811 15.6292057 C244.1043811 15.6292057 126.6243811 15.6292057 5.5843811 15.6292057 C5.5843811 113.3092057 5.5843811 210.9892057 5.5843811 311.6292057 C69.9343811 311.6292057 134.2843811 311.6292057 200.5843811 311.6292057 C199.5943811 307.6692057 198.6043811 303.7092057 197.5843811 299.6292057 C194.90068053 277.39349821 199.40329281 256.72765572 212.9569397 238.81524086 C219.69284437 230.46772063 227.41495157 224.15322788 236.5843811 218.6292057 C237.53828735 218.05428383 238.4921936 217.47936195 239.4750061 216.8870182 C256.06094995 207.77834412 276.46551359 205.7645772 294.6703186 210.71904945 C295.63195923 211.01940102 296.59359985 211.31975258 297.5843811 211.6292057 C298.52539673 211.91924477 299.46641235 212.20928383 300.4359436 212.50811195 C320.88248231 219.39082005 336.62075977 233.56191845 346.5843811 252.6292057 C355.95308361 273.18487863 355.86728526 295.20965743 348.3343811 316.3167057 C343.99507439 326.95833884 337.59665988 335.46703736 329.5843811 343.6292057 C328.90891235 344.32916664 328.2334436 345.02912758 327.5375061 345.75029945 C312.04045037 360.69388891 292.49834863 364.6292057 271.5843811 364.6292057 C271.5843811 408.5192057 271.5843811 452.4092057 271.5843811 497.6292057 C301.2843811 497.6292057 330.9843811 497.6292057 361.5843811 497.6292057 C361.55819702 486.47728432 361.53201294 475.32536293 361.5050354 463.83550453 C361.42483044 428.17678358 361.36918811 392.5180623 361.32905446 356.85927461 C361.32280072 351.32286795 361.31632913 345.78646157 361.3097229 340.25005531 C361.30841135 339.14783001 361.3070998 338.04560472 361.3057485 336.90997865 C361.28397626 319.04953451 361.24454472 301.18917062 361.19861712 283.32877413 C361.15190308 265.01012397 361.12409641 246.69151592 361.11393863 228.37280864 C361.10706899 217.06396368 361.08535144 205.75534552 361.04479877 194.44657036 C361.01842277 186.6977081 361.01036843 178.94896355 361.01687422 171.20005963 C361.02008514 166.72547073 361.01507226 162.25127888 360.98835373 157.7767601 C360.9640839 153.68253447 360.9627522 149.58897418 360.97988663 145.4947184 C360.98200535 144.01144958 360.97560917 142.52813984 360.95996519 141.04495201 C360.93996813 139.03248323 360.95367483 137.01976329 360.96914196 135.0072546 C360.96724336 133.88821879 360.96534476 132.76918297 360.96338862 131.61623698 C361.78576248 127.66054268 363.5108243 126.16144342 366.5843811 123.6292057 C369.46021185 122.5770725 370.85831422 122.40101325 373.7718811 123.3167057 C376.01684489 124.94236914 376.57783756 126.04506095 377.5843811 128.6292057 C377.83738077 131.55040544 377.83738077 131.55040544 377.84165001 135.02641392 C377.84515608 135.66942494 377.84866216 136.31243596 377.85227448 136.97493216 C377.86160847 139.13833493 377.85666013 141.30146969 377.85180664 143.4648838 C377.85554189 145.02807414 377.86014291 146.5912626 377.86553729 148.15444809 C377.87779802 152.45697544 377.87750322 156.75942522 377.87514853 161.06196606 C377.87474115 165.69940212 377.88577195 170.33681304 377.89526367 174.97423744 C377.91189095 184.0620039 377.91737398 193.14974441 377.91848843 202.2375248 C377.91943798 209.62202118 377.92354364 217.00650899 377.92988968 224.39100266 C377.94750599 245.31496936 377.95672782 266.23891553 377.95522873 287.16288971 C377.95514882 288.29138581 377.95506891 289.4198819 377.95498657 290.58257484 C377.95490481 291.71244428 377.95482305 292.84231372 377.95473881 294.00642163 C377.95392556 312.32572753 377.97307194 330.64495127 378.00126331 348.96423339 C378.02996365 367.76214632 378.04380521 386.56001915 378.04207575 405.35795456 C378.04141092 415.91652556 378.0469443 426.47501041 378.06843185 437.03356171 C378.08660609 446.02178024 378.09102193 455.00987357 378.07741301 463.99810248 C378.0708646 468.58606607 378.0708334 473.1737892 378.08811951 477.76173019 C378.10377274 481.95935608 378.10106663 486.1565493 378.08355124 490.35416413 C378.08046418 491.87498673 378.08417752 493.395841 378.09527139 494.91662627 C378.10933212 496.98033077 378.09885671 499.04250483 378.08215904 501.10615635 C378.08281115 502.82702407 378.08281115 502.82702407 378.08347642 504.5826568 C377.45098776 508.44345769 376.5283967 510.04871925 373.5843811 512.6292057 C370.90706501 513.13067541 368.85797066 513.29980118 366.18207455 513.25282478 C365.43040842 513.25949279 364.67874229 513.26616081 363.90429839 513.27303088 C361.37086299 513.28934885 358.83895481 513.2698482 356.30555725 513.25066566 C354.47695028 513.25499215 352.64834738 513.26150585 350.81975514 513.27002573 C345.78351375 513.28707501 340.74776689 513.27279587 335.71155131 513.25351095 C330.28477237 513.23812641 324.85805572 513.25147478 319.43127441 513.26125526 C308.79603052 513.27580598 298.16097705 513.26352365 287.52575117 513.24214202 C275.15050229 513.21817209 262.77529743 513.2198439 250.4000305 513.22244793 C227.65841307 513.2262525 204.91688989 513.20328391 182.17530326 513.16810045 C161.40384554 513.1361022 140.63247357 513.12405736 119.86099243 513.13018227 C96.53583473 513.13694715 73.21071626 513.13450285 49.88556439 513.11482286 C48.65311477 513.11378338 47.42066516 513.11274389 46.15086858 513.11167291 C43.67529036 513.10958195 41.19971214 513.10747098 38.72413395 513.10533974 C30.08978732 513.09843317 21.45545286 513.09777664 12.82110405 513.09922218 C2.30524008 513.10065922 -8.21054673 513.09101988 -18.72638506 513.06727582 C-24.09579777 513.05538433 -29.46510268 513.04831154 -34.83452797 513.05411339 C-39.74378644 513.05926143 -44.6528166 513.05068172 -49.56203591 513.03083879 C-51.34391664 513.02607441 -53.12581943 513.02643006 -54.90769703 513.03224915 C-57.3184589 513.03936496 -59.7284504 513.02825246 -62.13915348 513.01231575 C-62.84085408 513.01876755 -63.54255468 513.02521936 -64.26551893 513.03186667 C-67.0660437 512.99679894 -68.98351378 512.91783522 -71.34616798 511.33967352 C-73.27692532 508.25164186 -72.83896568 504.62417672 -72.81967163 501.09038734 C-72.82996651 499.78263596 -72.82996651 499.78263596 -72.84046936 498.44846535 C-72.85879454 495.56193262 -72.85489167 492.67594046 -72.84921265 489.78936195 C-72.85377181 487.78540812 -72.85907658 485.78145585 -72.86509705 483.77750587 C-72.87403947 479.57509451 -72.87159227 475.37287306 -72.86166382 471.17046547 C-72.85017463 465.78203758 -72.87037925 460.39426504 -72.89958096 455.00592327 C-72.91791766 450.86666631 -72.91765551 446.7275671 -72.91194344 442.58827972 C-72.9117899 440.60153153 -72.91786072 438.61477286 -72.93023491 436.6280632 C-72.94509477 433.85076228 -72.93450478 431.07468106 -72.91732788 428.29741859 C-72.92699585 427.47494637 -72.93666382 426.65247414 -72.94662476 425.80507851 C-72.89980549 422.19424168 -72.72092705 420.0500741 -70.57176208 417.0874424 C-68.4156189 415.6292057 -68.4156189 415.6292057 -65.4156189 415.6292057 C-65.4156189 409.3592057 -65.4156189 403.0892057 -65.4156189 396.6292057 C-67.0656189 395.9692057 -68.7156189 395.3092057 -70.4156189 394.6292057 C-72.86693654 392.17788806 -72.66528829 390.8105752 -72.70889282 387.46370888 C-72.70798645 386.74625496 -72.70708008 386.02880104 -72.70614624 385.28960609 C-72.71286346 384.53335442 -72.71958069 383.77710274 -72.72650146 382.99793434 C-72.7455441 380.49084391 -72.74940871 377.98402026 -72.7515564 375.47686195 C-72.75797975 373.73812689 -72.76470775 371.99939293 -72.77172852 370.26066017 C-72.78371679 366.61305675 -72.78740773 362.96554815 -72.78622437 359.31792641 C-72.78602103 354.63896316 -72.81333059 349.96060634 -72.84776878 345.28178692 C-72.86998243 341.68988173 -72.87406363 338.09812378 -72.87300491 334.50615692 C-72.87536895 332.78093245 -72.88423743 331.0557044 -72.89966965 329.33054733 C-72.91921959 326.91933009 -72.91353615 324.50943744 -72.90145874 322.09819984 C-72.91269775 321.38277016 -72.92393677 320.66734047 -72.93551636 319.93023109 C-72.87378543 315.09168968 -72.87378543 315.09168968 -70.74585915 312.94371128 C-67.84032449 311.30467792 -65.9648833 311.26692789 -62.63729858 311.28862953 C-61.47639709 311.28885612 -60.31549561 311.28908272 -59.11941528 311.28931618 C-57.2473642 311.31254196 -57.2473642 311.31254196 -55.3374939 311.33623695 C-54.05578308 311.3404818 -52.77407227 311.34472664 -51.45352173 311.34910011 C-48.05362255 311.36052922 -44.65411066 311.38997904 -41.25436401 311.42321205 C-37.78212726 311.45395507 -34.30982765 311.46761444 -30.8374939 311.48272133 C-24.0300436 311.51485112 -17.22284987 311.56602367 -10.4156189 311.6292057 C-10.41713778 310.98361759 -10.41865666 310.33802948 -10.42022157 309.67287809 C-10.50969395 271.42752792 -10.57834492 233.18219124 -10.61988021 194.93675764 C-10.62488316 190.34669133 -10.63006044 185.75662522 -10.63534546 181.16655922 C-10.6363947 180.25274265 -10.63744394 179.33892608 -10.63852498 178.3974181 C-10.65593997 163.59241741 -10.68748367 148.78747872 -10.72423008 133.98251484 C-10.76160908 118.79625791 -10.78384831 103.6100335 -10.79197288 88.42373246 C-10.79746697 79.0496063 -10.81483229 69.67565537 -10.84728476 60.30158313 C-10.86839514 53.87728802 -10.87482685 47.45308377 -10.86962441 41.02875648 C-10.86705718 37.31975374 -10.87104905 33.61105764 -10.8924408 29.90210915 C-10.91544868 25.88367811 -10.90759049 21.86590332 -10.89663696 17.84742165 C-10.90828833 16.67135567 -10.91993969 15.4952897 -10.93194413 14.28358537 C-10.92397994 13.20771108 -10.91601574 12.13183679 -10.90781021 11.02336025 C-10.90932909 10.09570349 -10.91084797 9.16804672 -10.91241288 8.21227914 C-9.6659342 1.73123054 -6.21724441 0.0043861 0 0 Z " fill="#6CC449" transform="translate(103.41561889648438,-0.6292057037353516)"/>
<path d="M0 0 C0.64499899 -0.0072672 1.28999798 -0.01453441 1.9545424 -0.02202183 C4.12520078 -0.0403326 6.29410548 -0.02289126 8.4647522 -0.00571251 C10.032787 -0.01147138 11.60081507 -0.01941093 13.16882896 -0.02934873 C17.48484993 -0.05027779 21.8003202 -0.03987965 26.1163435 -0.02441764 C30.76810175 -0.0131327 35.41976344 -0.0305526 40.07150269 -0.04431725 C49.18706939 -0.06658481 58.30243061 -0.06173283 67.41800547 -0.04725404 C74.8244537 -0.03597561 82.23084423 -0.03442484 89.63729858 -0.03987312 C91.21670921 -0.04102237 91.21670921 -0.04102237 92.82802713 -0.04219484 C94.96685809 -0.04379341 97.10568903 -0.04541448 99.24451995 -0.04705779 C119.31426826 -0.0613256 139.38390251 -0.04490639 159.45363212 -0.01805596 C176.6854233 0.00428374 193.91704609 0.0004039 211.14883423 -0.02264977 C231.14531288 -0.04938955 251.14169147 -0.05995221 271.1381855 -0.04458845 C273.26927819 -0.04299565 275.4003709 -0.0414238 277.53146362 -0.03987312 C278.58008273 -0.03910175 279.62870183 -0.03833037 280.70909727 -0.03753562 C288.10917963 -0.03321315 295.50919868 -0.04051693 302.90927124 -0.05227089 C311.92391144 -0.0662742 320.93833389 -0.0625417 329.95294905 -0.03586717 C334.55499988 -0.0226997 339.15668727 -0.01762624 343.75873566 -0.03411293 C347.96813593 -0.04896523 352.17683442 -0.04090322 356.38617063 -0.01422517 C357.91235 -0.00862002 359.43858815 -0.01152605 360.96473002 -0.02360411 C363.03359349 -0.0387268 365.10002745 -0.02330844 367.16876221 0 C368.89475616 0.00121764 368.89475616 0.00121764 370.65561867 0.00245988 C373.5843811 0.6292057 373.5843811 0.6292057 375.95372242 3.04017556 C377.56877242 5.60442348 378.08671733 6.76426799 378.0990448 9.72747231 C378.11176926 10.50963615 378.12449371 11.2918 378.13760376 12.09766579 C378.13107788 12.94145287 378.124552 13.78523994 378.11782837 14.65459633 C378.12644394 15.55437706 378.13505951 16.45415779 378.14393616 17.38120461 C378.16660241 20.34958255 378.15985644 23.31701701 378.15078735 26.2854557 C378.15602237 28.35141722 378.16229841 30.41737633 378.16957092 32.48333168 C378.17997616 36.81087945 378.17541136 41.13809842 378.16079712 45.46563148 C378.14360303 51.01098028 378.16711205 56.55529355 378.20228672 62.10052681 C378.22424704 66.36594952 378.22282262 70.63112389 378.21452141 74.89658546 C378.21370126 76.94112217 378.2205767 78.98567699 378.23529243 81.0301609 C378.25271435 83.88869343 378.23821586 86.74535772 378.21548462 89.60381508 C378.22717682 90.44760216 378.23886902 91.29138924 378.25091553 92.16074562 C378.18151372 96.45059473 377.94327453 98.15575844 375.26759338 101.68548012 C372.5843811 103.6292057 372.5843811 103.6292057 369.0218811 103.7542057 C365.5843811 102.6292057 365.5843811 102.6292057 361.5843811 97.6292057 C361.5843811 70.5692057 361.5843811 43.5092057 361.5843811 15.6292057 C244.1043811 15.6292057 126.6243811 15.6292057 5.5843811 15.6292057 C5.5843811 113.3092057 5.5843811 210.9892057 5.5843811 311.6292057 C69.9343811 311.6292057 134.2843811 311.6292057 200.5843811 311.6292057 C199.5943811 307.6692057 198.6043811 303.7092057 197.5843811 299.6292057 C194.90068053 277.39349821 199.40329281 256.72765572 212.9569397 238.81524086 C219.69284437 230.46772063 227.41495157 224.15322788 236.5843811 218.6292057 C237.53828735 218.05428383 238.4921936 217.47936195 239.4750061 216.8870182 C256.06094995 207.77834412 276.46551359 205.7645772 294.6703186 210.71904945 C295.63195923 211.01940102 296.59359985 211.31975258 297.5843811 211.6292057 C298.52539673 211.91924477 299.46641235 212.20928383 300.4359436 212.50811195 C320.88248231 219.39082005 336.62075977 233.56191845 346.5843811 252.6292057 C355.95308361 273.18487863 355.86728526 295.20965743 348.3343811 316.3167057 C343.99507439 326.95833884 337.59665988 335.46703736 329.5843811 343.6292057 C328.90891235 344.32916664 328.2334436 345.02912758 327.5375061 345.75029945 C312.04045037 360.69388891 292.49834863 364.6292057 271.5843811 364.6292057 C271.5843811 408.5192057 271.5843811 452.4092057 271.5843811 497.6292057 C301.2843811 497.6292057 330.9843811 497.6292057 361.5843811 497.6292057 C361.55819702 486.47728432 361.53201294 475.32536293 361.5050354 463.83550453 C361.42483044 428.17678358 361.36918811 392.5180623 361.32905446 356.85927461 C361.32280072 351.32286795 361.31632913 345.78646157 361.3097229 340.25005531 C361.30841135 339.14783001 361.3070998 338.04560472 361.3057485 336.90997865 C361.28397626 319.04953451 361.24454472 301.18917062 361.19861712 283.32877413 C361.15190308 265.01012397 361.12409641 246.69151592 361.11393863 228.37280864 C361.10706899 217.06396368 361.08535144 205.75534552 361.04479877 194.44657036 C361.01842277 186.6977081 361.01036843 178.94896355 361.01687422 171.20005963 C361.02008514 166.72547073 361.01507226 162.25127888 360.98835373 157.7767601 C360.9640839 153.68253447 360.9627522 149.58897418 360.97988663 145.4947184 C360.98200535 144.01144958 360.97560917 142.52813984 360.95996519 141.04495201 C360.93996813 139.03248323 360.95367483 137.01976329 360.96914196 135.0072546 C360.96724336 133.88821879 360.96534476 132.76918297 360.96338862 131.61623698 C361.78576248 127.66054268 363.5108243 126.16144342 366.5843811 123.6292057 C369.46021185 122.5770725 370.85831422 122.40101325 373.7718811 123.3167057 C376.01684489 124.94236914 376.57783756 126.04506095 377.5843811 128.6292057 C377.83738077 131.55040544 377.83738077 131.55040544 377.84165001 135.02641392 C377.84515608 135.66942494 377.84866216 136.31243596 377.85227448 136.97493216 C377.86160847 139.13833493 377.85666013 141.30146969 377.85180664 143.4648838 C377.85554189 145.02807414 377.86014291 146.5912626 377.86553729 148.15444809 C377.87779802 152.45697544 377.87750322 156.75942522 377.87514853 161.06196606 C377.87474115 165.69940212 377.88577195 170.33681304 377.89526367 174.97423744 C377.91189095 184.0620039 377.91737398 193.14974441 377.91848843 202.2375248 C377.91943798 209.62202118 377.92354364 217.00650899 377.92988968 224.39100266 C377.94750599 245.31496936 377.95672782 266.23891553 377.95522873 287.16288971 C377.95514882 288.29138581 377.95506891 289.4198819 377.95498657 290.58257484 C377.95490481 291.71244428 377.95482305 292.84231372 377.95473881 294.00642163 C377.95392556 312.32572753 377.97307194 330.64495127 378.00126331 348.96423339 C378.02996365 367.76214632 378.04380521 386.56001915 378.04207575 405.35795456 C378.04141092 415.91652556 378.0469443 426.47501041 378.06843185 437.03356171 C378.08660609 446.02178024 378.09102193 455.00987357 378.07741301 463.99810248 C378.0708646 468.58606607 378.0708334 473.1737892 378.08811951 477.76173019 C378.10377274 481.95935608 378.10106663 486.1565493 378.08355124 490.35416413 C378.08046418 491.87498673 378.08417752 493.395841 378.09527139 494.91662627 C378.10933212 496.98033077 378.09885671 499.04250483 378.08215904 501.10615635 C378.08281115 502.82702407 378.08281115 502.82702407 378.08347642 504.5826568 C377.45098776 508.44345769 376.5283967 510.04871925 373.5843811 512.6292057 C370.90706501 513.13067541 368.85797066 513.29980118 366.18207455 513.25282478 C365.43040842 513.25949279 364.67874229 513.26616081 363.90429839 513.27303088 C361.37086299 513.28934885 358.83895481 513.2698482 356.30555725 513.25066566 C354.47695028 513.25499215 352.64834738 513.26150585 350.81975514 513.27002573 C345.78351375 513.28707501 340.74776689 513.27279587 335.71155131 513.25351095 C330.28477237 513.23812641 324.85805572 513.25147478 319.43127441 513.26125526 C308.79603052 513.27580598 298.16097705 513.26352365 287.52575117 513.24214202 C275.15050229 513.21817209 262.77529743 513.2198439 250.4000305 513.22244793 C227.65841307 513.2262525 204.91688989 513.20328391 182.17530326 513.16810045 C161.40384554 513.1361022 140.63247357 513.12405736 119.86099243 513.13018227 C96.53583473 513.13694715 73.21071626 513.13450285 49.88556439 513.11482286 C48.65311477 513.11378338 47.42066516 513.11274389 46.15086858 513.11167291 C43.67529036 513.10958195 41.19971214 513.10747098 38.72413395 513.10533974 C30.08978732 513.09843317 21.45545286 513.09777664 12.82110405 513.09922218 C2.30524008 513.10065922 -8.21054673 513.09101988 -18.72638506 513.06727582 C-24.09579777 513.05538433 -29.46510268 513.04831154 -34.83452797 513.05411339 C-39.74378644 513.05926143 -44.6528166 513.05068172 -49.56203591 513.03083879 C-51.34391664 513.02607441 -53.12581943 513.02643006 -54.90769703 513.03224915 C-57.3184589 513.03936496 -59.7284504 513.02825246 -62.13915348 513.01231575 C-62.84085408 513.01876755 -63.54255468 513.02521936 -64.26551893 513.03186667 C-67.0660437 512.99679894 -68.98351378 512.91783522 -71.34616798 511.33967352 C-73.27692532 508.25164186 -72.83896568 504.62417672 -72.81967163 501.09038734 C-72.82996651 499.78263596 -72.82996651 499.78263596 -72.84046936 498.44846535 C-72.85879454 495.56193262 -72.85489167 492.67594046 -72.84921265 489.78936195 C-72.85377181 487.78540812 -72.85907658 485.78145585 -72.86509705 483.77750587 C-72.87403947 479.57509451 -72.87159227 475.37287306 -72.86166382 471.17046547 C-72.85017463 465.78203758 -72.87037925 460.39426504 -72.89958096 455.00592327 C-72.91791766 450.86666631 -72.91765551 446.7275671 -72.91194344 442.58827972 C-72.9117899 440.60153153 -72.91786072 438.61477286 -72.93023491 436.6280632 C-72.94509477 433.85076228 -72.93450478 431.07468106 -72.91732788 428.29741859 C-72.92699585 427.47494637 -72.93666382 426.65247414 -72.94662476 425.80507851 C-72.90007768 422.21523373 -72.71470622 420.04860675 -70.60301208 417.0874424 C-68.4156189 415.6292057 -68.4156189 415.6292057 -64.9156189 415.6292057 C-61.4156189 416.6292057 -61.4156189 416.6292057 -57.4156189 420.6292057 C-57.4156189 446.0392057 -57.4156189 471.4492057 -57.4156189 497.6292057 C46.2043811 497.6292057 149.8243811 497.6292057 256.5843811 497.6292057 C256.5843811 453.0792057 256.5843811 408.5292057 256.5843811 362.6292057 C253.6143811 361.9692057 250.6443811 361.3092057 247.5843811 360.6292057 C231.96270132 354.33973724 217.56476267 342.99781622 208.5843811 328.6292057 C208.5843811 327.9692057 208.5843811 327.3092057 208.5843811 326.6292057 C120.8043811 326.6292057 33.0243811 326.6292057 -57.4156189 326.6292057 C-57.4156189 348.0792057 -57.4156189 369.5292057 -57.4156189 391.6292057 C-61.4156189 395.6292057 -61.4156189 395.6292057 -64.3531189 396.6292057 C-67.4156189 396.6292057 -67.4156189 396.6292057 -70.06758118 395.10212135 C-73.14253153 391.86363298 -73.11661661 389.30840179 -73.04672241 385.06255531 C-73.05387772 384.30601158 -73.06103302 383.54946785 -73.06840515 382.76999855 C-73.08529272 380.27323167 -73.06589314 377.77826013 -73.04452515 375.28154945 C-73.04535376 373.54567249 -73.04781287 371.80979561 -73.05183411 370.07392311 C-73.05469201 366.43805732 -73.03999061 362.80280761 -73.01254272 359.1670475 C-72.9784341 354.50373688 -72.98448638 349.84152608 -73.0032053 345.17816257 C-73.0137663 341.59477486 -73.0048462 338.01164372 -72.98982048 334.42827988 C-72.98463327 332.7086666 -72.98512701 330.98902659 -72.99136543 329.26941681 C-72.996808 326.86784399 -72.97647687 324.46785405 -72.94906616 322.06646156 C-72.95559204 321.35417397 -72.96211792 320.64188637 -72.96884155 319.9080143 C-72.87524339 315.09257971 -72.87524339 315.09257971 -70.74459743 312.94455242 C-67.83972125 311.30395364 -65.96503242 311.26692692 -62.63729858 311.28862953 C-61.47639709 311.28885612 -60.31549561 311.28908272 -59.11941528 311.28931618 C-57.2473642 311.31254196 -57.2473642 311.31254196 -55.3374939 311.33623695 C-54.05578308 311.3404818 -52.77407227 311.34472664 -51.45352173 311.34910011 C-48.05362255 311.36052922 -44.65411066 311.38997904 -41.25436401 311.42321205 C-37.78212726 311.45395507 -34.30982765 311.46761444 -30.8374939 311.48272133 C-24.0300436 311.51485112 -17.22284987 311.56602367 -10.4156189 311.6292057 C-10.41713778 310.98361759 -10.41865666 310.33802948 -10.42022157 309.67287809 C-10.50969395 271.42752792 -10.57834492 233.18219124 -10.61988021 194.93675764 C-10.62488316 190.34669133 -10.63006044 185.75662522 -10.63534546 181.16655922 C-10.6363947 180.25274265 -10.63744394 179.33892608 -10.63852498 178.3974181 C-10.65593997 163.59241741 -10.68748367 148.78747872 -10.72423008 133.98251484 C-10.76160908 118.79625791 -10.78384831 103.6100335 -10.79197288 88.42373246 C-10.79746697 79.0496063 -10.81483229 69.67565537 -10.84728476 60.30158313 C-10.86839514 53.87728802 -10.87482685 47.45308377 -10.86962441 41.02875648 C-10.86705718 37.31975374 -10.87104905 33.61105764 -10.8924408 29.90210915 C-10.91544868 25.88367811 -10.90759049 21.86590332 -10.89663696 17.84742165 C-10.90828833 16.67135567 -10.91993969 15.4952897 -10.93194413 14.28358537 C-10.92397994 13.20771108 -10.91601574 12.13183679 -10.90781021 11.02336025 C-10.90932909 10.09570349 -10.91084797 9.16804672 -10.91241288 8.21227914 C-9.6659342 1.73123054 -6.21724441 0.0043861 0 0 Z " fill="#010101" transform="translate(103.41561889648438,-0.6292057037353516)"/>
<path d="M0 0 C2.28246403 0.00316975 4.56364216 -0.020369 6.84594727 -0.0456543 C8.3062321 -0.04792675 9.7665204 -0.04863104 11.22680664 -0.04760742 C13.2040271 -0.05207886 13.2040271 -0.05207886 15.22119141 -0.05664062 C18.96475544 0.34138874 20.86709462 0.87473736 23.72290039 3.31567383 C24.21790039 5.79067383 24.21790039 5.79067383 24.72290039 8.31567383 C31.32290039 8.31567383 37.92290039 8.31567383 44.72290039 8.31567383 C45.38290039 6.66567383 46.04290039 5.01567383 46.72290039 3.31567383 C48.99424573 0.98564462 50.29128259 0.37415599 53.52976418 -0.06464291 C54.6192404 -0.0670728 55.70871662 -0.0695027 56.83120728 -0.07200623 C58.08437744 -0.08191086 59.33754761 -0.09181549 60.62869263 -0.10202026 C62.01507666 -0.09778212 63.40145975 -0.09322426 64.7878418 -0.08837891 C66.25002566 -0.09408225 67.71220506 -0.10104637 69.17437744 -0.10917664 C73.14582381 -0.12713552 77.11704954 -0.12593359 81.08852434 -0.12023425 C84.40819716 -0.11714374 87.72782751 -0.12323391 91.04749429 -0.129273 C98.88578403 -0.143328 106.72396483 -0.14175123 114.56225586 -0.13037109 C122.63293904 -0.11891199 130.70328905 -0.13292595 138.77392828 -0.15976757 C145.71256042 -0.18197548 152.65108838 -0.18854983 159.58975351 -0.18269116 C163.72940754 -0.17932971 167.86884847 -0.18168122 172.00847244 -0.19894218 C175.90741127 -0.21448866 179.80586056 -0.21037132 183.70478058 -0.19163704 C185.12930843 -0.18797111 186.55387314 -0.19100091 187.97836685 -0.20152283 C198.75524371 -0.27499355 208.23758028 1.18029101 216.72290039 8.31567383 C223.26168505 16.39484526 225.02408651 23.67285494 225.01342773 33.84008789 C225.02014496 34.7695372 225.02686218 35.69898651 225.03378296 36.65660095 C225.05270674 39.71488869 225.05668449 42.77295626 225.05883789 45.83129883 C225.06527028 47.96970711 225.07199897 50.10811453 225.07901001 52.246521 C225.09096915 56.72515909 225.09469229 61.20372012 225.09350586 65.68237305 C225.09330288 71.39952917 225.12058961 77.11618704 225.15505028 82.83322525 C225.17737385 87.24981928 225.18134171 91.6662945 225.18028641 96.08293915 C225.18263474 98.18950871 225.1914146 100.29608194 225.20695114 102.40259552 C225.36685949 126.32532557 225.36685949 126.32532557 218.22290039 136.12817383 C209.21421442 145.04148426 199.56972969 146.08380913 187.52859497 146.12884521 C185.5321619 146.11718278 183.5357324 146.10489398 181.53930664 146.09204102 C179.40923998 146.10018285 177.27918178 146.11087243 175.1491394 146.12390137 C169.39281678 146.15113745 163.63714302 146.14069772 157.88080978 146.12162685 C151.84060745 146.10637599 145.80045856 146.12054082 139.76025391 146.12994385 C129.61912114 146.14084227 119.47825104 146.12651987 109.3371582 146.09790039 C97.63309331 146.06525025 85.92965566 146.07582848 74.22560596 146.10885882 C64.1547171 146.13613646 54.08401643 146.1399046 44.01310253 146.12422681 C38.00782689 146.11489995 32.00284554 146.11355018 25.99758911 146.13344574 C20.35015811 146.1508508 14.70353132 146.13862358 9.05618668 146.1040802 C6.99070696 146.09618524 4.92515888 146.09835884 2.85970688 146.11165619 C-9.44585814 146.18354084 -19.41696504 145.9950444 -29.24952793 137.63954735 C-37.18905329 129.78421161 -37.71245833 118.95589578 -37.80348301 108.46035194 C-37.80735193 105.41974615 -37.79121729 102.37966056 -37.77319336 99.33911133 C-37.77334857 97.20162914 -37.77484121 95.06414667 -37.77760315 92.92666626 C-37.77898225 88.46343428 -37.76650891 84.00052557 -37.74365234 79.53735352 C-37.71523496 73.83360758 -37.71802115 68.1303967 -37.73074245 62.42661095 C-37.73771558 58.01866125 -37.72989222 53.61083399 -37.71748543 49.20289993 C-37.71298926 47.10028173 -37.71261798 44.99765031 -37.71655083 42.89503098 C-37.71947999 39.95212845 -37.70287586 37.00994944 -37.68115234 34.06713867 C-37.68790482 32.78106468 -37.68790482 32.78106468 -37.6947937 31.4690094 C-37.5901542 22.88362332 -35.3810838 14.61558838 -29.27709961 8.31567383 C-19.98237091 0.8592741 -11.61797232 -0.0338351 0 0 Z " fill="#FCD786" transform="translate(193.277099609375,41.684326171875)"/>
<path d="M0 0 C117.48 0 234.96 0 356 0 C356.33 27.06 356.66 54.12 357 82 C359.60385848 86.3476344 359.60385848 86.3476344 364 87 C364 93.93 364 100.86 364 108 C362.02 108.99 360.04 109.98 358 111 C356.62749615 113.74500771 356.8686296 115.93466661 356.8613348 119.00890541 C356.85586036 120.29826048 356.85038591 121.58761554 356.84474558 122.91604197 C356.84366923 124.36041993 356.84268457 125.80479795 356.84178162 127.24917603 C356.83721881 128.7729548 356.8322192 130.29673232 356.82681805 131.82050836 C356.81319551 136.02316765 356.80580672 140.22581882 356.79939139 144.42849445 C356.79140546 148.95475534 356.7777015 153.48099923 356.76467896 158.00724792 C356.74289049 165.85441177 356.72475469 173.70157731 356.70907402 181.54875565 C356.68639694 192.89456938 356.65825114 204.24036432 356.62875474 215.58616214 C356.58105228 233.99232897 356.53779531 252.39850347 356.49731445 270.8046875 C356.45797302 288.68848264 356.41655005 306.57227095 356.37231445 324.45605469 C356.36822804 326.10856857 356.36822804 326.10856857 356.36405908 327.79446657 C356.35037983 333.32104768 356.33665951 338.84762869 356.32291877 344.37420964 C356.20891231 390.24945973 356.10292763 436.12472346 356 482 C326.3 482 296.6 482 266 482 C266 438.11 266 394.22 266 349 C271.28 348.67 276.56 348.34 282 348 C299.23720889 344.55255822 313.46808081 337.31987318 326 325 C326.62777344 324.38511719 327.25554687 323.77023437 327.90234375 323.13671875 C340.79735311 309.4814594 347.24875658 290.25717533 347.125 271.6875 C347.12016602 270.93057861 347.11533203 270.17365723 347.11035156 269.39379883 C346.91293163 251.04756429 340.91555928 235.1069265 329 221 C328.55269531 220.40832031 328.10539062 219.81664062 327.64453125 219.20703125 C316.18177905 204.51722858 297.07235388 196.38564074 279 194 C256.33406975 192.39020382 236.68922665 197.79317005 218.96484375 212.41796875 C204.96223001 224.61260338 194.16912144 242.24173543 192.77050781 261.09326172 C192.27401035 273.13772675 193.0086226 284.05173557 195 296 C130.65 296 66.3 296 0 296 C0 291.71 0 287.42 0 283 C0.88698672 282.99945523 1.77397345 282.99891047 2.68783855 282.99834919 C24.26204521 282.98338724 45.83604507 282.94096413 67.41013622 282.86790943 C77.84319081 282.83324422 88.27611306 282.8079019 98.70922852 282.80444336 C107.80187997 282.8014056 116.89429584 282.78094043 125.98685628 282.73947543 C130.80215165 282.71812667 135.61711192 282.70555444 140.43245506 282.71384621 C144.96424208 282.72137449 149.49534946 282.70561368 154.02701187 282.67193985 C155.69066299 282.66369177 157.35438151 282.66397408 159.01802635 282.67340279 C161.28981337 282.68500407 163.55936527 282.66594273 165.83097839 282.63923645 C167.10213092 282.63647107 168.37328344 282.63370569 169.68295574 282.63085651 C173.89548772 281.82969047 175.38744367 280.33679809 178 277 C178.63665247 273.68200128 178.63665247 273.68200128 178.5 270 C179.13887102 244.68287871 189.9902 221.65235359 208 204 C225.28957218 188.6883735 245.51857637 180.82561375 268.625 180.8125 C269.73746094 180.80025391 270.84992188 180.78800781 271.99609375 180.77539062 C282.30250146 180.75739341 291.99842862 181.77476586 301.5625 185.75 C302.18672852 186.0087793 302.81095703 186.26755859 303.45410156 186.53417969 C310.29583317 189.43535386 316.81827384 192.87884923 323 197 C326.04453491 197.48219153 328.95291087 197.46284898 332 197 C334.50160818 195.12379387 335.61945652 193.76108697 337 191 C337.1075944 188.50663169 337.15489458 186.04043026 337.15821838 183.5463562 C337.16561287 182.38280106 337.16561287 182.38280106 337.17315674 181.19573975 C337.18859829 178.57434317 337.19691127 175.95297088 337.20532227 173.33154297 C337.21503293 171.42895859 337.22517814 169.52637639 337.23572445 167.62379646 C337.26283842 162.51469899 337.28398095 157.40559287 337.30391693 152.29646301 C337.3234992 147.50760046 337.34842618 142.71877167 337.3729248 137.92993164 C337.44150686 123.91164643 337.50147341 109.89332014 337.5625 95.875 C337.706875 64.56625 337.85125 33.2575 338 1 C226.46 1 114.92 1 0 1 C0 0.67 0 0.34 0 0 Z " fill="#BFE7F1" transform="translate(109,15)"/>
<path d="M0 0 C33.75048806 -0.25182324 67.50074223 -0.44562842 101.25196126 -0.56171862 C105.23731165 -0.57547626 109.22266019 -0.58971382 113.20800781 -0.60424805 C114.39811538 -0.60857617 114.39811538 -0.60857617 115.61226553 -0.61299173 C128.4561369 -0.66084596 141.29946625 -0.74756956 154.14301616 -0.84868076 C167.3234856 -0.9515783 180.50367135 -1.0126527 193.68452597 -1.03497344 C201.81703704 -1.05006138 209.94801614 -1.09769417 218.08005553 -1.18708114 C224.31777945 -1.25214969 230.55433765 -1.25900021 236.79235458 -1.24418449 C239.3498312 -1.24721198 241.90736554 -1.26911148 244.46449661 -1.31126022 C264.84929156 -1.63079163 264.84929156 -1.63079163 269.24458313 2.42928123 C271.30733821 5.23000074 272.67047511 7.80138242 274 11 C284.97932014 24.05742489 297.98755906 29.99533465 314 36 C314 80.55 314 125.1 314 171 C210.38 171 106.76 171 0 171 C-0.33 145.59 -0.66 120.18 -1 94 C-3.89459074 90.78918149 -3.89459074 90.78918149 -8 89 C-8 82.4 -8 75.8 -8 69 C-5.03 68.01 -5.03 68.01 -2 67 C-0.6109048 64.2218096 -0.83668449 61.91465255 -0.79467773 58.80615234 C-0.77473251 57.50495453 -0.75478729 56.20375671 -0.73423767 54.86312866 C-0.71725327 53.4373995 -0.70037447 52.01166907 -0.68359375 50.5859375 C-0.66302479 49.13147387 -0.64202834 47.67701623 -0.62062073 46.2225647 C-0.56539396 42.39213912 -0.5159874 38.56165955 -0.46777344 34.73114014 C-0.4175628 30.8233153 -0.36187446 26.915569 -0.30664062 23.0078125 C-0.19905167 15.33860815 -0.09760838 7.66933855 0 0 Z M43 21 C41.94666323 23.8427129 41.94666323 23.8427129 41.5 26.9375 C40.40206752 32.03016986 39.3486518 34.81805966 35 38 C31.46754556 40.00490658 28.19810046 40.56534497 24.21875 41.14453125 C20.97414568 42.39553186 19.88192462 44.09358924 18 47 C17.61293721 49.6890678 17.45154475 51.96558363 17.48242188 54.6484375 C17.4754126 55.40191467 17.46840332 56.15539185 17.46118164 56.93170166 C17.44362952 59.41318011 17.45521369 61.8935107 17.46875 64.375 C17.46605427 66.10465717 17.46217116 67.83431285 17.45715332 69.56396484 C17.45126207 73.18536842 17.45980899 76.80637681 17.47851562 80.42773438 C17.50130521 85.0650071 17.48818009 89.70135377 17.46422577 94.33859253 C17.44975755 97.90916903 17.45437842 101.4795267 17.46473694 105.05010986 C17.46740141 106.75970571 17.4641443 108.46932155 17.45481873 110.17889404 C17.44463591 112.57031724 17.46017651 114.96025005 17.48242188 117.3515625 C17.47432495 118.0550885 17.46622803 118.7586145 17.45788574 119.48345947 C17.53958236 124.23455518 18.5950616 126.69446031 22 130 C24.8427129 131.05333677 24.8427129 131.05333677 27.9375 131.5 C34.92730288 132.99842303 37.06664107 135.0999616 41 141 C41.48862115 143.50157326 41.82045501 145.99954907 42.14453125 148.52734375 C43.35729561 152.03273113 44.85823532 153.03404847 48 155 C50.95079168 155.5744384 53.84504747 155.53589679 56.84375 155.50120544 C57.73470871 155.50673984 58.62566742 155.51227424 59.54362488 155.51797634 C62.52936691 155.53159062 65.51427416 155.51660928 68.5 155.50170898 C70.64038447 155.50549187 72.7807665 155.51099166 74.92114258 155.51808167 C80.73515025 155.53205741 86.54886269 155.52085146 92.362854 155.50437045 C98.44372802 155.49053279 104.52458468 155.49697857 110.60546875 155.50050354 C120.8177568 155.50320667 131.02992739 155.48972111 141.2421875 155.46655273 C153.05344941 155.43994242 164.8645149 155.43819556 176.67579651 155.4499411 C188.03209957 155.4607157 199.38833149 155.45453428 210.74462891 155.44038582 C215.58025796 155.43462328 220.41583501 155.43471082 225.25146484 155.43945122 C230.94453331 155.4442192 236.63738634 155.43412654 242.33041382 155.41249657 C244.42140985 155.40692612 246.51242656 155.40646575 248.60342407 155.41144943 C251.4546061 155.41739333 254.30512753 155.4049141 257.15625 155.38768005 C257.98650192 155.3936901 258.81675385 155.39970014 259.67216492 155.40589231 C264.24167847 155.35556106 267.31875277 155.01597008 271 152 C272.06487433 149.27090651 272.06487433 149.27090651 272.5 146.1875 C273.84456604 139.90526208 275.51799219 136.52145393 280.8125 132.6875 C283.49642867 131.84397956 286.09977455 131.70915096 288.90234375 131.63671875 C292.28891446 130.60876526 293.78430781 128.71466619 296 126 C296.49058847 123.17960186 296.67653932 120.96477556 296.63110352 118.15209961 C296.63825882 117.377509 296.64541412 116.6029184 296.65278625 115.80485535 C296.66964727 113.25341183 296.65028942 110.70373175 296.62890625 108.15234375 C296.62973511 106.3754512 296.63219514 104.59855873 296.63621521 102.82167053 C296.6390713 99.10182556 296.62438929 95.38258334 296.59692383 91.6628418 C296.56281622 86.89541279 296.56886911 82.12905969 296.5875864 77.36157894 C296.59815496 73.69408706 296.58922037 70.02684551 296.57420158 66.35937691 C296.5690199 64.60151475 296.56950141 62.84362645 296.57574654 61.08576775 C296.58119815 58.62944172 296.56082833 56.1746563 296.53344727 53.71850586 C296.53997314 52.99268311 296.54649902 52.26686035 296.55322266 51.51904297 C296.48864489 48.11160099 296.23541351 46.30537449 294.12828064 43.57203674 C291.62464001 41.72274348 289.66502293 41.1798716 286.625 40.5625 C280.73322981 39.11512254 277.31210363 37.19290502 273.6875 32.1875 C273.01476095 30.04696667 272.81844528 28.22667862 272.625 26 C272.30760603 22.90108065 272.09008198 22.11332895 270.0625 19.5625 C266.01186475 16.49383693 262.42450541 16.85175059 257.51701355 16.85282898 C256.62861811 16.84915229 255.74022268 16.8454756 254.82490617 16.8416875 C251.83012376 16.83062149 248.835376 16.8268019 245.84057617 16.82299805 C243.70063669 16.81673566 241.5606983 16.81008906 239.42076111 16.80308533 C233.59428714 16.78565601 227.7678214 16.77511855 221.94132781 16.7668798 C218.30397062 16.76173431 214.66661601 16.75565842 211.02926064 16.74936867 C199.65695695 16.73031222 188.28465979 16.71608138 176.9123432 16.7077567 C163.76956943 16.69797806 150.6269638 16.67164398 137.48424929 16.63125581 C127.33559339 16.60113485 117.18698579 16.58629169 107.03828603 16.58297569 C100.97219189 16.58062083 94.90627728 16.57160366 88.84023094 16.54651451 C83.13488818 16.52329881 77.429844 16.51897439 71.72446632 16.52927589 C69.6286177 16.52977293 67.5327547 16.52340333 65.43695068 16.50971985 C62.57891836 16.49210152 59.72196929 16.49905748 56.86393738 16.51225281 C56.0316391 16.50128356 55.19934081 16.49031432 54.34182137 16.47901267 C49.32695937 16.53503646 46.59016708 17.15852715 43 21 Z " fill="#A9DC96" transform="translate(46,326)"/>
<path d="M0 0 C3.54148371 2.81020389 6.79900287 5.809984 10 9 C10.63808594 9.61488281 11.27617187 10.22976562 11.93359375 10.86328125 C22.55352113 21.90895182 27.5405397 37.31612405 27.41992188 52.38330078 C26.82427515 69.66851052 20.26598296 86.04587779 7.94921875 98.30859375 C-7.61169948 112.50921979 -24.26266074 115.72253528 -44.57617188 115.12744141 C-49.42358977 114.87257113 -53.54141469 113.8734116 -58 112 C-59.1034375 111.54753906 -60.206875 111.09507812 -61.34375 110.62890625 C-76.01595543 103.97856966 -88.73181936 92.31338386 -94.62890625 77.015625 C-100.75561721 59.70146057 -101.42094395 42.01969418 -93.6796875 25.1171875 C-85.22278615 8.52687283 -71.73073767 -2.67066021 -54.1875 -8.75 C-35.87894142 -14.65820277 -15.7372488 -10.76759129 0 0 Z " fill="#E2626C" transform="translate(415,234)"/>
<path d="M0 0 C1.33749641 -0.00724325 1.33749641 -0.00724325 2.70201296 -0.01463282 C5.69010327 -0.02590534 8.67733811 -0.00858332 11.66539001 0.00863647 C13.80739575 0.00649067 15.94940035 0.00261305 18.09140015 -0.00286865 C23.90948343 -0.01256852 29.72726022 0.00274913 35.54530644 0.02303743 C41.62931172 0.0405928 47.71330732 0.03708366 53.79733276 0.03631592 C64.01382075 0.0381894 74.23018998 0.05556047 84.44664001 0.08285522 C96.26584584 0.11431488 108.08492161 0.12485115 119.90416628 0.12338412 C131.26580492 0.12216424 142.62740112 0.13236834 153.98902702 0.14896774 C158.82825997 0.15603666 163.66747791 0.1596947 168.50671577 0.16075516 C174.20220654 0.16276141 179.89758775 0.17494967 185.59304237 0.19508743 C187.68607157 0.20093836 189.77911337 0.20338798 191.87215042 0.20223236 C194.72355928 0.20125363 197.57465946 0.21253578 200.42602539 0.22705078 C201.25919015 0.22395358 202.09235492 0.22085637 202.9507671 0.21766531 C210.15941794 0.27849246 210.15941794 0.27849246 213.14952087 2.49447632 C215.16477336 5.51735504 215.47625436 6.83187741 215.96202087 10.30697632 C216.91427415 15.44314558 218.37666061 17.90127606 222.14952087 21.49447632 C225.6370439 23.53489436 228.9864172 24.10178497 232.93077087 24.73666382 C235.96639587 25.7734794 237.17217507 26.95317555 239.14952087 29.49447632 C239.54948108 32.20236902 239.70730521 34.50615905 239.68296814 37.21298218 C239.69158371 37.98582047 239.70019928 38.75865875 239.70907593 39.55491638 C239.73175742 42.1067261 239.72499316 44.65743948 239.71592712 47.20932007 C239.72116206 48.98524807 239.72743806 50.76117329 239.73471069 52.53709412 C239.74511911 56.258617 239.74054765 59.97975762 239.72593689 63.70126343 C239.70875483 68.46760714 239.73223423 73.23274473 239.76742649 77.99895382 C239.78940129 81.66647817 239.78795876 85.33371402 239.77966118 89.00128365 C239.77884157 90.7583403 239.78570684 92.51541812 239.80043221 94.27241325 C239.81787898 96.73121828 239.80333687 99.18785754 239.78062439 101.64657593 C239.79231659 102.37037445 239.80400879 103.09417297 239.8160553 103.83990479 C239.74286902 107.73939659 239.25185094 109.36819904 236.76412964 112.43809509 C234.0128818 114.6019425 232.63402468 115.14849173 229.21202087 115.49447632 C224.05882616 116.30854285 221.7425195 117.72182776 218.14952087 121.49447632 C215.91618196 125.22723005 215.54886776 128.89958601 215.00498962 133.15463257 C214.14952087 135.49447632 214.14952087 135.49447632 212.14878845 137.11648655 C208.10565239 138.97407344 204.70426683 138.9139963 200.30577087 138.88215637 C199.41481216 138.88754191 198.52385345 138.89292745 197.605896 138.89847618 C194.62029715 138.91278432 191.63513987 138.90564497 188.64952087 138.89852905 C186.50913638 138.90423107 184.36875493 138.91119468 182.2283783 138.91932678 C176.41443075 138.9372906 170.60063385 138.93608386 164.78666687 138.9303844 C159.93551543 138.92729759 155.08439314 138.93337925 150.23324585 138.93942314 C138.79125043 138.953477 127.34932967 138.95189955 115.90733337 138.94052124 C104.09604476 138.92903539 92.28498308 138.94312172 80.47372437 138.96991771 C70.33773191 138.99205362 60.20181081 138.99871696 50.0657959 138.9928413 C44.00982734 138.98946594 37.95400431 138.99192545 31.89805603 139.00909233 C26.20495619 139.02452599 20.51219341 139.02064556 14.81910706 139.00178719 C12.72810431 138.99809158 10.63707678 139.00123792 8.5460968 139.01167297 C5.69476294 139.02481778 2.84455572 139.01339318 -0.00672913 138.99568176 C-0.83698105 139.00528677 -1.66723297 139.01489178 -2.52264404 139.02478784 C-6.46270594 138.97432284 -8.41371222 138.76507896 -11.84266663 136.64064121 C-14.32998517 133.98192894 -14.7394548 132.11978725 -15.35047913 128.55697632 C-16.4484116 123.46430646 -17.50182732 120.67641666 -21.85047913 117.49447632 C-25.38293357 115.48956974 -28.65237867 114.92913135 -32.63172913 114.34994507 C-35.87633344 113.09894446 -36.9685545 111.40088708 -38.85047913 108.49447632 C-39.23754191 105.80540852 -39.39893438 103.52889269 -39.36805725 100.84603882 C-39.37506653 100.09256165 -39.38207581 99.33908447 -39.38929749 98.56277466 C-39.40684961 96.08129621 -39.39526544 93.60096562 -39.38172913 91.11947632 C-39.38442486 89.38981915 -39.38830796 87.66016346 -39.39332581 85.93051147 C-39.39921705 82.3091079 -39.39067014 78.68809951 -39.3719635 75.06674194 C-39.34917392 70.42946922 -39.36229904 65.79312255 -39.38625336 61.15588379 C-39.40072157 57.58530729 -39.39610071 54.01494962 -39.38574219 50.44436646 C-39.38307772 48.73477061 -39.38633483 47.02515476 -39.3956604 45.31558228 C-39.40584322 42.92415908 -39.39030261 40.53422627 -39.36805725 38.14291382 C-39.37615417 37.43938782 -39.3842511 36.73586182 -39.39259338 36.01101685 C-39.31089677 31.25992114 -38.25541752 28.80001601 -34.85047913 25.49447632 C-32.01063538 24.52572632 -32.01063538 24.52572632 -28.91297913 23.99447632 C-23.82030927 22.89654384 -21.03241947 21.84312812 -17.85047913 17.49447632 C-15.84557255 13.96202187 -15.28513416 10.69257677 -14.70594788 6.71322632 C-12.08661994 -0.08028176 -6.24797088 -0.0773511 0 0 Z M0.14952087 15.49447632 C-2.16047913 19.78447632 -4.47047913 24.07447632 -6.85047913 28.49447632 C-12.16569892 34.11055761 -16.5169159 35.82769471 -23.85047913 39.49447632 C-23.85047913 59.29447632 -23.85047913 79.09447632 -23.85047913 99.49447632 C-17.41547913 102.95947632 -17.41547913 102.95947632 -10.85047913 106.49447632 C-5.23439784 111.80969611 -3.51726074 116.1609131 0.14952087 123.49447632 C66.47952087 123.49447632 132.80952087 123.49447632 201.14952087 123.49447632 C202.46952087 120.52447632 203.78952087 117.55447632 205.14952087 114.49447632 C208.98878971 106.81593865 216.73161542 103.20342905 224.14952087 99.49447632 C224.14952087 79.69447632 224.14952087 59.89447632 224.14952087 39.49447632 C218.70452087 36.52447632 218.70452087 36.52447632 213.14952087 33.49447632 C210.21202087 30.93197632 210.21202087 30.93197632 208.14952087 28.49447632 C207.44827087 27.73135132 206.74702087 26.96822632 206.02452087 26.18197632 C204.14952087 23.49447632 204.14952087 23.49447632 201.14952087 15.49447632 C134.81952087 15.49447632 68.48952087 15.49447632 0.14952087 15.49447632 Z " fill="#030402" transform="translate(102.85047912597656,342.5055236816406)"/>
<path d="M0 0 C2.28246403 0.00316975 4.56364216 -0.020369 6.84594727 -0.0456543 C8.3062321 -0.04792675 9.7665204 -0.04863104 11.22680664 -0.04760742 C13.2040271 -0.05207886 13.2040271 -0.05207886 15.22119141 -0.05664062 C18.91154386 0.33573109 20.79909335 1.07841773 23.72290039 3.31567383 C25.1433186 6.15651024 25.03742311 8.1704466 24.72290039 11.31567383 C22.85580129 13.61842939 21.36642298 14.99391253 18.72290039 16.31567383 C16.30253706 16.42373739 13.90577326 16.47696533 11.48461914 16.49145508 C10.00999557 16.51465852 8.53538616 16.53877607 7.06079102 16.5637207 C4.73688356 16.59879392 2.41349504 16.62815592 0.08935547 16.64160156 C-2.1545296 16.65712274 -4.39689873 16.69735888 -6.64038086 16.74145508 C-7.33013504 16.73954666 -8.01988922 16.73763824 -8.73054504 16.735672 C-13.50463186 16.85608027 -15.95893902 17.89491693 -19.27709961 21.31567383 C-20.92574743 24.09720724 -21.52885821 26.14187742 -21.54452515 29.36288452 C-21.5573201 30.55714302 -21.5573201 30.55714302 -21.57037354 31.77552795 C-21.56946716 32.64004074 -21.56856079 33.50455353 -21.56762695 34.39526367 C-21.57434418 35.31279922 -21.5810614 36.23033478 -21.58798218 37.17567444 C-21.60698269 40.20937513 -21.61088741 43.24285483 -21.61303711 46.27661133 C-21.61946356 48.38644502 -21.6261918 50.49627781 -21.63320923 52.60610962 C-21.6451871 57.029501 -21.64888952 61.45281425 -21.64770508 65.8762207 C-21.64750185 71.54127007 -21.67480588 77.20581799 -21.7092495 82.87074852 C-21.73149872 87.22881364 -21.73554322 91.58675771 -21.73448563 95.94487381 C-21.73684449 98.03324741 -21.74568403 100.1216242 -21.76115036 102.20994186 C-21.78077015 105.13274901 -21.77498786 108.05446988 -21.76293945 110.97729492 C-21.77417847 111.83775925 -21.78541748 112.69822357 -21.79699707 113.58476257 C-21.74081168 118.95491887 -20.94896963 122.12617428 -17.27709961 126.31567383 C-12.9578599 129.67843548 -8.93903865 129.74264818 -3.66786194 129.70335388 C-2.80211011 129.70873942 -1.93635828 129.71412496 -1.04437155 129.71967369 C1.85598032 129.73397868 4.75587742 129.72684326 7.65625 129.71972656 C9.73589953 129.72542879 11.81554593 129.73239248 13.89518738 129.74052429 C19.54391937 129.75848692 25.19249628 129.75728147 30.84124827 129.75158191 C35.55561271 129.74849458 40.26994717 129.75457742 44.98430735 129.76062065 C56.10512343 129.77467444 67.2258627 129.77309744 78.34667969 129.76171875 C89.82280897 129.75023605 101.29870461 129.76431393 112.7748031 129.79111522 C122.6254637 129.81325988 132.47605088 129.81991239 142.3267346 129.81403881 C148.21115021 129.81066517 154.09541602 129.81311147 159.97981071 129.83028984 C165.51286567 129.84573715 171.04557403 129.84182782 176.57861519 129.8229847 C178.60953326 129.81929272 180.64047689 129.82242492 182.67137146 129.83287048 C185.44354201 129.84604032 188.21455837 129.83456843 190.98667908 129.81687927 C192.19266916 129.83128678 192.19266916 129.83128678 193.42302269 129.84598535 C198.63968539 129.77747884 201.56047414 128.72492847 205.72290039 125.31567383 C209.43199676 120.95351948 209.15549023 116.58013694 209.12695312 111.12255859 C209.13381638 110.20487701 209.14067963 109.28719543 209.14775085 108.34170532 C209.16602669 105.31333876 209.16218016 102.28548987 209.15649414 99.25708008 C209.16105558 97.14867484 209.16636105 95.04027109 209.17237854 92.93186951 C209.18131122 88.51441404 209.17888469 84.09713934 209.16894531 79.6796875 C209.15745603 74.02248525 209.17766603 68.36590721 209.20686245 62.70878696 C209.22522035 58.35499618 209.22493277 54.0013551 209.21922493 49.64753532 C209.21907166 47.56196149 209.22512042 45.47637753 209.2375164 43.39084053 C209.25241641 40.47289143 209.24175627 37.5560969 209.22460938 34.63818359 C209.23427734 33.77929031 209.24394531 32.92039703 209.25390625 32.03547668 C209.1880084 26.67227565 208.38763442 23.50044282 204.72290039 19.31567383 C200.85899569 16.49824431 198.15663422 15.94019485 193.40927124 15.93713379 C191.49965858 15.92482979 191.49965858 15.92482979 189.5514679 15.91227722 C188.14816175 15.91823511 186.74485669 15.92445417 185.34155273 15.9309082 C183.85801273 15.9268015 182.37447594 15.92134004 180.89094543 15.91462708 C177.70103242 15.90291378 174.51129237 15.90041342 171.32136154 15.90498352 C166.27930623 15.91179412 161.23747858 15.89592491 156.19546509 15.87658691 C144.58561218 15.8355207 132.97576562 15.82417746 121.36585236 15.81305695 C110.71910606 15.80255588 100.07246911 15.78582571 89.42579043 15.74496126 C84.41131881 15.7265751 79.39710743 15.72272297 74.38261008 15.72989655 C71.26747605 15.73141519 68.15247306 15.7206554 65.0373745 15.70651817 C63.59055894 15.7025058 62.14371868 15.70365705 60.69691277 15.71029091 C58.72547298 15.71863774 56.75397842 15.7069726 54.78256226 15.69421387 C53.12616258 15.6931451 53.12616258 15.6931451 51.43630028 15.69205475 C48.72290039 15.31567383 48.72290039 15.31567383 46.87542152 14.03810883 C45.25485002 11.61617573 45.26106945 9.20357966 45.12915039 6.35083008 C46.05974729 3.16108677 48.00965924 2.12744852 50.72290039 0.31567383 C53.652812 -0.18769073 53.652812 -0.18769073 56.95146179 -0.19226074 C58.20600662 -0.20354004 59.46055145 -0.21481934 60.75311279 -0.22644043 C62.13586658 -0.21866369 63.51861807 -0.21047104 64.90136719 -0.2019043 C66.36370032 -0.2073271 67.82602799 -0.21445065 69.28834534 -0.22314453 C73.25567272 -0.24137037 77.22258368 -0.23431148 81.18991828 -0.22162819 C85.34926443 -0.21148701 89.50857539 -0.22089786 93.66792297 -0.22717285 C100.65791199 -0.23445007 107.64773197 -0.22486391 114.63769531 -0.20581055 C122.70102758 -0.18408414 130.76395459 -0.19106188 138.82727689 -0.21311617 C145.76169429 -0.23131904 152.69599024 -0.23380342 159.63042384 -0.22336149 C163.76669589 -0.21714783 167.9027781 -0.21623106 172.0390377 -0.22950745 C175.93390729 -0.24113518 179.82825974 -0.23291535 183.72307396 -0.20993042 C185.14598231 -0.20467816 186.5689348 -0.20609684 187.9918251 -0.21498108 C198.75914521 -0.27596629 208.24544364 1.18690338 216.72290039 8.31567383 C223.26168505 16.39484526 225.02408651 23.67285494 225.01342773 33.84008789 C225.02014496 34.7695372 225.02686218 35.69898651 225.03378296 36.65660095 C225.05270674 39.71488869 225.05668449 42.77295626 225.05883789 45.83129883 C225.06527028 47.96970711 225.07199897 50.10811453 225.07901001 52.246521 C225.09096915 56.72515909 225.09469229 61.20372012 225.09350586 65.68237305 C225.09330288 71.39952917 225.12058961 77.11618704 225.15505028 82.83322525 C225.17737385 87.24981928 225.18134171 91.6662945 225.18028641 96.08293915 C225.18263474 98.18950871 225.1914146 100.29608194 225.20695114 102.40259552 C225.36685949 126.32532557 225.36685949 126.32532557 218.22290039 136.12817383 C209.21421442 145.04148426 199.56972969 146.08380913 187.52859497 146.12884521 C185.5321619 146.11718278 183.5357324 146.10489398 181.53930664 146.09204102 C179.40923998 146.10018285 177.27918178 146.11087243 175.1491394 146.12390137 C169.39281678 146.15113745 163.63714302 146.14069772 157.88080978 146.12162685 C151.84060745 146.10637599 145.80045856 146.12054082 139.76025391 146.12994385 C129.61912114 146.14084227 119.47825104 146.12651987 109.3371582 146.09790039 C97.63309331 146.06525025 85.92965566 146.07582848 74.22560596 146.10885882 C64.1547171 146.13613646 54.08401643 146.1399046 44.01310253 146.12422681 C38.00782689 146.11489995 32.00284554 146.11355018 25.99758911 146.13344574 C20.35015811 146.1508508 14.70353132 146.13862358 9.05618668 146.1040802 C6.99070696 146.09618524 4.92515888 146.09835884 2.85970688 146.11165619 C-9.44585814 146.18354084 -19.41696504 145.9950444 -29.24952793 137.63954735 C-37.18905329 129.78421161 -37.71245833 118.95589578 -37.80348301 108.46035194 C-37.80735193 105.41974615 -37.79121729 102.37966056 -37.77319336 99.33911133 C-37.77334857 97.20162914 -37.77484121 95.06414667 -37.77760315 92.92666626 C-37.77898225 88.46343428 -37.76650891 84.00052557 -37.74365234 79.53735352 C-37.71523496 73.83360758 -37.71802115 68.1303967 -37.73074245 62.42661095 C-37.73771558 58.01866125 -37.72989222 53.61083399 -37.71748543 49.20289993 C-37.71298926 47.10028173 -37.71261798 44.99765031 -37.71655083 42.89503098 C-37.71947999 39.95212845 -37.70287586 37.00994944 -37.68115234 34.06713867 C-37.68790482 32.78106468 -37.68790482 32.78106468 -37.6947937 31.4690094 C-37.5901542 22.88362332 -35.3810838 14.61558838 -29.27709961 8.31567383 C-19.98237091 0.8592741 -11.61797232 -0.0338351 0 0 Z " fill="#040404" transform="translate(193.277099609375,41.684326171875)"/>
<path d="M0 0 C3.52794481 2.19516566 5.46750176 4.16920866 7 8 C7.24609566 10.50683212 7.24609566 10.50683212 7.24050903 13.37835693 C7.24325836 14.46928146 7.24600769 15.56020599 7.24884033 16.68418884 C7.24164978 17.87605301 7.23445923 19.06791718 7.22705078 20.29589844 C7.22734283 21.55469315 7.22763489 22.81348785 7.22793579 24.11042786 C7.22850947 27.55848532 7.21675276 31.00640356 7.20278788 34.45442867 C7.19028304 38.05923188 7.18911021 41.66403831 7.18673706 45.26885986 C7.18052157 52.09341432 7.16410982 58.91790469 7.14403808 65.74243093 C7.11750065 74.96559912 7.106707 84.18878484 7.09503365 93.41198158 C7.07622926 107.94136906 7.03638409 122.47062128 7 137 C-12.47 137 -31.94 137 -52 137 C-52.20081834 108.75155323 -52.20081834 108.75155323 -52.25126934 94.79788017 C-52.27897625 87.25132394 -52.31415097 79.70504404 -52.37719727 72.15869141 C-52.43242403 65.54513827 -52.46141869 58.93180568 -52.47438622 52.31801224 C-52.48362796 49.79419878 -52.50167483 47.27040176 -52.52865028 44.74671555 C-52.56492341 41.21278199 -52.56994578 37.68008572 -52.56762695 34.14599609 C-52.58560333 33.10158356 -52.60357971 32.05717102 -52.62210083 30.98110962 C-52.58969823 26.42024796 -52.56218693 23.05211513 -49.66007996 19.38369751 C-46.58186061 16.62530531 -44.44769529 15.84538266 -40.4375 14.9375 C-27.87756553 11.75162936 -12.27332832 -1.26965465 0 0 Z " fill="#DCF4FE" transform="translate(440,359)"/>
<path d="M0 0 C7.7642036 5.46480484 13.82128551 12.55537385 16.71875 21.6796875 C16.71875 22.6696875 16.71875 23.6596875 16.71875 24.6796875 C17.935625 24.5765625 19.1525 24.4734375 20.40625 24.3671875 C23.94268408 24.37346891 24.65728572 24.63615031 27.71875 26.8046875 C29.71875 29.6796875 29.71875 29.6796875 30.28125 32.7421875 C29.60053485 36.29703331 28.51802541 37.4567335 25.71875 39.6796875 C22.76210481 41.1580101 19.97645263 40.74001533 16.71875 40.6796875 C16.57179688 41.30875 16.42484375 41.9378125 16.2734375 42.5859375 C13.59745681 52.79772588 7.83449064 60.40461803 -1.2578125 65.8671875 C-10.45831368 70.6983387 -20.2831914 72.59837187 -30.47265625 69.8046875 C-40.93275983 65.74354895 -49.06908507 59.75319857 -54.28125 49.6796875 C-55.46648749 46.72108331 -56.45209944 43.75627249 -57.28125 40.6796875 C-58.333125 40.7621875 -59.385 40.8446875 -60.46875 40.9296875 C-64.28125 40.6796875 -64.28125 40.6796875 -67.15625 39.1171875 C-69.97553622 35.88330037 -70.43123605 33.95429004 -70.28125 29.6796875 C-68.34375 26.7421875 -68.34375 26.7421875 -65.28125 24.6796875 C-62.47315709 24.27557081 -60.14126837 24.43731306 -57.28125 24.6796875 C-57.13429687 24.13441406 -56.98734375 23.58914063 -56.8359375 23.02734375 C-53.77368203 12.73182967 -48.15803958 4.60168959 -38.75390625 -0.76171875 C-26.07981579 -7.29417947 -12.57529108 -7.27816504 0 0 Z " fill="#020401" transform="translate(223.28125,379.3203125)"/>
<path d="M0 0 C2.23468062 -0.01716382 4.46786215 -0.06104241 6.70214844 -0.10522461 C8.13182509 -0.11535641 9.56151429 -0.12387099 10.99121094 -0.13061523 C12.93592285 -0.15248901 12.93592285 -0.15248901 14.91992188 -0.17480469 C20.21448984 0.51890912 23.24373111 2.8917162 26.75683594 6.79516602 C29.84434372 11.20589142 30.75944997 14.00640445 30.79736328 19.453125 C30.81012299 20.69799179 30.82288269 21.94285858 30.83602905 23.22544861 C30.83908648 24.58071741 30.84131436 25.9359883 30.84277344 27.29125977 C30.84920328 28.68604163 30.85593178 30.08082215 30.86294556 31.4756012 C30.87490862 34.39668912 30.87862733 37.31765885 30.87744141 40.23876953 C30.87723811 43.97589883 30.90455398 47.71226854 30.93898582 51.4492178 C30.96125674 54.32920288 30.96527893 57.20900509 30.96422195 60.08906746 C30.96657711 61.46654952 30.97539597 62.84403667 30.99088669 64.22143364 C31.01054916 66.15012646 31.00218543 68.0790429 30.99267578 70.0078125 C30.99552582 71.10383286 30.99837585 72.19985321 31.00131226 73.3290863 C30.391101 76.98939348 29.07533379 78.66601545 26.50683594 81.29516602 C23.51396711 82.22002567 21.71710193 81.75377544 18.50683594 81.29516602 C16.01917508 78.97095893 15.5380924 77.58115706 15.16625977 74.17895508 C15.18982544 72.38796387 15.18982544 72.38796387 15.21386719 70.56079102 C15.22836914 68.6175293 15.22836914 68.6175293 15.24316406 66.63500977 C15.2682281 65.27172247 15.29362292 63.90844122 15.31933594 62.54516602 C15.33439076 61.16627417 15.34807777 59.78736667 15.36035156 58.40844727 C15.39571445 55.03718538 15.44952112 51.66612616 15.50683594 48.29516602 C6.92683594 48.29516602 -1.65316406 48.29516602 -10.49316406 48.29516602 C-10.44675781 50.34219727 -10.40035156 52.38922852 -10.35253906 54.49829102 C-10.32471983 56.48736629 -10.29704455 58.47644645 -10.2734375 60.46557617 C-10.25335764 61.84493282 -10.22608741 63.22420471 -10.19140625 64.60327148 C-10.14273589 66.5887358 -10.12229988 68.57482856 -10.10253906 70.56079102 C-10.0815918 71.75478516 -10.06064453 72.9487793 -10.0390625 74.17895508 C-10.49316406 77.29516602 -10.49316406 77.29516602 -12.29882812 79.6809082 C-14.49316406 81.29516602 -14.49316406 81.29516602 -17.99316406 81.85766602 C-21.49316406 81.29516602 -21.49316406 81.29516602 -23.67857361 79.14900208 C-25.80127257 75.81059873 -26.00415905 73.9975563 -26.02661133 70.07128906 C-26.04244766 68.83618088 -26.058284 67.60107269 -26.07460022 66.32853699 C-26.07075747 64.98798239 -26.06571771 63.64743077 -26.05957031 62.30688477 C-26.06481052 60.92071618 -26.07108846 59.53455117 -26.07835388 58.14839172 C-26.08874767 55.24572962 -26.08421465 52.34355799 -26.06958008 49.44091797 C-26.05243314 45.73860007 -26.07583904 42.03784018 -26.11106968 38.33569622 C-26.13314108 35.47268069 -26.13157836 32.61003197 -26.12330437 29.74695778 C-26.12248936 28.38312895 -26.12926589 27.01927196 -26.14407539 25.6555233 C-26.21759279 17.65743695 -26.01913211 11.43484258 -20.49316406 5.29516602 C-14.03894614 -0.55865954 -8.32129588 0.04453293 0 0 Z " fill="#030301" transform="translate(284.4931640625,73.704833984375)"/>
<path d="M0 0 C4.55570788 4.7391592 7.86184015 10.30698508 11.3125 15.875 C11.86228516 16.75414063 12.41207031 17.63328125 12.97851562 18.5390625 C14.32301222 20.69025705 15.66337633 22.84390822 17 25 C17.65226562 23.865625 18.30453125 22.73125 18.9765625 21.5625 C21.60650749 17.01464532 24.2866973 12.4985679 27 8 C27.86818359 6.55947266 27.86818359 6.55947266 28.75390625 5.08984375 C31.2325749 1.36846384 32.1081364 0.1845235 36.625 -0.75 C40.50372809 0.11193957 41.857123 0.65711188 44 4 C44.59336598 9.78193944 43.38048848 12.81472171 40.24609375 17.6328125 C39.86638931 18.23253876 39.48668488 18.83226501 39.09547424 19.45016479 C37.89081941 21.35165815 36.66683922 23.23938611 35.4375 25.125 C33.8148667 27.61711623 32.21262421 30.12075168 30.62109375 32.6328125 C29.9036499 33.73512207 29.18620605 34.83743164 28.44702148 35.97314453 C26.80733908 38.82137629 26.80733908 38.82137629 27.04882812 41.52954102 C28.23268084 44.60433712 29.78731413 47.13943397 31.59765625 49.89453125 C32.32415557 51.02631557 33.05004825 52.15848949 33.77539062 53.29101562 C34.91596836 55.05323642 36.06177435 56.8114018 37.21899414 58.56274414 C45.22921848 70.73643623 45.22921848 70.73643623 44 78 C43 80 43 80 41 81 C37.69911871 81.59524089 36.10761333 81.87681221 33 81 C30.32400102 78.81054629 28.77435859 75.93575694 27 73 C26.13768436 71.63398252 25.2728883 70.26952916 24.40625 68.90625 C21.90597037 64.95649463 19.44616211 60.98347347 17 57 C12.58559454 62.14665281 9.3316228 67.94433727 5.890625 73.7578125 C5.18292969 74.93730469 5.18292969 74.93730469 4.4609375 76.140625 C4.03603027 76.85766602 3.61112305 77.57470703 3.17333984 78.31347656 C2 80 2 80 0 81 C-3.87424565 81.35872645 -6.14933906 81.56710729 -9.4375 79.375 C-11.49231745 76.25167748 -11.40418403 74.70760053 -11 71 C-9.70223618 68.57870414 -8.41179751 66.47240905 -6.8515625 64.23828125 C-6.00198314 62.94201359 -5.15438616 61.64444488 -4.30859375 60.34570312 C-2.97146368 58.32133439 -1.62292202 56.30951176 -0.23779297 54.31762695 C2.72742398 50.02235288 5.31417598 45.96246274 7 41 C6.14013063 36.45013142 3.84749148 33.56941471 1 30 C-0.09133957 28.26697081 -1.16224611 26.52088293 -2.2109375 24.76171875 C-3.80387253 22.1992566 -5.40361132 19.64268912 -7.02734375 17.09960938 C-11.91506052 9.18003822 -11.91506052 9.18003822 -11 4 C-8.07239315 -0.44996242 -5.11631317 -0.8975988 0 0 Z " fill="#030302" transform="translate(342,74)"/>
<path d="M0 0 C1.12721466 -0.00701431 2.25442932 -0.01402863 3.415802 -0.02125549 C4.64813568 -0.01361176 5.88046936 -0.00596802 7.15014648 0.00190735 C8.45128387 -0.00174332 9.75242126 -0.00539398 11.09298706 -0.00915527 C14.65911949 -0.01855786 18.22497714 -0.00914434 21.7910881 0.00417686 C25.52348622 0.01549662 29.2558709 0.01138344 32.98828125 0.00942993 C39.25614916 0.00854712 45.52390888 0.01962458 51.79174805 0.03804016 C59.03767946 0.05920762 66.28345239 0.06271759 73.52940845 0.0564782 C80.5004924 0.05078288 87.47152054 0.05643219 94.44259644 0.06765175 C97.40901725 0.07229551 100.37540393 0.07317255 103.34182739 0.0710659 C107.48374734 0.068832 111.62544543 0.08329406 115.76733398 0.0995636 C117.6158345 0.09584747 117.6158345 0.09584747 119.50167847 0.09205627 C120.62889313 0.09914108 121.75610779 0.10622589 122.91748047 0.11352539 C124.38639992 0.1166047 124.38639992 0.1166047 125.88499451 0.11974621 C128.57371666 0.38558994 130.19897028 0.91433162 132.45874023 2.3742218 C134.01334328 5.4834279 134.18594716 9.00505208 133.45874023 12.3742218 C130.33300501 15.35650534 128.09334439 15.75268202 123.84155273 15.76863098 C122.69750977 15.77998077 121.5534668 15.79133057 120.37475586 15.80302429 C118.49820313 15.79862839 118.49820313 15.79862839 116.58374023 15.79414368 C115.24974863 15.80148494 113.91576338 15.81007134 112.58178711 15.81980896 C108.96197987 15.84202538 105.34240024 15.8449557 101.72253418 15.84306145 C98.70053078 15.84294178 95.67857566 15.85150426 92.65658569 15.85983896 C85.52810445 15.87907261 78.39974032 15.88195665 71.27124023 15.87519836 C63.91608941 15.86855365 56.56143958 15.89143884 49.20639038 15.9285121 C42.89119574 15.95918945 36.57616246 15.97057141 30.26089478 15.96667528 C26.48912463 15.96460611 22.71774454 15.9701125 18.94604492 15.99456787 C15.39995696 16.01680131 11.85468516 16.01498697 8.30859375 15.99464035 C6.38660857 15.98959496 4.46460841 16.00927237 2.54272461 16.02964783 C1.39868164 16.01843903 0.25463867 16.00723022 -0.92407227 15.99568176 C-2.41511475 15.99675053 -2.41511475 15.99675053 -3.9362793 15.99784088 C-6.54125977 15.3742218 -6.54125977 15.3742218 -8.89233398 13.06194305 C-10.54125977 10.3742218 -10.54125977 10.3742218 -10.54125977 6.7492218 C-8.83337417 0.98510793 -5.73032162 -0.00098155 0 0 Z " fill="#010101" transform="translate(166.541259765625,211.6257781982422)"/>
<path d="M0 0 C66.33 0 132.66 0 201 0 C202.98 4.455 202.98 4.455 205 9 C209.16020058 16.85815666 216.29375459 20.1468773 224 24 C224 43.8 224 63.6 224 84 C220.37 85.98 216.74 87.96 213 90 C206.25852336 94.3966152 203.48443758 100.54668725 201 108 C134.67 108 68.34 108 0 108 C-0.99 105.03 -0.99 105.03 -2 102 C63.67 102 129.34 102 197 102 C197.66 100.02 198.32 98.04 199 96 C203.03644169 88.70440437 209.61739363 83.69130319 217 80 C217.22847266 72.70487782 217.3859144 65.41067925 217.49438477 58.11279297 C217.53960555 55.63132251 217.60099528 53.15009133 217.67895508 50.66943359 C217.78833135 47.09933501 217.8392093 43.53240742 217.87890625 39.9609375 C217.9485836 38.30123428 217.9485836 38.30123428 218.01966858 36.60800171 C218.12204941 30.76059958 218.12204941 30.76059958 215.07052612 26.05792236 C212.73428102 24.46093371 212.73428102 24.46093371 210.31016541 23.25820923 C203.59878675 19.6029218 200.2211822 13.10833916 197.62890625 6.19921875 C197 4 197 4 197 1 C131.99 1 66.98 1 0 1 C0 0.67 0 0.34 0 0 Z " fill="#54A134" transform="translate(103,358)"/>
<path d="M0 0 C1.02806763 -0.0038269 2.05613525 -0.00765381 3.11535645 -0.01159668 C5.28736348 -0.01431674 7.45940323 -0.00694906 9.63134766 0.00976562 C12.95679729 0.03117305 16.28008635 0.00996622 19.60546875 -0.015625 C21.7161506 -0.01298174 23.82683111 -0.00785681 25.9375 0 C26.93237427 -0.00809692 27.92724854 -0.01619385 28.95227051 -0.02453613 C35.81277999 0.06870079 35.81277999 0.06870079 39.09179688 2.38085938 C41.01621345 5.38622484 41.11230873 7.02743027 40.46875 10.53125 C38.421875 13.203125 38.421875 13.203125 35.46875 15.53125 C32.6300099 15.89896245 30.45054849 16.01755804 27.65625 15.84375 C26.96337891 15.82119141 26.27050781 15.79863281 25.55664062 15.77539062 C23.85973427 15.71687661 22.16395139 15.6272048 20.46875 15.53125 C20.47763245 16.28435959 20.48651489 17.03746918 20.4956665 17.81340027 C20.57590033 24.91968612 20.63675876 32.0258144 20.67599869 39.13242626 C20.69685093 42.78582815 20.72512408 46.43885497 20.77050781 50.09204102 C20.81405186 53.61931849 20.83790489 57.1462358 20.84825897 60.67376137 C20.85921874 62.67074599 20.89043148 64.66758624 20.92193604 66.66435242 C20.92223816 67.88524063 20.92254028 69.10612885 20.92285156 70.36401367 C20.93173401 71.43656906 20.94061646 72.50912445 20.94976807 73.61418152 C20.34491888 77.28220693 19.10280784 78.94609402 16.46875 81.53125 C12.96875 82.09375 12.96875 82.09375 9.46875 81.53125 C6.6348981 79.39514144 5.58741058 78.23055095 4.98773193 74.69647217 C4.99661438 73.60393127 5.00549683 72.51139038 5.01464844 71.38574219 C5.01510162 69.52426544 5.01510162 69.52426544 5.01556396 67.62518311 C5.03598885 66.27615718 5.05685281 64.92713783 5.078125 63.578125 C5.08558898 62.19379494 5.09128117 60.80945428 5.09527588 59.42510986 C5.11052026 55.78835683 5.14979048 52.15224675 5.1940918 48.51574707 C5.23507108 44.80225318 5.25329249 41.08865501 5.2734375 37.375 C5.31628699 30.09345746 5.38452246 22.81244395 5.46875 15.53125 C4.36015625 15.57765625 3.2515625 15.6240625 2.109375 15.671875 C0.64586032 15.70940102 -0.81768356 15.74580029 -2.28125 15.78125 C-3.01085937 15.81476563 -3.74046875 15.84828125 -4.4921875 15.8828125 C-8.04072276 15.94733132 -10.10114637 15.84233124 -13.015625 13.734375 C-15.23135456 10.51357224 -15.07629673 8.3465771 -14.53125 4.53125 C-11.09420116 -0.93967128 -5.8008023 -0.04721064 0 0 Z " fill="#020201" transform="translate(202.53125,73.46875)"/>
<path d="M0 0 C3.3 0.99 6.6 1.98 10 3 C10 47.55 10 92.1 10 138 C-93.62 138 -197.24 138 -304 138 C-304 113.25 -304 88.5 -304 63 C-303.67 63 -303.34 63 -303 63 C-303 87.42 -303 111.84 -303 137 C-203.01 137 -103.02 137 0 137 C0 91.79 0 46.58 0 0 Z " fill="#87CA6D" transform="translate(350,359)"/>
<path d="M0 0 C19.32351883 -0.09345677 38.64699178 -0.16398578 57.97068977 -0.20724869 C66.94310182 -0.22787067 75.91537342 -0.25598429 84.88769531 -0.30175781 C92.7083174 -0.34163675 100.52883777 -0.36743546 108.34955871 -0.37635398 C112.49030963 -0.38156696 116.63076954 -0.39381161 120.77142715 -0.42292023 C124.67023925 -0.45010617 128.56864095 -0.45843868 132.46753883 -0.45243073 C133.89699218 -0.45352955 135.32645949 -0.46146486 136.75583076 -0.4768219 C148.89057365 -0.60078194 148.89057365 -0.60078194 152.64743042 1.65338135 C157.47778778 6.4715201 159.44675082 9.95402526 159.54211426 16.70869446 C159.53401733 17.56601669 159.52592041 18.42333893 159.51757812 19.30664062 C159.5245874 20.22446823 159.53159668 21.14229584 159.53881836 22.0879364 C159.55637193 25.11101862 159.54478479 28.13315885 159.53125 31.15625 C159.53394567 33.26322611 159.53782871 35.370201 159.54284668 37.47717285 C159.54873817 41.88871122 159.54018983 46.29992518 159.52148438 50.71142578 C159.49869529 56.36077955 159.51182021 62.00937315 159.53577423 67.65869904 C159.5502415 72.00821643 159.5456219 76.35755417 159.53526306 80.70707703 C159.53259836 82.78985179 159.53585649 84.87264297 159.54518127 86.95539856 C159.55536194 89.86849047 159.53982417 92.78035841 159.51757812 95.69335938 C159.52567505 96.55068161 159.53377197 97.40800385 159.54211426 98.29130554 C159.4663526 103.65756446 158.66939176 106.82047655 155 111 C149.99201678 115.11830748 146.43508012 115.5705595 140.23013306 115.48101807 C139.35929341 115.48443577 138.48845376 115.48785347 137.59122503 115.49137473 C134.6797828 115.49795151 131.76926713 115.47598086 128.85791016 115.45410156 C126.76838198 115.45297304 124.67885221 115.45360703 122.58932495 115.45587158 C116.92030055 115.45701947 111.25161453 115.43349773 105.58266878 115.40557575 C99.65696712 115.38057475 93.73125774 115.37822112 87.80551147 115.37347412 C76.58585802 115.36104056 65.36636042 115.32821365 54.1467756 115.28807616 C41.37301998 115.24337043 28.59925693 115.2213744 15.82544255 115.20129442 C-10.44979138 115.15948147 -36.72488696 115.08912187 -63 115 C-63 114.67 -63 114.34 -63 114 C38.97 113.505 38.97 113.505 143 113 C145.85443781 107.72718727 145.85443781 107.72718727 146.38095093 102.5604248 C146.39364014 101.31155739 146.39364014 101.31155739 146.40658569 100.03746033 C146.400513 99.14273514 146.39444031 98.24800995 146.38818359 97.32617188 C146.39344055 96.36932999 146.39869751 95.4124881 146.40411377 94.426651 C146.41728301 91.27384971 146.4085864 88.12155614 146.3984375 84.96875 C146.40045911 82.77209374 146.40337128 80.57543814 146.40713501 78.37878418 C146.4115542 73.77898762 146.40514019 69.17936604 146.39111328 64.57958984 C146.37402181 58.68822043 146.38386513 52.79726105 146.40183067 46.90590668 C146.41267933 42.37112345 146.40921716 37.83643718 146.4014473 33.301651 C146.39944829 31.12956188 146.40189402 28.95746392 146.40888596 26.78538513 C146.41651806 23.74796278 146.40487114 20.71120135 146.38818359 17.67382812 C146.39729263 16.33174034 146.39729263 16.33174034 146.40658569 14.96253967 C146.39812622 14.1299614 146.38966675 13.29738312 146.38095093 12.4395752 C146.37981985 11.72283882 146.37868877 11.00610245 146.37752342 10.26764679 C145.98774073 7.23983859 145.98774073 7.23983859 143 2 C72.215 1.505 72.215 1.505 0 1 C0 0.67 0 0.34 0 0 Z " fill="#E2B760" transform="translate(244,57)"/>
<path d="M0 0 C4.81723508 3.45512033 8.88163257 8.81223181 10.265625 14.625 C11.27080109 22.29463126 9.7906482 28.31607343 5.265625 34.625 C0.35620264 39.41564601 -4.67057713 42.37386903 -11.546875 42.9375 C-19.12247408 42.68166363 -24.58436102 39.65384428 -30.03515625 34.4921875 C-35.1699867 28.84977611 -35.2851148 23.08386339 -35.07421875 15.7109375 C-34.27338153 8.43896738 -30.17422489 4.57634963 -24.66796875 0.0703125 C-17.02158649 -5.64516515 -8.0125643 -4.43462678 0 0 Z " fill="#6BC248" transform="translate(215.734375,392.375)"/>
<path d="M0 0 C1.39553352 -0.01029488 1.39553352 -0.01029488 2.81925964 -0.02079773 C5.90057555 -0.03912795 8.98138531 -0.03521928 12.06274414 -0.02954102 C14.20121935 -0.03409991 16.33969308 -0.0394046 18.47816467 -0.04542542 C22.96304267 -0.05436882 27.44774272 -0.05191947 31.93261719 -0.04199219 C37.68423441 -0.03050258 43.43523771 -0.05070796 49.18677425 -0.07990932 C53.60396741 -0.09824275 58.02101269 -0.09798453 62.43823433 -0.0922718 C64.5589541 -0.09211823 66.67968367 -0.09819215 68.80036736 -0.11056328 C71.76444031 -0.12541686 74.72736945 -0.11483735 77.69140625 -0.09765625 C78.56998291 -0.10732422 79.44855957 -0.11699219 80.35375977 -0.12695312 C86.27922887 -0.05491667 86.27922887 -0.05491667 89.45143127 2.2518158 C91.48085548 5.24557467 91.56178291 6.85763682 90.91040039 10.40405273 C88.92058441 13.08804877 87.31779907 15.06890409 83.96392822 15.86757278 C81.56090548 16.05566372 79.20351768 16.07961991 76.79321289 16.05102539 C75.88367859 16.05978699 74.97414429 16.06854858 74.03704834 16.07757568 C71.03601113 16.09954961 68.0364521 16.08502389 65.03540039 16.06811523 C62.94701861 16.07148394 60.85863874 16.07633701 58.77026367 16.08261108 C54.39556188 16.08997971 50.02137089 16.07927691 45.64672852 16.0559082 C40.04081566 16.02742081 34.43609966 16.04382478 28.83023071 16.07377052 C24.51846305 16.09184354 20.20697887 16.08608536 15.89520264 16.07313156 C13.82834735 16.06979758 11.76146628 16.07388433 9.69464111 16.08552933 C6.80493056 16.09823782 3.91715444 16.07886075 1.02758789 16.05102539 C-0.25211884 16.06620712 -0.25211884 16.06620712 -1.55767822 16.08169556 C-5.86745458 16.00483526 -7.60862998 15.76658254 -11.15942383 13.09017944 C-13.08959961 10.40405273 -13.08959961 10.40405273 -13.08959961 6.77905273 C-10.94863095 -0.44671651 -6.83034981 -0.03491687 0 0 Z " fill="#020303" transform="translate(169.089599609375,279.595947265625)"/>
<path d="M0 0 C0.90938828 -0.00686325 1.81877655 -0.0137265 2.75572205 -0.02079773 C5.7618674 -0.03909931 8.76749253 -0.03522337 11.77368164 -0.02954102 C13.86349152 -0.03410126 15.95329989 -0.03940636 18.04310608 -0.04542542 C22.42365612 -0.05436317 26.80402391 -0.05192585 31.18457031 -0.04199219 C36.79818258 -0.03050284 42.41116579 -0.05071037 48.0246954 -0.07990932 C52.34070329 -0.09825587 56.65656002 -0.09798191 60.97259712 -0.0922718 C63.04225103 -0.0921184 65.11191505 -0.0981789 67.18153191 -0.11056328 C70.07584967 -0.12544173 72.96900001 -0.11481909 75.86328125 -0.09765625 C76.71799011 -0.10732422 77.57269897 -0.11699219 78.45330811 -0.12695312 C82.44155677 -0.07743313 84.53305881 0.12707019 88.02809143 2.21665955 C89.99633789 4.40405273 89.99633789 4.40405273 90.62133789 7.90405273 C89.99633789 11.40405273 89.99633789 11.40405273 88.02709961 13.58946228 C83.88802434 16.06762691 80.61893598 15.97375589 75.87915039 15.9375 C74.96961609 15.94611557 74.06008179 15.95473114 73.12298584 15.96360779 C70.12214551 15.9862758 67.12223833 15.97952772 64.12133789 15.97045898 C62.03295616 15.97569393 59.9445768 15.98196993 57.85620117 15.98924255 C53.48157619 15.99964812 49.10727646 15.99508251 44.73266602 15.98046875 C39.12678721 15.96327468 33.52193273 15.98678355 27.91616821 16.02195835 C23.6044231 16.04391789 19.29292369 16.04249443 14.98114014 16.03419304 C12.91427486 16.03337285 10.84739167 16.04024911 8.78057861 16.05496407 C5.89091993 16.07238445 3.00310968 16.0578886 0.11352539 16.03515625 C-1.16618134 16.05269455 -1.16618134 16.05269455 -2.47174072 16.07058716 C-6.78229259 16.00159263 -8.51909142 15.76960542 -12.06958008 13.09117126 C-14.00366211 10.40405273 -14.00366211 10.40405273 -14.06616211 6.77905273 C-11.76692817 -0.52439625 -6.68327317 -0.03511682 0 0 Z " fill="#000001" transform="translate(170.003662109375,245.595947265625)"/>
<path d="M0 0 C3.6875 0.3125 3.6875 0.3125 6.125 1.9375 C8.14009924 5.00045085 7.96135754 6.68625802 7.6875 10.3125 C6.74462891 12.89526367 6.74462891 12.89526367 5.4140625 15.48046875 C4.92437988 16.44573486 4.43469727 17.41100098 3.93017578 18.40551758 C3.39634277 19.42669678 2.86250977 20.44787598 2.3125 21.5 C1.49048096 23.10621216 1.49048096 23.10621216 0.65185547 24.74487305 C-0.98915854 27.94144647 -2.64734203 31.12844793 -4.3125 34.3125 C-4.74949219 35.15071289 -5.18648438 35.98892578 -5.63671875 36.85253906 C-7.60739795 40.62648539 -9.59361526 44.39185832 -11.58984375 48.15234375 C-13.73105088 52.19467587 -15.84111685 56.2527047 -17.94140625 60.31640625 C-18.25597778 60.9248085 -18.57054932 61.53321075 -18.89465332 62.16004944 C-20.45841328 65.18545145 -22.02010707 68.21189122 -23.57958984 71.23950195 C-24.15016113 72.34382568 -24.72073242 73.44814941 -25.30859375 74.5859375 C-25.81575928 75.56997559 -26.3229248 76.55401367 -26.84545898 77.56787109 C-30.80379353 84.97336235 -30.80379353 84.97336235 -34.3125 87.3125 C-37.85200857 87.76435216 -39.64576715 87.73359443 -42.6875 85.8125 C-44.93416458 82.35609295 -44.8784172 79.27915232 -44.3125 75.3125 C-43.20612194 72.27409934 -41.66932846 69.55007743 -40.0625 66.75 C-39.13699892 65.06696779 -38.2125659 63.38334793 -37.2890625 61.69921875 C-36.80083008 60.82056152 -36.31259766 59.9419043 -35.80957031 59.03662109 C-33.27256717 54.42020213 -30.86177271 49.73879237 -28.4375 45.0625 C-27.42735914 43.12746016 -26.4169396 41.19256578 -25.40625 39.2578125 C-23.28886939 35.1968058 -21.18690477 31.12823023 -19.09375 27.0546875 C-18.56507324 26.03020508 -18.03639648 25.00572266 -17.49169922 23.95019531 C-16.48896639 22.00647506 -15.49028798 20.06065528 -14.49658203 18.11230469 C-5.3954933 0.5090088 -5.3954933 0.5090088 0 0 Z " fill="#030101" transform="translate(397.3125,242.6875)"/>
<path d="M0 0 C6.05715726 6.05715726 7.52143984 18.24404372 7.5625 26.5 C7.20771703 44.42781911 0.74487096 61.56909123 -12.05078125 74.30859375 C-27.59381272 88.49289664 -44.24993424 91.72572507 -64.54541016 91.14501953 C-69.30760064 90.86366473 -73.58793543 89.75848893 -78 88 C-78.72832031 87.71382813 -79.45664062 87.42765625 -80.20703125 87.1328125 C-81.82262274 86.46363259 -83.41536119 85.73949811 -85 85 C-81.98968256 84.06576355 -81.13349732 83.95550089 -78 85 C-57.22562618 86.1079666 -38.28750389 81.35808552 -22.1484375 67.5625 C-12.87010016 58.76980567 -5.84777464 48.24811434 -2 36 C-1.6390625 34.88238281 -1.278125 33.76476562 -0.90625 32.61328125 C0.62138603 26.35407458 0.20952107 19.89759451 0.125 13.5 C0.11597656 12.200625 0.10695313 10.90125 0.09765625 9.5625 C0.07421733 6.37480701 0.0414044 3.1875018 0 0 Z " fill="#DB4853" transform="translate(435,258)"/>
<path d="M0 0 C5.08374254 5.02878316 6.19103046 9.13297568 6.375 16.1875 C6.39599061 21.66932904 6.04970528 26.03731768 2.61328125 30.48046875 C-1.36524106 34.22779363 -5.66096481 36.16568045 -11.125 36.5 C-16.76089095 35.77278826 -19.61023972 33.57756572 -23.3125 29.375 C-26.28639709 25.18951521 -26.24940557 21.75549111 -26.3125 16.75 C-26.34150391 15.99847656 -26.37050781 15.24695313 -26.40039062 14.47265625 C-26.47419531 7.96648936 -24.24413013 4.59477546 -20 -0.3125 C-14.32220711 -5.10313775 -5.81933234 -3.87955489 0 0 Z " fill="#030101" transform="translate(410,294)"/>
<path d="M0 0 C5.00230198 2.45567552 8.49851535 5.9970307 11 11 C12.32216247 27.50814284 12.32216247 27.50814284 7.6171875 33.515625 C3.64089012 37.16536656 -0.25082153 38.75450127 -5.5625 39.5 C-11.37868671 38.65400921 -15.34936613 36.31855354 -18.9375 31.75 C-21.27684788 27.64452193 -21.49542712 23.50778175 -21.5625 18.875 C-21.58461548 17.8535791 -21.58461548 17.8535791 -21.60717773 16.81152344 C-21.4748864 10.29993809 -18.61936201 6.81684518 -14.4375 2.125 C-10.18816103 -1.21608331 -5.11463654 -0.82322019 0 0 Z " fill="#030101" transform="translate(363,243)"/>
<path d="M0 0 C1.97226562 -0.00290039 1.97226562 -0.00290039 3.984375 -0.00585938 C5.0043457 0.01287231 5.0043457 0.01287231 6.04492188 0.03198242 C8.11987007 0.06632135 10.19055909 0.05262614 12.265625 0.03320312 C22.29626603 0.10695784 22.29626603 0.10695784 26.015625 2.44946289 C28.125 4.62890625 28.125 4.62890625 28.75 8.06640625 C27.96073311 12.5652275 26.65486588 13.79726215 23.125 16.62890625 C19.8828125 17.27587891 19.8828125 17.27587891 16.25 17.29296875 C14.93515625 17.29941406 13.6203125 17.30585938 12.265625 17.3125 C11.58564453 17.30202637 10.90566406 17.29155273 10.20507812 17.28076172 C8.12965319 17.25396633 6.05963324 17.28053512 3.984375 17.3125 C2.01210938 17.30283203 2.01210938 17.30283203 0 17.29296875 C-1.79824219 17.28450928 -1.79824219 17.28450928 -3.6328125 17.27587891 C-7.776459 16.44902174 -9.27338235 14.89237062 -11.875 11.62890625 C-12.5 8.62890625 -12.5 8.62890625 -11.875 5.62890625 C-8.19207486 1.00521539 -5.85705357 -0.00354257 0 0 Z " fill="#050A04" transform="translate(275.875,403.37109375)"/>
<path d="M0 0 C1.97226563 -0.00290039 1.97226563 -0.00290039 3.984375 -0.00585938 C5.0043457 0.01287231 5.0043457 0.01287231 6.04492188 0.03198242 C8.11987007 0.06632135 10.19055909 0.05262614 12.265625 0.03320312 C23.56439749 0.11628233 23.56439749 0.11628233 28.125 4.62890625 C28.7890625 6.62890625 28.7890625 6.62890625 28.75 8.62890625 C28.76289063 9.28890625 28.77578125 9.94890625 28.7890625 10.62890625 C27.7464224 13.76909289 25.84603582 14.82906641 23.125 16.62890625 C18.82634931 17.33617671 14.55756424 17.24606236 10.20507812 17.20532227 C8.12988329 17.19143892 6.0591905 17.22556804 3.984375 17.26367188 C2.66953125 17.26173828 1.3546875 17.25980469 0 17.2578125 C-1.79824219 17.25890015 -1.79824219 17.25890015 -3.6328125 17.26000977 C-7.78517781 16.45173685 -9.27230454 14.89643376 -11.875 11.62890625 C-12.5 8.62890625 -12.5 8.62890625 -11.875 5.62890625 C-8.19207486 1.00521539 -5.85705357 -0.00354257 0 0 Z " fill="#050A04" transform="translate(113.875,403.37109375)"/>
<path d="M0 0 C1.07507813 -0.00128906 2.15015625 -0.00257812 3.2578125 -0.00390625 C4.38960938 -0.00003906 5.52140625 0.00382812 6.6875 0.0078125 C7.81929688 0.00394531 8.95109375 0.00007813 10.1171875 -0.00390625 C11.19226563 -0.00261719 12.26734375 -0.00132813 13.375 0 C14.86580078 0.00169189 14.86580078 0.00169189 16.38671875 0.00341797 C18.6875 0.1328125 18.6875 0.1328125 19.6875 1.1328125 C19.76080331 3.99750575 19.77967831 6.83174924 19.75 9.6953125 C19.729375 12.4796875 19.70875 15.2640625 19.6875 18.1328125 C11.1075 18.1328125 2.5275 18.1328125 -6.3125 18.1328125 C-6.333125 15.3484375 -6.35375 12.5640625 -6.375 9.6953125 C-6.384104 8.81689697 -6.39320801 7.93848145 -6.40258789 7.03344727 C-6.40973091 5.06635276 -6.36281893 3.09927629 -6.3125 1.1328125 C-4.59682208 -0.58286542 -2.33877265 0.00265425 0 0 Z " fill="#F7D383" transform="translate(280.3125,88.8671875)"/>
</svg>
