<?xml version="1.0" encoding="UTF-8"?>
<svg version="1.1" xmlns="http://www.w3.org/2000/svg" width="512" height="512">
<path d="M0 0 C4.52966583 2.47551505 7.16586374 5.37259122 8.8125 10.3125 C8.8125 20.5425 8.8125 30.7725 8.8125 41.3125 C30.9225 41.3125 53.0325 41.3125 75.8125 41.3125 C75.8125 31.0825 75.8125 20.8525 75.8125 10.3125 C78.71508966 4.50732069 80.6593616 1.05413868 86.75 -1.5 C87.430625 -1.561875 88.11125 -1.62375 88.8125 -1.6875 C89.885 -1.790625 90.9575 -1.89375 92.0625 -2 C96.71134756 -1.61259604 100.01405045 -0.38770218 103.8125 2.3125 C113.3467371 14.29141328 108.8125 23.06188801 108.8125 41.3125 C130.5925 41.3125 152.3725 41.3125 174.8125 41.3125 C174.8125 31.4125 174.8125 21.5125 174.8125 11.3125 C178.62218929 3.69312143 180.08407711 0.88864096 187.8125 -1.6875 C193.80170055 -2.27467652 197.90731116 -0.99317074 202.8125 2.3125 C213.17876583 13.2103692 207.8125 24.36042609 207.8125 41.3125 C229.9225 41.3125 252.0325 41.3125 274.8125 41.3125 C274.8125 31.0825 274.8125 20.8525 274.8125 10.3125 C277.79587825 4.34574351 279.48993214 2.06121993 285.1875 -0.9375 C291.14674663 -2.64014189 295.68444547 -1.86806361 301.015625 1.03515625 C304.70370089 3.65689715 306.41560947 7.1218284 307.8125 11.3125 C307.89628628 13.5963517 307.91979915 15.882601 307.91015625 18.16796875 C307.90803383 19.16042351 307.90803383 19.16042351 307.90586853 20.17292786 C307.90027996 22.28199828 307.88772965 24.39096177 307.875 26.5 C307.86998352 27.93163909 307.86542087 29.36327985 307.86132812 30.79492188 C307.8503143 34.30081588 307.83305755 37.8066475 307.8125 41.3125 C308.74932617 41.29155273 309.68615234 41.27060547 310.65136719 41.24902344 C314.18516213 41.18014364 317.71822613 41.13036347 321.25244141 41.09277344 C322.77111185 41.07287118 324.28970788 41.04573896 325.80810547 41.01074219 C338.50525365 40.72578969 349.72254141 41.74710033 359.84375 50.328125 C368.00049728 58.54960837 371.9272671 68.87294783 371.94672108 80.37312317 C371.95117892 81.59773317 371.95563676 82.82234318 371.96022969 84.08406258 C371.96014041 85.43991217 371.95995057 86.79576176 371.95967102 88.15161133 C371.96297167 89.59446753 371.96669766 91.03732281 371.9708125 92.48017693 C371.9808179 96.44573602 371.98454694 100.41127997 371.98720181 104.37684989 C371.99110923 108.65381241 372.00068729 112.930763 372.00941467 117.2077179 C372.02916724 127.5372636 372.03924399 137.86681026 372.04814246 148.19637012 C372.05252754 153.06310401 372.0578938 157.9298368 372.06313133 162.79656982 C372.08014278 178.97896092 372.09463622 195.16135134 372.10188007 211.34375 C372.10378991 215.54215496 372.10571025 219.74055991 372.10766602 223.93896484 C372.10814976 224.98243309 372.1086335 226.02590133 372.1091319 227.10098982 C372.11742946 243.99865694 372.14276215 260.89625321 372.17524669 277.7938894 C372.20833999 295.14997235 372.22633091 312.50601932 372.22952431 329.86213398 C372.23168736 339.6038229 372.24040587 349.34540852 372.26598549 359.08706665 C372.28772354 367.38479375 372.29572766 375.68239245 372.28601871 383.9801448 C372.28148293 388.21064713 372.2833179 392.44088469 372.30278015 396.67135048 C372.32047679 400.55170175 372.31936202 404.43159638 372.30388286 408.31195295 C372.30151658 409.70839723 372.30577899 411.10487368 372.31771151 412.50126898 C372.43044976 426.57742435 369.81615859 437.9293576 360 448.2109375 C352.12726702 455.73447668 342.79529675 458.43058846 332.0803299 458.44672108 C331.4132362 458.44907331 330.7461425 458.45142554 330.05883384 458.45384905 C327.81952026 458.4605154 325.58026503 458.46008154 323.34094238 458.45967102 C321.72071987 458.46297112 320.10049818 458.466697 318.48027754 458.4708125 C314.02445094 458.48082405 309.56863781 458.48454794 305.11280155 458.48720181 C300.30822745 458.49110738 295.50366398 458.50068557 290.69909668 458.50941467 C279.09404799 458.52917224 267.48899843 458.53924454 255.88393712 458.54814246 C250.41749213 458.55252665 244.95104811 458.55789313 239.48460388 458.56313133 C221.3103175 458.58014314 203.13603171 458.59463691 184.96173859 458.60188007 C180.24597676 458.60378994 175.53021493 458.60571027 170.81445312 458.60766602 C169.05635611 458.60839163 169.05635611 458.60839163 167.26274198 458.6091319 C148.27962382 458.61743071 129.29656869 458.64276536 110.31347805 458.67524669 C90.8194118 458.7083301 71.32537757 458.72633001 51.83128309 458.72952431 C40.88793497 458.73168825 29.94467878 458.74041992 19.00135803 458.76598549 C9.68072614 458.78770999 0.36020851 458.79573428 -8.96044582 458.78601871 C-13.71345584 458.78147907 -18.46623019 458.78334072 -23.21920776 458.80278015 C-27.57695183 458.82044865 -31.93428894 458.81938434 -36.29203755 458.80388286 C-37.86210051 458.80151237 -39.43219193 458.80580114 -41.00221151 458.81771151 C-55.54689922 458.92114694 -67.37833968 456.72289174 -78.0859375 446.5 C-85.37862273 438.86883571 -88.30919764 429.67389211 -88.31613445 419.24070358 C-88.3193589 418.01362678 -88.32258335 416.78654998 -88.3259055 415.52228904 C-88.32443442 414.16368331 -88.3228667 412.80507768 -88.32121277 411.44647217 C-88.32308112 410.00076559 -88.32538193 408.55505952 -88.32807809 407.10935426 C-88.33419955 403.13606835 -88.33406209 399.16280347 -88.33288372 395.18951392 C-88.33267979 390.90445108 -88.33819768 386.61939502 -88.34294128 382.33433533 C-88.3512505 373.93852814 -88.35399626 365.54272797 -88.35455366 357.14691702 C-88.35502873 350.32216902 -88.35708303 343.49742335 -88.36025429 336.67267609 C-88.36906192 317.32433415 -88.37367354 297.97599776 -88.37292381 278.62765381 C-88.37288386 277.58440989 -88.3728439 276.54116597 -88.37280273 275.46630859 C-88.37276185 274.42179111 -88.37272097 273.37727363 -88.37267885 272.3011041 C-88.37227244 255.37489297 -88.38184045 238.4487041 -88.3959411 221.52249941 C-88.41030445 204.14383537 -88.41721129 186.76518217 -88.41634732 169.38651204 C-88.41601532 159.62933618 -88.41876383 149.87218364 -88.42952538 140.11501312 C-88.43862987 131.80694829 -88.44080607 123.49891735 -88.43401595 115.19084969 C-88.43075038 110.9528186 -88.43069539 106.71485253 -88.4393692 102.47682762 C-88.44723355 98.59432909 -88.44580343 94.71194716 -88.43708507 90.82945147 C-88.43554993 89.42769989 -88.43736678 88.02593961 -88.44294515 86.62419829 C-88.49255141 73.27063837 -86.89975852 61.287252 -77.1875 51.3125 C-65.5095595 41.67766143 -54.66002112 40.87553677 -40.0625 41.125 C-38.51824227 41.14007938 -36.97397024 41.15376201 -35.4296875 41.16601562 C-31.68198985 41.19875143 -27.93483891 41.25035243 -24.1875 41.3125 C-24.20844727 40.44560547 -24.22939453 39.57871094 -24.25097656 38.68554688 C-24.31959562 35.4352621 -24.36951451 32.18534943 -24.40722656 28.93457031 C-24.4272063 27.53405527 -24.4544002 26.13362218 -24.48925781 24.73339844 C-24.84352292 10.12517267 -24.84352292 10.12517267 -20.1875 3.3125 C-13.86626389 -1.71868793 -7.56870114 -3.50193635 0 0 Z " fill="#0DB561" transform="translate(114.1875,27.6875)"/>
<path d="M0 0 C4.52966583 2.47551505 7.16586374 5.37259122 8.8125 10.3125 C8.8125 20.5425 8.8125 30.7725 8.8125 41.3125 C30.9225 41.3125 53.0325 41.3125 75.8125 41.3125 C75.8125 31.0825 75.8125 20.8525 75.8125 10.3125 C78.71508966 4.50732069 80.6593616 1.05413868 86.75 -1.5 C87.430625 -1.561875 88.11125 -1.62375 88.8125 -1.6875 C89.885 -1.790625 90.9575 -1.89375 92.0625 -2 C96.71134756 -1.61259604 100.01405045 -0.38770218 103.8125 2.3125 C113.3467371 14.29141328 108.8125 23.06188801 108.8125 41.3125 C130.5925 41.3125 152.3725 41.3125 174.8125 41.3125 C174.8125 31.4125 174.8125 21.5125 174.8125 11.3125 C178.62218929 3.69312143 180.08407711 0.88864096 187.8125 -1.6875 C193.80170055 -2.27467652 197.90731116 -0.99317074 202.8125 2.3125 C213.17876583 13.2103692 207.8125 24.36042609 207.8125 41.3125 C229.9225 41.3125 252.0325 41.3125 274.8125 41.3125 C274.8125 31.0825 274.8125 20.8525 274.8125 10.3125 C277.79587825 4.34574351 279.48993214 2.06121993 285.1875 -0.9375 C291.14674663 -2.64014189 295.68444547 -1.86806361 301.015625 1.03515625 C304.70370089 3.65689715 306.41560947 7.1218284 307.8125 11.3125 C307.89628628 13.5963517 307.91979915 15.882601 307.91015625 18.16796875 C307.90803383 19.16042351 307.90803383 19.16042351 307.90586853 20.17292786 C307.90027996 22.28199828 307.88772965 24.39096177 307.875 26.5 C307.86998352 27.93163909 307.86542087 29.36327985 307.86132812 30.79492188 C307.8503143 34.30081588 307.83305755 37.8066475 307.8125 41.3125 C308.74932617 41.29155273 309.68615234 41.27060547 310.65136719 41.24902344 C314.18516213 41.18014364 317.71822613 41.13036347 321.25244141 41.09277344 C322.77111185 41.07287118 324.28970788 41.04573896 325.80810547 41.01074219 C338.50525365 40.72578969 349.72254141 41.74710033 359.84375 50.328125 C385.71795661 76.40768246 371.8125 137.15204954 371.8125 159.3125 C220.0125 159.3125 68.2125 159.3125 -88.1875 159.3125 C-88.1875 62.6097973 -88.1875 62.6097973 -77.1875 51.3125 C-65.5095595 41.67766143 -54.66002112 40.87553677 -40.0625 41.125 C-38.51824227 41.14007938 -36.97397024 41.15376201 -35.4296875 41.16601562 C-31.68198985 41.19875143 -27.93483891 41.25035243 -24.1875 41.3125 C-24.20844727 40.44560547 -24.22939453 39.57871094 -24.25097656 38.68554688 C-24.31959562 35.4352621 -24.36951451 32.18534943 -24.40722656 28.93457031 C-24.4272063 27.53405527 -24.4544002 26.13362218 -24.48925781 24.73339844 C-24.84352292 10.12517267 -24.84352292 10.12517267 -20.1875 3.3125 C-13.86626389 -1.71868793 -7.56870114 -3.50193635 0 0 Z " fill="#135638" transform="translate(114.1875,27.6875)"/>
<path d="M0 0 C2.02454215 0.01386839 4.04445031 -0.02026004 6.06860352 -0.05834961 C13.54819475 -0.04719159 19.49811861 0.21374083 25.09399414 5.57641602 C27.77842811 8.79686756 28.98550468 11.83055097 29.59399414 16.01391602 C28.86883079 21.1807049 27.40005605 25.29645467 23.62719727 29.02661133 C17.53550699 33.3831546 11.42084073 33.34396534 4.11254883 33.22827148 C2.09664055 33.20145122 0.08629566 33.22809963 -1.92944336 33.26000977 C-9.3073272 33.22319398 -15.44107511 32.97949335 -20.90600586 27.57641602 C-24.2661937 22.82246384 -25.85103605 18.4566039 -24.90600586 12.57641602 C-22.795848 7.61847874 -20.14627141 3.98077934 -15.29443359 1.37255859 C-10.35993004 -0.27227592 -5.1542717 -0.04927841 0 0 Z " fill="#FBFEFC" transform="translate(381.906005859375,239.423583984375)"/>
<path d="M0 0 C2.02454215 0.01386839 4.04445031 -0.02026004 6.06860352 -0.05834961 C13.54819475 -0.04719159 19.49811861 0.21374083 25.09399414 5.57641602 C27.77842811 8.79686756 28.98550468 11.83055097 29.59399414 16.01391602 C28.86883079 21.1807049 27.40005605 25.29645467 23.62719727 29.02661133 C17.53550699 33.3831546 11.42084073 33.34396534 4.11254883 33.22827148 C2.09664055 33.20145122 0.08629566 33.22809963 -1.92944336 33.26000977 C-9.3073272 33.22319398 -15.44107511 32.97949335 -20.90600586 27.57641602 C-24.2661937 22.82246384 -25.85103605 18.4566039 -24.90600586 12.57641602 C-22.795848 7.61847874 -20.14627141 3.98077934 -15.29443359 1.37255859 C-10.35993004 -0.27227592 -5.1542717 -0.04927841 0 0 Z " fill="#FBFEFC" transform="translate(125.906005859375,239.423583984375)"/>
<path d="M0 0 C2.16227385 -0.0171609 4.32299711 -0.0610394 6.48486328 -0.10522461 C7.86896666 -0.11535674 9.253083 -0.12387122 10.63720703 -0.13061523 C11.89178711 -0.14519775 13.14636719 -0.15978027 14.43896484 -0.17480469 C20.0567203 0.58058643 24.51908236 3.94514216 28.01611328 8.39282227 C29.99390922 12.49148875 29.6416263 16.89921967 28.93408203 21.29516602 C26.47840652 26.29746799 22.93705133 29.79368137 17.93408203 32.29516602 C13.58230175 32.55386073 9.22665752 32.56623294 4.86816406 32.59033203 C2.70589021 32.60749293 0.54516696 32.65137143 -1.61669922 32.69555664 C-3.00080259 32.70568877 -4.38491894 32.71420325 -5.76904297 32.72094727 C-7.02362305 32.73552979 -8.27820313 32.7501123 -9.57080078 32.76513672 C-14.84128495 32.05644141 -17.87758433 29.61196816 -21.37841797 25.73266602 C-24.52277733 21.19081361 -24.72629881 16.65158836 -24.06591797 11.29516602 C-18.48866615 0.34722725 -11.00864946 0.06086931 0 0 Z " fill="#FCFEFD" transform="translate(296.06591796875,239.704833984375)"/>
<path d="M0 0 C2.16201824 -0.00966697 4.32306979 -0.04067056 6.48486328 -0.07226562 C7.86897224 -0.07879992 9.25308798 -0.08404872 10.63720703 -0.08789062 C12.51907715 -0.10190918 12.51907715 -0.10190918 14.43896484 -0.11621094 C18.891214 0.33784632 22.25702442 1.71056663 25.57861328 4.74023438 C29.44400432 9.7044824 30.35998057 12.95823096 29.93408203 19.24023438 C28.1586709 23.91236892 25.76165168 27.03575746 21.93408203 30.24023438 C15.47658532 32.85038545 9.30038618 32.57101527 2.43408203 32.55273438 C0.6184375 32.5769043 0.6184375 32.5769043 -1.23388672 32.6015625 C-2.40564453 32.60220703 -3.57740234 32.60285156 -4.78466797 32.60351562 C-6.37698242 32.60798706 -6.37698242 32.60798706 -8.00146484 32.61254883 C-14.10020283 31.8715852 -18.14095696 28.81935555 -22.06591797 24.24023438 C-24.28294559 20.22847011 -24.53550242 16.77955074 -24.06591797 12.24023438 C-19.54207206 0.5760479 -11.11881351 0.03011188 0 0 Z " fill="#FBFDFC" transform="translate(381.06591796875,314.759765625)"/>
<path d="M0 0 C2.16201824 -0.00966697 4.32306979 -0.04067056 6.48486328 -0.07226562 C7.86897224 -0.07879992 9.25308798 -0.08404872 10.63720703 -0.08789062 C12.51907715 -0.10190918 12.51907715 -0.10190918 14.43896484 -0.11621094 C18.891214 0.33784632 22.25702442 1.71056663 25.57861328 4.74023438 C29.44400432 9.7044824 30.35998057 12.95823096 29.93408203 19.24023438 C28.1586709 23.91236892 25.76165168 27.03575746 21.93408203 30.24023438 C15.47658532 32.85038545 9.30038618 32.57101527 2.43408203 32.55273438 C0.6184375 32.5769043 0.6184375 32.5769043 -1.23388672 32.6015625 C-2.40564453 32.60220703 -3.57740234 32.60285156 -4.78466797 32.60351562 C-6.37698242 32.60798706 -6.37698242 32.60798706 -8.00146484 32.61254883 C-14.10020283 31.8715852 -18.14095696 28.81935555 -22.06591797 24.24023438 C-24.28294559 20.22847011 -24.53550242 16.77955074 -24.06591797 12.24023438 C-19.54207206 0.5760479 -11.11881351 0.03011188 0 0 Z " fill="#FBFDFC" transform="translate(125.06591796875,314.759765625)"/>
<path d="M0 0 C2.07199035 0.00315335 4.14254213 -0.02029219 6.21435547 -0.0456543 C8.18855469 -0.04662109 8.18855469 -0.04662109 10.20263672 -0.04760742 C11.40259277 -0.05058838 12.60254883 -0.05356934 13.83886719 -0.05664062 C18.22203237 0.42738015 21.6138048 1.82521953 24.85498047 4.85083008 C29.04409474 10.32890258 29.83197324 13.50192902 29.21044922 20.31567383 C27.38510331 25.58889535 24.60325719 28.11258468 20.21044922 31.31567383 C15.13487831 33.0075308 9.81170518 32.58025948 4.49633789 32.61083984 C3.10267986 32.62235232 1.70906568 32.64279312 0.31567383 32.67236328 C-1.70538067 32.71523196 -3.72512822 32.73123362 -5.74658203 32.74145508 C-6.95290283 32.7560376 -8.15922363 32.77062012 -9.40209961 32.78564453 C-14.62413228 32.0611463 -17.67772055 29.57775139 -21.10205078 25.69067383 C-24.55534437 20.83048285 -24.76432399 16.15645204 -23.78955078 10.31567383 C-17.91906012 0.26810328 -10.83245602 -0.03454717 0 0 Z " fill="#FCFEFD" transform="translate(210.78955078125,239.684326171875)"/>
<path d="M0 0 C0.68755371 -0.0038269 1.37510742 -0.00765381 2.08349609 -0.01159668 C3.52898636 -0.0143039 4.97452661 -0.00702628 6.41992188 0.00976562 C8.61961132 0.0311975 10.81603588 0.00992876 13.015625 -0.015625 C14.42709047 -0.01298151 15.83855392 -0.00785607 17.25 0 C18.52101562 0.00451172 19.79203125 0.00902344 21.1015625 0.01367188 C26.39663292 0.79149541 29.45555716 3.20377435 32.9375 7.15625 C36.07917659 11.57786891 36.3652741 15.19617112 35.625 20.53125 C33.6562979 25.57218676 30.82230075 29.12471483 25.98657227 31.73510742 C20.5858046 33.55583557 14.75797158 33.09864348 9.125 33.03125 C7.83207031 33.04671875 6.53914063 33.0621875 5.20703125 33.078125 C-1.82196253 33.04922883 -6.74065107 32.90549525 -12.375 28.53125 C-16.96460757 23.57930499 -17.73835315 19.60054065 -17.65234375 13.03515625 C-17.23765651 9.29128972 -15.87822623 7.29797373 -13.375 4.53125 C-8.81342343 0.91447672 -5.79267133 0.02056222 0 0 Z " fill="#FBFDFC" transform="translate(204.375,314.46875)"/>
<path d="M0 0 C1.21558594 -0.020625 2.43117188 -0.04125 3.68359375 -0.0625 C11.18271852 -0.09521156 16.61898071 0.07355887 22.7109375 4.7578125 C26.07797998 8.60851854 27.73761768 11.81228432 27.984375 16.9765625 C27.43509393 22.30458891 25.00357918 26.05757103 21.1875 29.6875 C15.52577054 33.31681376 9.09499363 32.50909392 2.60864258 32.54516602 C1.16648543 32.55667992 -0.27562929 32.57712291 -1.7175293 32.60668945 C-3.80807261 32.64953925 -5.89735234 32.66555746 -7.98828125 32.67578125 C-9.23649658 32.69036377 -10.48471191 32.70494629 -11.77075195 32.7199707 C-17.08415186 32.00224599 -20.12454905 29.55795651 -23.5625 25.5625 C-26.22947325 20.32733029 -27.02414263 15.71757965 -25.25 10.0625 C-18.30328815 0.29368647 -11.36495702 0.04760191 0 0 Z " fill="#FBFDFC" transform="translate(383.25,388.75)"/>
<path d="M0 0 C1.23234375 -0.01095703 2.4646875 -0.02191406 3.734375 -0.03320312 C10.93653531 0.02475417 15.91937772 0.61263213 22 4.5625 C26.4808686 9.3880508 27.366388 12.51556151 27.2734375 18.95703125 C26.71791465 24.25037043 24.50774266 27.34078499 20.34375 30.71484375 C14.80774246 33.72177299 8.37822912 33.26889263 2.23950195 33.2487793 C0.06919478 33.24999625 -2.09439333 33.30987355 -4.26367188 33.37304688 C-15.8446692 33.51983159 -15.8446692 33.51983159 -20.87890625 29.26953125 C-24.32666973 25.68538549 -26.28589708 22.26649449 -26.375 17.25 C-26.23181999 12.40574283 -25.09053619 9.27179021 -22 5.5625 C-15.51952844 -0.4407847 -8.42887782 -0.16311113 0 0 Z " fill="#FBFDFC" transform="translate(298,388.4375)"/>
<path d="M0 0 C1.21558594 -0.020625 2.43117187 -0.04125 3.68359375 -0.0625 C11.18271852 -0.09521156 16.61898071 0.07355887 22.7109375 4.7578125 C26.07797998 8.60851854 27.73761768 11.81228432 27.984375 16.9765625 C27.43509393 22.30458891 25.00357918 26.05757103 21.1875 29.6875 C15.52577054 33.31681376 9.09499363 32.50909392 2.60864258 32.54516602 C1.16648543 32.55667992 -0.27562929 32.57712291 -1.7175293 32.60668945 C-3.80807261 32.64953925 -5.89735234 32.66555746 -7.98828125 32.67578125 C-9.23649658 32.69036377 -10.48471191 32.70494629 -11.77075195 32.7199707 C-17.08415186 32.00224599 -20.12454905 29.55795651 -23.5625 25.5625 C-26.22947325 20.32733029 -27.02414263 15.71757965 -25.25 10.0625 C-18.30328815 0.29368647 -11.36495702 0.04760191 0 0 Z " fill="#FBFDFC" transform="translate(127.25,388.75)"/>
<path d="M0 0 C1.29421875 -0.04576172 2.5884375 -0.09152344 3.921875 -0.13867188 C12.1686967 -0.23524871 17.78322083 0.60214076 23.875 6.4375 C27.07059853 10.89197068 27.64388292 15.1087142 26.875 20.4375 C24.87203332 26.11257225 21.26149821 29.74425089 15.875 32.4375 C11.39940853 32.72019907 6.92008182 32.75126371 2.43676758 32.78759766 C0.94604826 32.80410188 -0.54459374 32.83131906 -2.03491211 32.86962891 C-15.9975671 33.22641267 -15.9975671 33.22641267 -20.5234375 30.08203125 C-24.74908593 25.78658983 -26.27592076 22.41088602 -26.5625 16.4375 C-26.40644492 11.71328727 -25.30565435 9.04797251 -22.125 5.4375 C-15.35918897 -0.6682319 -8.72991921 0.12385893 0 0 Z " fill="#FBFDFC" transform="translate(213.125,388.5625)"/>
<path d="M0 0 C0.68518204 -0.00241196 1.37036407 -0.00482391 2.0763092 -0.00730896 C3.51764747 -0.00633463 4.9590251 0.00696015 6.40014648 0.03198242 C8.58904143 0.0662713 10.77388537 0.05263144 12.96289062 0.03320312 C25.95957237 0.0465785 25.95957237 0.0465785 31.66015625 4.62890625 C34.96059098 8.18322057 35.92686233 10.88937498 36.09765625 15.62890625 C35.84257713 21.29166263 34.45646143 24.92714344 30.28515625 28.87890625 C23.46420214 33.42620899 16.88035141 33.06330794 8.91015625 33.12890625 C7.67265625 33.17015625 6.43515625 33.21140625 5.16015625 33.25390625 C-2.93321314 33.32278599 -8.33602518 32.27444517 -14.33984375 26.62890625 C-17.34393672 22.53241584 -17.8792795 18.77037179 -17.6875 13.80078125 C-16.83664532 8.48532951 -13.07060273 4.97130235 -9.04611206 1.68753052 C-6.11751132 -0.12946848 -3.38414566 -0.00194033 0 0 Z " fill="#FBFDFC" transform="translate(289.33984375,314.37109375)"/>
<path d="M0 0 C0.66 0.33 1.32 0.66 2 1 C-1.63 4.63 -5.26 8.26 -9 12 C-9 8.00102358 -7.64683965 6.93298448 -5 4 C-3.36643049 2.62631655 -1.7074998 1.28062485 0 0 Z " fill="#0F7A49" transform="translate(42,75)"/>
</svg>
