<?xml version="1.0" encoding="UTF-8"?>
<svg version="1.1" xmlns="http://www.w3.org/2000/svg" width="512" height="512">
<path d="M0 0 C20.79 0 41.58 0 63 0 C63.45375 4.57875 63.9075 9.1575 64.375 13.875 C67.11458981 34.77160039 77.32218151 51.3677328 87.90283203 69.20849609 C88.45181152 70.16449707 89.00079102 71.12049805 89.56640625 72.10546875 C90.2790564 73.32012817 90.2790564 73.32012817 91.00610352 74.55932617 C92.22862379 77.56142275 92.29290219 79.78518653 92 83 C90.32877464 85.68589791 89.10908963 87.50282189 86.1875 88.8125 C83.12408194 89.07507869 80.07315704 89.01070786 77 89 C77.12117187 89.72590332 77.24234375 90.45180664 77.3671875 91.19970703 C77.91643418 94.5073339 78.45828267 97.81613201 79 101.125 C79.19078125 102.26710938 79.3815625 103.40921875 79.578125 104.5859375 C79.75859375 105.69453125 79.9390625 106.803125 80.125 107.9453125 C80.29257813 108.96125488 80.46015625 109.97719727 80.6328125 111.02392578 C81 114 81 114 81 120 C95.19 120 109.38 120 124 120 C124 80.4 124 40.8 124 0 C175.15 0 226.3 0 279 0 C279 39.6 279 79.2 279 120 C289.89 120 300.78 120 312 120 C326.53014364 125.81205746 329.51150004 133.3973269 335.5625 146.6875 C336.26521396 148.20874301 336.96900426 149.72948926 337.67382812 151.24975586 C339.10382585 154.33858275 340.52761587 157.430146 341.94580078 160.52441406 C343.83484779 164.64482529 345.73962778 168.75771785 347.65234375 172.8671875 C349.82011674 177.52503592 351.98297006 182.18511 354.140625 186.84765625 C355.92502734 190.69742708 357.72386703 194.53945457 359.546875 198.37109375 C360.11341797 199.56303345 360.11341797 199.56303345 360.69140625 200.77905273 C361.36778828 202.19811346 362.04718016 203.61574604 362.73046875 205.03149414 C366.18050113 212.26793707 367.41420624 219.31501835 364.9375 227.125 C362.40235217 233.06008908 357.95545733 237.46280511 352 239.9375 C348.35055603 241.25098522 344.84554725 241.02931057 341 241 C341.00368717 242.13822079 341.00737434 243.27644157 341.01117325 244.4491539 C341.10004299 272.16774543 341.16573698 299.88631844 341.20724869 327.60502243 C341.21135459 330.27558146 341.21549323 332.94614039 341.21972656 335.61669922 C341.2207758 336.28045859 341.22182505 336.94421796 341.22290608 337.62809125 C341.23920477 347.69171776 341.26727341 357.75526829 341.30175781 367.81884766 C341.34167547 379.50476211 341.3674447 391.19060832 341.37635398 402.87658906 C341.38156032 409.06199485 341.39376339 415.24720541 341.42292023 421.43254852 C341.45016699 427.2601667 341.4584262 433.0875101 341.45243073 438.91518593 C341.45352682 441.04841164 341.46142513 443.181647 341.4768219 445.31481743 C341.57822813 460.09528509 341.38339944 472.67553899 330.515625 483.8671875 C324.17502676 489.24291209 317.15312618 492.12097939 308.88036251 492.13422108 C307.59169999 492.13867892 306.30303747 492.14313676 304.97532457 492.14772969 C303.53684866 492.14764039 302.09837274 492.14745053 300.65989685 492.14717102 C299.13825752 492.15046954 297.61661906 492.15419508 296.09498173 492.1583125 C291.90248228 492.16834223 287.70999715 492.17205086 283.51748741 492.17470181 C278.99991806 492.17860204 274.48236008 492.18818065 269.96479797 492.19691467 C259.04859143 492.21668818 248.13238394 492.22674692 237.21616396 492.23564246 C232.07657901 492.24002436 226.9369951 492.24539146 221.79741096 492.25063133 C204.71350919 492.26764533 187.62960807 492.28213934 170.54569912 492.28938007 C166.11111386 492.29129 161.6765286 492.29321033 157.24194336 492.29516602 C156.1397355 492.29564976 155.03752765 492.2961335 153.90191955 492.2966319 C136.04828777 492.30493154 118.194723 492.3302666 100.34112047 492.36274669 C82.01443475 492.39581577 63.68778308 492.41382874 45.36106735 492.41702431 C35.07003473 492.41918967 24.7790998 492.42794195 14.48809624 492.45348549 C5.72324877 492.47519049 -3.04147728 492.48324392 -11.80634857 492.47351871 C-16.27746653 492.46897329 -20.74833396 492.47087424 -25.21941757 492.49028015 C-29.3161836 492.50790759 -33.41251627 492.50691763 -37.50928687 492.49138286 C-38.98783629 492.48900613 -40.46641568 492.4933338 -41.9449193 492.50521151 C-54.76321098 492.60177294 -63.4131583 490.44890105 -72.796875 481.5078125 C-79.83139999 473.50042767 -81.15528817 465.19349185 -81.12025452 454.93278503 C-81.12110894 454.01788073 -81.12196337 453.10297643 -81.12284368 452.16034776 C-81.12449104 449.09410191 -81.11898925 446.02791074 -81.11352539 442.96166992 C-81.11324333 440.76391603 -81.11340162 438.56616204 -81.1139679 436.3684082 C-81.11425514 430.39987813 -81.10837009 424.43136811 -81.10139394 418.4628427 C-81.09514837 412.22615011 -81.09455565 405.98945708 -81.09336853 399.75276184 C-81.09061223 389.2841457 -81.08436336 378.81553643 -81.07543945 368.34692383 C-81.06625805 357.56502316 -81.05918078 346.78312449 -81.05493164 336.0012207 C-81.05453756 335.00404111 -81.05453756 335.00404111 -81.05413551 333.98671647 C-81.05283046 330.65162177 -81.05156901 327.31652705 -81.05032361 323.98143232 C-81.03986727 296.32094975 -81.02227468 268.66047539 -81 241 C-82.10537109 241.01224609 -83.21074219 241.02449219 -84.34960938 241.03710938 C-90.21620894 240.97747032 -94.67311562 239.07520998 -99.05859375 235.1640625 C-104.28113509 229.49635651 -106.58048738 224.25335828 -106.29101562 216.50073242 C-105.12518688 206.48262515 -98.37114147 196.161975 -94.0625 187.125 C-92.53483398 183.90962402 -91.0094483 180.6931689 -89.484375 177.4765625 C-89.10412674 176.67514832 -88.72387848 175.87373413 -88.33210754 175.04803467 C-84.25860947 166.45378286 -80.26155833 157.82465348 -76.28735352 149.18408203 C-73.84864464 143.90082646 -71.37082639 138.63856346 -68.81640625 133.41015625 C-68.34533447 132.444729 -67.8742627 131.47930176 -67.38891602 130.48461914 C-64.48387455 125.28781707 -60.33035842 122.65526607 -54.73779297 120.61303711 C-48.32723643 119.17760751 -41.53715057 119.7020423 -35 119.8125 C-33.44662752 119.82757027 -31.89324094 119.84125454 -30.33984375 119.85351562 C-26.55957489 119.88377391 -22.77991896 119.9406182 -19 120 C-18.8471328 118.68175735 -18.8471328 118.68175735 -18.69117737 117.33688354 C-17.19824373 104.90994138 -15.28284128 92.55875344 -13.33984375 80.1953125 C-12.98625455 77.93612504 -12.63278685 75.67691856 -12.2794342 73.41769409 C-11.5439906 68.71944377 -10.80669155 64.0214893 -10.06811523 59.32373047 C-9.12034601 53.29401916 -8.17792941 47.26348471 -7.23692989 41.2327137 C-6.51096038 36.58453728 -5.78189853 31.93684996 -5.05191231 27.28930283 C-4.70280494 25.06383272 -4.35474189 22.83819854 -4.0077343 20.61240005 C-3.52519655 17.51989662 -3.03843475 14.42808746 -2.55053711 11.33642578 C-2.40766266 10.41497772 -2.26478821 9.49352966 -2.11758423 8.54415894 C-1.98447342 7.70628845 -1.85136261 6.86841797 -1.71421814 6.00515747 C-1.59974807 5.27559908 -1.485278 4.54604069 -1.36733913 3.79437447 C-1 2 -1 2 0 0 Z M71 53 C72.1300808 63.0384837 73.36985611 73.02837513 75 83 C80.7974423 83.24428343 80.7974423 83.24428343 86 81 C84.60786668 77.35792507 82.99205189 73.93167328 81.1796875 70.48046875 C80.64472656 69.45888672 80.10976562 68.43730469 79.55859375 67.38476562 C78.72521484 65.80211914 78.72521484 65.80211914 77.875 64.1875 C77.31167969 63.11306641 76.74835938 62.03863281 76.16796875 60.93164062 C74.78080182 58.28661895 73.3914106 55.64279105 72 53 C71.67 53 71.34 53 71 53 Z " fill="#FEC966" transform="translate(126,10)"/>
<path d="M0 0 C20.79 0 41.58 0 63 0 C63.45375 4.57875 63.9075 9.1575 64.375 13.875 C67.11458981 34.77160039 77.32218151 51.3677328 87.90283203 69.20849609 C88.45181152 70.16449707 89.00079102 71.12049805 89.56640625 72.10546875 C90.2790564 73.32012817 90.2790564 73.32012817 91.00610352 74.55932617 C92.22862379 77.56142275 92.29290219 79.78518653 92 83 C90.32877464 85.68589791 89.10908963 87.50282189 86.1875 88.8125 C83.12408194 89.07507869 80.07315704 89.01070786 77 89 C77.12117187 89.72590332 77.24234375 90.45180664 77.3671875 91.19970703 C77.91643418 94.5073339 78.45828267 97.81613201 79 101.125 C79.19078125 102.26710938 79.3815625 103.40921875 79.578125 104.5859375 C79.75859375 105.69453125 79.9390625 106.803125 80.125 107.9453125 C80.29257813 108.96125488 80.46015625 109.97719727 80.6328125 111.02392578 C81 114 81 114 81 120 C95.19 120 109.38 120 124 120 C124 80.4 124 40.8 124 0 C175.15 0 226.3 0 279 0 C279 39.6 279 79.2 279 120 C289.89 120 300.78 120 312 120 C326.53014364 125.81205746 329.51150004 133.3973269 335.5625 146.6875 C336.26521396 148.20874301 336.96900426 149.72948926 337.67382812 151.24975586 C339.10382585 154.33858275 340.52761587 157.430146 341.94580078 160.52441406 C343.83484779 164.64482529 345.73962778 168.75771785 347.65234375 172.8671875 C349.82011674 177.52503592 351.98297006 182.18511 354.140625 186.84765625 C355.92502734 190.69742708 357.72386703 194.53945457 359.546875 198.37109375 C360.11341797 199.56303345 360.11341797 199.56303345 360.69140625 200.77905273 C361.36778828 202.19811346 362.04718016 203.61574604 362.73046875 205.03149414 C366.18050113 212.26793707 367.41420624 219.31501835 364.9375 227.125 C362.37263026 233.12967168 358.29598512 237.01138871 352.34758657 239.57266575 C348.24408803 241.06633947 344.61957659 241.37688669 340.2315836 241.38031673 C339.48891828 241.38497665 338.74625297 241.38963657 337.98108265 241.3944377 C335.50263245 241.40634986 333.02473429 241.39700714 330.54627991 241.38768005 C328.74737336 241.39185462 326.94846944 241.39733282 325.14957041 241.40399987 C320.21388198 241.4184569 315.2783605 241.41420891 310.34266293 241.40683305 C305.01673064 241.40210437 299.69083462 241.41460856 294.36491394 241.42485046 C283.93413415 241.4420494 273.50341457 241.44287623 263.07262427 241.43763756 C254.59510122 241.43359682 246.11759597 241.43503827 237.64007378 241.44038582 C235.83051116 241.44150845 235.83051116 241.44150845 233.98439173 241.44265376 C231.53368358 241.44418523 229.08297543 241.44572358 226.63226729 241.44726873 C203.6485662 241.46099763 180.66489914 241.45555324 157.68119883 241.44408352 C136.65214311 241.43414978 115.62317536 241.44709359 94.59413321 241.47101771 C73.00268038 241.49539667 51.41126854 241.5050196 29.81980222 241.49836498 C17.69733239 241.49487022 5.57493022 241.49712191 -6.54752922 241.51461601 C-16.86659941 241.52932288 -27.18555427 241.52999317 -37.50462215 241.5125451 C-42.76953274 241.50402048 -48.03423717 241.50192137 -53.29913712 241.51719666 C-58.1197758 241.53100988 -62.94003105 241.52632385 -67.76064736 241.50695742 C-69.50348975 241.50318679 -71.24636261 241.50614993 -72.98917793 241.51656907 C-82.81019223 241.57110232 -91.41028127 241.6098849 -99.33984375 235.0703125 C-104.17999867 229.17692093 -106.58026173 224.2473149 -106.29101562 216.50073242 C-105.12518688 206.48262515 -98.37114147 196.161975 -94.0625 187.125 C-92.53483398 183.90962402 -91.0094483 180.6931689 -89.484375 177.4765625 C-89.10412674 176.67514832 -88.72387848 175.87373413 -88.33210754 175.04803467 C-84.25860947 166.45378286 -80.26155833 157.82465348 -76.28735352 149.18408203 C-73.84864464 143.90082646 -71.37082639 138.63856346 -68.81640625 133.41015625 C-68.34533447 132.444729 -67.8742627 131.47930176 -67.38891602 130.48461914 C-64.48387455 125.28781707 -60.33035842 122.65526607 -54.73779297 120.61303711 C-48.32723643 119.17760751 -41.53715057 119.7020423 -35 119.8125 C-33.44662752 119.82757027 -31.89324094 119.84125454 -30.33984375 119.85351562 C-26.55957489 119.88377391 -22.77991896 119.9406182 -19 120 C-18.8471328 118.68175735 -18.8471328 118.68175735 -18.69117737 117.33688354 C-17.19824373 104.90994138 -15.28284128 92.55875344 -13.33984375 80.1953125 C-12.98625455 77.93612504 -12.63278685 75.67691856 -12.2794342 73.41769409 C-11.5439906 68.71944377 -10.80669155 64.0214893 -10.06811523 59.32373047 C-9.12034601 53.29401916 -8.17792941 47.26348471 -7.23692989 41.2327137 C-6.51096038 36.58453728 -5.78189853 31.93684996 -5.05191231 27.28930283 C-4.70280494 25.06383272 -4.35474189 22.83819854 -4.0077343 20.61240005 C-3.52519655 17.51989662 -3.03843475 14.42808746 -2.55053711 11.33642578 C-2.40766266 10.41497772 -2.26478821 9.49352966 -2.11758423 8.54415894 C-1.98447342 7.70628845 -1.85136261 6.86841797 -1.71421814 6.00515747 C-1.59974807 5.27559908 -1.485278 4.54604069 -1.36733913 3.79437447 C-1 2 -1 2 0 0 Z M71 53 C72.1300808 63.0384837 73.36985611 73.02837513 75 83 C80.7974423 83.24428343 80.7974423 83.24428343 86 81 C84.60786668 77.35792507 82.99205189 73.93167328 81.1796875 70.48046875 C80.64472656 69.45888672 80.10976562 68.43730469 79.55859375 67.38476562 C78.72521484 65.80211914 78.72521484 65.80211914 77.875 64.1875 C77.31167969 63.11306641 76.74835938 62.03863281 76.16796875 60.93164062 C74.78080182 58.28661895 73.3914106 55.64279105 72 53 C71.67 53 71.34 53 71 53 Z " fill="#F5B947" transform="translate(126,10)"/>
<path d="M0 0 C51.15 0 102.3 0 155 0 C155 39.93 155 79.86 155 121 C116.42104002 121.04030303 116.42104002 121.04030303 100.30664062 121.04882812 C89.16153506 121.05477147 78.01643702 121.06177412 66.87133789 121.07543945 C58.7559464 121.08538526 50.640561 121.09185318 42.52516359 121.09408849 C38.22540212 121.09539578 33.92565808 121.09848274 29.62590218 121.10573006 C25.58357158 121.11248865 21.54126568 121.11461729 17.49892998 121.11310768 C16.01095826 121.11338408 14.52298577 121.11539016 13.03501892 121.11920547 C11.01224862 121.12414014 8.98946524 121.12239816 6.96669006 121.12025452 C5.8319629 121.12117631 4.69723574 121.1220981 3.5281229 121.12304783 C1 121 1 121 0 120 C-0.09588124 118.44379604 -0.12188033 116.88323546 -0.12025452 115.32408142 C-0.12163201 114.31512031 -0.12300951 113.30615919 -0.12442875 112.2666235 C-0.12083064 111.14601811 -0.11723253 110.02541273 -0.11352539 108.87084961 C-0.11364593 107.68126679 -0.11376646 106.49168398 -0.11389065 105.2660532 C-0.11314105 101.39479805 -0.1055107 97.52359035 -0.09765625 93.65234375 C-0.09618698 91.27054874 -0.09516618 88.88875341 -0.09460449 86.50695801 C-0.08934993 77.6504671 -0.07538888 68.79398309 -0.0625 59.9375 C-0.041875 40.158125 -0.02125 20.37875 0 0 Z " fill="#E8715F" transform="translate(250,10)"/>
<path d="M0 0 C20.79 0 41.58 0 63 0 C63.45375 4.57875 63.9075 9.1575 64.375 13.875 C67.11458981 34.77160039 77.32218151 51.3677328 87.90283203 69.20849609 C88.45181152 70.16449707 89.00079102 71.12049805 89.56640625 72.10546875 C90.2790564 73.32012817 90.2790564 73.32012817 91.00610352 74.55932617 C92.22862379 77.56142275 92.29290219 79.78518653 92 83 C90.32877464 85.68589791 89.10908963 87.50282189 86.1875 88.8125 C83.12408194 89.07507869 80.07315704 89.01070786 77 89 C77.12117188 89.7206665 77.24234375 90.44133301 77.3671875 91.18383789 C77.9172991 94.47577974 78.45871859 97.76909521 79 101.0625 C79.19078125 102.19623047 79.3815625 103.32996094 79.578125 104.49804688 C79.75859375 105.60341797 79.9390625 106.70878906 80.125 107.84765625 C80.29257813 108.85836182 80.46015625 109.86906738 80.6328125 110.91040039 C81 114 81 114 81 121 C48 121 15 121 -19 121 C-18.32158892 113.53747809 -17.51529515 106.24876096 -16.34179688 98.86889648 C-16.17744644 97.81711716 -16.01309601 96.76533783 -15.84376526 95.6816864 C-15.30564463 92.24425401 -14.76238104 88.80765863 -14.21875 85.37109375 C-13.84121551 82.97025375 -13.46389957 80.56937938 -13.08679199 78.16847229 C-12.29893595 73.15776554 -11.50854054 68.14746787 -10.71630859 63.13745117 C-9.69938909 56.70527434 -8.68871783 50.27213397 -7.67989349 43.83868313 C-6.90339691 38.89109624 -6.12371051 33.9440162 -5.34303284 28.99708748 C-4.96886661 26.62368103 -4.59568555 24.25011905 -4.22349548 21.8764019 C-3.70496708 18.57259798 -3.18217598 15.26949693 -2.65820312 11.96655273 C-2.50440689 10.98114502 -2.35061066 9.9957373 -2.19215393 8.98046875 C-2.04918381 8.08488754 -1.90621368 7.18930634 -1.75891113 6.2665863 C-1.6357679 5.48628776 -1.51262466 4.70598921 -1.38574982 3.90204525 C-1 2 -1 2 0 0 Z M71 53 C72.1300808 63.0384837 73.36985611 73.02837513 75 83 C80.7974423 83.24428343 80.7974423 83.24428343 86 81 C84.60786668 77.35792507 82.99205189 73.93167328 81.1796875 70.48046875 C80.64472656 69.45888672 80.10976562 68.43730469 79.55859375 67.38476562 C78.72521484 65.80211914 78.72521484 65.80211914 77.875 64.1875 C77.31167969 63.11306641 76.74835938 62.03863281 76.16796875 60.93164062 C74.78080182 58.28661895 73.3914106 55.64279105 72 53 C71.67 53 71.34 53 71 53 Z " fill="#58B0E2" transform="translate(126,10)"/>
<path d="M0 0 C9.9 0 19.8 0 30 0 C30.13174996 16.68832801 29.64989754 33.3450357 29.13116455 50.02264404 C29.04003863 52.97860686 28.95217809 55.93466293 28.86431313 58.89072418 C28.46690557 72.23647863 28.05296553 85.58166197 27.49609375 98.921875 C27.46089127 99.79700745 27.42568878 100.67213989 27.38941956 101.5737915 C27.11738977 107.75364025 26.56167028 113.82162691 26 120 C44.15 120 62.3 120 81 120 C81 120.33 81 120.66 81 121 C48 121 15 121 -19 121 C-18.32158892 113.53747809 -17.51529515 106.24876096 -16.34179688 98.86889648 C-16.17744644 97.81711716 -16.01309601 96.76533783 -15.84376526 95.6816864 C-15.30564463 92.24425401 -14.76238104 88.80765863 -14.21875 85.37109375 C-13.84121551 82.97025375 -13.46389957 80.56937938 -13.08679199 78.16847229 C-12.29893595 73.15776554 -11.50854054 68.14746787 -10.71630859 63.13745117 C-9.69938909 56.70527434 -8.68871783 50.27213397 -7.67989349 43.83868313 C-6.90339691 38.89109624 -6.12371051 33.9440162 -5.34303284 28.99708748 C-4.96886661 26.62368103 -4.59568555 24.25011905 -4.22349548 21.8764019 C-3.70496708 18.57259798 -3.18217598 15.26949693 -2.65820312 11.96655273 C-2.50440689 10.98114502 -2.35061066 9.9957373 -2.19215393 8.98046875 C-2.04918381 8.08488754 -1.90621368 7.18930634 -1.75891113 6.2665863 C-1.6357679 5.48628776 -1.51262466 4.70598921 -1.38574982 3.90204525 C-1 2 -1 2 0 0 Z " fill="#5AB1E1" transform="translate(126,10)"/>
<path d="M0 0 C30.69 0 61.38 0 93 0 C93 5.28 93 10.56 93 16 C62.31 16 31.62 16 0 16 C0 10.72 0 5.44 0 0 Z " fill="#4D4A46" transform="translate(86,445)"/>
<path d="M0 0 C4.55555556 0.55555556 4.55555556 0.55555556 6 2 C6.10980897 3.95482647 6.15592461 5.91328624 6.17578125 7.87109375 C6.19962891 9.08603516 6.22347656 10.30097656 6.24804688 11.55273438 C6.29042968 14.10726143 6.32199221 16.66199501 6.34179688 19.21679688 C6.53830948 27.91362214 7.36162353 35.48638784 12.96484375 42.4375 C13.61582031 42.953125 14.26679688 43.46875 14.9375 44 C15.58589844 44.53625 16.23429687 45.0725 16.90234375 45.625 C23.00263743 49.62370274 28.90403908 49.59900969 36 49 C42.80981936 47.47058155 47.81155807 44.18567989 51.6015625 38.34765625 C55.22374304 31.69595481 54.71204649 24.42559955 54.6875 17.0625 C54.69640364 14.93212338 54.71231059 12.80221104 54.7389679 10.67198181 C54.76061144 8.75807401 54.76112441 6.84396172 54.76049805 4.92993164 C55 2 55 2 57 0 C61.55555556 0.55555556 61.55555556 0.55555556 63 2 C63.26876856 5.9496003 63.27151482 9.90337248 63.29516602 13.86132812 C63.31213218 15.83227034 63.3559652 17.80292299 63.40039062 19.7734375 C63.47085986 30.44139533 61.68235267 39.75239658 54.8359375 48.21484375 C48.29424876 54.57559216 39.84543136 58.2629873 30.75 58.375 C20.88756501 58.17326838 14.09910267 54.98112586 6.9765625 48.2109375 C-1.7090382 38.49542367 -2.32625604 28.18713614 -2.25 15.6875 C-2.25773437 14.40037109 -2.26546875 13.11324219 -2.2734375 11.78710938 C-2.27085937 10.56185547 -2.26828125 9.33660156 -2.265625 8.07421875 C-2.26336914 6.95619873 -2.26111328 5.83817871 -2.25878906 4.6862793 C-2 2 -2 2 0 0 Z " fill="#EDE9E6" transform="translate(297,33)"/>
<path d="M0 0 C4.80435597 1.96394281 7.82131033 4.8560043 11.40625 8.54296875 C12.43202148 9.52136719 12.43202148 9.52136719 13.47851562 10.51953125 C16.77154664 13.83559045 18.33082136 15.56983613 19.09765625 20.28515625 C18.46875 23.41796875 18.46875 23.41796875 15.46875 25.41796875 C13.03125 25.79296875 13.03125 25.79296875 10.46875 25.41796875 C9.09257834 24.12889656 7.75349394 22.79818198 6.46875 21.41796875 C6.4594043 22.57844727 6.45005859 23.73892578 6.44042969 24.93457031 C6.40053124 29.24371606 6.33477316 33.55214774 6.26123047 37.86083984 C6.23301994 39.72500428 6.21180579 41.58928835 6.19775391 43.45361328 C6.17632516 46.13506316 6.12967702 48.81507461 6.078125 51.49609375 C6.07628204 52.74474213 6.07628204 52.74474213 6.07440186 54.01861572 C5.97736355 57.8596081 5.91190099 59.81350434 3.59082031 62.97949219 C1.46875 64.41796875 1.46875 64.41796875 -1.09375 64.35546875 C-3.70388724 63.35156981 -4.78231817 62.56354591 -6.53125 60.41796875 C-6.86268468 57.41259914 -7.02000756 54.60351147 -7.04296875 51.59375 C-7.06989555 50.30164864 -7.06989555 50.30164864 -7.09736633 48.98344421 C-7.15154298 46.23250217 -7.18538823 43.48173434 -7.21875 40.73046875 C-7.25191663 38.86521009 -7.28640567 36.99997445 -7.32226562 35.13476562 C-7.40727356 30.56262557 -7.47404943 25.99053784 -7.53125 21.41796875 C-8.66820313 22.41183594 -8.66820313 22.41183594 -9.828125 23.42578125 C-12.53125 25.41796875 -12.53125 25.41796875 -15.78125 25.29296875 C-16.68875 25.00421875 -17.59625 24.71546875 -18.53125 24.41796875 C-20.05676676 21.36693522 -20.06927353 19.8385417 -19.53125 16.41796875 C-17.34272281 13.2661516 -14.70228069 10.66101471 -11.96875 7.98046875 C-11.26427734 7.23603516 -10.55980469 6.49160156 -9.83398438 5.72460938 C-4.65023464 0.55041494 -4.65023464 0.55041494 0 0 Z " fill="#4B4946" transform="translate(106.53125,363.58203125)"/>
<path d="M0 0 C3.33597193 2.27994802 6.0417876 5.25401143 8.875 8.125 C10.06996094 9.26582031 10.06996094 9.26582031 11.2890625 10.4296875 C16.94810537 16.08873037 16.94810537 16.08873037 17.1953125 20.4296875 C16 23 16 23 13 25 C8.77527764 24.73595485 6.80794805 24.10044264 4 21 C3.9906543 22.16047852 3.98130859 23.32095703 3.97167969 24.51660156 C3.93178124 28.82574731 3.86602316 33.13417899 3.79248047 37.44287109 C3.76426994 39.30703553 3.74305579 41.1713196 3.72900391 43.03564453 C3.70757516 45.71709441 3.66092702 48.39710586 3.609375 51.078125 C3.60753204 52.32677338 3.60753204 52.32677338 3.60565186 53.60064697 C3.50865202 57.4401166 3.44043986 59.39706331 1.12597656 62.56542969 C-1 64 -1 64 -3.625 63.875 C-6 63 -6 63 -8 61 C-8.2784729 59.20297241 -8.2784729 59.20297241 -8.31884766 57.00927734 C-8.33871735 56.18857758 -8.35858704 55.36787781 -8.37905884 54.52230835 C-8.39061005 53.63580597 -8.40216125 52.74930359 -8.4140625 51.8359375 C-8.43342865 50.92872955 -8.4527948 50.02152161 -8.4727478 49.08682251 C-8.53263216 46.18297796 -8.57896416 43.27909396 -8.625 40.375 C-8.66317165 38.40883667 -8.70222289 36.4426902 -8.7421875 34.4765625 C-8.83834091 29.6511783 -8.922339 24.82571582 -9 20 C-9.77085937 20.8146875 -10.54171875 21.629375 -11.3359375 22.46875 C-14 25 -14 25 -16.625 25.5 C-19 25 -19 25 -20.875 23.9375 C-22.7561002 20.69782743 -21.92942664 18.55496648 -21 15 C-18.97184484 12.23120604 -16.57101617 9.95700017 -14.0625 7.625 C-13.41603516 6.99722656 -12.76957031 6.36945313 -12.10351562 5.72265625 C-5.53764644 -0.59094174 -5.53764644 -0.59094174 0 0 Z " fill="#474645" transform="translate(162,364)"/>
<path d="M0 0 C0.66 0 1.32 0 2 0 C2.93263888 11.40537627 3.37515636 22.80387019 3.75390625 34.23828125 C3.81959128 36.17295318 3.88542576 38.10762004 3.95140076 40.0422821 C4.08838466 44.07720445 4.22346398 48.1121848 4.35717773 52.1472168 C4.52712131 57.27049773 4.70200228 62.393596 4.87835789 67.51665974 C5.01513171 71.50704619 5.14914909 75.49752181 5.2823925 79.48802757 C5.34572372 81.3747361 5.4098907 83.26141679 5.47497749 85.14806557 C5.87419846 96.770667 6.08483618 108.37044758 6 120 C2.7 120 -0.6 120 -4 120 C-3.83296234 114.27658373 -3.66555579 108.553179 -3.49609375 102.82983398 C-3.44790935 101.20166037 -3.39973269 99.57348653 -3.3515625 97.9453125 C-3.32555969 97.0665596 -3.29955688 96.1878067 -3.27276611 95.28242493 C-3.08319317 88.85983505 -2.89684734 82.43715514 -2.71179008 76.01443386 C-2.54171211 70.11540423 -2.36986932 64.21642716 -2.19711494 58.31747532 C-2.08803054 54.58996838 -1.97973638 50.86244223 -1.87335205 47.13485718 C-1.42416013 31.41351677 -0.95717231 15.70042607 0 0 Z " fill="#36A9D9" transform="translate(156,10)"/>
<path d="M0 0 C3.09007546 3.63000231 5.33653603 7.27086243 7.49609375 11.515625 C7.96922752 12.43852325 7.96922752 12.43852325 8.45191956 13.38006592 C9.45247629 15.33402635 10.44532744 17.29177105 11.4375 19.25 C12.74633386 21.81891919 14.05855658 24.38609654 15.37109375 26.953125 C15.68477402 27.56919617 15.99845428 28.18526733 16.32164001 28.82000732 C18.47220331 33.0270997 20.72900512 37.15590527 23.1171875 41.23242188 C24.5063679 44.01385609 24.61789819 45.97916442 24 49 C22.34840002 51.65435711 21.12000918 53.47999574 18.25 54.8125 C14.82383635 55.09801364 11.43784799 55.05729747 8 55 C8 53.02 8 51.04 8 49 C10.97 48.34 13.94 47.68 17 47 C15.60083321 43.30328054 13.93054842 39.89432242 12.03125 36.4296875 C11.46019531 35.3675 10.88914063 34.3053125 10.30078125 33.2109375 C9.1100457 31.00510635 7.90966255 28.80445313 6.69921875 26.609375 C2.09058745 17.97469332 -0.53423658 9.88337667 0 0 Z " fill="#686866" transform="translate(194,44)"/>
<path d="M0 0 C3.39470755 1.15564512 4.87501175 2.06492057 6.9375 5 C7.44049316 9.10777749 7.26499345 10.50875983 4.9375 14 C4.2775 14 3.6175 14 2.9375 14 C2.2775 12.35 1.6175 10.7 0.9375 9 C-1.50730079 9.18828772 -1.50730079 9.18828772 -4.0625 10 C-5.42270151 11.96758273 -5.42270151 11.96758273 -6.0625 14 C-8.0625 12 -8.0625 12 -8.5 8.125 C-8.40847008 4.77500495 -8.19033966 4.15415959 -5.9375 1.4375 C-3.0625 0 -3.0625 0 0 0 Z " fill="#4C4646" transform="translate(357.0625,25)"/>
<path d="M0 0 C2.9375 2.0625 2.9375 2.0625 5 5 C5 8.6875 5 8.6875 4 12 C3.01 12.66 2.02 13.32 1 14 C0.34 12.02 -0.32 10.04 -1 8 C-2.65 8.33 -4.3 8.66 -6 9 C-6.33 10.65 -6.66 12.3 -7 14 C-8.5 12.9375 -8.5 12.9375 -10 11 C-10.50030235 7.06905293 -10.5996142 4.8994213 -8.375 1.5625 C-5.24316508 -0.49791771 -3.68455227 -0.6767545 0 0 Z " fill="#4B4647" transform="translate(302,26)"/>
</svg>
