<?xml version="1.0" encoding="UTF-8"?>
<svg version="1.1" xmlns="http://www.w3.org/2000/svg" width="512" height="512">
<path d="M0 0 C0.75356502 -0.00350607 1.50713003 -0.00701215 2.28353035 -0.01062447 C4.81100273 -0.01993531 7.33824453 -0.01501598 9.86572647 -0.01015663 C11.69519115 -0.01389305 13.52465423 -0.01849454 15.35411477 -0.02388728 C20.38356959 -0.03613374 25.41295797 -0.03585487 30.4424243 -0.03349853 C35.86588411 -0.03309077 41.28932251 -0.04412554 46.71277237 -0.05361366 C57.3393302 -0.07023377 67.96586583 -0.07572367 78.59243557 -0.07683842 C87.22970122 -0.07778843 95.86695954 -0.0818964 104.50422287 -0.08823967 C128.98798368 -0.105855 153.47172694 -0.11507811 177.95549414 -0.11357872 C178.61535333 -0.11353883 179.27521253 -0.11349894 179.95506747 -0.11345784 C181.28946386 -0.11337697 182.62386026 -0.11329337 183.95825665 -0.11320706 C204.71668688 -0.1119817 225.47505176 -0.12699199 246.23346329 -0.15435219 C269.55832896 -0.18505421 292.88315141 -0.20225877 316.20803857 -0.20042574 C328.55693419 -0.19976153 340.90575612 -0.20526758 353.25463486 -0.22678185 C363.76878473 -0.2449821 374.28282751 -0.24935045 384.79698631 -0.235763 C390.16124769 -0.2292275 395.52530354 -0.22913729 400.88954544 -0.2464695 C405.80221132 -0.26217935 410.71450834 -0.25935776 415.62716511 -0.24190123 C417.40238911 -0.23882675 419.17764049 -0.24248058 420.95283219 -0.25362138 C430.04628508 -0.30690111 438.18114906 -0.27711906 446.3555336 4.25726891 C447.11243162 4.6767853 447.86932964 5.0963017 448.64916396 5.52853072 C452.81222085 7.93339918 456.12014224 10.67210551 459.3555336 14.25726891 C460.2011586 15.18539391 461.0467836 16.11351891 461.9180336 17.06976891 C464.70345005 20.47708651 466.65239296 24.21138022 468.3555336 28.25726891 C468.69846766 29.0467558 469.04140171 29.83624269 469.39472771 30.64965343 C470.77022103 35.8143293 470.63764174 40.78113809 470.62295914 46.10411644 C470.62749025 47.30612971 470.63202136 48.50814298 470.63668978 49.7465809 C470.64715031 53.07532405 470.64866129 56.4038509 470.64630103 59.73259509 C470.64589244 63.32579632 470.65693618 66.91896548 470.66641617 70.51215172 C470.68301882 77.54957957 470.68852541 84.58697391 470.68964092 91.62441971 C470.69059189 97.3469182 470.69470461 103.06940564 470.70104218 108.79190063 C470.71865375 125.02530593 470.72788135 141.2586848 470.72638123 157.49209972 C470.72630131 158.36698104 470.7262214 159.24186236 470.72613907 160.14325523 C470.72605731 161.01920817 470.72597555 161.8951611 470.72589131 162.79765806 C470.72507877 176.98714988 470.74420861 191.17653546 470.7724158 205.36599656 C470.8011671 219.94453718 470.81495481 234.52302602 470.81322825 249.1015957 C470.81256505 257.28272031 470.81802636 265.46373358 470.83958435 273.64483261 C470.85782588 280.61191159 470.86211929 287.57882879 470.8485655 294.54592135 C470.84205033 298.09773142 470.84186548 301.64923139 470.859272 305.20101166 C470.87798544 309.05931775 470.86540999 312.91717481 470.85000992 316.77550316 C470.86029704 317.88719893 470.87058417 318.9988947 470.88118303 320.14427823 C470.77785384 331.89322162 466.82860003 342.22286232 458.9180336 350.94476891 C458.0724086 351.70789391 457.2267836 352.47101891 456.3555336 353.25726891 C455.4274086 354.10289391 454.4992836 354.94851891 453.5430336 355.81976891 C446.56277873 361.52599268 438.35540796 364.61726388 429.3555336 364.25726891 C429.6855336 364.91726891 430.0155336 365.57726891 430.3555336 366.25726891 C435.3055336 414.10726891 440.2555336 461.95726891 445.3555336 511.25726891 C341.4055336 511.25726891 237.4555336 511.25726891 130.3555336 511.25726891 C134.3555336 473.25726891 134.3555336 473.25726891 135.3555336 471.25726891 C106.9755336 471.25726891 78.5955336 471.25726891 49.3555336 471.25726891 C49.3555336 442.52753918 49.3555336 442.52753918 59.3555336 432.25726891 C70.24068837 423.49550162 81.52065599 422.77751074 94.9805336 422.56976891 C96.47665592 422.53652535 97.97275095 422.50202943 99.46881485 422.46625328 C103.09752076 422.38216494 106.72630105 422.31498206 110.3555336 422.25726891 C110.59650017 421.25248749 110.59650017 421.25248749 110.84233475 420.22740746 C112.5115757 413.26814963 114.1826507 406.30933406 115.85480118 399.35077477 C116.47912023 396.7522906 117.10278413 394.15365048 117.72589493 391.55487633 C118.6207394 387.82386608 119.51726548 384.0932634 120.41412735 380.36273766 C120.6933252 379.19703743 120.97252304 378.0313372 121.26018143 376.83031273 C121.52037567 375.74941872 121.78056992 374.6685247 122.04864883 373.55487633 C122.27737183 372.60223396 122.50609482 371.6495916 122.74174881 370.66808128 C123.20611516 368.84415186 123.76035676 367.04279941 124.3555336 365.25726891 C123.41214898 365.26003428 123.41214898 365.26003428 122.44970608 365.26285553 C107.1073761 365.30713106 91.76506852 365.34017225 76.42269039 365.36089325 C69.00306457 365.37118153 61.58348155 365.38519474 54.16388321 365.40814781 C47.69278632 365.42815699 41.22172045 365.44100311 34.75059348 365.4454459 C31.32797612 365.4480406 27.90544744 365.45408751 24.48285866 365.46872902 C20.65089481 365.48331627 16.81911269 365.4852438 12.9871254 365.48431969 C11.86718185 365.49151024 10.74723831 365.49870079 9.59335709 365.50610924 C-4.65305233 365.46910505 -17.47116566 362.83252325 -28.2069664 352.88226891 C-29.0113414 352.01601891 -29.8157164 351.14976891 -30.6444664 350.25726891 C-31.4694664 349.39101891 -32.2944664 348.52476891 -33.1444664 347.63226891 C-39.76097617 339.40963221 -41.37987974 330.82941568 -41.27265549 320.52994347 C-41.27974987 319.29366207 -41.28684426 318.05738068 -41.29415363 316.78363621 C-41.3086238 313.38208404 -41.30091907 309.98194223 -41.2834307 306.5804956 C-41.26998868 302.90082696 -41.28551798 299.22125993 -41.29725266 295.54160118 C-41.31558188 288.34568663 -41.30714914 281.15004454 -41.28916443 273.95413862 C-41.27511133 268.10443955 -41.27125144 262.2548142 -41.2746067 256.40509987 C-41.27508415 255.57102967 -41.27556159 254.73695947 -41.2760535 253.87761442 C-41.27707987 252.18298885 -41.27813524 250.48836331 -41.27921926 248.79373778 C-41.2877765 233.82693728 -41.27114193 218.86026795 -41.24139023 203.89349937 C-41.21254484 189.38237565 -41.20547545 174.87144079 -41.22088242 160.36029625 C-41.23765463 144.54171647 -41.24166919 128.72322626 -41.22417206 112.90464413 C-41.22232774 111.21703157 -41.22049301 109.529419 -41.21866798 107.84180641 C-41.21775589 107.01155638 -41.2168438 106.18130636 -41.21590408 105.32589724 C-41.21030582 99.48451283 -41.21359912 93.64317226 -41.22021294 87.80179024 C-41.22795519 80.68140553 -41.2211612 73.56120653 -41.1960379 66.44085918 C-41.18356463 62.8102974 -41.17736976 59.18002442 -41.18857956 55.54945183 C-41.20051421 51.60966616 -41.18131992 47.67037605 -41.1591301 43.73062706 C-41.17149125 42.01860582 -41.17149125 42.01860582 -41.18410212 40.27199829 C-41.07374897 29.65269346 -37.53264895 21.53136061 -30.2694664 13.69476891 C-21.34682148 5.40945577 -12.56976485 -0.07448333 0 0 Z " fill="#C3E1F1" transform="translate(40.644466400146484,0.7427310943603516)"/>
<path d="M0 0 C13.53 0 27.06 0 41 0 C41.25 13.75 41.25 13.75 41.29785156 18.06933594 C41.3284668 19.19629883 41.35908203 20.32326172 41.390625 21.484375 C41.41157227 22.63647461 41.43251953 23.78857422 41.45410156 24.97558594 C42.10954862 28.6069268 43.03643749 29.84840865 46 32 C49.62649951 32.08916154 49.62649951 32.08916154 53 31 C58.75867981 22.36198028 55.62946453 10.37499307 56 0 C88.34 0 120.68 0 154 0 C154.33 9.57 154.66 19.14 155 29 C158.57603328 32.3404903 158.57603328 32.3404903 162.0625 31.875 C165.17017882 30.94930844 166.12621517 30.56589438 168 28 C168.50718056 25.0011387 168.50718056 25.0011387 168.51171875 21.58203125 C168.54483154 20.4525708 168.57794434 19.32311035 168.61206055 18.15942383 C168.63695557 16.72493896 168.66185059 15.2904541 168.6875 13.8125 C168.790625 9.254375 168.89375 4.69625 169 0 C182.53 0 196.06 0 210 0 C211.98 19.47 213.96 38.94 216 59 C231.18 59.33 246.36 59.66 262 60 C262 74.63939029 260.29889017 84.95250571 250.5625 95.6875 C249.716875 96.450625 248.87125 97.21375 248 98 C247.071875 98.845625 246.14375 99.69125 245.1875 100.5625 C238.20724513 106.26872377 229.99987437 109.35999497 221 109 C221.33 109.66 221.66 110.32 222 111 C226.95 158.85 231.9 206.7 237 256 C133.05 256 29.1 256 -78 256 C-74 218 -74 218 -73 216 C-101.38 216 -129.76 216 -159 216 C-159 187.27027027 -159 187.27027027 -149 177 C-138.11484523 168.23823271 -126.83487761 167.52024184 -113.375 167.3125 C-111.87887768 167.27925644 -110.38278265 167.24476053 -108.88671875 167.20898438 C-105.25801284 167.12489603 -101.62923255 167.05771315 -98 167 C-97.75903343 165.99521858 -97.75903343 165.99521858 -97.51319885 164.97013855 C-95.8439579 158.01088072 -94.1728829 151.05206515 -92.50073242 144.09350586 C-91.87641337 141.49502169 -91.25274947 138.89638158 -90.62963867 136.29760742 C-89.7347942 132.56659718 -88.83826812 128.83599449 -87.94140625 125.10546875 C-87.6622084 123.93976852 -87.38301056 122.7740683 -87.09535217 121.57304382 C-86.70506081 119.9517028 -86.70506081 119.9517028 -86.30688477 118.29760742 C-86.07816177 117.34496506 -85.84943878 116.39232269 -85.61378479 115.41081238 C-85.14941844 113.58688295 -84.59517684 111.78553051 -84 110 C-84.94338462 110.00276538 -84.94338462 110.00276538 -85.90582752 110.00558662 C-101.2481575 110.04986216 -116.59046508 110.08290334 -131.93284321 110.10362434 C-139.35246903 110.11391262 -146.77205205 110.12792583 -154.19165039 110.15087891 C-160.66274728 110.17088809 -167.13381315 110.18373421 -173.60494012 110.18817699 C-177.02755748 110.19077169 -180.45008616 110.1968186 -183.87267494 110.21146011 C-187.70463879 110.22604737 -191.53642091 110.22797489 -195.3684082 110.22705078 C-196.48835175 110.23424133 -197.60829529 110.24143188 -198.76217651 110.24884033 C-213.00858593 110.21183614 -225.82669926 107.57525434 -236.5625 97.625 C-237.366875 96.75875 -238.17125 95.8925 -239 95 C-239.825 94.13375 -240.65 93.2675 -241.5 92.375 C-249.72271491 81.98566497 -249 74.07679926 -249 60 C-168.81 60 -88.62 60 -6 60 C-5.01 49.44 -4.02 38.88 -3 28 C-2.45237929 22.66351503 -1.9014941 17.3314058 -1.3125 12 C-0.879375 8.04 -0.44625 4.08 0 0 Z " fill="#FE491F" transform="translate(249,256)"/>
<path d="M0 0 C48.18 0 96.36 0 146 0 C149.41112784 26.15198008 149.41112784 26.15198008 150.64910889 39.13604736 C151.05869335 43.42235267 151.48327248 47.70718661 151.90625 51.9921875 C151.99466156 52.88996918 152.08307312 53.78775085 152.17416382 54.71273804 C153.19311815 65.02189523 154.2785297 75.32383882 155.375 85.625 C155.52716476 87.05854828 155.52716476 87.05854828 155.68240356 88.52105713 C156.96368948 100.57616787 158.28951552 112.62570975 159.65234375 124.671875 C159.79077698 125.89985809 159.92921021 127.12784119 160.07183838 128.39303589 C160.74849029 134.39508991 161.42986747 140.39652307 162.12060547 146.39697266 C162.36837552 148.584937 162.61594414 150.77292417 162.86328125 152.9609375 C162.97864731 153.94640564 163.09401337 154.93187378 163.21287537 155.94720459 C163.31705276 156.87776672 163.42123016 157.80832886 163.52856445 158.76708984 C163.66582695 159.96342545 163.66582695 159.96342545 163.80586243 161.18392944 C164.07678608 165.11382365 164 169.06077824 164 173 C103.61 173 43.22 173 -19 173 C-16.81387606 152.23182261 -14.6089539 131.59321916 -11.96875 110.90087891 C-10.3224876 97.73262435 -9.03498488 84.52465543 -7.71356201 71.32061768 C-5.33104124 47.52332743 -2.7158781 23.76393333 0 0 Z " fill="#FEE04C" transform="translate(190,339)"/>
<path d="M0 0 C4.7210664 2.82026251 8.2794839 6.07068655 10.7734375 11.05859375 C10.86027195 13.83020001 10.8889954 16.5763414 10.87109375 19.34765625 C10.8696788 20.16608002 10.86826385 20.98450378 10.86680603 21.82772827 C10.8612004 24.446387 10.84864698 27.06496079 10.8359375 29.68359375 C10.83092322 31.45703002 10.82636019 33.23046762 10.82226562 35.00390625 C10.81122914 39.35550157 10.79396075 43.70703325 10.7734375 48.05859375 C11.69749893 48.04527008 12.62156036 48.03194641 13.57362366 48.01821899 C22.29799872 47.89780977 31.02209325 47.80655189 39.74710941 47.74772072 C44.23240272 47.71645735 48.71700733 47.67407739 53.2019043 47.60595703 C57.53322009 47.54058392 61.86387508 47.50485015 66.19564629 47.48933029 C67.84508093 47.4782759 69.49448092 47.45668834 71.14363289 47.42421341 C85.68478133 47.14935644 85.68478133 47.14935644 90.27905273 50.84521484 C94.27737181 55.01957729 93.95715443 59.89895708 94.0234375 65.43359375 C94.06210937 67.36332031 94.06210937 67.36332031 94.1015625 69.33203125 C93.69265873 73.97600977 92.1393531 77.07801613 89.5234375 80.87109375 C86.80613772 82.71497574 83.9846592 82.75564831 80.7734375 83.05859375 C80.80566406 84.1259375 80.83789062 85.19328125 80.87109375 86.29296875 C80.86233544 92.03341847 80.01148326 97.63350007 79.2109375 103.30859375 C78.84268225 105.95428449 78.47538033 108.60009216 78.109375 111.24609375 C78.00740311 111.97934875 77.90543121 112.71260376 77.80036926 113.46807861 C77.00598021 119.23097275 76.27363902 125.00041604 75.55729675 130.77349854 C74.97542519 135.44761278 74.37867344 140.11977998 73.78079224 144.79187012 C73.48584524 147.12352356 73.19709783 149.45597019 72.9147644 151.78918457 C72.51095409 155.11575726 72.0839545 158.43865381 71.65234375 161.76171875 C71.53770782 162.75244385 71.4230719 163.74316895 71.30496216 164.76391602 C70.20480892 172.94670382 67.67936519 180.70515644 61.5234375 186.49609375 C54.33161509 191.81950294 46.60982745 192.50121162 37.90454102 192.44677734 C36.85615051 192.4520343 35.80776001 192.45729126 34.7276001 192.46270752 C31.28569332 192.47583694 27.84425468 192.46719358 24.40234375 192.45703125 C21.99535535 192.45905416 19.58836754 192.4619674 17.18138123 192.46572876 C12.14551945 192.4701427 7.10981772 192.46375141 2.07397461 192.44970703 C-4.3628309 192.43262519 -10.79926081 192.44245625 -17.23605251 192.46042442 C-22.20419616 192.47129514 -27.17225164 192.46780065 -32.14039803 192.46004105 C-34.51293037 192.45804766 -36.88547087 192.46046787 -39.2579937 192.46747971 C-42.5816335 192.4751472 -45.90467587 192.46341508 -49.22827148 192.44677734 C-50.68197899 192.45588638 -50.68197899 192.45588638 -52.16505432 192.46517944 C-60.03503073 192.39264749 -68.61535876 191.40268807 -74.6015625 185.80859375 C-75.20742187 185.2671875 -75.81328125 184.72578125 -76.4375 184.16796875 C-81.74382616 177.91160166 -83.10545445 172.14027595 -84.2265625 164.18359375 C-84.38898438 163.1056958 -84.55140625 162.02779785 -84.71875 160.91723633 C-86.25090758 150.48898879 -87.49331662 140.02202477 -88.71777344 129.55395508 C-89.96143158 118.96027277 -91.41018851 108.41082831 -93.0078125 97.86401367 C-93.16765625 96.78998291 -93.3275 95.71595215 -93.4921875 94.609375 C-93.63430664 93.67778564 -93.77642578 92.74619629 -93.92285156 91.78637695 C-94.24904408 88.85667515 -94.27751819 86.00399554 -94.2265625 83.05859375 C-95.1134375 82.99671875 -96.0003125 82.93484375 -96.9140625 82.87109375 C-100.98495488 81.87257298 -102.50584901 80.1679806 -105.2265625 77.05859375 C-105.5565625 76.72859375 -105.8865625 76.39859375 -106.2265625 76.05859375 C-106.53400078 72.65090549 -106.50500026 69.22844253 -106.5390625 65.80859375 C-106.56806641 64.85339844 -106.59707031 63.89820312 -106.62695312 62.9140625 C-106.66631789 58.55971354 -106.67704704 55.8342625 -104.45703125 52.01171875 C-100.0296185 48.13482492 -96.86396116 47.81152777 -90.97949219 47.83154297 C-90.25714386 47.83125092 -89.53479553 47.83095886 -88.79055786 47.83065796 C-86.40972767 47.83204813 -84.02921283 47.84759441 -81.6484375 47.86328125 C-79.99505789 47.8670125 -78.34167607 47.86985894 -76.68829346 47.87185669 C-72.34157176 47.87948437 -67.99498421 47.89912542 -63.64831543 47.92126465 C-59.21087458 47.94174171 -54.773412 47.95086239 -50.3359375 47.9609375 C-41.63275101 47.98237214 -32.92967346 48.01649763 -24.2265625 48.05859375 C-24.2579834 46.47776001 -24.2579834 46.47776001 -24.29003906 44.86499023 C-24.36279145 40.93088528 -24.40848924 36.99683903 -24.44628906 33.06225586 C-24.46632471 31.36391173 -24.49356135 29.6656359 -24.52832031 27.9675293 C-24.57719665 25.51724335 -24.59961122 23.06787435 -24.6171875 20.6171875 C-24.63783264 19.86586044 -24.65847778 19.11453339 -24.67974854 18.34043884 C-24.68234906 12.1411749 -22.8903377 7.96334617 -18.62890625 3.31640625 C-13.01561604 -1.02453818 -6.80966902 -2.87917585 0 0 Z " fill="#2C92BF" transform="translate(157.2265625,49.94140625)"/>
<path d="M0 0 C80.19 0 160.38 0 243 0 C242.34 7.59 241.68 15.18 241 23 C224.17 23 207.34 23 190 23 C190 25.97 190 28.94 190 32 C189.86493286 33.88493961 189.69647596 35.76806486 189.48095703 37.64550781 C189.3672879 38.65816711 189.25361877 39.67082642 189.13650513 40.71417236 C189.01153656 41.78302673 188.88656799 42.8518811 188.7578125 43.953125 C188.56516312 45.65719513 188.56516312 45.65719513 188.36862183 47.39569092 C187.95879471 51.01434882 187.54229017 54.63219579 187.125 58.25 C186.58331828 62.98407921 186.04457327 67.71848542 185.5078125 72.453125 C185.3756987 73.61646866 185.2435849 74.77981232 185.10746765 75.97840881 C184.23330522 83.74229162 183.45007842 91.51022386 182.73124695 99.2898407 C181.85298085 108.73534727 180.81778359 118.16281471 179.76782227 127.59057617 C179.43118879 130.61928227 179.0993146 133.64848841 178.76757812 136.67773438 C178.55236746 138.61982317 178.33688347 140.56188171 178.12109375 142.50390625 C178.02316025 143.40170303 177.92522675 144.29949982 177.82432556 145.22450256 C177.73075272 146.05735275 177.63717987 146.89020294 177.54077148 147.74829102 C177.46020004 148.47548843 177.3796286 149.20268585 177.2966156 149.95191956 C177 152 177 152 176 156 C147.62 156 119.24 156 90 156 C90 127.27027027 90 127.27027027 100 117 C110.88515477 108.23823271 122.16512239 107.52024184 135.625 107.3125 C137.12112232 107.27925644 138.61721735 107.24476053 140.11328125 107.20898438 C143.74198716 107.12489603 147.37076745 107.05771315 151 107 C151.24096657 105.99521858 151.24096657 105.99521858 151.48680115 104.97013855 C153.1560421 98.01088072 154.8271171 91.05206515 156.49926758 84.09350586 C157.12358663 81.49502169 157.74725053 78.89638158 158.37036133 76.29760742 C159.2652058 72.56659718 160.16173188 68.83599449 161.05859375 65.10546875 C161.3377916 63.93976852 161.61698944 62.7740683 161.90464783 61.57304382 C162.16484207 60.49214981 162.42503632 59.4112558 162.69311523 58.29760742 C162.92183823 57.34496506 163.15056122 56.39232269 163.38621521 55.41081238 C163.85058156 53.58688295 164.40482316 51.78553051 165 50 C164.05661538 50.00276538 164.05661538 50.00276538 163.09417248 50.00558662 C147.7518425 50.04986216 132.40953492 50.08290334 117.06715679 50.10362434 C109.64753097 50.11391262 102.22794795 50.12792583 94.80834961 50.15087891 C88.33725272 50.17088809 81.86618685 50.18373421 75.39505988 50.18817699 C71.97244252 50.19077169 68.54991384 50.1968186 65.12732506 50.21146011 C61.29536121 50.22604737 57.46357909 50.22797489 53.6315918 50.22705078 C52.51164825 50.23424133 51.39170471 50.24143188 50.23782349 50.24884033 C35.99141407 50.21183614 23.17330074 47.57525434 12.4375 37.625 C11.2309375 36.325625 11.2309375 36.325625 10 35 C9.175 34.13375 8.35 33.2675 7.5 32.375 C-0.72271491 21.98566497 0 14.07679926 0 0 Z " fill="#3D404E" transform="translate(0,316)"/>
<path d="M0 0 C4.7210664 2.82026251 8.2794839 6.07068655 10.7734375 11.05859375 C10.88780242 14.00627992 10.94131136 16.93086523 10.95043945 19.87939453 C10.95701065 20.79342545 10.96358185 21.70745636 10.97035217 22.64918518 C10.99011456 25.68409299 11.00175623 28.71895118 11.01171875 31.75390625 C11.01579428 32.79018032 11.0198698 33.82645439 11.02406883 34.89413071 C11.0449452 40.38221793 11.05923838 45.87028006 11.06860352 51.35839844 C11.07965247 57.02103736 11.11403061 62.68328165 11.15377522 68.34578133 C11.17995801 72.70391558 11.188297 77.06195622 11.19188499 81.4201622 C11.19674907 83.5068922 11.20835791 85.59361807 11.22692299 87.68027115 C11.25134236 90.60763729 11.25034379 93.53398838 11.2434082 96.46142578 C11.25621826 97.31784164 11.26902832 98.17425751 11.28222656 99.05662537 C11.2328927 104.79334114 10.10454351 109.30852126 6.7734375 114.05859375 C0.72300954 118.87424049 -4.67093144 119.89679657 -12.2265625 119.05859375 C-17.09290679 116.67133051 -20.1221542 113.40476537 -23.2265625 109.05859375 C-23.86328125 106.3671875 -23.86328125 106.3671875 -24.2265625 104.05859375 C-27.08284956 104.11904427 -29.93421741 104.20623765 -32.7890625 104.30859375 C-33.58892578 104.32277344 -34.38878906 104.33695312 -35.21289062 104.3515625 C-41.75132242 104.61843727 -46.21922481 106.09091326 -51.00390625 110.8125 C-56.65319985 119.61931124 -54.21214327 129.3391691 -52.85546875 139.1953125 C-52.34701555 142.96237863 -51.94436569 146.73327982 -51.56640625 150.515625 C-51.44821533 151.65572021 -51.33002441 152.79581543 -51.20825195 153.97045898 C-50.97573609 156.2279795 -50.75370298 158.48661185 -50.54370117 160.74633789 C-49.53681946 170.23845359 -47.40172357 179.36177675 -40.2265625 186.05859375 C-37.30675183 187.63155573 -34.3348469 188.90737731 -31.2265625 190.05859375 C-31.2265625 190.38859375 -31.2265625 190.71859375 -31.2265625 191.05859375 C-35.77974951 191.13328011 -40.33257248 191.18744631 -44.88623047 191.22338867 C-46.43219218 191.23838705 -47.97811198 191.25879262 -49.52392578 191.28491211 C-67.04304644 191.57331597 -67.04304644 191.57331597 -74.3984375 186.5859375 C-83.19592656 177.72312055 -84.23892729 166.33840966 -85.7265625 154.49609375 C-85.93562104 152.9099449 -86.14567989 151.32392759 -86.35668945 149.73803711 C-87.96544574 137.54181026 -89.45977139 125.32840349 -90.8828125 113.10913086 C-91.71401598 106.02628339 -92.66365248 98.99108162 -93.8527832 91.95874023 C-94.23926234 88.96005591 -94.29022207 86.07863761 -94.2265625 83.05859375 C-95.1134375 82.99671875 -96.0003125 82.93484375 -96.9140625 82.87109375 C-100.98495488 81.87257298 -102.50584901 80.1679806 -105.2265625 77.05859375 C-105.5565625 76.72859375 -105.8865625 76.39859375 -106.2265625 76.05859375 C-106.53400078 72.65090549 -106.50500026 69.22844253 -106.5390625 65.80859375 C-106.56806641 64.85339844 -106.59707031 63.89820312 -106.62695312 62.9140625 C-106.66631789 58.55971354 -106.67704704 55.8342625 -104.45703125 52.01171875 C-100.0296185 48.13482492 -96.86396116 47.81152777 -90.97949219 47.83154297 C-90.25714386 47.83125092 -89.53479553 47.83095886 -88.79055786 47.83065796 C-86.40972767 47.83204813 -84.02921283 47.84759441 -81.6484375 47.86328125 C-79.99505789 47.8670125 -78.34167607 47.86985894 -76.68829346 47.87185669 C-72.34157176 47.87948437 -67.99498421 47.89912542 -63.64831543 47.92126465 C-59.21087458 47.94174171 -54.773412 47.95086239 -50.3359375 47.9609375 C-41.63275101 47.98237214 -32.92967346 48.01649763 -24.2265625 48.05859375 C-24.2579834 46.47776001 -24.2579834 46.47776001 -24.29003906 44.86499023 C-24.36279145 40.93088528 -24.40848924 36.99683903 -24.44628906 33.06225586 C-24.46632471 31.36391173 -24.49356135 29.6656359 -24.52832031 27.9675293 C-24.57719665 25.51724335 -24.59961122 23.06787435 -24.6171875 20.6171875 C-24.63783264 19.86586044 -24.65847778 19.11453339 -24.67974854 18.34043884 C-24.68234906 12.1411749 -22.8903377 7.96334617 -18.62890625 3.31640625 C-13.01561604 -1.02453818 -6.80966902 -2.87917585 0 0 Z " fill="#1F81A3" transform="translate(157.2265625,49.94140625)"/>
<path d="M0 0 C12.45554882 10.60046708 21.03484315 24.65856451 23.3203125 40.9375 C23.61875849 45.88184268 23.6508921 50.82162149 23.65625 55.7734375 C23.66269098 57.18445974 23.66942027 58.59548068 23.67642212 60.00650024 C23.68831312 62.94300438 23.69211065 65.8793915 23.69091797 68.81591797 C23.69071337 72.57538732 23.71819488 76.33411265 23.75246239 80.09340477 C23.77468826 82.99821427 23.77875712 85.90284198 23.77769852 88.80772781 C23.78005407 90.19440947 23.78887519 91.58109617 23.80436325 92.96769333 C23.82396431 94.90072622 23.81567781 96.83398105 23.80615234 98.76708984 C23.80900238 99.86499847 23.81185242 100.9629071 23.81478882 102.09408569 C23.20188943 105.6184747 22.10943064 106.76544515 19.3203125 108.9375 C16.3828125 109.9375 16.3828125 109.9375 13.3203125 109.9375 C11.6703125 108.6175 10.0203125 107.2975 8.3203125 105.9375 C8.3203125 96.3675 8.3203125 86.7975 8.3203125 76.9375 C-24.0196875 76.9375 -56.3596875 76.9375 -89.6796875 76.9375 C-89.6796875 86.1775 -89.6796875 95.4175 -89.6796875 104.9375 C-92.6796875 108.9375 -92.6796875 108.9375 -96.0546875 110 C-99.6796875 109.9375 -99.6796875 109.9375 -102.36914062 108.29467773 C-106.52424931 103.77314499 -105.3451217 96.88047209 -105.2734375 91.16015625 C-105.27172343 89.78836675 -105.27179509 88.41657398 -105.27355957 87.04478455 C-105.27190725 84.16715176 -105.25324803 81.29029872 -105.22167969 78.4128418 C-105.18233855 74.76521257 -105.17759567 71.1186192 -105.18514252 67.47081852 C-105.18825031 64.63330481 -105.1759533 61.79601395 -105.15901184 58.95855522 C-105.14876007 56.97264234 -105.1481372 54.986687 -105.14782715 53.00074768 C-104.92057701 35.23259188 -100.48543635 20.41116922 -88.6796875 6.9375 C-88.14730469 6.32261719 -87.61492187 5.70773438 -87.06640625 5.07421875 C-63.99902124 -19.75487585 -25.81078923 -19.86603019 0 0 Z " fill="#C4E1F1" transform="translate(394.6796875,179.0625)"/>
<path d="M0 0 C6.93 0 13.86 0 21 0 C21 10.12598156 21 10.12598156 20.62036133 13.80566406 C20.53621475 14.64234116 20.45206818 15.47901825 20.3653717 16.34104919 C20.27186935 17.22365921 20.178367 18.10626923 20.08203125 19.015625 C19.98454086 19.969496 19.88705048 20.923367 19.78660583 21.90614319 C19.46670664 25.02127985 19.13989797 28.13564321 18.8125 31.25 C18.58739461 33.41949729 18.36246205 35.58901252 18.13769531 37.75854492 C16.55727995 52.94841835 14.92112692 68.13235576 13.25 83.3125 C13.14354156 84.2857019 13.03708313 85.25890381 12.92739868 86.26159668 C12.62655235 89.00417681 12.32180178 91.7462917 12.015625 94.48828125 C11.9272789 95.29644791 11.8389328 96.10461456 11.74790955 96.93727112 C11.35796914 100.38955754 10.84468892 103.62124432 10 107 C-18.38 107 -46.76 107 -76 107 C-76 78.27027027 -76 78.27027027 -66 68 C-55.11484523 59.23823271 -43.83487761 58.52024184 -30.375 58.3125 C-28.87887768 58.27925644 -27.38278265 58.24476053 -25.88671875 58.20898438 C-22.25801284 58.12489603 -18.62923255 58.05771315 -15 58 C-14.84157623 57.33236633 -14.68315247 56.66473267 -14.51992798 55.97686768 C-12.87109944 49.0326365 -11.21539054 42.09007187 -9.55566406 35.1484375 C-8.93647465 32.55718056 -8.3201637 29.96528652 -7.70507812 27.37304688 C-6.82102585 23.6486202 -5.93067077 19.92574902 -5.0390625 16.203125 C-4.62800766 14.46231659 -4.62800766 14.46231659 -4.20864868 12.68634033 C-3.94852997 11.60552185 -3.68841125 10.52470337 -3.42041016 9.41113281 C-3.19390778 8.46071106 -2.9674054 7.51028931 -2.73403931 6.53106689 C-2 4 -2 4 0 0 Z " fill="#2D303B" transform="translate(166,365)"/>
<path d="M0 0 C12.45554882 10.60046708 21.03484315 24.65856451 23.3203125 40.9375 C23.61875849 45.88184268 23.6508921 50.82162149 23.65625 55.7734375 C23.66269098 57.18445974 23.66942027 58.59548068 23.67642212 60.00650024 C23.68831312 62.94300438 23.69211065 65.8793915 23.69091797 68.81591797 C23.69071337 72.57538732 23.71819488 76.33411265 23.75246239 80.09340477 C23.77468826 82.99821427 23.77875712 85.90284198 23.77769852 88.80772781 C23.78005407 90.19440947 23.78887519 91.58109617 23.80436325 92.96769333 C23.82396431 94.90072622 23.81567781 96.83398105 23.80615234 98.76708984 C23.80900238 99.86499847 23.81185242 100.9629071 23.81478882 102.09408569 C23.20188943 105.6184747 22.10943064 106.76544515 19.3203125 108.9375 C16.3828125 109.9375 16.3828125 109.9375 13.3203125 109.9375 C10.67089844 108.33164978 10.67089844 108.33164978 8.3203125 105.9375 C7.67675781 103.03834534 7.67675781 103.03834534 7.6484375 99.63110352 C7.61314941 97.71244225 7.61314941 97.71244225 7.57714844 95.75502014 C7.57563782 94.73233882 7.57563782 94.73233882 7.57409668 93.68899727 C7.57026123 91.53764643 7.53563317 89.38869159 7.49316406 87.23777771 C7.40824431 82.65869812 7.36166051 78.07965272 7.3203125 73.5 C7.27226984 68.21907842 7.2078162 62.93931328 7.10437012 57.65916252 C7.07123985 55.56259141 7.06660996 53.46729486 7.06347656 51.37049866 C6.81502007 37.56196531 2.51720315 26.29251762 -6.6796875 15.9375 C-9.19284193 13.6353738 -11.79096398 11.73856649 -14.6796875 9.9375 C-15.25460937 9.56109375 -15.82953125 9.1846875 -16.421875 8.796875 C-23.99455799 4.12065601 -31.62188299 2.36889671 -40.4296875 2.4375 C-41.30294678 2.44394531 -42.17620605 2.45039063 -43.07592773 2.45703125 C-56.35617512 2.82943188 -67.51996908 8.54726035 -76.7421875 18.06640625 C-86.65810738 30.01252525 -88.96310371 42.85729346 -88.98828125 57.921875 C-88.99939817 59.26850462 -89.01179523 60.61512423 -89.02540588 61.96173096 C-89.08047735 67.6454582 -89.11158832 73.32925022 -89.13598633 79.01318359 C-89.15186696 82.50443246 -89.18207349 85.99533003 -89.22075081 89.48639679 C-89.23801384 91.45389753 -89.23845536 93.42152266 -89.2386322 95.38909912 C-89.25197098 96.58424133 -89.26530975 97.77938354 -89.27905273 99.01074219 C-89.28412338 100.06138855 -89.28919403 101.11203491 -89.29441833 102.19451904 C-89.73627658 105.34039432 -90.45287719 106.69736756 -92.6796875 108.9375 C-96.0546875 110 -96.0546875 110 -99.6796875 109.9375 C-102.3598887 108.30032917 -103.26447099 107.64055175 -104.6796875 104.9375 C-105.42375557 100.34852931 -105.33157749 95.79965968 -105.2734375 91.16015625 C-105.27172343 89.78836675 -105.27179509 88.41657398 -105.27355957 87.04478455 C-105.27190725 84.16715176 -105.25324803 81.29029872 -105.22167969 78.4128418 C-105.18233855 74.76521257 -105.17759567 71.1186192 -105.18514252 67.47081852 C-105.18825031 64.63330481 -105.1759533 61.79601395 -105.15901184 58.95855522 C-105.14876007 56.97264234 -105.1481372 54.986687 -105.14782715 53.00074768 C-104.92057701 35.23259188 -100.48543635 20.41116922 -88.6796875 6.9375 C-88.14730469 6.32261719 -87.61492187 5.70773438 -87.06640625 5.07421875 C-63.99902124 -19.75487585 -25.81078923 -19.86603019 0 0 Z " fill="#FEFEFE" transform="translate(394.6796875,179.0625)"/>
<path d="M0 0 C18.43668269 -0.24065286 18.43668269 -0.24065286 26.31835938 -0.29296875 C31.68875869 -0.32878502 37.05854203 -0.37107382 42.4284668 -0.45263672 C46.75978259 -0.51800983 51.09043758 -0.5537436 55.42220879 -0.56926346 C57.07164343 -0.58031785 58.72104342 -0.60190541 60.37019539 -0.63438034 C74.91134383 -0.90923731 74.91134383 -0.90923731 79.50561523 2.78662109 C83.50393431 6.96098354 83.18371693 11.84036333 83.25 17.375 C83.27578125 18.66148438 83.3015625 19.94796875 83.328125 21.2734375 C82.91922123 25.91741602 81.3659156 29.01942238 78.75 32.8125 C76.03270022 34.65638199 73.2112217 34.69705456 70 35 C70.0928125 36.5778125 70.0928125 36.5778125 70.1875 38.1875 C70 43 70 43 67 56 C44.89 56 22.78 56 0 56 C0 37.52 0 19.04 0 0 Z " fill="#2C92BE" transform="translate(168,98)"/>
<path d="M0 0 C4.7210664 2.82026251 8.2794839 6.07068655 10.7734375 11.05859375 C10.88780242 14.00627992 10.94131136 16.93086523 10.95043945 19.87939453 C10.96029625 21.2504409 10.96029625 21.2504409 10.97035217 22.64918518 C10.99011456 25.68409299 11.00175623 28.71895118 11.01171875 31.75390625 C11.01579428 32.79018032 11.0198698 33.82645439 11.02406883 34.89413071 C11.0449452 40.38221793 11.05923838 45.87028006 11.06860352 51.35839844 C11.07965247 57.02103736 11.11403061 62.68328165 11.15377522 68.34578133 C11.17995801 72.70391558 11.188297 77.06195622 11.19188499 81.4201622 C11.19674907 83.5068922 11.20835791 85.59361807 11.22692299 87.68027115 C11.25134236 90.60763729 11.25034379 93.53398838 11.2434082 96.46142578 C11.25621826 97.31784164 11.26902832 98.17425751 11.28222656 99.05662537 C11.2328927 104.79334114 10.10454351 109.30852126 6.7734375 114.05859375 C0.72300954 118.87424049 -4.67093144 119.89679657 -12.2265625 119.05859375 C-17.10335772 116.66620364 -20.03611854 113.3429042 -23.2265625 109.05859375 C-24.54379795 105.10688739 -24.39063831 101.32087487 -24.40356445 97.20019531 C-24.41013565 96.29416565 -24.41670685 95.38813599 -24.42347717 94.45465088 C-24.4432059 91.45283933 -24.45487206 88.45107782 -24.46484375 85.44921875 C-24.46891928 84.42364616 -24.4729948 83.39807358 -24.47719383 82.34142303 C-24.49805309 76.91283876 -24.51235526 71.48427975 -24.52172852 66.05566406 C-24.53279059 60.45236717 -24.56718881 54.84946765 -24.60690022 49.24631119 C-24.63306239 44.93454252 -24.64142003 40.62286858 -24.64500999 36.31102753 C-24.64987722 34.24579943 -24.66149505 32.1805756 -24.68004799 30.11542511 C-24.70442982 27.22148779 -24.70347599 24.32857919 -24.6965332 21.43457031 C-24.70934326 20.58548096 -24.72215332 19.7363916 -24.73535156 18.86157227 C-24.67910796 12.41236023 -23.07679698 8.1666734 -18.62890625 3.31640625 C-13.01561604 -1.02453818 -6.80966902 -2.87917585 0 0 Z " fill="#3C3F4D" transform="translate(157.2265625,49.94140625)"/>
<path d="M0 0 C2.41919542 1.63664956 3.78717201 2.91465799 4.36209106 5.8465271 C4.5108862 8.18074035 4.5270734 10.485363 4.50390625 12.82421875 C4.51332748 13.68505569 4.52274872 14.54589264 4.53245544 15.43281555 C4.5611066 18.18461851 4.5641855 20.93556005 4.5625 23.6875 C4.56612306 26.42146222 4.57586373 29.15479344 4.60325623 31.8886261 C4.61986487 33.58710403 4.62306406 35.28578795 4.61024475 36.98429871 C4.6810545 45.08266561 6.6970688 52.72021306 12 59 C19.83592758 65.05826705 26.05616971 67.0537311 36 66 C42.80968123 63.88206567 48.24392964 60.10800226 52 54 C55.00289846 48.19643911 55.41582321 43.52887305 55.37109375 37.05078125 C55.38846222 35.13215955 55.40604673 33.21353979 55.42382812 31.29492188 C55.43392947 28.29285264 55.43748779 25.29090396 55.43579102 22.28881836 C55.43935422 19.37577689 55.4666539 16.46365869 55.49609375 13.55078125 C55.48791122 12.65281326 55.4797287 11.75484528 55.47129822 10.82966614 C55.54541101 4.64104317 55.54541101 4.64104317 57.81665039 1.43823242 C61.07949334 -0.71109194 63.18158832 -0.60290711 67 0 C69.65374377 1.97414412 71.65058233 3.55472633 72.45361328 6.87625122 C72.62882012 9.13220475 72.64072288 11.33535504 72.59375 13.59765625 C72.59379028 14.42776718 72.59383057 15.25787811 72.59387207 16.11314392 C72.588521 17.8690447 72.57095567 19.62494519 72.54199219 21.38061523 C72.50051036 24.02990497 72.50089782 26.67661525 72.5078125 29.32617188 C72.45028774 44.63560199 70.72263906 59.22814587 59.75 70.8125 C49.35276987 80.58796886 38.44275763 82.60958351 24.61328125 82.30859375 C13.47127207 81.76841588 5.04285955 75.63680446 -2.3125 67.5625 C-5.18179681 64.01760699 -7.2684243 60.21087727 -9 56 C-9.3407959 55.18362061 -9.6815918 54.36724121 -10.03271484 53.52612305 C-11.32748628 48.80618768 -11.32467071 44.36550741 -11.3359375 39.4921875 C-11.3425943 38.48914581 -11.3492511 37.48610413 -11.35610962 36.45266724 C-11.36620466 34.33971993 -11.37092762 32.22674093 -11.37060547 30.11376953 C-11.37499498 26.87870283 -11.41139313 23.64498334 -11.44921875 20.41015625 C-11.45508424 18.35417132 -11.45905542 16.29817993 -11.4609375 14.2421875 C-11.47530853 13.27546112 -11.48967957 12.30873474 -11.50448608 11.31271362 C-11.45907818 4.66168188 -11.45907818 4.66168188 -9.18994141 1.39111328 C-5.95654555 -0.66283205 -3.74478658 -0.53496951 0 0 Z " fill="#3E414D" transform="translate(233,363)"/>
<path d="M0 0 C1.08509857 -0.00394272 2.17019714 -0.00788544 3.28817749 -0.01194763 C6.87357808 -0.01865825 10.45770448 0.01050844 14.04296875 0.04077148 C16.5349096 0.04502175 19.0268544 0.04735018 21.51879883 0.0478363 C27.40963919 0.05479285 33.30001057 0.08542514 39.1907053 0.12618631 C45.21714508 0.1659882 51.24335538 0.1727013 57.26991272 0.1760416 C62.41544428 0.18046988 67.56089424 0.19577328 72.70639038 0.21491814 C75.17515389 0.22380014 77.64392611 0.23053024 80.11270142 0.23507881 C83.56226232 0.24411903 87.01147179 0.26650877 90.4609375 0.29296875 C91.99311417 0.29396576 91.99311417 0.29396576 93.5562439 0.29498291 C94.49827667 0.30495804 95.44030945 0.31493317 96.41088867 0.32521057 C97.22571213 0.32986108 98.04053558 0.33451159 98.88005066 0.33930302 C101.65736176 0.64659885 103.73583114 1.34294591 106.23046875 2.59936523 C108.57596549 6.11761035 108.81038278 7.45712218 108.23046875 11.59936523 C106.19306047 14.52772759 104.56545801 16.32793941 100.97996521 17.05693054 C98.09859448 17.23807129 95.25607402 17.25174555 92.36914062 17.21459961 C91.27428848 17.22014862 90.17943634 17.22569763 89.05140686 17.23141479 C85.43356517 17.24322224 81.8169728 17.21892281 78.19921875 17.19311523 C75.68485572 17.19140439 73.17049092 17.19146955 70.65612793 17.1932373 C65.38698172 17.19158343 60.11815783 17.17345436 54.84912109 17.14135742 C48.76360904 17.10446623 42.67856725 17.09568226 36.59295797 17.10265493 C30.73081625 17.1089676 24.86883882 17.09797787 19.00672913 17.07868958 C16.51563808 17.07165578 14.02453283 17.0685355 11.53343201 17.06938171 C8.05262556 17.06758504 4.57248779 17.04621299 1.09179688 17.01928711 C0.06099503 17.02221771 -0.96980682 17.02514832 -2.03184509 17.02816772 C-10.85380779 16.92281997 -10.85380779 16.92281997 -14.76953125 13.59936523 C-16.2138398 10.71074814 -16.14641631 8.80288822 -15.76953125 5.59936523 C-11.49250807 -0.55322911 -6.87149689 -0.0997931 0 0 Z " fill="#3F4250" transform="translate(371.76953125,108.400634765625)"/>
<path d="M0 0 C1.11581955 -0.00540298 2.2316391 -0.01080597 3.38127136 -0.01637268 C7.07411117 -0.02889234 10.76617632 -0.01234645 14.45898438 0.00561523 C17.02201376 0.00546032 19.58504339 0.00397265 22.14807129 0.00120544 C27.52151706 -0.00018001 32.89467652 0.01197097 38.26806641 0.03515625 C44.47796535 0.06176567 50.68749066 0.0635129 56.89742708 0.05176789 C62.87435759 0.04098367 68.85111705 0.04728309 74.82804871 0.06132317 C77.37020982 0.06584505 79.91238194 0.06616806 82.45454407 0.06225777 C86.00508282 0.05935311 89.5550075 0.07581786 93.10546875 0.09765625 C94.68747322 0.09090378 94.68747322 0.09090378 96.30143738 0.08401489 C97.75245598 0.09887184 97.75245598 0.09887184 99.23278809 0.11402893 C100.07195518 0.11645883 100.91112228 0.11888872 101.77571869 0.12139225 C104.58363479 0.5903822 105.96757996 1.59687864 108.05273438 3.50170898 C108.80273438 5.40405273 108.80273438 5.40405273 109.05273438 7.43920898 C109.15585937 8.10823242 109.25898438 8.77725586 109.36523438 9.46655273 C109.05273438 11.50170898 109.05273438 11.50170898 107.72314453 13.59655762 C103.4609134 16.63736221 99.12271008 16.05816559 94.01367188 16.01928711 C92.88809875 16.02629639 91.76252563 16.03330566 90.60284424 16.04052734 C86.87755759 16.05815058 83.15302892 16.04646844 79.42773438 16.03295898 C76.84228367 16.03565263 74.25683395 16.03953399 71.67138672 16.04455566 C66.25086905 16.05045663 60.83063692 16.04224911 55.41015625 16.02319336 C49.14566 16.00142461 42.88168448 16.00847613 36.61720085 16.03049898 C30.58792811 16.0508456 24.55890991 16.04868269 18.52960205 16.03697205 C15.9651075 16.03430023 13.40059969 16.0375904 10.83612061 16.04689026 C7.25431922 16.0570282 3.67352322 16.04159158 0.09179688 16.01928711 C-1.5042337 16.0314325 -1.5042337 16.0314325 -3.13250732 16.04382324 C-10.27355107 15.96127634 -10.27355107 15.96127634 -13.60595703 13.68811035 C-15.59337701 10.4485145 -15.47847016 8.2201407 -14.94726562 4.50170898 C-11.50243604 -1.09215888 -5.86255613 -0.05374101 0 0 Z " fill="#3C3F4D" transform="translate(370.947265625,72.498291015625)"/>
<path d="M0 0 C15.18 0 30.36 0 46 0 C46 14.63939029 44.29889017 24.95250571 34.5625 35.6875 C33.716875 36.450625 32.87125 37.21375 32 38 C31.071875 38.845625 30.14375 39.69125 29.1875 40.5625 C22.20724513 46.26872377 13.99987437 49.35999497 5 49 C3.39563908 40.11525928 2.28511994 31.23046922 1.375 22.25 C1.2409375 20.98800781 1.106875 19.72601563 0.96875 18.42578125 C0.84242188 17.19730469 0.71609375 15.96882813 0.5859375 14.703125 C0.4729834 13.60645508 0.3600293 12.50978516 0.24365234 11.37988281 C-0.02915713 7.59553971 0 3.79416364 0 0 Z " fill="#3E414E" transform="translate(465,316)"/>
<path d="M0 0 C0.33 0 0.66 0 1 0 C1 11.55 1 23.1 1 35 C23.77 35 46.54 35 70 35 C70 43 70 43 67 56 C44.89 56 22.78 56 0 56 C0 37.52 0 19.04 0 0 Z " fill="#2080A2" transform="translate(168,98)"/>
<path d="M0 0 C24.09 0 48.18 0 73 0 C73 11.55 73 23.1 73 35 C65.513125 35.12375 65.513125 35.12375 57.875 35.25 C56.31120605 35.28641602 54.74741211 35.32283203 53.13623047 35.36035156 C51.2705542 35.37533691 51.2705542 35.37533691 49.3671875 35.390625 C48.09987793 35.41157227 46.83256836 35.43251953 45.52685547 35.45410156 C41.34642901 34.91584923 39.24910357 33.63762669 36 31 C33.10259983 26.65389975 33.63190956 22.73807569 33.625 17.625 C33.60050781 16.67882812 33.57601562 15.73265625 33.55078125 14.7578125 C33.54498047 13.38109375 33.54498047 13.38109375 33.5390625 11.9765625 C33.53084473 11.14205566 33.52262695 10.30754883 33.51416016 9.44775391 C34 7 34 7 38 2 C25.46 1.67 12.92 1.34 0 1 C0 0.67 0 0.34 0 0 Z " fill="#2C92BE" transform="translate(59,98)"/>
<path d="M0 0 C4.29 0 8.58 0 13 0 C12.43611654 12.1531725 11.50416111 24.2346303 10.27050781 36.33789062 C9.99463297 39.05281776 9.7274831 41.76851762 9.4609375 44.484375 C9.2869677 46.21880117 9.11250807 47.95317829 8.9375 49.6875 C8.81870483 50.89974243 8.81870483 50.89974243 8.69750977 52.13647461 C8.11503321 57.76993358 8.11503321 57.76993358 7 60 C-73.19 60 -153.38 60 -236 60 C-236 59.67 -236 59.34 -236 59 C-160.1 59 -84.2 59 -6 59 C-5.67 52.4 -5.34 45.8 -5 39 C-4.4627326 33.5735993 -3.91959741 28.16837114 -3.27050781 22.75732422 C-2.99334709 20.44448301 -2.72649352 18.13060625 -2.4609375 15.81640625 C-2.28703427 14.32545354 -2.11257765 12.83456525 -1.9375 11.34375 C-1.81870483 10.32045593 -1.81870483 10.32045593 -1.69750977 9.27648926 C-1.31271938 6.08975463 -0.78118457 3.12473827 0 0 Z " fill="#84ABBE" transform="translate(236,256)"/>
<path d="M0 0 C0.80232056 -0.00004028 1.60464111 -0.00008057 2.43127441 -0.00012207 C4.12239443 0.00522359 5.8135146 0.02276578 7.50439453 0.05175781 C10.08573724 0.09362006 12.66446867 0.09282315 15.24609375 0.0859375 C16.89324721 0.09643096 18.54038728 0.10936992 20.1875 0.125 C21.3392572 0.12530212 21.3392572 0.12530212 22.51428223 0.12561035 C28.28671166 0.25243107 31.54730595 1.54730595 35.59375 5.59375 C36.03125 8.40625 36.03125 8.40625 35.59375 11.59375 C33.59885067 14.30052728 31.99579787 16.26018034 28.6232605 17.06256104 C26.23389673 17.25557214 23.89311398 17.28681168 21.49609375 17.2578125 C20.62481339 17.26259613 19.75353302 17.26737976 18.85585022 17.27230835 C17.01936023 17.27570193 15.18280938 17.26653739 13.34643555 17.24560547 C10.53622947 17.2187975 7.73000527 17.24538584 4.91992188 17.27734375 C3.13280369 17.27404019 1.34568799 17.26763505 -0.44140625 17.2578125 C-1.69933739 17.27299423 -1.69933739 17.27299423 -2.98268127 17.28848267 C-7.14394374 17.20487007 -8.7903585 17.16789927 -11.93139648 14.23974609 C-13.76089158 10.95749683 -14.10010917 9.29433224 -13.40625 5.59375 C-9.52279321 0.47241777 -6.12148696 -0.13070905 0 0 Z " fill="#FD4D25" transform="translate(301.40625,108.40625)"/>
<path d="M0 0 C0.87032364 -0.00619858 1.74064728 -0.01239716 2.63734436 -0.01878357 C4.47558475 -0.02587832 6.31388943 -0.02271369 8.15209961 -0.01000977 C10.96002943 0.00384395 13.7646179 -0.03020195 16.57226562 -0.06835938 C18.3606779 -0.06931074 20.14909433 -0.06745083 21.9375 -0.0625 C23.19239479 -0.08238731 23.19239479 -0.08238731 24.47264099 -0.10267639 C28.80237831 -0.033772 30.5337285 0.17829915 34.06860352 2.91430664 C36.03515625 5.56640625 36.03515625 5.56640625 36.59765625 8.62890625 C35.88028633 12.37517137 35.11885922 13.32177388 32.03515625 15.56640625 C28.96386049 16.16410181 25.93742618 16.12691718 22.81640625 16.09765625 C21.47406921 16.10339661 21.47406921 16.10339661 20.10461426 16.10925293 C18.21507643 16.11197145 16.32550093 16.10461441 14.43603516 16.08789062 C11.54504435 16.06647948 8.65653858 16.08769359 5.765625 16.11328125 C3.92837994 16.11063796 2.09113642 16.10551296 0.25390625 16.09765625 C-1.04154114 16.10980164 -1.04154114 16.10980164 -2.36315918 16.12219238 C-8.31564769 16.02926361 -8.31564769 16.02926361 -11.50976562 13.75195312 C-13.6527885 10.53310401 -13.50421237 8.34198658 -12.96484375 4.56640625 C-9.58437919 -0.45126919 -5.53296621 -0.03272372 0 0 Z " fill="#FE4A21" transform="translate(300.96484375,72.43359375)"/>
<path d="M0 0 C4.95 0 9.9 0 15 0 C14.85811015 2.54194161 14.71160845 5.08347993 14.5625 7.625 C14.52318359 8.33785156 14.48386719 9.05070312 14.44335938 9.78515625 C14.40146484 10.48769531 14.35957031 11.19023437 14.31640625 11.9140625 C14.27974854 12.5529541 14.24309082 13.1918457 14.20532227 13.85009766 C13.94424127 16.58384235 13.45146977 19.29118137 13 22 C8.05 22 3.1 22 -2 22 C-1.54045426 14.58161876 -1.05151579 7.36061051 0 0 Z " fill="#2E303B" transform="translate(228,316)"/>
</svg>
