<?xml version="1.0" encoding="UTF-8"?>
<svg version="1.1" xmlns="http://www.w3.org/2000/svg" width="512" height="512">
<path d="M0 0 C0.90195602 -0.00701431 1.80391205 -0.01402863 2.73320007 -0.02125549 C5.63208047 -0.03868232 8.53075663 -0.04510887 11.4296875 -0.046875 C12.41955658 -0.04754974 13.40942566 -0.04822449 14.42929077 -0.04891968 C28.9391862 -0.03318338 43.02662729 0.4161495 57.3046875 3.203125 C58.65022705 3.44458252 58.65022705 3.44458252 60.02294922 3.69091797 C108.71061874 12.50090649 153.73474658 35.94419047 189.3046875 70.203125 C190.2937207 71.15131104 190.2937207 71.15131104 191.30273438 72.11865234 C200.79099055 81.26309979 209.5308919 90.56046509 217.3046875 101.203125 C218.16274902 102.35417517 219.02082201 103.50521677 219.87890625 104.65625 C225.91646146 112.84588481 231.29926052 121.34850776 236.3046875 130.203125 C236.706875 130.91033691 237.1090625 131.61754883 237.5234375 132.34619141 C250.53993849 155.46573437 259.2732395 180.61482253 264.6171875 206.578125 C264.76454346 207.28864014 264.91189941 207.99915527 265.0637207 208.73120117 C268.06338625 224.44298187 268.71153251 240.18779204 268.6796875 256.140625 C268.67947601 257.12458252 268.67926453 258.10854004 268.67904663 259.12231445 C268.64479216 275.14756434 267.62469384 290.48151735 264.3046875 306.203125 C264.12276855 307.11239746 263.94084961 308.02166992 263.75341797 308.95849609 C255.47869771 349.75530724 237.09111992 388.18353786 210.19140625 419.9609375 C209.04918264 421.31836266 207.93721109 422.70321687 206.88671875 424.1328125 C203.8887037 428.18837979 201.25754899 429.4071294 196.3046875 430.203125 C195.51835937 429.96980469 194.73203125 429.73648437 193.921875 429.49609375 C191.16782405 428.9268258 191.16782405 428.9268258 188.59375 430.7578125 C183.41348938 434.78774601 183.41348938 434.78774601 181.12890625 440.52734375 C181.45674252 442.0301452 181.79148015 443.53145634 182.1328125 445.03125 C182.36059163 447.90954992 181.68239751 448.79703498 179.8671875 451.015625 C149.8842965 480.88024029 105.74297757 498.56595143 65.1796875 507.453125 C64.06037842 507.6996582 62.94106934 507.94619141 61.7878418 508.20019531 C45.38663393 511.64055893 29.39306029 512.58090393 12.6796875 512.515625 C11.22485458 512.51289078 11.22485458 512.51289078 9.7406311 512.51010132 C-4.61087305 512.46470809 -18.57474168 511.9593597 -32.6953125 509.203125 C-33.59233887 509.04215332 -34.48936523 508.88118164 -35.41357422 508.71533203 C-84.10124374 499.90534351 -129.12537158 476.46205953 -164.6953125 442.203125 C-165.35466797 441.57100098 -166.01402344 440.93887695 -166.69335938 440.28759766 C-176.18161555 431.14315021 -184.9215169 421.84578491 -192.6953125 411.203125 C-193.55337402 410.05207483 -194.41144701 408.90103323 -195.26953125 407.75 C-201.30708646 399.56036519 -206.68988552 391.05774224 -211.6953125 382.203125 C-212.0975 381.49591309 -212.4996875 380.78870117 -212.9140625 380.06005859 C-225.93056349 356.94051563 -234.6638645 331.79142747 -240.0078125 305.828125 C-240.22884644 304.76235229 -240.22884644 304.76235229 -240.4543457 303.67504883 C-243.44075267 288.03271449 -244.07012204 272.39636407 -244.0078125 256.515625 C-244.00598969 255.54823395 -244.00416687 254.5808429 -244.00228882 253.58413696 C-243.95686076 239.25121523 -243.44797322 225.30538583 -240.6953125 211.203125 C-240.45385498 209.85758545 -240.45385498 209.85758545 -240.20751953 208.48486328 C-231.27504984 159.12031176 -207.38430237 114.18806997 -172.6953125 78.203125 C-171.91148193 77.37445923 -171.91148193 77.37445923 -171.11181641 76.52905273 C-167.66044279 72.95164282 -165.76783301 71.30880251 -160.6953125 71.203125 C-159.7671875 71.5125 -158.8390625 71.821875 -157.8828125 72.140625 C-153.08038393 72.23479027 -150.85400403 69.75107759 -147.4765625 66.53125 C-144.69368924 62.89398583 -145.25571558 60.67236036 -145.6953125 56.203125 C-143.51530138 50.80670403 -138.98648173 48.24059338 -134.3203125 45.140625 C-133.48250244 44.57770752 -132.64469238 44.01479004 -131.78149414 43.43481445 C-116.83290119 33.52952052 -101.33606966 24.90539882 -84.6953125 18.203125 C-83.9513623 17.90067871 -83.20741211 17.59823242 -82.44091797 17.28662109 C-56.58208607 6.90655049 -27.95286844 0.14575917 0 0 Z " fill="#A4EA77" transform="translate(243.6953125,-0.203125)"/>
<path d="M0 0 C0.90195602 -0.00701431 1.80391205 -0.01402863 2.73320007 -0.02125549 C5.63208047 -0.03868232 8.53075663 -0.04510887 11.4296875 -0.046875 C12.41955658 -0.04754974 13.40942566 -0.04822449 14.42929077 -0.04891968 C28.9391862 -0.03318338 43.02662729 0.4161495 57.3046875 3.203125 C58.65022705 3.44458252 58.65022705 3.44458252 60.02294922 3.69091797 C108.71061874 12.50090649 153.73474658 35.94419047 189.3046875 70.203125 C190.2937207 71.15131104 190.2937207 71.15131104 191.30273438 72.11865234 C200.79099055 81.26309979 209.5308919 90.56046509 217.3046875 101.203125 C218.16274902 102.35417517 219.02082201 103.50521677 219.87890625 104.65625 C225.91646146 112.84588481 231.29926052 121.34850776 236.3046875 130.203125 C236.706875 130.91033691 237.1090625 131.61754883 237.5234375 132.34619141 C250.53993849 155.46573437 259.2732395 180.61482253 264.6171875 206.578125 C264.76454346 207.28864014 264.91189941 207.99915527 265.0637207 208.73120117 C268.06338625 224.44298187 268.71153251 240.18779204 268.6796875 256.140625 C268.67947601 257.12458252 268.67926453 258.10854004 268.67904663 259.12231445 C268.64479216 275.14756434 267.62469384 290.48151735 264.3046875 306.203125 C264.12276855 307.11239746 263.94084961 308.02166992 263.75341797 308.95849609 C255.47869771 349.75530724 237.09111992 388.18353786 210.19140625 419.9609375 C209.04918264 421.31836266 207.93721109 422.70321687 206.88671875 424.1328125 C204.72094399 427.06256606 203.20040917 428.24781571 199.8046875 429.703125 C196.06524803 430.23733064 194.48126521 430.19983099 191.3046875 428.203125 C188.66923774 424.81468959 188.84757855 421.34673297 189.3046875 417.203125 C190.98424565 414.39978698 193.16220748 412.10341658 195.3671875 409.703125 C208.79594721 394.23206035 219.40056809 376.6114058 228.3046875 358.203125 C228.6234082 357.55424316 228.94212891 356.90536133 229.27050781 356.23681641 C238.88026624 336.43907659 244.65163256 314.83233586 248.3046875 293.203125 C248.43601074 292.4296875 248.56733398 291.65625 248.70263672 290.859375 C252.73240665 265.53908147 251.05418361 238.40959153 247.3046875 213.203125 C247.20317383 212.48286133 247.10166016 211.76259766 246.99707031 211.02050781 C244.0153616 190.62980504 236.4484427 170.56604782 227.3046875 152.203125 C226.90491699 151.39262695 226.50514648 150.58212891 226.09326172 149.74707031 C210.93930377 119.27071027 189.18821224 91.21639468 162.3046875 70.203125 C161.36753906 69.43742187 160.43039062 68.67171875 159.46484375 67.8828125 C125.31982546 40.54922 83.53682085 24.22047825 40.3046875 19.203125 C39.13329224 19.06608154 39.13329224 19.06608154 37.93823242 18.92626953 C-1.04873429 14.68606677 -37.0072915 27.60211002 -68.6953125 50.203125 C-70.1106278 51.17124938 -71.5273951 52.13725319 -72.9453125 53.1015625 C-81.04555833 58.65644457 -88.55004838 64.44158803 -95.6953125 71.203125 C-96.96157281 72.29180002 -98.23232001 73.37528114 -99.5078125 74.453125 C-109.51322864 83.22803633 -118.38365954 92.73694818 -126.34375 103.39404297 C-127.72025911 105.23651633 -129.11352318 107.06548943 -130.5078125 108.89453125 C-136.86985444 117.31850922 -142.5156517 126.00790162 -147.6953125 135.203125 C-148.06897949 135.86006348 -148.44264648 136.51700195 -148.82763672 137.19384766 C-169.12264374 173.15365754 -179.20499509 214.14883698 -179.0078125 255.328125 C-179.00507828 256.52819183 -179.00507828 256.52819183 -179.00228882 257.75250244 C-178.95023274 271.41493276 -178.12118664 284.73434413 -175.6953125 298.203125 C-175.53434082 299.12593262 -175.37336914 300.04874023 -175.20751953 300.99951172 C-167.27807001 345.06470431 -147.36015556 385.77519642 -117.6953125 419.203125 C-117.10878906 419.89921875 -116.52226563 420.5953125 -115.91796875 421.3125 C-90.32498156 451.59857775 -54.51799521 474.8268563 -17.3737793 488.23608398 C-15.35124927 488.96630378 -13.3416871 489.73258188 -11.33911133 490.51586914 C-1.90951073 494.00251179 6.60991315 494.97453588 16.6171875 494.765625 C17.34914337 494.75792084 18.08109924 494.75021667 18.8352356 494.74227905 C39.49633001 494.51549833 59.54614089 491.22124899 79.3046875 485.203125 C80.12710937 484.95723633 80.94953125 484.71134766 81.796875 484.45800781 C112.93579664 475.02878268 140.35491233 459.63939162 165.609375 439.3203125 C169.46005543 436.29557512 171.40736641 435.81902139 176.3046875 436.203125 C180.93704044 438.46783088 180.93704044 438.46783088 182.3046875 441.203125 C182.87419132 444.19302004 182.83870119 446.26860104 181.3046875 448.953125 C155.48607929 481.22638526 103.86155237 498.97816041 65.1796875 507.453125 C64.06037842 507.6996582 62.94106934 507.94619141 61.7878418 508.20019531 C45.38663393 511.64055893 29.39306029 512.58090393 12.6796875 512.515625 C11.22485458 512.51289078 11.22485458 512.51289078 9.7406311 512.51010132 C-4.61087305 512.46470809 -18.57474168 511.9593597 -32.6953125 509.203125 C-33.59233887 509.04215332 -34.48936523 508.88118164 -35.41357422 508.71533203 C-84.10124374 499.90534351 -129.12537158 476.46205953 -164.6953125 442.203125 C-165.35466797 441.57100098 -166.01402344 440.93887695 -166.69335938 440.28759766 C-176.18161555 431.14315021 -184.9215169 421.84578491 -192.6953125 411.203125 C-193.55337402 410.05207483 -194.41144701 408.90103323 -195.26953125 407.75 C-201.30708646 399.56036519 -206.68988552 391.05774224 -211.6953125 382.203125 C-212.0975 381.49591309 -212.4996875 380.78870117 -212.9140625 380.06005859 C-225.93056349 356.94051563 -234.6638645 331.79142747 -240.0078125 305.828125 C-240.22884644 304.76235229 -240.22884644 304.76235229 -240.4543457 303.67504883 C-243.44075267 288.03271449 -244.07012204 272.39636407 -244.0078125 256.515625 C-244.00598969 255.54823395 -244.00416687 254.5808429 -244.00228882 253.58413696 C-243.95686076 239.25121523 -243.44797322 225.30538583 -240.6953125 211.203125 C-240.45385498 209.85758545 -240.45385498 209.85758545 -240.20751953 208.48486328 C-231.27504984 159.12031176 -207.38430237 114.18806997 -172.6953125 78.203125 C-171.91148193 77.37445923 -171.91148193 77.37445923 -171.11181641 76.52905273 C-167.66044279 72.95164282 -165.76783301 71.30880251 -160.6953125 71.203125 C-159.7671875 71.5125 -158.8390625 71.821875 -157.8828125 72.140625 C-153.08038393 72.23479027 -150.85400403 69.75107759 -147.4765625 66.53125 C-144.69368924 62.89398583 -145.25571558 60.67236036 -145.6953125 56.203125 C-143.51530138 50.80670403 -138.98648173 48.24059338 -134.3203125 45.140625 C-133.48250244 44.57770752 -132.64469238 44.01479004 -131.78149414 43.43481445 C-116.83290119 33.52952052 -101.33606966 24.90539882 -84.6953125 18.203125 C-83.9513623 17.90067871 -83.20741211 17.59823242 -82.44091797 17.28662109 C-56.58208607 6.90655049 -27.95286844 0.14575917 0 0 Z " fill="#94D36B" transform="translate(243.6953125,-0.203125)"/>
<path d="M0 0 C0.00546844 0.85111359 0.00546844 0.85111359 0.01104736 1.71942139 C0.05285446 7.62456232 0.12218686 13.5289247 0.20751953 19.43359375 C0.2357471 21.63729059 0.2569527 23.841089 0.27099609 26.04492188 C0.29240047 29.21276932 0.33903898 32.37939308 0.390625 35.546875 C0.39246796 37.02519806 0.39246796 37.02519806 0.39434814 38.53338623 C0.41406677 39.4540387 0.4337854 40.37469116 0.45410156 41.32324219 C0.46298401 42.1315448 0.47186646 42.93984741 0.48101807 43.77264404 C1.23962247 47.02840679 2.24198931 48.09524929 5 50 C7.96538666 50.59202535 10.88323385 50.56383522 13.89941406 50.54589844 C14.79732666 50.55623611 15.69523926 50.56657379 16.62036133 50.57722473 C19.58563122 50.60670149 22.55021998 50.60815294 25.515625 50.609375 C27.57258408 50.62435334 29.62953113 50.64107975 31.6864624 50.65948486 C37.09843491 50.7032093 42.51024519 50.72316883 47.92236328 50.73822021 C54.41696707 50.76121102 60.91139149 50.81364646 67.40585327 50.86116028 C77.27061576 50.93002774 87.1348628 50.96143418 97 51 C97 72.78 97 94.56 97 117 C90.40515625 117.02578125 83.8103125 117.0515625 77.015625 117.078125 C72.84110675 117.1032874 68.66666139 117.12961558 64.4921875 117.16015625 C57.86425484 117.20853509 51.23649084 117.25256302 44.60839844 117.27099609 C39.26547126 117.28612482 33.92298485 117.32050307 28.5802536 117.36830902 C26.54052305 117.38316191 24.50072958 117.39104324 22.46094513 117.39188385 C19.60662173 117.3942435 16.75352641 117.42124214 13.89941406 117.45410156 C13.05352722 117.4490712 12.20764038 117.44404083 11.33612061 117.43885803 C7.60583347 117.505429 5.60456427 117.58247289 2.47790527 119.74182129 C0.80216496 122.30228384 0.48747307 123.63995032 0.45410156 126.67675781 C0.43438293 127.59741028 0.41466431 128.51806274 0.39434814 129.46661377 C0.39311951 130.45216248 0.39189087 131.43771118 0.390625 132.453125 C0.37408875 133.46848328 0.35755249 134.48384155 0.34051514 135.52996826 C0.2919661 138.77003995 0.2706484 142.00964205 0.25 145.25 C0.22184617 147.44794038 0.19191958 149.64585882 0.16015625 151.84375 C0.08620557 157.22908122 0.0346035 162.61428 0 168 C-3.76723044 166.58825289 -7.17394666 164.86458812 -10.6640625 162.8671875 C-11.77217285 162.23417725 -12.8802832 161.60116699 -14.02197266 160.94897461 C-15.22309985 160.25785491 -16.4241057 159.5665243 -17.625 158.875 C-18.87936865 158.1556352 -20.13376362 157.4363163 -21.38818359 156.71704102 C-30.97234313 151.21111605 -40.48690865 145.59207114 -49.98413086 139.9375 C-58.76043431 134.71705205 -67.58957214 129.5939135 -76.44189453 124.50366211 C-84.62319435 119.79882653 -92.77940588 115.05256897 -100.92651367 110.28881836 C-106.27496456 107.16442314 -111.63136826 104.05443472 -117 100.96484375 C-117.58587891 100.62756256 -118.17175781 100.29028137 -118.77539062 99.94277954 C-121.6068348 98.31319993 -124.4393741 96.68556772 -127.2734375 95.06054688 C-132.92200325 91.81297727 -138.5015181 88.49602996 -144 85 C-142.73707574 81.21122721 -141.65511028 80.96710351 -138.20703125 79.1015625 C-137.19568115 78.54662109 -136.18433105 77.99167969 -135.14233398 77.41992188 C-134.04348877 76.82759766 -132.94464355 76.23527344 -131.8125 75.625 C-129.50663251 74.35891753 -127.20196555 73.0906464 -124.8984375 71.8203125 C-124.31454758 71.49923523 -123.73065765 71.17815796 -123.1290741 70.84735107 C-117.66807755 67.83698735 -112.29371208 64.69207605 -106.9375 61.5 C-105.13155182 60.42571164 -103.32556192 59.35149342 -101.51953125 58.27734375 C-100.61799316 57.74093262 -99.71645508 57.20452148 -98.78759766 56.65185547 C-93.91442875 53.76414652 -89.01968319 50.91354109 -84.125 48.0625 C-83.12718506 47.48113281 -82.12937012 46.89976562 -81.10131836 46.30078125 C-79.07839015 45.1223828 -77.05535931 43.94416053 -75.03222656 42.76611328 C-70.01994192 39.8467198 -65.01005714 36.92321397 -60 34 C-53.97776564 30.48621181 -47.95501602 26.97332418 -41.9296875 23.46484375 C-39.91144859 22.28907923 -37.89321936 21.11329808 -35.875 19.9375 C-34.40619385 19.08260986 -34.40619385 19.08260986 -32.90771484 18.21044922 C-27.81424128 15.24157114 -22.73423569 12.25213352 -17.671875 9.23046875 C-16.14844482 8.32276733 -16.14844482 8.32276733 -14.59423828 7.39672852 C-12.65281649 6.23829258 -10.71358908 5.07616907 -8.77685547 3.90991211 C-7.91463379 3.39565674 -7.05241211 2.88140137 -6.1640625 2.3515625 C-5.40561035 1.89604004 -4.6471582 1.44051758 -3.86572266 0.97119141 C-2 0 -2 0 0 0 Z " fill="#FDFDFD" transform="translate(281,172)"/>
<path d="M0 0 C2.61273988 1.30636994 2.97236124 2.28409758 4 5 C4.5625 7.75 4.5625 7.75 4 11 C1.97941022 13.95616832 -0.51123211 16.43554507 -3 19 C-10.15989386 26.64997006 -16.85488544 34.51485837 -23 43 C-23.45600586 43.62664551 -23.91201172 44.25329102 -24.38183594 44.89892578 C-38.41721308 64.42996707 -49.40573023 86.19338419 -57 109 C-57.24540527 109.72799805 -57.49081055 110.45599609 -57.74365234 111.20605469 C-60.49574643 119.51376015 -62.51339697 127.91276234 -64.1875 136.5 C-64.34250977 137.29341797 -64.49751953 138.08683594 -64.65722656 138.90429688 C-67.35216235 153.57085372 -68.34913077 167.98917372 -68.25 182.875 C-68.24689819 183.70861053 -68.24379639 184.54222107 -68.24060059 185.40109253 C-68.1884491 197.36283826 -67.97583108 209.17683898 -66 221 C-65.86577637 221.83692383 -65.73155273 222.67384766 -65.59326172 223.53613281 C-63.65455001 235.36592409 -60.94482096 246.68732437 -57 258 C-56.76474609 258.70205566 -56.52949219 259.40411133 -56.28710938 260.12744141 C-47.09250514 287.51110773 -33.520731 312.82802075 -15 335 C-14.28094482 335.87132568 -14.28094482 335.87132568 -13.54736328 336.76025391 C-3.37367577 349.0605876 7.40312324 360.15376254 20 370 C20.93714844 370.76570313 21.87429687 371.53140625 22.83984375 372.3203125 C71.66221949 411.40334688 134.23935136 426.78346083 195.92675781 421.67480469 C209.88816276 420.12353747 223.57298016 417.08964646 237 413 C237.82242187 412.75411133 238.64484375 412.50822266 239.4921875 412.25488281 C270.63110914 402.82565768 298.05022483 387.43626662 323.3046875 367.1171875 C327.15536793 364.09245012 329.10267891 363.61589639 334 364 C338.63235294 366.26470588 338.63235294 366.26470588 340 369 C340.56950382 371.98989504 340.53401369 374.06547604 339 376.75 C313.18139179 409.02326026 261.55686487 426.77503541 222.875 435.25 C221.75569092 435.4965332 220.63638184 435.74306641 219.4831543 435.99707031 C203.08194643 439.43743393 187.08837279 440.37777893 170.375 440.3125 C168.92016708 440.30976578 168.92016708 440.30976578 167.4359436 440.30697632 C153.08443945 440.26158309 139.12057082 439.7562347 125 437 C124.10297363 436.83902832 123.20594727 436.67805664 122.28173828 436.51220703 C73.59406876 427.70221851 28.56994092 404.25893453 -7 370 C-7.65935547 369.36787598 -8.31871094 368.73575195 -8.99804688 368.08447266 C-18.48630305 358.94002521 -27.2262044 349.64265991 -35 339 C-35.85806152 337.84894983 -36.71613451 336.69790823 -37.57421875 335.546875 C-43.61177396 327.35724019 -48.99457302 318.85461724 -54 310 C-54.4021875 309.29278809 -54.804375 308.58557617 -55.21875 307.85693359 C-68.23525099 284.73739063 -76.968552 259.58830247 -82.3125 233.625 C-82.53353394 232.55922729 -82.53353394 232.55922729 -82.7590332 231.47192383 C-85.74544017 215.82958949 -86.37480954 200.19323907 -86.3125 184.3125 C-86.31067719 183.34510895 -86.30885437 182.3777179 -86.30697632 181.38101196 C-86.26154826 167.04809023 -85.75266072 153.10226083 -83 139 C-82.75854248 137.65446045 -82.75854248 137.65446045 -82.51220703 136.28173828 C-73.58026801 86.92011948 -49.69078272 41.98088689 -15 6 C-14.21616943 5.17242187 -14.21616943 5.17242187 -13.41650391 4.328125 C-8.7676523 -0.48547789 -6.51883004 -1.38698511 0 0 Z " fill="#010100" transform="translate(86,72)"/>
<path d="M0 0 C2.65356445 1.7902832 2.65356445 1.7902832 5 5 C5.69950126 8.95756516 5.58132435 12.85538377 5.48828125 16.86328125 C5.47766914 18.58396065 5.47766914 18.58396065 5.46684265 20.33940125 C5.43888813 23.99776838 5.37614286 27.65459663 5.3125 31.3125 C5.28741872 33.79489975 5.26460526 36.27732352 5.24414062 38.75976562 C5.18905778 44.84036746 5.10541898 50.92007378 5 57 C6.12895187 56.99333817 7.25790375 56.98667633 8.42106628 56.97981262 C19.05925086 56.91900322 29.69740018 56.87402813 40.33571911 56.84456348 C45.80502248 56.82890619 51.27418557 56.80766655 56.7434082 56.77368164 C62.02130322 56.74109077 67.29906328 56.72314746 72.57705116 56.71536827 C74.59089597 56.7098243 76.60473337 56.69899833 78.61852074 56.68280983 C81.43879547 56.66103935 84.2585122 56.65803294 87.07885742 56.65942383 C88.32826866 56.64324509 88.32826866 56.64324509 89.60292053 56.6267395 C95.42520671 56.65781932 98.78114764 57.78114764 103 62 C103.20920773 64.84002533 103.29363797 67.58332058 103.29052734 70.42529297 C103.29724457 71.2969812 103.30396179 72.16866943 103.31088257 73.06677246 C103.32993577 75.9586349 103.33379053 78.85026614 103.3359375 81.7421875 C103.34236067 83.74756975 103.34908866 85.75295105 103.35610962 87.7583313 C103.36810094 91.96667656 103.37178857 96.17493963 103.37060547 100.38330078 C103.37040225 105.77957437 103.39769927 111.17532147 103.43214989 116.57147026 C103.45437354 120.71500068 103.45844439 124.85840353 103.45738602 129.00198746 C103.45974902 130.99153584 103.46861168 132.98108736 103.48405075 134.97057724 C103.50361781 137.75273361 103.49790925 140.53374366 103.48583984 143.31591797 C103.49707886 144.13996124 103.50831787 144.96400452 103.51989746 145.8130188 C103.48018007 149.41066097 103.33432349 151.55004432 101.15713501 154.48025513 C96.79802549 157.5513352 92.41781779 157.1354014 87.3059082 157.11352539 C86.4178952 157.11367142 85.5298822 157.11381744 84.61495972 157.1139679 C81.67687546 157.11327068 78.73885444 157.10548718 75.80078125 157.09765625 C73.76482681 157.09579139 71.72887192 157.09436781 69.69291687 157.09336853 C64.33188643 157.08954869 58.97088303 157.07972292 53.60986328 157.06866455 C48.1403032 157.05843899 42.67073876 157.05386845 37.20117188 157.04882812 C26.46743603 157.03810021 15.73372026 157.02103015 5 157 C5.01110306 157.6403569 5.02220612 158.28071381 5.03364563 158.94047546 C5.14429503 165.6075546 5.2196908 172.27437278 5.2746582 178.94213867 C5.29979671 181.43020218 5.33391247 183.91819188 5.37719727 186.40600586 C5.4378743 189.98309541 5.46621734 193.55920835 5.48828125 197.13671875 C5.51408768 198.24834885 5.5398941 199.35997894 5.56648254 200.5052948 C5.56928538 208.22905351 5.56928538 208.22905351 2.63671875 212.20043945 C0 214 0 214 -2.67578125 214.65625 C-7.76471218 213.65161969 -11.75521677 211.12549985 -16.1875 208.5 C-17.18998779 207.91976074 -18.19247559 207.33952148 -19.2253418 206.74169922 C-22.49303336 204.84348645 -25.74778024 202.9245882 -29 201 C-30.63050293 200.03755371 -30.63050293 200.03755371 -32.29394531 199.05566406 C-36.77678748 196.40725332 -41.25646203 193.75364431 -45.73046875 191.09033203 C-54.59010376 185.8176397 -63.50308757 180.64359047 -72.44067383 175.50439453 C-80.63629226 170.79124745 -88.80657467 166.0362615 -96.96826172 161.26464844 C-104.23259583 157.02146819 -111.51951499 152.81869906 -118.8125 148.625 C-129.03665502 142.74225175 -139.20093979 136.76510419 -149.33325195 130.72607422 C-154.46973694 127.66798599 -159.61436338 124.63296529 -164.81640625 121.6875 C-165.6988501 121.18637695 -166.58129395 120.68525391 -167.49047852 120.16894531 C-169.10780172 119.2544709 -170.72911945 118.34700789 -172.35522461 117.44824219 C-178.97749025 113.70027352 -178.97749025 113.70027352 -181 110 C-181.5 107.0625 -181.5 107.0625 -181 104 C-177.8503027 100.43818949 -174.61008519 97.92793758 -170.51953125 95.5390625 C-169.4514624 94.91056396 -168.38339355 94.28206543 -167.28295898 93.63452148 C-166.12626431 92.96446518 -164.96944116 92.29463063 -163.8125 91.625 C-162.60260351 90.91733322 -161.39305529 90.20907069 -160.18383789 89.50024414 C-156.46225204 87.32247492 -152.73172493 85.16033395 -149 83 C-147.88141602 82.35111816 -146.76283203 81.70223633 -145.61035156 81.03369141 C-137.01020459 76.04808029 -128.39105017 71.09573761 -119.77050781 66.14550781 C-106.49438243 58.51845603 -93.27173104 50.81191238 -80.11230469 42.98510742 C-71.31079192 37.75770015 -62.4593796 32.6217422 -53.58496094 27.51928711 C-47.16201977 23.82604703 -40.7507196 20.11405695 -34.35375977 16.37597656 C-32.31493397 15.18472367 -30.27508775 13.99521519 -28.23413086 12.80761719 C-24.00660217 10.34752384 -19.78623554 7.88007472 -15.6015625 5.34765625 C-14.63814941 4.77325806 -14.63814941 4.77325806 -13.65527344 4.18725586 C-12.03322702 3.21941111 -10.41853764 2.23926335 -8.8046875 1.2578125 C-5.48603381 -0.23049737 -3.59299511 -0.61948192 0 0 Z M-17.6015625 25.5703125 C-18.55417969 26.12976563 -19.50679687 26.68921875 -20.48828125 27.265625 C-21.52339844 27.87921875 -22.55851563 28.4928125 -23.625 29.125 C-25.82545389 30.41938464 -28.0259766 31.7136523 -30.2265625 33.0078125 C-31.91894043 34.00603027 -31.91894043 34.00603027 -33.64550781 35.02441406 C-38.7539548 38.0329696 -43.87712393 41.01610477 -49 44 C-51.00008279 45.16652473 -53.0000825 46.33319192 -55 47.5 C-91 68.5 -91 68.5 -94.00048828 70.25024414 C-95.99890791 71.41601604 -97.99728037 72.5818688 -99.99560547 73.74780273 C-105.01939986 76.67882699 -110.04402632 79.60840684 -115.0703125 82.53515625 C-128.41068534 90.30560172 -141.71888885 98.12868591 -155 106 C-153.73707574 109.78877279 -152.65511028 110.03289649 -149.20703125 111.8984375 C-148.19568115 112.45337891 -147.18433105 113.00832031 -146.14233398 113.58007812 C-145.04348877 114.17240234 -143.94464355 114.76472656 -142.8125 115.375 C-140.50663251 116.64108247 -138.20196555 117.9093536 -135.8984375 119.1796875 C-135.02260262 119.66130341 -135.02260262 119.66130341 -134.1290741 120.15264893 C-128.66807755 123.16301265 -123.29371208 126.30792395 -117.9375 129.5 C-116.13155182 130.57428836 -114.32556192 131.64850658 -112.51953125 132.72265625 C-111.16722412 133.52727295 -111.16722412 133.52727295 -109.78759766 134.34814453 C-104.91442875 137.23585348 -100.01968319 140.08645891 -95.125 142.9375 C-94.12718506 143.51886719 -93.12937012 144.10023438 -92.10131836 144.69921875 C-90.07839015 145.8776172 -88.05535931 147.05583947 -86.03222656 148.23388672 C-80.02112611 151.73503814 -74.01331183 155.24182539 -68.00488281 158.74755859 C-62.98090187 161.67862339 -57.95613059 164.60831547 -52.9296875 167.53515625 C-50.91144859 168.71092077 -48.89321936 169.88670192 -46.875 171.0625 C-45.8957959 171.63242676 -44.9165918 172.20235352 -43.90771484 172.78955078 C-38.81424128 175.75842886 -33.73423569 178.74786648 -28.671875 181.76953125 C-27.14844482 182.67723267 -27.14844482 182.67723267 -25.59423828 183.60327148 C-23.65281649 184.76170742 -21.71358908 185.92383093 -19.77685547 187.09008789 C-18.91463379 187.60434326 -18.05241211 188.11859863 -17.1640625 188.6484375 C-16.40561035 189.10395996 -15.6471582 189.55948242 -14.86572266 190.02880859 C-13.05488739 191.15391093 -13.05488739 191.15391093 -11 191 C-10.99635437 190.43259094 -10.99270874 189.86518188 -10.98895264 189.28057861 C-10.94714554 183.37543768 -10.87781314 177.4710753 -10.79248047 171.56640625 C-10.7642529 169.36270941 -10.7430473 167.158911 -10.72900391 164.95507812 C-10.70759953 161.78723068 -10.66096102 158.62060692 -10.609375 155.453125 C-10.60814636 154.46757629 -10.60691772 153.48202759 -10.60565186 152.46661377 C-10.58593323 151.5459613 -10.5662146 150.62530884 -10.54589844 149.67675781 C-10.53701599 148.8684552 -10.52813354 148.06015259 -10.51898193 147.22735596 C-9.76037753 143.97159321 -8.75801069 142.90475071 -6 141 C-3.03461334 140.40797465 -0.11676615 140.43616478 2.89941406 140.45410156 C3.79732666 140.44376389 4.69523926 140.43342621 5.62036133 140.42277527 C8.58563122 140.39329851 11.55021998 140.39184706 14.515625 140.390625 C16.57258408 140.37564666 18.62953113 140.35892025 20.6864624 140.34051514 C26.09843491 140.2967907 31.51024519 140.27683117 36.92236328 140.26177979 C43.41696707 140.23878898 49.91139149 140.18635354 56.40585327 140.13883972 C66.27061576 140.06997226 76.1348628 140.03856582 86 140 C86 118.22 86 96.44 86 74 C79.40515625 73.97421875 72.8103125 73.9484375 66.015625 73.921875 C61.84110675 73.8967126 57.66666139 73.87038442 53.4921875 73.83984375 C46.86425484 73.79146491 40.23649084 73.74743698 33.60839844 73.72900391 C28.26547126 73.71387518 22.92298485 73.67949693 17.5802536 73.63169098 C15.54052305 73.61683809 13.50072958 73.60895676 11.46094513 73.60811615 C8.60662173 73.6057565 5.75352641 73.57875786 2.89941406 73.54589844 C1.6305838 73.55344398 1.6305838 73.55344398 0.33612061 73.56114197 C-3.39416653 73.494571 -5.39543573 73.41752711 -8.52209473 71.25817871 C-10.19783504 68.69771616 -10.51252693 67.36004968 -10.54589844 64.32324219 C-10.56561707 63.40258972 -10.58533569 62.48193726 -10.60565186 61.53338623 C-10.60749481 60.05506317 -10.60749481 60.05506317 -10.609375 58.546875 C-10.62591125 57.53151672 -10.64244751 56.51615845 -10.65948486 55.47003174 C-10.7080339 52.22996005 -10.7293516 48.99035795 -10.75 45.75 C-10.77815383 43.55205962 -10.80808042 41.35414118 -10.83984375 39.15625 C-10.91379443 33.77091878 -10.9653965 28.38572 -11 23 C-13.77617529 23 -15.21142926 24.15873008 -17.6015625 25.5703125 Z " fill="#030302" transform="translate(292,149)"/>
<path d="M0 0 C0.90195602 -0.00701431 1.80391205 -0.01402863 2.73320007 -0.02125549 C5.63208047 -0.03868232 8.53075663 -0.04510887 11.4296875 -0.046875 C12.41955658 -0.04754974 13.40942566 -0.04822449 14.42929077 -0.04891968 C28.9391862 -0.03318338 43.02662729 0.4161495 57.3046875 3.203125 C58.65022705 3.44458252 58.65022705 3.44458252 60.02294922 3.69091797 C108.71061874 12.50090649 153.73474658 35.94419047 189.3046875 70.203125 C190.2937207 71.15131104 190.2937207 71.15131104 191.30273438 72.11865234 C200.79099055 81.26309979 209.5308919 90.56046509 217.3046875 101.203125 C218.16274902 102.35417517 219.02082201 103.50521677 219.87890625 104.65625 C225.91646146 112.84588481 231.29926052 121.34850776 236.3046875 130.203125 C236.706875 130.91033691 237.1090625 131.61754883 237.5234375 132.34619141 C250.53993849 155.46573437 259.2732395 180.61482253 264.6171875 206.578125 C264.76454346 207.28864014 264.91189941 207.99915527 265.0637207 208.73120117 C268.06338625 224.44298187 268.71153251 240.18779204 268.6796875 256.140625 C268.67947601 257.12458252 268.67926453 258.10854004 268.67904663 259.12231445 C268.64479216 275.14756434 267.62469384 290.48151735 264.3046875 306.203125 C264.12276855 307.11239746 263.94084961 308.02166992 263.75341797 308.95849609 C255.47869771 349.75530724 237.09111992 388.18353786 210.19140625 419.9609375 C209.04918264 421.31836266 207.93721109 422.70321687 206.88671875 424.1328125 C204.72094399 427.06256606 203.20040917 428.24781571 199.8046875 429.703125 C196.06524803 430.23733064 194.48126521 430.19983099 191.3046875 428.203125 C188.66923774 424.81468959 188.84757855 421.34673297 189.3046875 417.203125 C190.98424565 414.39978698 193.16220748 412.10341658 195.3671875 409.703125 C208.79594721 394.23206035 219.40056809 376.6114058 228.3046875 358.203125 C228.6234082 357.55424316 228.94212891 356.90536133 229.27050781 356.23681641 C238.88026624 336.43907659 244.65163256 314.83233586 248.3046875 293.203125 C248.43601074 292.4296875 248.56733398 291.65625 248.70263672 290.859375 C252.73240665 265.53908147 251.05418361 238.40959153 247.3046875 213.203125 C247.20317383 212.48286133 247.10166016 211.76259766 246.99707031 211.02050781 C244.0153616 190.62980504 236.4484427 170.56604782 227.3046875 152.203125 C226.90491699 151.39262695 226.50514648 150.58212891 226.09326172 149.74707031 C210.93930377 119.27071027 189.18821224 91.21639468 162.3046875 70.203125 C161.36753906 69.43742187 160.43039062 68.67171875 159.46484375 67.8828125 C125.28990456 40.52526787 83.55214184 24.28044043 40.3046875 19.203125 C39.58756592 19.1095874 38.87044434 19.0160498 38.1315918 18.91967773 C3.65358625 14.84219463 -33.02885222 18.2959942 -65.6953125 30.203125 C-66.48260742 30.48349609 -67.26990234 30.76386719 -68.08105469 31.05273438 C-87.33295692 38.00459704 -106.51536909 47.35312385 -122.94921875 59.625 C-132.65722804 66.79609715 -132.65722804 66.79609715 -137.1953125 67.078125 C-141.5665152 65.98532433 -143.24168538 65.00228957 -145.6953125 61.203125 C-146.04301411 57.61020838 -146.13887871 56.33085179 -144.6953125 53.203125 C-142.07281686 50.3183798 -138.93958989 48.33670932 -135.6953125 46.203125 C-134.62925781 45.45289063 -133.56320313 44.70265625 -132.46484375 43.9296875 C-117.58582085 33.55278904 -101.54414269 24.91130668 -84.6953125 18.203125 C-83.98117188 17.9148584 -83.26703125 17.6265918 -82.53125 17.32958984 C-56.60529215 6.96936932 -28.0164684 0.14609081 0 0 Z " fill="#010100" transform="translate(243.6953125,-0.203125)"/>
</svg>
